<svg width="52" height="38" viewBox="0 0 52 38" fill="none" xmlns="http://www.w3.org/2000/svg">
<path d="M0.646447 33.6464C0.451184 33.8417 0.451184 34.1583 0.646447 34.3536L3.82843 37.5355C4.02369 37.7308 4.34027 37.7308 4.53553 37.5355C4.7308 37.3403 4.7308 37.0237 4.53553 36.8284L1.70711 34L4.53553 31.1716C4.7308 30.9763 4.7308 30.6597 4.53553 30.4645C4.34027 30.2692 4.02369 30.2692 3.82843 30.4645L0.646447 33.6464ZM50.5 0C50.5 13.9365 47.3543 22.2161 39.7392 27.0786C35.9046 29.527 30.8973 31.1366 24.4951 32.1309C18.094 33.1251 10.3294 33.5 1 33.5V34.5C10.3483 34.5 18.1725 34.1249 24.6485 33.1191C31.1233 32.1134 36.2813 30.473 40.2773 27.9214C48.3234 22.7839 51.5 14.0635 51.5 0H50.5Z" fill="#453E53"/>
</svg>
