<?xml version="1.0" encoding="utf-8"?>
<!-- Generator: Adobe Illustrator 24.2.1, SVG Export Plug-In . SVG Version: 6.00 Build 0)  -->
<svg version="1.1" xmlns="http://www.w3.org/2000/svg" xmlns:xlink="http://www.w3.org/1999/xlink" x="0px" y="0px"
	 viewBox="0 0 1000 1000" style="enable-background:new 0 0 1000 1000;" xml:space="preserve">
<style type="text/css">
	.st0{display:none;}
	.st1{display:inline;}
	.st2{fill:#DEEEEF;}
	.st3{fill:#2B8292;}
	.st4{fill:#2B8392;}
	.st5{fill:#CBE0E4;}
	.st6{fill:#C2DBDF;}
	.st7{fill:#B2D2D7;}
	.st8{fill:#84B7C0;}
	.st9{fill:#82B6BF;}
	.st10{fill:#D3E5E8;}
	.st11{fill:#E0EEF0;}
	.st12{fill:#78B0BA;}
	.st13{fill:#E5F0F2;}
	.st14{fill:#FBFCFC;}
	.st15{fill:#E4F0F2;}
	.st16{fill:#C5EAED;}
	.st17{fill:#D1ECEE;}
	.st18{fill:#87C0C8;}
	.st19{fill:#CFE9EB;}
	.st20{fill:#7AB6BF;}
	.st21{fill:#9ACED4;}
	.st22{fill:#D7EBEC;}
	.st23{fill:#CFECEE;}
	.st24{fill:#B0DADF;}
	.st25{fill:#D4EDEF;}
	.st26{fill:#6CAEB9;}
	.st27{fill:#6BAEB9;}
	.st28{fill:#63A9B4;}
	.st29{fill:#99CDD3;}
	.st30{fill:#C5E6E9;}
	.st31{fill:#C9E6E9;}
	.st32{fill:#D7EDEF;}
	.st33{fill:#D6EDEF;}
	.st34{fill:#2C8393;}
	.st35{fill:#2B8393;}
	.st36{fill:#D5ECEE;}
	.st37{fill:#2C8493;}
	.st38{fill:#D6ECEE;}
	.st39{fill:#D5EBEE;}
	.st40{fill:#D4EBED;}
	.st41{fill:#CBEAED;}
	.st42{fill:#CDE7EA;}
	.st43{fill:#D1EAEC;}
	.st44{fill:#C5E2E6;}
	.st45{fill:#D1E9EC;}
	.st46{fill:#B0D4DA;}
	.st47{fill:#70ADB8;}
	.st48{fill:#6DACB6;}
	.st49{fill:#D6ECEF;}
	.st50{fill:#D4ECEE;}
	.st51{fill:#CFE9EC;}
	.st52{fill:#D2EAED;}
	.st53{fill:#D1EAED;}
	.st54{fill:#CDE8EB;}
	.st55{fill:#D1EBED;}
	.st56{fill:#D0EAEC;}
	.st57{fill:#CEE9EC;}
	.st58{fill:#C0E6E9;}
	.st59{fill:#C4E9EC;}
	.st60{fill:#C6EBEE;}
	.st61{fill:#C6EAED;}
	.st62{fill:#B2D6DB;}
	.st63{fill:#C0E7EA;}
</style>
<g id="Layer_1" class="st0">
	<g class="st1">
		<path class="st2" d="M127.06,0.12c42.99,0,85.98,0,128.98,0c2.43,1.29,2.58,3.76,2.97,6.01c2.69,15.75,6.74,31.2,10.01,46.83
			c2.45,11.74,2.48,23.83,5.29,35.5c4.02,16.68,6.66,33.58,8.46,50.64c0.84,7.95,3.12,15.65,4.55,23.51
			c1.01,5.55,0.26,6.92-5.19,8.14c-7.13,1.59-14.21,3.62-21.55,4.07c-11.33,0.7-22.18,4.4-33.48,5.27
			c-6.13,0.47-12.25,1.04-18.34-0.25c-2.17-2.23,0.1-2.48,1.38-2.62c3.08-0.33,6.19-0.54,9.29,0.05c-4.51-1.09-9.12,0.25-13.7-1.03
			c-3-0.84-4,3.11-6.53,3.87c-18.43,4.71-37.21,4.79-56.04,4.42c-3.32-0.07-5.24-1.65-5.99-4.85c-0.92-3.9-2.17-7.69-4.01-11.26
			c-1.08-2.1-2.28-4.46-4.67-4.91c-4.75-0.89-5.42-4.33-5.8-8.09c-1.36-13.57-2.7-27.14-2.15-40.81c0.25-6.36-0.73-12.52-1.97-18.77
			c-2.26-11.33-1.5-22.94-0.76-34.33c1.19-18.4,3.02-36.8,6.9-54.9C125.19,4.34,125.38,1.96,127.06,0.12z"/>
		<path class="st2" d="M256.04,999.88c-42.66,0-85.32,0-127.98,0c-1.3-1.42-1-3.06-0.68-4.72c4.89-24.96,12.96-48.91,23.63-71.95
			c5.76-12.45,13.73-23.59,22.59-34.03c4.83-5.69,10.87-10.04,18.23-11.67c12.55-2.78,19.76,0.15,26.2,8.37
			c16.97,21.63,25.66,46.82,32.09,73.03c2.78,11.33,4.45,22.87,6.66,34.31C257.21,995.5,257.83,997.83,256.04,999.88z"/>
		<path class="st3" d="M127.06,0.12c-1.45,9.49-2.97,18.97-4.34,28.47c-2.95,20.43-6.17,41.24-3.15,61.53
			c3.25,21.82,0.77,43.81,4.73,65.4c0.42,2.3-1.41,7.51,4.75,5.61c1.31-0.41,2.14,1.38,2.94,2.4c3.59,4.56,5.5,9.89,6.45,15.49
			c0.54,3.19,1.63,4.13,5.07,4.23c19.02,0.52,37.86-0.93,56.57-4.29c2.66-1.36,5.33-2.07,8.01-0.05c12.85,0.31,25.49-0.77,38.14-3.5
			c11.18-2.41,22.73-3,33.94-5.55c6.9-1.57,6.7-1.45,5.47-8.46c-5.24-29.79-11.05-59.51-15.28-89.44
			c-3.43-24.27-9.89-47.83-14.31-71.84c8,0,16,0,24,0c1.21,11.61,4.55,22.79,7.2,34.09c3.58,15.27,3.8,31.02,6.98,46.23
			c5.48,26.25,5.38,53.17,10.76,79.38c0.23,1.12,0.65,2.21,0.97,3.31c0.31,0.38,0.56,0.84,0.94,1.11c6.96,4.85,7.35,6.56,3.14,13.84
			c-1.46,1.64-2.32,3.55-3.02,5.65c-1.64,4.89-4.28,6.1-9.16,4.32c-1.65-0.6-3.09-0.63-4.81-0.22
			c-28.33,6.73-56.9,11.66-86.15,11.48c-9.03-0.05-17.79,2.21-26.73,3c-8.98,0.79-17.93,0.75-26.9,0.76c-3.8,0-7.46,0.64-11.22,1.34
			c-6.49,1.2-12.73-1-17.99-5.3c-2.64-2-3.09-4.88-3.03-7.87c0.05-2.45-0.06-4.84-0.98-7.14c-5.44-24.38-9.31-48.96-8.67-74.04
			c0.13-5.08-1.84-9.8-2.23-14.73c-1.6-20.14-0.62-40.21,1.57-60.27c1.28-11.73,2.94-23.38,5.36-34.92
			C119.73,0.12,123.39,0.12,127.06,0.12z"/>
		<path class="st4" d="M256.04,999.88c-3.14-24.12-8.05-47.81-16.23-70.8c-5.23-14.72-12.27-28.32-21.74-40.75
			c-8.76-11.5-21.02-13.94-33.63-6.39c-4.62,2.77-8.43,6.44-11.87,10.56c-13.92,16.69-23.22,35.8-30.66,56.1
			c-6.13,16.74-10.43,33.86-13.84,51.27c-4,0-8,0-12,0c1.67-7.78,3.23-15.58,5.03-23.33c7.99-34.49,20.17-67.13,43.8-94.29
			c8.24-9.48,17.68-17.98,30.85-19.76c13.09-1.76,24.09,1.79,33.61,12.02c25,26.88,36.88,59.65,44.59,94.5
			c2.26,10.23,4.07,20.56,6.09,30.85C272.03,999.88,264.03,999.88,256.04,999.88z"/>
		<path class="st3" d="M778.88,486.91c-1.75,2.43-3.74,4.6-5.87,6.72c-2.67,2.66-5.29,2.47-7.31,0.19c-2.65-3-5.48-2.8-8.55-1.67
			c-22.02,8.09-44.47,4.6-66.71,1.92c-11.11-1.34-15.88-8.08-12.55-18.97c1.64-5.37,1.74-10.67,1.43-16.21
			c-0.35-6.46,0.19-12.98,0.36-19.47c0.59-21.99-2.33-43.97-0.64-65.93c1.39-18.01-0.68-35.93-0.17-53.91
			c0.86-30.61,2-61.25,4.51-91.73c1.69-20.53,10.38-39.04,26.36-53.18c6.26-5.53,13.98-6.67,21.95-6.58
			c4.33,0.05,8.47-0.26,12.76-1.47c6.3-1.77,16.93,4.29,20.79,11.3c2.26,4.1,4.87,7.92,7.48,11.79c8.2,12.13,9.56,26.07,10.08,40.12
			c0.8,21.62,0.75,43.3,2.18,64.88c1.15,17.32,1.08,34.61,0.93,51.91c-0.13,15.15-0.72,30.3-0.98,45.46
			c-0.17,10.03-2.54,19.81-3.34,29.74c-1.3,16.36-4.34,32.71-1.68,49.22c0.74,0.78,1.28,1.67,1.48,2.74
			C784.15,479.29,784.47,483.18,778.88,486.91z"/>
		<path class="st3" d="M574.85,685.12c7.31,13.49,11.48,28,12.84,43.17c1.19,13.26,1.32,26.61,2.06,39.91
			c1.85,33.23,4.1,66.45,5.54,99.7c0.91,20.96,2.6,41.83,4.77,62.68c0.55,5.3,1.51,10.16,5.66,14.31c4.23,4.24,3.22,7.55-2.01,10.51
			c-1.29,0.73-2.53,1.58-3.79,2.37c-3.85,4.04-8.22,5.81-13.74,3.53c-3.91-1.62-8.17-0.47-12.21-1.24
			c-2.36-0.07-4.74-0.22-6.99,0.75c-8.5,2.06-17,3.59-25.55,0.19c-2.45-0.98-4.11-2.81-5.34-4.96c-1.87-3.27-2.44-6.58,1.22-9.16
			c1.14-0.8,1.79-1.91,2.51-3.01c-2.62-20.03-0.92-40.45-6.08-60.31c-3.39-13.05-3.04-26.69-4.25-40.08
			c-1.94-21.52-4.59-43.03-3.45-64.69c1.33-25.37,2.89-50.74,7.02-75.86c1-6.1,3.13-11.96,7.11-16.79c2.33-2.83,2.41-7.04,5.87-9.07
			c3.36-2.69,6.88-5.22,11.31-5.55C565.38,670.91,572.22,676.34,574.85,685.12z"/>
		<path class="st3" d="M884.85,820.88c-11.16,1.2-21.96,4.26-32.25,8.38c-10.42,4.18-19.92,1.25-29.61-1.41
			c-3.11-0.85-3.65-4.45-4.21-7.46c-1.41-7.58-0.67-15.29-1.36-22.92c-1.19-13.07-3.27-26.03-3.59-39.21
			c-0.5-20.58,1.57-40.79,6.55-60.75c5.29-21.23,15.94-38.78,34.48-51.04c3.87-2.56,7.26-5.84,11.73-7.52
			c11.88-4.47,23.8-0.38,34.18,12.29c7.42,9.06,13.04,19.55,17.4,30.67c6.65,17,7.29,34.71,7.51,52.54
			c0.14,11.66,0.4,23.33-0.43,34.96c-0.81,11.38,1.56,22.57,1.62,33.89c0.01,1.88,1.31,2.94,2.39,4.2c3.23,3.76,3.01,6.68-1.07,9.48
			c-2.39,1.64-4.28,3.53-5.93,5.9c-2.56,3.69-6.12,3.95-8.99,0.61c-2.3-2.68-5.22-2.55-8.19-2.68c-2.7-1.14-5.51-0.33-8.21-0.2
			C892.85,820.83,888.85,820.8,884.85,820.88z"/>
		<path class="st4" d="M272.02,406.92c11.75,0.83,16.7,8.8,20.74,18.61c7.31,17.79,9.88,36.41,11.25,55.34
			c1.89,26.03,4.4,52.02,4.18,78.18c-0.05,5.71-0.09,11.76,6.09,15.69c3.01,1.91,0.75,4.84-1.39,6.57
			c-1.79,1.45-3.95,2.44-5.94,3.64c-3.83,4.77-3.86,4.77-11.08,2.21c-14.49,2.95-28.84,6.64-43.88,5.72
			c-3.39-0.21-6.2-1.22-8.62-3.13c-3.08-2.44-3.86-5.63-0.27-8.33c4.09-3.07,4.59-6.66,3.21-11.37c-2.36-8.01-2.77-16.38-3.02-24.64
			c-0.67-21.61-1.34-43.23-1.12-64.84c0.2-18.78,3.48-37.24,9-55.24c1.47-4.81,4.75-8.62,7.83-12.48
			C262.4,408.78,265.63,404.37,272.02,406.92z"/>
		<path class="st2" d="M539.81,943.86c0.16,1.21-0.11,2.17-1.02,3.14c-4.33,4.55-3.33,9.66,2.25,12.6c3.82,2.01,7.83,2.2,11.99,1.91
			c4.64-0.32,9.3-0.48,13.95-0.7c-3.23,6.17-6.58,7.2-13.33,4.62c-2.35-0.9-4.78-1.62-7.66-0.86c-3.57,0.94-7.3,0.62-8.31-4.27
			c-0.16-0.78-0.7-1.5-1.16-2.19C531.35,950.37,531.59,949.3,539.81,943.86z"/>
		<path class="st2" d="M884.85,820.88c6.74-2.03,13.48-2.4,20.22-0.04c-2.25,0.18-4.42,0.1-6.51,1.56
			C893.68,825.82,889.29,822.67,884.85,820.88z"/>
		<path class="st5" d="M573.97,960.06c5.83,0.4,11.66-1.02,17.54,1.23c2.9,1.11,5.5-2.48,8.42-3.51c-4.63,6.49-8.54,7.79-15.46,4.24
			C581.01,960.24,577.19,962.03,573.97,960.06z"/>
		<path class="st6" d="M574.85,685.12c-2.24-3.15-3.98-6.48-6.97-9.31c-5.98-5.67-11.6-4.48-17.58-1.1
			c-1.41,0.8-2.84,1.57-4.27,2.35c5.7-7.26,15.02-8.19,22.09-2.5C571.64,677.4,575.69,679.63,574.85,685.12z"/>
		<path class="st7" d="M310.02,178.08c2.72-5.4,2.74-10.07-3.47-13.16c-0.4-0.2-0.42-1.17-0.61-1.79
			C314.28,165.97,315.88,171.84,310.02,178.08z"/>
		<path class="st8" d="M120.03,184.1c3.37,4.46,0.88,10.48,4.01,15.01c-4.19-1.03-4.37-4.69-4.26-7.75
			C119.87,188.95,119.78,186.51,120.03,184.1z"/>
		<path class="st9" d="M778.88,486.91c3.67-4.03,4.2-8.37,1.24-13.03c3.51-0.75,4.16,1.46,4.32,4.17c0.14,2.45,0.42,4.94-1.65,6.86
			C781.45,485.52,780.64,487.13,778.88,486.91z"/>
		<path class="st10" d="M782.79,484.91c1.02-4.14,3.47-8.62-2.67-11.02c-0.07-0.96-0.14-1.91-0.2-2.87
			C786.44,473.91,787.72,480.08,782.79,484.91z"/>
		<path class="st11" d="M272.02,406.92c-6.44-2.66-8.48,4.39-13.02,5.91C262.6,405.39,264.76,404.4,272.02,406.92z"/>
		<path class="st12" d="M295.87,587.16c4.14,1.48,7.89,1.05,11.08-2.21C304.44,591.52,302.47,591.91,295.87,587.16z"/>
		<path class="st13" d="M208.08,178.92c-2.67,0.02-5.34,0.03-8.01,0.05c1.52-4.12,4.07-5.83,8.37-3.66
			c3.92,1.98,8.94-1.91,12.47,2.44C216.72,178.94,212.19,176.89,208.08,178.92z"/>
		<path class="st2" d="M729.66,175.82c-0.63,3.11-5.1,3.44-3.83,5.91c1.23,2.4,4.77,0.85,7.17,1.65c0.44,0.15,1.04,0.11,1.48-0.06
			c9.62-3.64,13.92,1.9,19.1,9.11c8.9,12.37,10.82,26.21,12.1,40.51c1.82,20.38,2.29,40.85,3.51,61.26
			c1.73,28.67-0.38,57.23-0.52,85.84c-0.07,14.42-2.39,28.78-4.11,43.15c-1.56,13-3.72,26.02-3.79,39.2c-0.04,7-0.16,6.75-6.93,6.7
			c-14.85-0.12-29.56-1.75-44.27-3.6c-1.65-0.21-3.32-0.24-4.98-0.24c-7.65,0-8.09-0.34-8.68-8.19c-0.35-4.65-0.56-9.31-0.67-13.96
			c-0.46-20.13-1.72-40.3-1.05-60.39c0.82-24.52-2.05-48.85-2.08-73.3c-0.03-17.98,0.64-35.93,1.38-53.9
			c0.4-9.78-0.93-19.69,0.56-29.4c2.63-17.06,6.77-33.61,20.68-45.68C719.06,176.67,724.23,176.68,729.66,175.82z"/>
		<path class="st2" d="M548.76,919.53c2.12-14.41-3.11-29.35-4.7-44.67c-1.41-13.56-1.83-27.21-2.91-40.8
			c-1.26-15.92-3.16-31.85-2.89-47.81c0.38-22.61,2.04-45.15,6.28-67.43c1.18-6.2,1.61-12.59,3.99-18.47
			c1.94-4.8,4.63-10.92,9.52-11.29c3.55-0.27,5.18,6.49,7.06,10.39c5.38,11.14,7.39,23.31,7.48,35.39c0.27,35,3.81,69.79,5.52,104.7
			c1.24,25.27,1.61,50.58,3.91,75.8c0.62,6.79,2.05,13.48,2.04,20.35c0,2.74-0.84,3.47-3.45,3.18c-9.68-1.09-19.27-0.02-28.78,1.76
			c-2.75,0.52-3.13-0.53-3.1-2.79C548.81,932.15,548.76,926.49,548.76,919.53z"/>
		<path class="st2" d="M824.79,755.54c-1.56-21.07,2.4-41.55,8.55-61.38c4.52-14.59,14.3-26.11,28.38-33.27
			c1.19-0.6,2.52-0.97,3.59-1.73c10.3-7.35,17.55-1.34,23.97,8.27c8.44,12.65,14.25,26.4,16.01,41.5c1.1,9.39,0.98,18.93,1.31,28.4
			c0.68,19.78-0.45,39.6,2.03,59.34c0.77,6.14,0.24,6.1-5.78,5.33c-13.45-1.72-26.55,0.81-39.53,3.78c-7.96,1.82-15.91,3.54-24,4.58
			c-1.15,0.15-2.33,0.28-3.47,0.18c-7.28-0.65-8.02-1.44-8.01-8.79c0.03-13.33-3.75-26.35-3.07-39.73
			C824.88,759.87,824.79,757.7,824.79,755.54z"/>
		<path class="st2" d="M253.01,567.03c-3.2-7.94-2.67-16.47-2.44-24.57c0.51-18.49-0.9-36.88-1.07-55.3
			c-0.18-18.86,2.14-37.72,8.57-55.76c1.47-4.11,3.12-7.98,6.78-10.77c6.11-4.65,12.35-2.62,15.03,4.71
			c5.62,15.33,7.2,31.33,8.22,47.43c1.5,23.57,3.57,47.1,4.12,70.72c0.09,3.82-0.09,7.65-0.15,11.47
			c-2.48,4.77-4.74,9.66-7.55,14.02c1.38-0.01,3.28-0.63,4.68,1.1c-7.79,1.21-15.57,2.46-23.37,3.61c-3.59,0.53-7.2,0.87-10.8,1.3
			C255.18,572.13,255.1,569.32,253.01,567.03z"/>
		<path class="st14" d="M289.21,570.08c-1.78-0.1-3.55-0.2-5.96-0.33c2.8-5.35,4.35-10.89,8.83-14.79
			c0.35,3.57,0.59,7.16,1.08,10.71C293.59,568.83,292.45,570.33,289.21,570.08z"/>
		<path class="st15" d="M253.01,567.03c3.49,1.81,4.25,4.81,2.02,7.96C252.94,572.69,253.17,569.81,253.01,567.03z"/>
	</g>
</g>
<g id="Layer_2" class="st0">
	<g class="st1">
		<g>
			<path class="st16" d="M116.06,999.88c-37.49,0-74.99-0.04-112.48,0.08C0.6,999.97,0,999.36,0,996.38
				C0.09,665.46,0.09,334.54,0,3.62c0-2.98,0.6-3.59,3.58-3.58c37.49,0.13,74.99,0.08,112.48,0.08c1.69,2.36,0.65,4.84,0.23,7.24
				c-4.16,24-6.22,48.17-6.49,72.52c-0.08,6.86,0.7,13.63,2.12,20.32c0.8,3.79,0.9,7.59,0.9,11.43
				c-0.04,23.76,3.51,47.09,8.51,70.24c0.67,3.1,1.49,6.17,1.49,9.35c-0.01,4.2,2.17,7.08,5.7,8.65c4.85,2.15,9.84,4.11,15.39,2.19
				c2.87-0.99,5.93-0.82,8.93-0.71c15.88,0.59,31.6-0.94,47.25-3.41c6.13-0.96,12.3-0.67,18.45-0.57
				c9.54,0.15,18.92-0.82,28.25-2.87c12.35-2.72,25.16-2.6,37.43-6.06c5.21-1.47,10.47-3.39,16.17-1.85
				c2.19,0.59,3.68-1.17,4.64-3.06c1.28-2.52,2.37-5.15,4.13-7.4c3.98-5.55,3.52-7.8-2.23-10.85c-0.74-0.39-1.42-0.86-1.95-1.53
				c-3.77-9.23-4.84-19.06-5.47-28.81c-0.83-12.66-2.2-25.23-4.28-37.7c-2.11-12.65-4.13-25.28-5.29-38.08
				c-1.18-13.11-4.76-25.86-7.61-38.7c-1.05-4.72-2.23-9.4-3.09-14.16c-0.39-2.14-0.84-4.3,0.82-6.18
				c238.41,0,476.82,0.02,715.23-0.12c4.27,0,4.74,1.14,4.74,4.97c-0.1,330.02-0.1,660.03,0,990.05c0,3.84-0.47,4.98-4.74,4.97
				c-238.41-0.14-476.82-0.12-715.23-0.12c-3.14-2.5-2.71-6.3-3.32-9.63c-4.35-23.79-9.97-47.18-19.36-69.6
				c-7.44-17.77-18.45-32.95-31.26-47.17c-9.68-10.75-29.31-12.35-40.14-6.21c-7.69,4.36-14.78,9.51-20.45,16.51
				c-14.19,17.48-24.97,36.65-32.55,58c-5.77,16.26-9.91,32.77-13.32,49.57C119.01,994.39,118.84,997.7,116.06,999.88z"/>
			<path class="st2" d="M127.06,0.12c42.99,0,85.98,0,128.98,0c2.42,1.23,2.79,3.6,3.2,5.88c2.83,16.06,6.85,31.86,10.19,47.81
				c1.47,7.02,1.88,14.17,2.87,21.25c2.27,16.15,7.04,31.85,8.79,48.08c1.42,13.08,3.48,26.03,6.32,38.88
				c1.36,6.15,0.25,7.72-5.91,9.14c-8.1,1.86-16.22,3.77-24.53,4.41c-6,0.46-11.86,1.66-17.69,3c-3.76,0.86-7.52,1.38-11.37,1.19
				c-7.37-0.61-14.79-0.67-22.09-2.05c-2.73-0.52-4.26,2.37-6.73,2.75c-18.14,4.34-36.57,4.78-55.08,4.37
				c-4.16-0.09-6.44-2.05-7.34-6.02c-0.82-3.58-2.05-7.04-3.76-10.29c-1.09-2.06-2.26-4.37-4.7-4.9c-4.63-1.01-5.37-4.5-5.74-8.26
				c-1.27-12.91-2.7-25.82-2.2-38.83c0.28-7.18-0.64-14.19-2.06-21.27c-2.16-10.82-1.39-21.95-0.71-32.86
				c1.17-18.75,3.07-37.48,6.96-55.92C124.93,4.21,125.27,1.87,127.06,0.12z"/>
			<path class="st2" d="M256.04,999.88c-42.66,0-85.32,0-127.98,0c-1.46-1.54-1.15-3.35-0.8-5.18
				c4.77-24.63,12.82-48.21,23.23-70.97c5.78-12.62,13.7-24,22.78-34.46c7.14-8.22,16.01-13.35,27.45-12.95
				c6.98,0.24,12.35,3.07,16.71,8.49c11.96,14.86,19.9,31.75,26.02,49.68c6.65,19.46,10.08,39.63,13.72,59.76
				C257.55,996.26,257.62,998.25,256.04,999.88z"/>
			<path class="st3" d="M127.06,0.12c-0.74,9.28-3.14,18.28-4.31,27.51c-2.55,20.18-6.09,40.62-3.23,60.65
				c3.41,23.95,0.75,48.21,5.53,71.93c0.1,0.48,0.28,0.95,0.51,1.73c3.49-2.07,5.45-0.07,7.25,2.62c3.02,4.52,4.91,9.51,5.69,14.8
				c0.48,3.26,1.85,3.75,4.88,3.86c19.06,0.68,37.92-1.07,56.68-4.25c5.56-2.37,11.28-0.51,16.92-0.58
				c3.42-0.04,6.84,0.53,10.24-0.25c1.99-0.08,4.05,0.16,5.95-0.29c16.03-3.75,32.54-4.66,48.6-8.32c4.49-1.02,5.08-2.88,4.15-6.84
				c-6.36-26.86-9.46-54.33-14.03-81.49c-4.47-26.56-10.74-52.73-15.14-79.27c-0.11-0.63-0.47-1.22-0.71-1.84c8,0,16,0,24,0
				c1.21,11.47,4.5,22.51,7.13,33.67c3.65,15.46,3.86,31.41,7.08,46.81c5.44,25.97,5.28,52.62,10.65,78.55
				c0.33,1.62,0.84,3.2,1.26,4.8c7,4.99,7.03,5.07,4.88,12.13c-1.39,2.63-3.22,4.97-4.16,7.92c-1.46,4.59-4.3,5.8-8.88,4.08
				c-1.84-0.69-3.43-0.62-5.3-0.14c-11.28,2.89-22.51,5.88-34.27,6.45c-5.43,0.27-10.81,1.82-16.2,2.85
				c-5.57,1.06-11.18,1.97-16.85,1.75c-15.89-0.61-31.56,1.55-47.25,3.45c-7.31,0.89-14.64,0.53-21.96,0.68
				c-4.95,0.1-9.74,0.01-14.73,1.5c-9.74,2.92-19.6-5.41-20.55-15.61c-0.59-6.4-3.01-12.62-3.93-19.01
				c-2.73-19.06-6.5-38.02-5.69-57.44c0.18-4.34-0.2-8.61-1.24-12.86c-2.65-10.81-1.87-21.87-1.59-32.81
				c0.53-20.79,2.64-41.45,6.61-61.9c0.32-1.63,0.67-3.25,1.01-4.87C119.73,0.12,123.39,0.12,127.06,0.12z"/>
			<path class="st4" d="M256.04,999.88c-3.15-24.12-8.05-47.81-16.24-70.81c-5.18-14.55-12.1-28.03-21.44-40.34
				c-9.22-12.16-21.82-14.53-34.78-6.27c-4.4,2.81-8.04,6.42-11.34,10.42c-13.72,16.61-22.98,35.55-30.34,55.71
				c-6.12,16.74-10.43,33.86-13.84,51.28c-4,0-8,0-12,0c2.98-13.26,5.2-26.75,9.1-39.74c8.5-28.32,19.62-55.52,39.74-77.94
				c8.4-9.36,17.72-17.94,30.89-19.69c12.86-1.71,23.85,1.61,33.25,11.68c24.04,25.74,36.08,57.01,43.96,90.47
				c2.75,11.67,4.82,23.46,7.04,35.22C272.03,999.88,264.03,999.88,256.04,999.88z"/>
			<path class="st3" d="M778.88,486.92c-1.77,2.4-3.73,4.6-5.86,6.72c-2.66,2.63-5.37,2.49-7.32,0.2c-2.82-3.32-5.83-2.48-9.03-1.59
				c-12.22,3.4-24.52,6.25-37.35,4.64c-8.42-1.05-16.85-1.71-25.33-1.91c-3.48-0.75-7-0.97-10.25-2.98
				c-6.24-3.85-8.31-8.37-6.3-15.63c1.68-6.06,2.75-12.16,1.67-18.46c2.07-30.46-1.93-60.95,0.2-91.38
				c1.09-15.52-0.95-30.91-0.48-46.41c0.93-30.77,2.06-61.57,4.57-92.21c1.68-20.53,10.36-39.09,26.36-53.25
				c6.27-5.55,14-6.6,21.97-6.57c4.16,0.02,8.16-0.11,12.28-1.36c6.4-1.94,17.19,3.92,21.24,11.23c2.27,4.09,4.88,7.92,7.49,11.78
				c8.11,11.97,9.5,25.76,10.05,39.63c0.86,21.95,0.73,43.96,2.23,65.85c1.71,24.83,0.84,49.6,0.36,74.39
				c-0.23,11.8,0.48,23.7-1.49,35.41c-2.41,14.3-3.36,28.73-4.7,43.13c-0.71,7.61-0.58,15.29,0.68,22.89
				c0.71,0.8,1.1,1.78,1.54,2.73C784.58,479.86,784.28,481.43,778.88,486.92z"/>
			<path class="st3" d="M574.86,685.11c6.73,12.96,11.06,26.68,12.59,41.19c0.71,6.77,0.8,13.61,1.1,20.42
				c2.08,46.69,5.98,93.28,7.61,139.99c0.6,17.11,2.98,34.08,4.94,51.08c0.42,3.64,3.66,4.97,5.3,7.6c2.52,4.04,2.27,7.15-1.76,9.48
				c-2.6,1.5-5.11,3.06-7.54,4.84c-2.6,1.91-5.31,1.26-8.57,0.95c-7.1-0.67-14.5-1.91-21.7,0.11c-1.83,2.28-4.37,2.29-6.95,2.18
				c-4.2-1.16-8.54-0.39-12.79-0.95c-3.37-0.44-6.51-1.32-8.8-3.88c-3.84-4.3-3.6-7.24,0.59-11.63c0.46-0.48,0.71-1.11,0.96-1.72
				c-2.51-20.38-0.93-41.11-6.1-61.3c-3.39-13.21-3.1-27.01-4.3-40.56c-1.83-20.68-4.42-41.35-3.43-62.17
				c1.24-26.03,2.89-52.05,7.08-77.82c1.02-6.27,3.29-12.23,7.4-17.21c2.22-2.69,2.27-6.72,5.57-8.67
				c3.35-2.71,6.87-5.24,11.31-5.57C565.38,670.91,572.27,676.37,574.86,685.11z"/>
			<path class="st3" d="M897.15,646.91c16.87,20.27,27.09,43.2,27.95,69.88c0.61,18.8,1.17,37.59,0.04,56.39
				c-0.6,10.02,1.78,19.88,1.69,29.87c-0.02,2.06,1.33,3.28,2.53,4.67c3.04,3.5,2.85,6.39-0.99,9.13c-2.49,1.77-4.52,3.75-6.29,6.24
				c-2.45,3.45-6.08,3.69-8.7,0.59c-3.17-3.75-7.68-2.42-11.51-3.59c-4.35,1.24-8.88,0.67-13.29,1.28
				c-1.55-0.01-3.11,0.15-4.63-0.33c-10.98,1.22-21.58,4.29-31.7,8.34c-10.44,4.18-19.9,1.01-29.55-1.74
				c-2.88-0.82-3.34-4.29-3.9-7.11c-1.49-7.56-0.66-15.26-1.38-22.88c-1.34-14.2-3.44-28.3-3.65-42.65
				c-0.29-19.58,1.96-38.73,6.64-57.67c5.25-21.23,16.02-38.7,34.53-50.94c0.69-0.46,1.42-0.88,2.04-1.42
				c7.2-6.31,15.45-8.85,24.94-7.07C888.31,638.72,893.64,641.27,897.15,646.91z"/>
			<path class="st4" d="M242.87,508.06c-0.99-8.94-1.18-17.9-0.83-26.88c0.75-18.97,3.58-37.61,9.11-55.79
				c1.29-4.23,3.89-7.7,6.93-10.83c8.15-8.38,9.27-8.96,20.02-6.42c6.97,1.65,10.38,7.59,13.08,13.51
				c8.4,18.41,11.41,38.08,12.78,58.07c1.81,26.39,4.5,52.72,4.22,79.23c-0.06,5.72-0.05,11.78,6.03,15.76
				c3,1.97,0.83,4.85-1.33,6.59c-1.79,1.45-3.95,2.45-5.94,3.64c-3.85,4.84-3.86,4.84-11.07,2.2c-14.3,2.89-28.47,6.62-43.31,5.77
				c-2.98-0.17-5.56-0.9-7.96-2.25c-4.4-2.46-4.94-6.27-1.09-9.55c3.57-3.04,4.14-6.33,2.93-10.6c-2.74-9.65-2.49-19.69-3.53-29.57
				C242.27,529.98,242.37,519.02,242.87,508.06z"/>
			<path class="st17" d="M560.09,961.67c2.39,0.8,4.32-1.88,6.74-0.89c0.38,3.7-2.64,8.02-6.51,7.87c-4.67-0.17-9.66-0.8-12.33-5.75
				c0.27-0.94,0.92-1.4,1.87-1.48C553.26,961.52,556.69,961.07,560.09,961.67z"/>
			<path class="st18" d="M679.09,457.9c1.59,5.07,1.38,10.22-0.17,15.14c-3.84,12.21,0.54,18.58,13.31,21.1
				c0.61,0.12,1.17,0.54,1.75,0.82c-10.31,0.29-16.06-3.75-18.47-12.9c-0.3-1.15-0.75-2.32-0.18-3.39
				C678.82,472.15,678.84,465.01,679.09,457.9z"/>
			<path class="st19" d="M897.15,646.91c-4.86-3.35-9.72-6.71-15.21-9.01c5.18-1.72,14.89,2.62,16.51,7.42
				C898.81,646.39,898.04,646.76,897.15,646.91z"/>
			<path class="st20" d="M560.09,961.67c-3.7,0.09-7.4,0.17-11.09,0.26c-6.36,1.87-8.16,1.26-11.96-4.1
				c-4.4-6.61-4.13-7.87,2.79-13.03c0.29,1.21,0,2.13-0.91,3.1c-3.62,3.83-2.7,8.43,2.07,10.86c3.45,1.76,7.09,2.31,10.97,2.21
				C554.64,960.9,557.51,960.01,560.09,961.67z"/>
			<path class="st21" d="M574.86,685.11c-2.26-3.14-3.95-6.52-7.01-9.29c-5.7-5.16-11.09-4.79-17.1-1.33
				c-1.55,0.89-3.14,1.72-4.71,2.58c5.7-7.25,15.04-8.2,22.09-2.52C571.64,677.38,575.66,679.64,574.86,685.11z"/>
			<path class="st22" d="M887.9,820.1c4.66-0.82,9.32-1.55,13.98-0.01c-0.99,0.94-1.97,1.89-2.96,2.83
				c-2.06,1.05-4.35,1.3-6.55,1.64C888.89,825.09,886.93,822.94,887.9,820.1z"/>
			<path class="st23" d="M887.9,820.1c0.68,3.11,3.1,3.78,5.63,3.37c1.81-0.3,3.58-0.51,5.39-0.55c-7.13,4.62-11.04,4.13-14.96-1.87
				C885.2,820.45,886.44,819.84,887.9,820.1z"/>
			<path class="st24" d="M537.03,957.83c3.33,3.28,7.46,4.24,11.96,4.1c-0.34,0.32-0.67,0.65-1.01,0.97
				C542.99,966.72,539.24,964.98,537.03,957.83z"/>
			<path class="st25" d="M242.87,508.06c0.01,10.96,0.03,21.92,0.04,32.89c-1.72-3.11-0.89-6.5-0.79-9.72
				C242.34,523.5,241.06,515.72,242.87,508.06z"/>
			<path class="st26" d="M311.03,176.08c2.41-5.66-2.57-8.36-4.88-12.13C313.5,165.62,315.08,169.57,311.03,176.08z"/>
			<path class="st27" d="M778.88,486.92c3.52-4.04,4.27-8.34,1.19-12.98c3.06-1.06,3.9,1.22,4.24,3.28c0.31,1.85,0.8,3.93-0.4,5.77
				C782.35,484.44,781.34,486.61,778.88,486.92z"/>
			<path class="st28" d="M295.88,587.15c4.13,1.51,7.87,1.03,11.07-2.2C304.42,591.49,302.44,591.88,295.88,587.15z"/>
			<path class="st29" d="M783.91,482.98c-0.25-3.46,1.33-7.69-3.85-9.05c-0.07-0.97-0.13-1.94-0.2-2.9
				C785.19,473.92,786.59,478.06,783.91,482.98z"/>
			<path class="st30" d="M227.22,178.16c-9.02,1.31-18.1,0.72-27.16,0.83c2.51-2.82,5.18-2.57,8.93-2.17
				C214.99,177.46,221.09,178.5,227.22,178.16z"/>
			<path class="st2" d="M729.62,176.98c-0.59,0.53-1.14,1.14-1.79,1.59c-1.12,0.77-2.4,1.56-2.17,3.07
				c0.33,2.14,2.14,0.75,3.23,1.12c3.5,1.18,6.92,0.45,10.35-0.28c4.57-0.96,7.67,0.62,10.66,4.41
				c10.89,13.82,14.84,29.69,15.96,46.88c1.32,20.26,2.12,40.54,3.35,60.78c1.74,28.68-0.19,57.25-0.56,85.85
				c-0.31,23.78-4.72,47.28-7.28,70.91c-0.45,4.13-0.68,8.3-0.68,12.46c0,4.22-1.55,5.54-5.96,5.42
				c-14.51-0.38-28.91-1.68-43.29-3.44c-3.13-0.38-6.36-0.74-9.45-0.34c-3.57,0.47-4.63-1.09-5.37-4.11
				c-1.01-4.1-1.09-8.27-1.19-12.4c-0.58-22.8-1.8-45.62-1.18-68.4c0.56-20.53-1.46-40.88-1.9-61.33
				c-0.45-20.82,0.18-41.61,1.11-62.4c0.45-10.13-0.96-20.35,0.58-30.41c2.51-16.39,6.48-32.24,19.02-44.48
				C717.74,177.29,723.35,176.47,729.62,176.98z"/>
			<path class="st2" d="M548.75,919.62c2.12-14.47-3.12-29.4-4.68-44.73c-1.49-14.72-2.1-29.52-3.05-44.29
				c-0.56-8.8-1.44-17.57-2.21-26.34c-1.62-18.54,0.21-36.95,1.46-55.34c1.04-15.21,3.93-30.31,7.15-45.26
				c1.15-5.33,4.27-9.66,8.1-13.52c2.35-2.37,3.47-1.69,5.15,0.9c8.7,13.34,11.69,28.47,11.88,43.77
				c0.45,35.16,3.86,70.12,5.58,105.18c1.23,25.1,1.59,50.25,3.89,75.29c0.62,6.79,2.05,13.48,2.04,20.35c0,2.7-0.75,3.52-3.41,3.22
				c-9.68-1.1-19.27-0.02-28.78,1.76c-2.69,0.5-3.18-0.44-3.15-2.75C548.8,932.18,548.75,926.52,548.75,919.62z"/>
			<path class="st2" d="M824.69,755.52c-1.44-21.06,2.49-41.55,8.65-61.38c4.53-14.58,14.29-26.12,28.38-33.25
				c1.19-0.6,2.52-0.97,3.59-1.73c10.3-7.35,17.54-1.32,23.96,8.28c8.46,12.64,14.33,26.39,15.98,41.5
				c1.21,11.05,1.09,22.25,1.43,33.39c0.54,17.61-0.48,35.27,1.89,52.84c1.01,7.5,0.55,7.54-6.75,6.73
				c-13.12-1.46-25.88,1.01-38.54,3.9c-7.79,1.78-15.58,3.5-23.5,4.5c-1.63,0.21-3.33,0.28-4.95,0.06c-6.71-0.9-6.99-1.29-7.03-8.12
				c-0.07-14.48-3.89-28.68-3.14-43.22C824.74,757.85,824.69,756.68,824.69,755.52z"/>
			<path class="st2" d="M282.05,570.81c-7.55,1.47-15.04,3.33-22.8,3.27c-2.56,1.36-3.91-0.68-5.52-1.96
				c-2.9-9.8-3.53-19.98-3.21-29.99c0.57-18.16-0.73-36.23-1-54.33c-0.28-19.06,2.11-38.09,8.57-56.32
				c1.39-3.94,2.86-7.73,6.33-10.5c6.61-5.26,12.64-3.24,15.6,4.78c6.5,17.61,7.53,36.05,8.63,54.45
				c1.32,22.25,3.54,44.46,3.68,66.78c0.02,2.66-0.18,5.32-0.28,7.98C289.27,560.61,287.72,567.01,282.05,570.81z"/>
			<path class="st16" d="M282.05,570.81c3.71-5.04,5.55-11.25,9.99-15.83c0.28,2.29,0.63,4.58,0.84,6.88c0.74,8.11,0.31,8.6-7.86,9
				C284.03,570.91,283.04,570.83,282.05,570.81z"/>
			<path class="st31" d="M253.72,572.12c2.11-0.11,3.3,2.37,5.52,1.96C256.93,574.76,254.12,576.85,253.72,572.12z"/>
		</g>
	</g>
</g>
<g id="Layer_3">
	<g>
		<path class="st16" d="M0.1,424.01c0-6.67,0-13.33,0-20c1.35-1.57,3.27-1.94,5.13-2.55c4.59-1.51,6.95-4.6,6.8-8.6
			c-0.21-1.34-0.07-2.63,0.39-3.92c2.06-5.78,0.97-8.49-4.45-11.63c-1.49-0.86-3.72-0.83-4.11-3.15c1.17-1.74,3.02-1.38,4.86-1.32
			c-2.4-3.66-6.28-5.49-8.63-8.83C0.1,244.2,0.13,124.37,0,4.54C0,0.67,1-0.06,4.65,0c13.48,0.24,26.96,0.1,40.44,0.1
			c1.72,1.58,2.13,3.75,2.45,5.88c3.23,21.7,13.92,39.84,27.81,56.12c6.43,7.54,14.63,13.54,22.41,19.78
			c5.49,4.4,12.78,6.54,19.02,6.61c7.53,0.09,15.67-3.77,19.49-11.23c3.68-7.18,8.69-13.37,12.87-20.13
			c8.6-13.91,13.07-29.02,15.48-44.99c0.61-4.03-0.11-8.39,2.44-12.04c49.66,0,99.31,0,148.97,0c0.95,0.95,1.81,1.99,2.1,3.33
			c2.75,12.75,8.21,24.63,12.65,36.75c5.51,15.01,11.94,30.13,24.95,40.77c6.23,5.1,13.31,7.43,21.38,4.41
			c2.37-0.89,4.91-0.91,7.39-1.06c6.73-0.42,12.06-3.45,16.42-8.39c3.64-4.12,7.5-8.03,11.45-11.83c6.02-5.8,8.92-13.57,13.15-20.5
			c1.03-1.7,1.74-3.61,3.42-4.85c2.66-1.23,4.29-3.53,6.08-5.71c7.4-9,13.8-18.6,18.39-29.35c0.6-1.41,1.47-2.57,2.59-3.57
			c179.86,0,359.73,0.01,539.59-0.09c3.47,0,4.41,0.55,4.4,4.29c-0.13,121.91-0.11,243.82-0.11,365.72
			c-3.53,3.27-7.02,6.57-10.44,9.95c-3.03,2.21-4.76,5.44-5.87,8.78c-1.24,3.75,1.17,6.16,4.32,7.84c2.01,1.67,4.27,2.35,6.91,2.05
			c1.8-0.21,3.68-0.17,5.07,1.37c0,10,0,20,0,29.99c-0.62,0.64-0.35,1.68-0.88,2.27c-5.08,5.68-4.08,12.37-3.73,19.19
			c0.28,5.39,2.74,9.8,4.6,14.53c0,176.38-0.02,352.76,0.11,529.15c0,4.06-0.82,4.85-4.86,4.85
			c-183.71-0.13-367.42-0.11-551.13-0.11c-1.14-1.3-0.86-2.8-0.56-4.27c7.8-38.33-0.31-74.43-15.67-109.4
			c-8.49-19.32-23.95-31.55-42.63-40.2c-3.43-1.59-7.09-1.67-10.79-1.12c-6.85,1.02-13.26,3.2-19.02,7.13
			c-10.05,6.86-20.23,13.57-27.09,24.03c-1.28,1.95-2.64,3.89-3.46,6.07c-8.29,22.03-15.35,44.41-17.04,68.07
			c-1,14.08,3.64,27.28,7.09,40.65c0.76,2.95,2.58,5.98,0.2,9.04c-48.99,0-97.98,0-146.97,0c-1.85-1.87-1.62-4.28-1.63-6.59
			c-0.04-8.16,0.12-16.33-0.04-24.49c-0.46-23.25-5.93-45.08-18.19-65.11c-7.2-11.76-17.8-19.3-29.95-24.75
			c-10.1-4.53-25.87-0.05-34.37,9.1c-11.62,12.51-21.28,26.61-29.79,41.24c-8.55,14.71-10.6,31.46-8.92,48.4
			c0.64,6.49,0.16,12.99,0.9,19.45c0.12,1.03-0.29,1.96-0.99,2.74c-14.98,0-29.97,0-44.99,0c0-177.63,0-355.26,0-532.89
			c1.1-0.5,2.05,0.03,2.68,0.76c4.3,5.01,10.39,6.4,16.3,7.99c9.91,2.67,19.18-2.57,22.69-12.14c3.94-10.76,2.56-20.51-4.63-29.46
			c-2.01-2.51-4.21-5.01-7.31-5.8c-6.36-1.6-12.33-4.82-19.11-4.66c-1.57-1.09-3.14-1.22-5.03-0.61
			C3.92,423.65,2.16,424.91,0.1,424.01z"/>
		<path class="st32" d="M432.01,999.89c-4,0-8,0-12,0c-2.3-2.97-2.28-6.64-2.37-10.02c-0.41-14.99-5.53-28.53-13.63-40.69
			c-5.85-8.77-12.78-16.97-22.32-22.45c-12.11-6.95-28.35-3.57-36.08,8.29c-6.27,9.61-12.89,19.03-18.12,29.29
			c-1.18,2.31-2.22,4.99-5.52,5.14c-4.64-3.07-3.54-8.16-4.43-12.55c-1.64-8.08,0.22-16.16,0-24.24c-0.1-5.92,1.87-11.43,3.66-16.91
			c3.54-10.85,5.52-22.22,10.87-32.46c2.01-3.85,4.38-7.41,7.86-10.11c3.11-1.17,6.33-2.21,7.28-6.02
			c7.27-6.93,15.34-12.38,25.61-13.74c3.1-0.01,5.71,1.15,8.28,2.88c7.57,5.09,14.5,10.79,20.92,17.38
			c5.5,5.64,12.19,10.07,16.11,17.26c1.97,3.61,2.88,7.79,5.82,10.89c4.5,8.11,6.59,17.07,8.65,25.95
			c4.98,21.43,5.88,43.08,2.37,64.85C434.54,995.25,434.14,997.94,432.01,999.89z"/>
		<path class="st4" d="M372.87,854.85c-9.96,1.2-17.33,7.29-24.79,13.19c-1.61,2.85-4.32,4.37-7.05,5.87
			c-5.45,5.12-9.04,11.38-11.15,18.51c-3.42,11.62-6.83,23.24-10.19,34.88c-0.41,1.42-0.5,2.93-0.73,4.4
			c-2.1,13.27-2.67,26.52,0.8,40.23c1.25-1.11,1.86-2.54,3.18-3.05c6.03-9.93,12.39-19.71,18-29.82
			c10.67-19.22,33.43-25.22,52.52-5.31c17.96,18.73,26.2,40.67,26.55,66.13c-4,0-8,0-12,0c-2.11-1.05-2.48-2.98-2.52-5.05
			c-0.28-13.09-3.9-25.21-10.47-36.51c-4.73-8.14-10.7-15.27-18.05-21.07c-8.03-6.34-17.76-4.86-23.41,3.61
			c-5.53,8.28-10.97,16.61-15.72,25.43c-4.31,7.99-5.08,15.94-3.74,24.54c0.48,3.07,1.33,6.28-1.07,9.06c-6,0-12,0-18,0
			c-0.13-5.74-2.22-11.05-4-16.34c-7.84-23.41-5.2-46.51,1.53-69.55c2.42-8.28,4.97-16.53,7.52-24.77
			c3.08-9.93,8.54-18.33,16.35-25.19c6.27-5.5,13.03-10.34,20.05-14.81c16.29-10.39,31.25-6.31,45.64,4.21
			c12.18,8.9,21.93,19.73,27.99,33.76c13.67,31.68,20.86,64.44,16.83,99.08c-0.53,4.59-1.94,9.08-2.94,13.61c-4,0-8,0-12,0
			c3.27-13.87,3.43-28,2.91-42.1c-0.71-19.4-4.85-38.11-12.62-55.96c-3.31-7.5-6.7-14.9-11.58-21.63
			c-8.13-11.22-19.32-18.39-31.15-24.82C377.6,854.31,375.2,853.82,372.87,854.85z"/>
		<path class="st32" d="M155.07,999.89c-3,0-6,0-9,0c-3.1-1.49-3.51-4.63-4.63-7.37c-6.86-16.82-18.76-29.32-34.04-38.62
			c-13.44-8.18-31.3-0.58-39.55,8.47c-4.18,4.59-7.82,9.54-9.21,15.79c-0.22,0.97-0.54,1.93-1.02,2.81c-0.48,0.87-1,1.98-2.12,1.83
			c-1.08-0.14-1.44-1.29-1.66-2.26c-1.31-5.73-1.66-11.52-1.03-17.38c1.76-16.36,6.6-31.32,16.99-44.62
			c7.08-9.06,13.52-18.53,22.18-26.24c5.28-4.7,11.61-6.4,18.38-6.7c3.63-0.16,6.79,1.46,9.38,4.04
			c8.45,9.1,15.89,19.14,25.22,27.45c4.9,8.25,7.66,17.26,9.36,26.63c3.08,16.93,2.68,34.03,2.48,51.13
			C156.79,996.71,156.45,998.48,155.07,999.89z"/>
		<path class="st4" d="M119.11,890.8c-6.7-4.9-16.92-5.18-24.01,0.93c-15.94,13.74-28.63,30.35-36.18,49.98
			c-4.89,12.71-6.44,26.5-3.45,40.29c1.17-0.87,1.29-2.35,1.6-3.7c3.74-16.34,18.93-28.11,36.12-29.61
			c9.19-0.8,16.57,3.99,23.44,9.53c13.78,11.09,24.27,24.5,29.44,41.66c-4.67,0-9.33,0-14,0c-2.17-1.58-2.58-4.18-3.76-6.34
			c-5.99-10.98-13.88-20.36-24.33-27.3c-10.89-7.24-28.61-0.89-34.1,12.04c-2.02,4.77-3.34,9.74-3.28,15.01
			c0.02,2.29,0.38,4.72-1.52,6.59c-6.67,0-13.33,0-20,0c-2.12-20.54-3.91-41.07,2.88-61.18c0.95-2.82,1.67-5.88,3.29-8.29
			c10.29-15.28,19.47-31.4,32.66-44.55c11.57-11.53,28.45-12.89,42.5-4.81c23.46,13.49,32.73,35.81,38.57,60.22
			c4.6,19.26,3.04,39.01,3.08,58.6c-4.33,0-8.66,0-13,0c0-10.6,0.37-21.22-0.09-31.8c-0.73-17.1-2.67-34.03-10.89-49.53
			c-0.3-0.57-0.72-1.09-1.08-1.64C136.7,906.7,128.75,897.98,119.11,890.8z"/>
		<path class="st4" d="M167.07,0.1c-0.74,25.86-8.62,49.19-24.77,69.55c-1.27,1.6-2.05,3.34-2.81,5.19
			c-2.4,5.8-6.6,9.85-12.44,12.21c-2.15,0.87-4.19,1.99-6.32,2.89c-2.42,1.02-4.87,2.46-7.05-0.65c-0.44-0.63-1.79-0.78-2.75-0.88
			c-8.5-0.93-14.9-5.42-21.3-10.89C78,67.59,68.01,56.54,59.94,43.53C51.62,30.11,47.13,15.57,45.09,0.1c6.67,0,13.33,0,20,0
			c3.17,5.62,2.19,11.88,2.8,17.9c2.98-6.99,6.03-13.97,13.2-17.9c13.33,0,26.66,0,39.99,0c5.86,3.2,11.48,10.77,13.76,18.32
			c-0.38-5.93-3.39-11.84-2.76-18.32c4.67,0,9.33,0,14,0c4.55,6.38,4.19,13.79,4.3,21.05c0.03,2.01-0.3,4.09-0.59,5.18
			c-0.06,1.6,0.88,0.67,0.28,0.96c-0.24,0.12-0.35-0.01-0.32-0.38c0.67-7.78,2.36-15.43,2.75-23.24c0.07-1.38,0.63-2.57,1.58-3.58
			C158.4,0.1,162.73,0.1,167.07,0.1z"/>
		<path class="st4" d="M429.99,39.06c-2,3.43-4.36,6.7-5.93,10.32c-5.21,12-15.1,20.14-23.72,29.31c-3.6,3.83-7.91,6.27-13.49,6.71
			c-5.4,0.43-10.72,2.72-16.08,2.75c-12.07,0.05-20.3-7.32-26.02-16.88c-7.21-12.06-14.54-24.11-18.07-38.1
			c-2.59-10.25-7.98-19.68-10.2-30.14c-0.2-0.97-0.29-1.95-0.44-2.93c5.67,0,11.33,0,17,0c1.67,1.52,3.33,1.37,5,0c5,0,10,0,15,0
			c0.34,2.4-1.78,2.97-3.11,4.03c-9.79,7.73-12.18,17.63-6.24,28.67c5.42,10.07,10.5,20.28,19.01,28.49
			c7.55,7.28,16.19,6.84,25.15,5.63c3.47-0.47,5.44-3.58,6.54-6.93c3.05-9.27,2.79-18.51-1.52-27.21
			c-5.66-11.42-12.91-21.71-23.49-29.26c-1.15-0.82-2.75-1.46-2.33-3.41c6,0,12,0,18,0c10.41,8.13,17.85,18.4,22.44,30.75
			c0.09,0.72,0.97-0.19,0.38,0.1c-0.09,0.05-0.15-0.04-0.24-0.2c-1.19-1.92-1.18-4.08-1.18-6.21c-0.02-6.13-0.03-12.25,0.01-18.38
			c0.01-2.14-0.12-4.35,1.6-6.06c4,0,8,0,12,0c0.97,1.01,1.55,2.25,1.37,3.61c-1.09,7.93-0.45,15.91-0.79,23.86
			c-0.05,1.28-0.04,2.74-0.88,3.49c2.76-8.06,6.62-16.06,8.67-24.73c0.57-2.38,1.07-4.94,3.63-6.22c4,0,8,0,12,0
			c0.74,0.8,0.98,1.8,0.74,2.79c-2.97,12.15-6.14,24.23-13.35,34.76C431.02,38.2,430.53,38.66,429.99,39.06z"/>
		<path class="st32" d="M333.03,999.89c0.71-6.19-1.15-12.2-1.36-18.34c-0.13-3.61,0.44-6.83,1.88-10.11
			c5.05-11.48,12.29-21.66,19.06-32.1c4.9-7.56,16.27-10.62,23.96-4.41c18.29,14.77,28.63,33.61,30.44,57.09
			c0.2,2.64-0.05,5.34,1.01,7.87c-8,0-16,0-23.99,0c-3.12-1.16-5.96-2.84-8.83-4.53c-10.43-6.16-20.69-5.04-30.62,1.21
			c-1.83,1.15-3.7,2.21-5.54,3.33C337.03,999.89,335.03,999.89,333.03,999.89z"/>
		<path class="st32" d="M367.02,0.1c12.22,7.16,19.83,18.36,26.43,30.38c5.36,9.75,5.61,20.03,2.37,30.46
			c-1.68,5.43-5.48,7.64-11.15,8.33c-14.22,1.73-23.98-4.84-31.17-16.24c-3.99-6.32-7.46-12.96-11.35-19.34
			c-7.9-12.92-0.62-27.68,9.34-32.46c0.56-0.27,1.02-0.75,1.53-1.13C357.69,0.1,362.36,0.1,367.02,0.1z"/>
		<path class="st32" d="M65.09,999.89c-0.18-5.82,0.09-11.52,1.5-17.29c3.16-13,15.02-20.11,27.56-21.65
			c3.18-0.39,6.01,1.09,8.42,2.67c13.64,8.94,24.61,20.16,29.5,36.26c-4,0-8,0-12,0c-5.61-2.32-11.07-4.85-17.31-5.48
			c-7.7-0.77-14.09,2.54-20.68,5.48C76.42,999.89,70.75,999.89,65.09,999.89z"/>
		<path class="st4" d="M10.11,422.93c18.55-1.7,39.46,11.25,34.67,35.45C41.76,473.6,34,478.92,21.19,477.77
			C13.21,477.05,5.31,474.14,0.1,467c0-6,0-12,0-18c0.46-0.35,0.91-0.34,1.35,0.03c1.05,1.17,1.24,2.69,1.61,4.12
			c2.32,8.9,11.54,13.75,20.64,12.61c6.97-0.87,10.29-9.67,6.7-17.15c-2.46-5.11-6.32-8.86-12.27-8.71
			c-5.77,0.14-12.09-1.09-16.65,4.19c-0.48,0.3-0.94,0.27-1.38-0.08c0-4.67,0-9.33,0-14C2.36,426.12,4.91,422.66,10.11,422.93z"/>
		<path class="st33" d="M408.02,0.1c0,10.91,0,21.82,0,34.24c-2.7-5.93-5.07-10.45-7.72-14.83c-4.31-7.13-10.94-12.36-15.28-19.41
			C392.69,0.1,400.35,0.1,408.02,0.1z"/>
		<path class="st34" d="M999.89,400.02c-2.58,0.25-5.18-0.49-7.78,0.36c-3.18,1.04-3.47-2.25-5.04-3.62
			c-0.48-0.32-0.86-0.73-1.14-1.23c-0.86-2.74-0.34-5.55-0.48-8.33c0.63-2.96,1.38-5.88,3.63-8.12c2.72-4.07,5.69-7.86,10.82-9.06
			c0,4.67,0,9.33,0,14c-0.81,2.33-0.81,4.67,0,7C999.89,394.02,999.89,397.02,999.89,400.02z"/>
		<path class="st32" d="M429.99,39.06c5.95-12.53,11.1-25.34,14.02-38.96c4,0,8,0,12,0c-3.63,11.95-10.44,22.1-18.23,31.63
			C435.54,34.46,434.35,38.51,429.99,39.06z"/>
		<path class="st35" d="M339.03,999.89c5.74-7.87,19.31-12.47,28.92-9.48c6.04,1.88,11.58,4.86,16.08,9.48c-6.33,0-12.66,0-19,0
			c-2.67-0.82-5.33-0.82-8,0C351.03,999.89,345.03,999.89,339.03,999.89z"/>
		<path class="st34" d="M4.02,374.05c1.83,1.45,4.35,1.08,6.26,2.58c5.31,4.18,5.98,6.57,3.25,12.88c-0.44,1.03-0.47,2.23-0.7,3.35
			c-0.84,4.86-4.48,6.97-8.54,8.59c-1.71,0.68-3.24,0.35-4.18-1.45c0-3,0-6,0-9c2.37-2.33,2.55-4.67,0-7c0-4.33,0-8.66,0-13
			C2.58,370.52,3.56,371.95,4.02,374.05z"/>
		<path class="st36" d="M432.01,0.1c-3.51,11.49-6.64,23.11-12.95,35.15c0.07-12.7-0.14-23.94,0.95-35.15
			C424.01,0.1,428.01,0.1,432.01,0.1z"/>
		<path class="st34" d="M82.09,999.89c10.13-9.6,28.77-9.6,37.99,0C107.41,999.89,94.75,999.89,82.09,999.89z"/>
		<path class="st37" d="M999.89,466c-4.01-3.24-5.59-7.67-5.97-12.59c-0.28-3.64-0.21-7.27-1.21-10.87
			c-0.91-3.29,1.67-5.57,3.26-8.01c1.07-1.66,2.6-3.02,3.92-4.52C999.89,442.01,999.89,454,999.89,466z"/>
		<path class="st38" d="M81.09,0.1c-2.94,3.95-5.97,7.84-8.8,11.86c-2.16,3.06-3.2,6.64-4.19,10.38c-2.77-7.27-2.14-14.86-3-22.24
			C70.42,0.1,75.75,0.1,81.09,0.1z"/>
		<path class="st39" d="M154.07,0.1c0.66,10.03-1.76,19.54-4.85,29.01c0.41-9.87-1.31-19.45-3.15-29.01
			C148.74,0.1,151.4,0.1,154.07,0.1z"/>
		<path class="st40" d="M132.07,0.1c2.94,6.61,3.56,13.65,3.76,20.92c-4.75-7.13-8.32-15.06-14.76-20.92
			C124.74,0.1,128.41,0.1,132.07,0.1z"/>
		<path class="st41" d="M4.02,374.05c-1.89-0.26-1.94-2.88-3.91-3.03c0-2.33,0-4.67,0-7c5.44,1.8,8.62,6.06,12.23,11.29
			C9.13,374.19,6.6,373.77,4.02,374.05z"/>
		<path class="st42" d="M0.1,400.02c3.97,1.69,6.55-0.77,9.09-3.14c1.31-1.23,2.43-2.66,3.63-4c1.53,3.44-1.14,7.97-5.98,9.67
			c-2.16,0.76-4.49,1-6.74,1.48C0.1,402.68,0.1,401.35,0.1,400.02z"/>
		<path class="st43" d="M10.11,422.93c-3.52,2.1-7.08,4.15-10.01,7.08c0-2,0-4,0-6c2.3-1.96,5.19-2.37,7.99-2.92
			C9.3,420.85,10.94,420.68,10.11,422.93z"/>
		<path class="st44" d="M0.1,384.02c1.75,0.6,4.12,0.59,4.12,3.19c0,2.56-1.79,3.57-4.12,3.81C0.1,388.69,0.1,386.35,0.1,384.02z"/>
		<path class="st45" d="M338.03,0.1c-1.09,1.32-2.18,2.64-3.56,4.32c-0.59-1.76-1.01-3.04-1.43-4.32
			C334.7,0.1,336.36,0.1,338.03,0.1z"/>
		<path class="st46" d="M357.03,999.89c2.67-1.72,5.33-1.43,8,0C362.36,999.89,359.69,999.89,357.03,999.89z"/>
		<path class="st47" d="M999.89,391.02c-1.6-2.33-1.54-4.67,0-7C999.89,386.35,999.89,388.69,999.89,391.02z"/>
		<path class="st48" d="M0.1,444.01c0.27,0,0.54-0.03,0.8-0.1c1.76,1.72,1.75,3.45,0.02,5.19c-0.27-0.07-0.54-0.1-0.82-0.09
			C0.1,447.34,0.1,445.67,0.1,444.01z"/>
		<path class="st3" d="M953.92,358.61c0.52,17.24,0.13,33.35-3.09,49.25c-0.59,2.91-1.61,5.74-2.54,8.58
			c-0.62,1.89-2.17,3.79-2.03,5.57c0.72,8.8-6.19,11.74-11.83,14.98c-5.8,3.33-12.15,3.23-18.63,0.07c-8-3.9-16.67-6.06-24.56-10.65
			c-12.17-7.08-20.51-17.52-27.66-28.86c-13.39-21.23-20.52-44.76-23.87-69.63c-1.35-10.04-2.86-20.04-3.41-30.15
			c-0.6-10.99,0.54-21.91,1.84-32.81c0.12-0.97,0.4-2,0.88-2.84c8.63-15.22,17.11-30.59,34.89-37.25c10.2-3.83,19.33-1.68,27.4,5.2
			c9.89,8.43,19.25,17.43,27.59,27.42c7.94,9.5,11.99,21.07,15.93,32.48C952.62,312.52,955.4,335.87,953.92,358.61z"/>
		<path class="st3" d="M909.22,885.32c-1.48,17.32-6.84,36.33-16.6,54.07c-3.69,6.71-7.65,13.27-11.09,20.1
			c-4.47,8.86-11.71,14.56-19.97,19.62c-12.98,7.95-24.97,5.54-37.38-1.55c-23.37-13.34-39.73-33.17-52.51-56.16
			c-6.62-11.9-8.56-25.4-9.64-38.87c-2.19-27.37,7.86-51.99,23.15-72.75c16.86-22.89,41.68-32.61,70-18.1
			c1.33,0.68,2.65,1.45,4.06,1.91c23.32,7.57,34.71,25.93,42.87,47.25C907.24,854.25,908.63,868.26,909.22,885.32z"/>
		<path class="st3" d="M419.73,378.27c2.26,24.13-8.62,44.24-19.78,64.25c-0.72,1.29-1.63,2.58-2.74,3.55
			c-6.28,5.46-12.17,11.19-16.39,18.53c-1.66,2.89-4.69,4.64-8,5.65c-1.87,0.57-3.72,1.14-4.92,3.03c-0.71,1.12-2.17,1.59-3.53,1.62
			c-9.07,0.22-17.38-2.21-23.34-9.21c-14.37-16.89-23.72-36.78-32.71-56.82c-2.27-5.05-3.16-10.45-3.32-16
			c-0.14-4.65-0.65-9.29-0.83-13.95c-1.1-28.03,7.86-52.68,25.56-74.16c9.17-11.12,21.01-17.75,35.73-18.41
			c6.38-0.29,12.12,1.39,17.19,5.43c22.82,18.22,34.23,42.26,36.46,71.03c0.21,2.66,0.48,5.31,0.58,7.97
			C419.81,373.27,419.73,375.77,419.73,378.27z"/>
		<path class="st3" d="M209.05,635.36c0.92,13.63-2.97,26.41-11.44,37.79c-5.01,6.73-8.15,15.04-16.18,19.24
			c-19.14,10-39.06,9.63-51.69-10.84c-7.63-12.38-10.64-26.47-13.61-40.44c-2.35-11.04-4.71-22.28-2.02-33.58
			c3.12-13.12,7.9-25.72,14.33-37.59c3.82-7.05,11.13-8.94,18.26-10.97c19.28-5.49,31.84,5.47,43.28,18.07
			C204.76,593.33,209.48,613.3,209.05,635.36z"/>
		<path class="st4" d="M745.33,73.13c-15.76-0.11-26.92-7.63-33.32-21.76c-2.39-5.27-0.06-10.88,2.33-15.86
			c3.01-6.29,7.81-11.28,13.65-14.95c4.19-2.63,8.79-4.84,13.5-6.34c18.16-5.82,37.41,10.99,34.2,29.68
			c-0.51,2.94-1.26,5.85-2.15,8.7C769.12,66.66,760.15,73.14,745.33,73.13z"/>
		<path class="st4" d="M432.01,531.9c17.34-1.72,31.24,11.09,32.19,27.46c0.67,11.62-3.71,22.05-13.35,29.05
			c-9.21,6.69-19.65,6.66-29.8,2.06c-8.25-3.74-15.18-17.72-14.84-27.12c0.34-9.46,4.08-17.23,10.16-24.14
			C420.21,533.84,425.62,531.83,432.01,531.9z"/>
		<path class="st35" d="M210.03,870.06c1.74,1.24,3.52,2.42,5.21,3.74c6,4.67,7.22,8.57,5.2,16.03c-0.65,2.39-1.05,4.84-1.75,7.21
			c-5.34,17.95-22.33,22.22-36.58,14.84c-9.91-5.13-16.95-18.08-7.11-29.37c1.3-1.49,2.7-3.06,3.45-4.84
			c3.33-7.84,9.06-11.56,17.58-10.91C201.42,864.77,205.81,867.03,210.03,870.06z"/>
		<path class="st35" d="M436.01,157.06c-3.67-1.03-7.39-1.92-10.99-3.14c-4.1-1.39-7.2-4.08-9.09-8.05
			c-1.33-2.8-2.07-5.87-5.02-7.79c-1.51-0.98-0.9-3.08-0.51-4.69c2.04-8.4,7.15-14.58,14.41-18.95c2.36-1.42,5.16-2.67,7.43,0.73
			c1.24,1.84,3.41,0.87,5.14,0.86c5.27-0.04,9.77,1.74,13.61,5.26c5.19,4.76,5.93,9.33,2.74,15.66c-0.66,1.31-1.02,2.78-1.52,4.18
			C450.26,150.97,444.53,156.61,436.01,157.06z"/>
		<path class="st35" d="M722.93,514c-2.52-4.71-3.43-9.94-4.95-14.98c0.51-7.69,10.13-17.42,17.8-18.08
			c2.16-0.19,3.91,0.51,5.2,2.21c1.32,1.75,3.69,2.21,4.89,4.08c1.62,1.14,3.38,2.14,4.84,3.46c5.44,4.9,6.25,12.23,2.16,18.29
			c-1.02,1.51-2.01,3.04-3.01,4.57c-5.86,6.78-16.09,8.93-23.08,4.79C725.07,517.31,723.53,516.05,722.93,514z"/>
		<path class="st35" d="M487.96,589.85c2.46-0.42,5.17-1.39,4.92,2.92c-0.14,2.35,1.89,1.82,3.23,2.01
			c3.55,0.49,6.67,1.73,9.06,4.55c3.98,4.67,3.98,7.94-0.09,14.66c-2.57,9.89-14.98,14.94-22.1,8.99c-0.39-0.29-0.75-0.64-1.17-0.86
			c-10.08-5.05-11.47-8.9-6.93-19.19C476.91,596.25,480.85,591.46,487.96,589.85z"/>
		<path class="st35" d="M473.96,123.99c-5.16,2.42-9.24-0.03-11.61-5.73c-2.9-6.98-2.87-14.06,1.33-20.47
			c3.22-4.91,13.61-4.6,19.52,0.13c4.54,3.63,7.21,11.34,5.58,16.07C486.56,120.49,481.62,124.07,473.96,123.99z"/>
		<path class="st35" d="M918.7,734.01c-0.98-6.66,1.67-12.54,4.16-18.39c1.49-3.51,4.4-3.43,7.81-2.84
			c2.38,0.42,4.87,0.41,7.22,1.19c3.66,0.43,6.05,2.43,7.24,5.9c5.72,6.06,3.99,12.1-0.04,18.13c-1.64,4.14-5.21,6.41-10.46,6.41
			c-4.95-0.01-9.31-2.04-13.48-4.42C918.93,738.73,918.34,736.49,918.7,734.01z"/>
		<path class="st35" d="M501.96,562.2c-3.35,0.86-6.81,0.29-10.17,0.39c-4.42,0.14-5.06-4.44-5.86-7.81
			c-0.51-2.17-0.09-4.56-0.09-6.84c-0.88-3.17-1.2-6.25,1.36-8.89c1.95-2.94,2.83-7.56,8.03-2.63c1.92,1.82,6.39,0.18,9.54,1.55
			c2.26,0.98,4.52,1.76,6.26,3.78c4.2,4.89,3.7,9.46-0.38,14.03C509.01,560.78,506.66,562.52,501.96,562.2z"/>
		<path class="st38" d="M918.7,734.01c3.85,9.51,18.1,11.67,26.39,4c0.79,3.6-3.26,9.9-7.74,12.2c-4.82,2.47-9.7,2.11-14.06-0.6
			C919.19,747.08,917.26,739.25,918.7,734.01z"/>
		<path class="st33" d="M482.97,622.98c10.05,3.59,16.7-1.17,22.1-8.99c2.86,0.2,4.37,3.42,2.93,6.42
			c-0.71,1.49-1.44,3.03-2.48,4.29c-9.05,10.89-14.13,10.34-23.42-0.2C481.2,623.46,482.04,623.11,482.97,622.98z"/>
		<path class="st49" d="M745.87,487.22c-2.47-0.56-4.5-1.01-6.13-3.8c-1.66-2.85-5.19-1.14-7.65,0.17
			c-6.48,3.46-11.39,8.46-14.11,15.42c-4.28-7.67,3.98-18.49,11.02-20.93C735.33,475.89,743.18,480.04,745.87,487.22z"/>
		<path class="st50" d="M722.93,514c8.74,6.56,17.15,6.42,26.93-0.46c-1.93,5.5-5.37,9.63-11.38,10.36
			c-6.76,0.82-11.36-3.48-15.78-7.78C722.02,515.46,722.14,514.63,722.93,514z"/>
		<path class="st51" d="M986.84,395.99c0.22,0.21,0.29,0.47,0.22,0.76c-2.4-0.45-5.6-3.57-5.83-5.7c-0.3-2.8,4.8-10.59,7.84-11.98
			c-0.79,2.67-1.58,5.33-2.37,8C986.29,390.06,986,393.03,986.84,395.99z"/>
		<path class="st52" d="M432.01,531.9c-5.53,1.77-10.7,4.3-15.65,7.3c-1.7-1.93,0.14-3.03,1.13-4.11c3.22-3.49,7.63-4.37,12.07-5.04
			C430.87,529.85,431.79,530.5,432.01,531.9z"/>
		<path class="st53" d="M487.96,589.85c-5.6,3.13-9.5,7.95-13.09,13.09C473.24,596.35,481.41,588.19,487.96,589.85z"/>
		<path class="st50" d="M210.03,870.06c-4.67-1.1-9.33-2.21-14-3.31c-0.32-0.92-2.44-0.62-1.78-1.67c0.7-1.1,2.08-2.35,3.76-1.94
			C202.66,864.29,207.48,865.22,210.03,870.06z"/>
		<path class="st54" d="M436.01,157.06c9.28-1.37,12.62-8.78,16.2-15.94C453.46,150.06,443.81,159.55,436.01,157.06z"/>
		<path class="st55" d="M501.96,562.2c3.64-1.14,6.3-3.59,8.68-6.42c2.93,3.19,1.11,5.77-1.62,7.29
			C506.91,564.25,503.91,565.62,501.96,562.2z"/>
		<path class="st56" d="M945.13,719.88c-2.41-1.97-4.82-3.93-7.24-5.9c-0.21-3.38,2.02-3.63,3.92-2.27
			C944.42,713.56,947.1,715.92,945.13,719.88z"/>
		<path class="st57" d="M487.2,539.05c-0.45,2.96-0.91,5.92-1.36,8.89C482.75,542.64,483.12,540.24,487.2,539.05z"/>
		<path class="st16" d="M372.87,854.85c3.08-1.3,6.23-1.25,9.15,0.21c19.24,9.62,33.42,23.8,39.86,44.82
			c0.19,0.63,0.28,1.3,0.41,1.95c-3.74-4.63-4.79-10.81-8.87-15.25c-1.34-1.45-2.3-3.35-3.84-4.49
			c-10.58-7.82-18.52-18.76-30.19-25.31C377.29,855.59,375.24,854.86,372.87,854.85z"/>
		<path class="st16" d="M322.93,968.89c-0.83,2.61-1.67,5.21-2.95,9.22c-5.39-16.34-5.13-31.32-1.03-46.4
			c0.07,10.31-1.66,20.7,1.15,30.88C320.71,964.77,319.89,967.74,322.93,968.89z"/>
		<path class="st58" d="M341.02,873.91c2.06-2.31,4.4-4.29,7.05-5.87C347.54,872.18,344.52,873.33,341.02,873.91z"/>
		<path class="st59" d="M119.11,890.8c11.15,5.8,19.49,14.17,23.9,26.13C133.87,909.3,127,899.58,119.11,890.8z"/>
		<path class="st32" d="M132.02,54c0,1.5,0.04,3-0.01,4.49c-0.27,7.99-5,13.21-12.96,13.74c-4.17,0.28-8.25,3.14-12.57,0.59
			c-7.09-4.17-13.55-8.85-17.44-16.54c-4.87-9.63-10.47-18.78-9.39-30.39c0.9-9.64,6.28-15.78,14.29-19.42
			c7.51-3.41,14.85-1,20.6,4.63C126.5,22.82,132.99,36.94,132.02,54z"/>
		<path class="st32" d="M0.93,449.1c-0.01-1.73-0.01-3.46-0.02-5.19c0.15-3.45,1.82-5.04,5.4-4.91c5.25,0.18,10.37-1.89,15.77-0.19
			c9.62,3.02,14.87,15.9,8.78,25.28c-1.9,2.93-5.71,3.75-8.92,3.64C10.49,467.3,1.15,460.97,0.93,449.1z"/>
		<path class="st16" d="M986.84,395.99c-1.55-2.95-1.37-5.92-0.14-8.91C986.75,390.05,986.8,393.02,986.84,395.99z"/>
		<path class="st32" d="M926.8,361.42c-2.4-1.78-4.74-3.66-7.22-5.32c-13.23-8.87-29.34-4.82-36.92,9.23
			c-2.22,4.11-3.8,8.41-4.97,12.96c-1.16,4.54-0.4,9.17-1.1,13.65c-1.05,0.18-1.38-0.51-1.59-1.07
			c-5.69-14.83-13.39-29.36-13.31-45.54c0.09-19.31-0.48-39.08,10.46-56.52c2.03-3.24,3.91-6.6,6.88-9.12
			c9.24-7.87,18.54-8.28,27.63-0.04c13.47,12.22,24.12,26.54,29.18,44.4c-0.1,3.42-1.96,5.99-4.35,8.08
			c-3.02,2.64-4.06,5.83-3.92,9.72c0.19,4.97-0.08,9.94,0.17,14.91C927.81,358.37,928.26,360.1,926.8,361.42z"/>
		<path class="st32" d="M930.06,288.98c-3.48-3.8-7.18-7.43-10.38-11.45c-6.12-7.71-14.59-11.35-23.57-14.05
			c-4.63-1.39-9.07-0.34-13.4,2.05c-15.88,8.76-23.18,23.31-26.68,40.08c-2.2,10.54-2.8,21.38-3.4,32.15
			c-0.09,1.54,0.36,3.24-1.24,5.52c-2.02-13.7-5.55-26.25-6.42-39.27c-0.8-11.95-0.98-23.88,0.84-35.78
			c0.55-3.57,2.01-6.65,4.1-9.47c2.37-3.21,5.18-6.13,7.25-9.5c4.45-7.25,11.19-10.96,18.89-13.73c7.35-2.65,13.66-1.47,19.33,3.77
			c1.83,1.69,3.67,3.37,5.5,5.06c0.57,0.6,1.24,1.16,1.65,1.86c3.67,6.31,9.02,10.97,14.18,16.02c6.88,6.73,10.39,16.02,14.48,24.7
			C931.65,287.91,931.57,288.93,930.06,288.98z"/>
		<path class="st32" d="M931.17,405.73c0.23,7.96-2.85,10.79-15.24,12.35c-8.91,1.12-14.27-2.56-19.02-9.43
			c-6.52-9.44-10.53-19.17-6.96-30.76c0.94-3.04,2.35-5.85,4.2-8.43c3.96-5.52,11.51-7.55,17.2-3.87
			C924.18,373.91,931.25,385.64,931.17,405.73z"/>
		<path class="st60" d="M926.8,361.42c-1.71-8.01-0.63-16.13-0.85-24.2c-0.04-1.53,0.49-3.07,1.8-3.91
			c3.61-2.33,5.44-6.14,8.08-9.27c4.01,10.52,5.31,21.55,5.98,32.66c0.49,8.29-0.35,16.64,0.81,24.92c0.27,1.95-0.3,3.84-1.26,5.92
			C938.36,377.61,933.03,369.26,926.8,361.42z"/>
		<path class="st61" d="M930.06,288.98c0.6-4.73-2.66-7.98-5-11.23c-3.66-5.09-4.84-11.66-9.82-15.88c-0.5-0.43-0.88-1.22-1.43-1.34
			c-8.68-1.92-9.04-10.45-12.92-16.17c16.74,13.34,28.54,29.97,33.45,51.22C932.91,293.39,931.48,291.18,930.06,288.98z"/>
		<path class="st32" d="M838.22,801.81c23.82,6.09,41.68,18.98,49.96,43.16c5.26,15.35,7.79,31.07,5.64,47.13
			c-1.7,12.67-5.14,25.02-12,37.41c-1.12-5.28-2.18-9.51-2.91-13.79c-2.5-14.72-13.28-21.57-25.57-26.87
			c-3.11-1.34-6.61-1.18-9.83-0.07c-30.02,10.39-42.96,36.84-29.04,64.56c0.79,1.58,1.5,3.21,2.64,5.65
			c-6.2-3.18-10.49-7.4-14.47-11.62c-11.91-12.62-23.05-25.87-27.1-43.45c-4.4-19.12-4.63-37.78,4.83-55.82
			c4.86-9.28,8.86-19.01,14.67-27.78c1.75-2.64,3.56-5.25,6.69-6.47c2.45-0.49,4.51-1.66,6.49-3.2
			C817.06,803.81,827.13,801.04,838.22,801.81z"/>
		<path class="st32" d="M869.11,945.25c0.05,9.81-5.61,15.45-12.32,20.05c-12.61,8.66-19.54,7.23-28.22-5.53
			c-4.2-6.17-8.08-12.54-9.97-19.93c-3.21-12.53,2-29.5,19.7-32.08c12.33-1.8,19.25,1.4,25.14,12.65
			C867.7,928.57,867.61,937.4,869.11,945.25z"/>
		<path class="st16" d="M838.22,801.81c-11.16,1.6-22.33,3.33-31.01,11.46c-1.95,1.83-3.6,0.9-5.47,0.57
			c9.3-7.42,18.78-14.38,31.7-13C835.06,801.02,836.78,800.7,838.22,801.81z"/>
		<path class="st32" d="M320.91,341.72c5.09-14.29,13.82-26.07,25.36-35.72c5.22-4.36,11.62-6.31,18.48-6.63
			c4-0.19,7.41,0.83,10.62,3.37c14.86,11.76,23.6,27.24,27.91,45.41c4.51,19.05,4.88,38.19,0.88,57.39
			c-1.94,9.28-7.83,16.77-11.73,25.51c0.16-11.01-4.74-19.58-11.68-27.52c-13.7-15.67-41.67-13.75-50.88,4.14
			c-1.75,3.39-3.88,6.58-5.08,10.25c-4.14-4.19-5.31-9.82-6.27-15.13C314.83,382.31,314.28,361.84,320.91,341.72z"/>
		<path class="st32" d="M335.13,425.44c-0.09-6.58,5.75-16.63,11.43-18.66c8.25-2.95,16.31-2.96,23.38,3.27
			c10.7,9.42,13.06,21.47,10.93,34.9c-0.38,2.37-1.66,4.25-3.54,5.83c-3.44,2.89-6.73,5.97-9.34,9.66c-2.02,2.85-4.44,2.95-7.4,1.65
			C343.62,454.61,336.72,446.52,335.13,425.44z"/>
		<path class="st16" d="M320.91,341.72c-4.08,15.12-3.07,30.6-2.74,45.95c0.22,10.4,2.17,20.66,6.63,30.25
			c-0.69-0.34-1.73-0.49-2.02-1.03c-3.92-7.48-7.58-14.99-8.27-23.67C313.12,375.58,313.21,358.19,320.91,341.72z"/>
		<path class="st32" d="M133.33,655.81c-4.85-13.32-9.28-26.85-9.75-41.08c-0.51-15.34,5.26-28.95,14.85-40.72
			c4.11-5.04,18.35-7.04,24.49-3.82c20.14,10.54,32.12,26.78,34.18,49.84c0.65,7.3,1.13,14.57,0.69,22.27
			c-2.34-1.02-2.37-3.2-3.1-4.84c-5.14-11.61-13.39-19.7-25.94-22.86c-10.74-2.71-22.55,2.94-27.64,12.72
			c-4.34,8.34-8.43,16.65-6.93,26.48C134.45,654.7,135.2,655.81,133.33,655.81z"/>
		<path class="st32" d="M152.33,665.24c-0.21-3.56,0.78-6.89,2.16-10.1c2.88-6.7,10.17-9.04,16.77-5.74
			c7.37,3.69,10.28,9.85,10.77,17.68c0.15,2.44-0.92,3.54-3.02,4.4c-5.21,2.15-10.53,4-16,5.28
			C155.52,678.5,152.43,675.08,152.33,665.24z"/>
		<path class="st32" d="M144.99,655.48c-3.36-8.81,0.36-23.11,7.19-28.64c3.72-3.01,8.54-4.18,13.15-3.62
			c11.11,1.35,22.68,15.57,22.57,27.25c-6.68-7.16-13.92-12.85-24.37-12.37C152.62,638.6,146.21,643.96,144.99,655.48z"/>
		<path class="st62" d="M133.33,655.81c0.29-0.67,0.57-1.35,0.86-2.02c0.84,2.63,0.84,2.63,0.42,6.67
			C133.98,658.18,133.66,657,133.33,655.81z"/>
		<path class="st32" d="M745.34,62.16c-6.61-0.02-12.38-2.39-17.12-6.85c-3.75-3.54-5.48-7.8-2.89-13.01
			c0.86-1.74,1.19-3.8,1.47-5.75c0.25-1.71,0.86-3.18,1.87-4.52c4.06-5.35,17.63-9.34,23.92-7.03c1.87,0.68,3.7,1.48,5.61,2.02
			c3.56,1.01,5.53,3.6,6.72,6.8C769.43,45.87,758.04,62.27,745.34,62.16z"/>
		<path class="st32" d="M416.02,563.07c0.21-11.31,7.43-20.19,16.38-19.95c9.18,0.24,22.41,8.28,21.88,19.71
			c-0.55,11.74-8.69,21.21-18.47,20.96C423.45,583.47,415.79,575.45,416.02,563.07z"/>
		<path class="st32" d="M197.46,907c-3.74,0.06-7.25-1.01-10.54-2.59c-5.32-2.56-7.21-8.85-4.7-14.26c1.18-2.53,1.61-5.47,3.05-7.82
			c4.57-7.43,12.47-8.89,22.1-4.42c7.26,3.37,8.01,4.77,6.68,12.65C212.22,901.46,206.62,907.01,197.46,907z"/>
		<path class="st32" d="M432.75,125.01c15.07-0.69,16.65,6.19,11.72,16.54c-3.91,8.2-15.01,8.61-20.14,0.9
			c-3.8-5.71-3.82-11,0.46-16.23C427,123.5,430.43,125.66,432.75,125.01z"/>
		<path class="st36" d="M736.35,509.91c-5.23,0.03-8.1-2.86-7.99-8.53c0.06-3.29,1.96-5.74,5.37-5.87
			c5.79-0.22,11.84,3.63,11.79,7.07C745.46,506.47,741.19,509.88,736.35,509.91z"/>
		<path class="st40" d="M490.1,614.63c-2.11-1.11-5.8-0.57-6.1-4.4c-0.21-2.74,3.85-8.32,5.6-8.25c4.65,0.19,8.73,3.09,8.46,6.01
			C497.77,611.13,493.45,614.87,490.1,614.63z"/>
		<path class="st63" d="M480.15,110.69c-0.11,2.56-1.31,4.07-4,4.05c-1.26-0.01-5.98-7.16-5.95-8.97c0.03-1.84,1.42-2.08,2.77-2.13
			C476.34,103.52,480.22,107.38,480.15,110.69z"/>
		<path class="st36" d="M933.44,734.97c-2.54-0.72-6.85-0.44-6.25-5.21c0.3-2.38-1.29-6.69,3.55-6.88c3.11-0.12,9.2,4.99,9.07,7.27
			C939.64,733.11,937.35,735.01,933.44,734.97z"/>
		<path class="st45" d="M498.44,554.22c-5.5-0.11-2.79-4.97-4.12-7.48c-0.76-1.42,0.73-2.66,2.22-2.25
			c3.11,0.84,7.26,1.29,7.71,5.05C504.62,552.59,501.81,554.35,498.44,554.22z"/>
	</g>
</g>
</svg>
