<?xml version="1.0" encoding="utf-8"?>
<!-- Generator: Adobe Illustrator 24.2.1, SVG Export Plug-In . SVG Version: 6.00 Build 0)  -->
<svg version="1.1" xmlns="http://www.w3.org/2000/svg" xmlns:xlink="http://www.w3.org/1999/xlink" x="0px" y="0px"
	 viewBox="0 0 1000 1000" style="enable-background:new 0 0 1000 1000;" xml:space="preserve">
<style type="text/css">
	.st0{display:none;}
	.st1{display:inline;}
	.st2{fill:#FAD4D5;}
	.st3{fill:#FBEAEA;}
	.st4{fill:#F47479;}
	.st5{fill:#FBDDDE;}
	.st6{fill:#FBDEDF;}
	.st7{fill:#D9D0ED;}
	.st8{fill:#E1DCEC;}
	.st9{fill:#7E66B3;}
</style>
<g id="Layer_3" class="st0">
	<g class="st1">
		<path class="st2" d="M999.9,308.04c0,33.33,0,66.65,0,99.98c-2.46,1.79-5.15,0.92-7.73,0.57c-23.91-3.22-47.91-5.32-71.99-6.89
			c-19.31-1.26-38.6-0.87-57.88-0.63c-14.79,0.19-29.51,2.24-44,5.5c-3.13,0.7-6.47,1.42-7.15,5.22c-0.74,4.18,0.24,7.92,3.93,10.6
			c3.26,2.36,6.77,4.32,10.55,5.6c18.31,6.19,36.88,11.22,56.23,13.09c16.05,1.55,32.04,3.84,48.14,4.84
			c16.53,1.02,32.92-0.25,49.13-3.67c4.56-0.96,9.1-2.01,13.71-2.71c2.5-0.38,5.01-0.5,7.04,1.48c0,66.99,0,133.98,0,200.96
			c-0.95,0.93-1.79,1.94-2.8,2.83c-5.49,4.83-5.84,9.94-1,15.56c1.3,1.51,2.47,3.13,3.8,4.61c0,67.32,0,134.64,0,201.96
			c-1.39,1.56-3.19,2.34-5.18,2.8c-7.8,1.81-15.43,4.3-22.89,7.06c-9.71,3.6-19.21,3.05-28.98,1.04c-2.47-0.51-5.81-2.56-7.42-0.04
			c-1.91,2.99-0.12,6.56,1.97,9.22c6.71,8.53,15.93,12.27,26.46,13.14c10.19,0.83,19.73-2.45,29.37-4.99
			c2.18-0.57,4.37-1.94,6.65-0.24c0,33.49-0.07,66.99,0.1,100.48c0.02,3.75-0.85,4.59-4.6,4.59c-331.77-0.1-663.54-0.09-995.31-0.09
			c0-34.99,0-69.99,0-104.98c2.95-3.49,7.23-3.17,11.09-3.48c6.68-0.54,13.25,0.97,19.83,1.97c1.16,0.18,2.55,0.48,2.91,1.65
			c0.48,1.56-1.1,2.22-2.04,3.08c-0.49,0.45,0.1-0.14-0.4,0.3c-2.3,2.03-5.75,3.51-4.67,7.46c1.08,3.94,4.21,5.77,8.01,6.69
			c14.55,3.51,28.74,0.71,43.02-2.09c8.42-1.65,15.56-4.89,21.9-10.84c6.25-5.85,15.1-7.64,22.15-12.41
			c14.32-9.68,29.36-18.43,40.12-32.53c3.64-4.77,9.1-7.15,14.32-9.78c3.71-1.87,7.56-3.57,10.23-6.97
			c4.2-5.34,2.64-9.83-3.97-11.48c-3.3-0.82-6.55-0.83-9.87,0.01c-10.63,2.69-19.4,8.38-27.31,15.86
			c-13.39,12.65-28.36,23.1-45.17,30.81c-3.54,1.62-7.22,2.52-11.12,2.43c-3.18-0.07-6.39,0.08-9.37,1.21
			c-4.9,1.87-9.26,1.24-13.76-1.48c-8.05-4.86-17.12-6.47-26.35-6.64c-7.18-0.13-14.3-0.44-21.38-1.69
			c-3.83-0.68-7.62-0.28-11.43,0.32c-2.23,0.35-4.58,1.29-6.74-0.38c0-66.99,0-133.98,0-200.96c2.16-1.76,4.44-0.89,6.65-0.21
			c12.53,3.85,25.44,5.08,38.44,5.27c7,0.1,13.9,1.48,20.92,1.09c25.77-1.45,51.57-0.83,77.35-1.08c7.01-0.07,13.91-1.46,20.68-3.22
			c5.75-1.5,9.6-6.09,9.94-11.17c0.44-6.61-1.82-11.04-7.96-13.56c-16.67-6.81-33.5-12.9-52.03-12.38
			c-8.11,0.23-16.24-1.04-24.41-0.89c-23.15,0.45-46.15,2.42-69.01,6.19c-5.92,0.98-11.86,1.68-17.2,4.73c-1,0.57-2.2,0.8-3.36,0.23
			c0-66.99,0-133.98,0-200.96c6.02-3.79,11.92-7.78,18.79-10.01c3.84-1.25,7.74-2.68,7.96-7.69c0.18-4.06-3.05-7.77-8.17-9.52
			c-3.63-1.23-7.41-1.76-11.2-2.3c-2.6-0.37-5.35-0.41-7.39-2.48C0.09,273.54,0.11,139.07,0,4.59C0,0.84,0.84,0,4.59,0
			C334.86,0.1,665.13,0.1,995.4,0c3.75,0,4.6,0.84,4.59,4.59c-0.13,74.82-0.1,149.64-0.1,224.46c-2.14,2.09-4.88,2.09-7.52,1.84
			c-18.95-1.83-37.94-0.77-56.91-0.81c-24.49-0.06-48.86,1.87-73.04,5.87c-5.43,0.9-10.72,2.4-16.02,3.83
			c-2.4,0.65-4.77,1.56-7.33,1.14c-3.07-1.19-2.56-3.69-1.75-5.86c3.4-9.09,4.88-18.68,7.48-27.95c2.21-7.88,5.23-15.8,11.52-21.81
			c7.15-6.84,12.06-15.31,14.8-24.6c5.81-19.69,17.74-35.2,31.79-49.46c2.82-2.87,5.33-6,7-9.67c2.09-4.6,0.48-6.76-4.46-6.14
			c-5.59,0.69-10.49,3.17-15.18,6.09c-16.63,10.37-27.67,25.21-34.39,43.43c-1.5,4.06-2.86,8.18-4.22,12.29
			c-4.09,12.4-13.05,21.54-20.8,31.49c-1.34,1.72-3.25,2.99-5.41,3.43c-5.5,1.13-10.04,4.25-15,6.55c-9.6,4.44-19.88,4.93-30.2,2.57
			c-11.86-2.71-23.49-6.17-34.81-10.69c-2.45-0.98-6.65-3.1-7.68-0.67c-1.28,3.02,3.14,4.42,5.58,5.82
			c4.19,2.4,8.77,4.12,13.35,5.57c13.13,4.17,25.91,9.6,39.93,10.64c4.57,0.34,8.94-0.13,13.39-0.69c5.26-0.66,6.78,0.86,5.95,6.13
			c-0.89,5.64-2.19,11.09-7.05,14.97c-3.24,2.58-1.88,6.01-1.08,9.26c0.74,3.01,2.9,3.65,5.63,3.84c5.87,0.39,10.13,4.24,14.78,7.21
			c-2.09,4.48-1.1,8.78,0.88,12.96c1.29,2.73,2.63,5.47,2.53,8.54c-0.29,8.8,5.12,13.29,12.3,16.29c9.15,3.82,18.89,5.33,28.63,6.55
			c20.3,2.56,40.7,4,61.11,5.3c18.41,1.17,36.79,2.89,55.26,3.05C992.71,305.38,996.69,305.4,999.9,308.04z"/>
		<path class="st3" d="M837.75,239.96c10.95-2.61,21.71-6.1,32.97-7.36c7.23-0.81,14.44-1.85,21.68-2.52
			c29.33-2.72,58.75-2,88.14-2.04c6.48-0.01,12.86,1.63,19.36,1.01c0,26.33,0,52.66,0,78.99c-21.33-1.5-42.72-1.96-64.06-3.72
			c-11.05-0.91-22.18-1.5-33.24-2.42c-19.46-1.63-39.07-2.7-57.83-9.03c-10.69-3.61-14.37-8.36-14.83-19.57
			c-0.19-4.55-3.68-7.72-4.51-12.03c-0.71-3.65-1.12-6.9,2.48-9.24c4.11-2.27,6.79-5.58,7.79-10.25
			C835.91,240.84,836.5,239.93,837.75,239.96z"/>
		<path class="st3" d="M999.9,441.01c-9.45-0.5-18.27,3.04-27.43,4.39c-15.48,2.29-30.87,3.02-46.56,1.9
			c-17.04-1.21-33.94-3.32-50.85-5.4c-11.97-1.48-23.96-3.01-35.35-7.69c-8.39-3.45-17.79-4.27-25.38-9.93
			c-4.41-3.29-6.79-8.91-5.21-13.95c0.93-2.95,3.32-4.61,6.23-5.17c12.35-2.4,24.75-4.29,37.34-5.31
			c19.62-1.58,39.25-1.08,58.83-0.58c15.34,0.39,30.71,1.88,46.04,3.46c12.51,1.3,24.99,2.87,37.48,4.3
			c1.64,0.19,3.25,0.64,4.87,0.98C999.9,419.02,999.9,430.01,999.9,441.01z"/>
		<path class="st3" d="M0.09,640.97c7.45-6.4,16.96-6.49,25.83-7.78c24.95-3.62,50.07-6.2,75.31-5.04
			c13.18,0.61,26.63-0.13,39.47,3.83c9.03,2.78,17.98,5.89,26.74,9.42c6.93,2.79,9.77,9.28,8.59,17.34
			c-0.72,4.91-6.68,9.79-12.64,11.31c-15.88,4.04-32.03,2.58-48.1,2.95c-11.78,0.27-23.54-0.25-35.36,0.7
			c-15.21,1.21-30.48-0.57-45.72-1.39c-11.7-0.63-22.92-3.26-34.11-6.33C0.09,657.64,0.09,649.31,0.09,640.97z"/>
		<path class="st4" d="M0.09,866.93c7.02-1.64,14.04-2.66,21.25-1.12c8.69,1.86,17.6,0.69,26.36,1.85
			c7.39,0.98,14.34,3.14,20.64,7.01c3.1,1.9,5.76,2.58,9.24,1.03c2.36-1.05,5.21-1.72,7.76-1.54c10.67,0.74,19.52-3.99,27.82-9.51
			c11.9-7.91,23.82-15.77,34-26.1c7.32-7.44,16.69-12.01,27.09-14.15c3.92-0.81,7.72-0.2,11.31,1c6.88,2.3,7.1,10.63,0.3,15.84
			c-3.01,2.3-6.5,4.05-9.93,5.7c-5.94,2.86-11.28,6.39-15.23,11.79c-7.35,10.05-18.1,16.05-27.8,23.31
			c-7.37,5.53-15.4,9.91-23.74,13.73c-3.83,1.75-7.76,3.44-10.39,6.71c-5.23,6.51-12.61,7.92-20.1,9.53
			c-13.55,2.91-27.09,5.41-41.01,2.93c-2.78-0.5-5.62-0.89-8.1-2.37c-5.91-3.52-6.54-9.26-1.47-13.67c1.47-1.28,3.15-2.32,5.1-3.74
			c-11.26-1.21-22.14-3.83-33.11-0.22C0.09,885.59,0.09,876.26,0.09,866.93z"/>
		<path class="st4" d="M999.9,894.93c-11.82,3.29-23.43,7.83-35.99,7c-10.27-0.68-19.37-4.32-26.6-11.97
			c-1.88-1.99-3.09-4.29-3.82-6.9c-2.09-7.47-0.43-9.48,6.87-7.45c12.67,3.51,24.84,2.45,37.05-2.26c7.25-2.79,14.7-5.29,22.49-6.41
			C999.9,876.26,999.9,885.59,999.9,894.93z"/>
		<path class="st3" d="M0.09,408.02c6.91,0.67,13.84,1.29,20.44,3.67c4.82,1.74,8.46,6.15,8.32,10.64
			c-0.15,4.83-3.18,7.58-7.64,8.57c-6.14,1.35-11.09,5.03-16.39,8.01c-1.56,0.88-3.06,1.14-4.74,1.1
			C0.09,429.35,0.09,418.68,0.09,408.02z"/>
		<path class="st3" d="M999.9,664.97c-6.34-2.32-8.78-7.59-8.77-13.58c0-5.16,3.88-8.09,8.77-9.41
			C999.9,649.64,999.9,657.3,999.9,664.97z"/>
		<path class="st3" d="M576.71,822.93c8.99,0,17.99-0.09,26.98,0.02c22.43,0.26,44.81,1.86,67.24,2.32
			c21.17,0.43,42.17,4.2,62.88,9.05c7.89,1.85,16.06,2.36,23.93,4.53c5.89,1.62,11.27,4.08,15.76,8.22
			c2.07,1.91,4.48,2.98,7.05,3.52c8.33,1.75,14.41,12.99,7.57,22.39c-4.58,6.3-10.6,10.64-18.8,11.98
			c-15.85,2.6-31.59,5.93-47.42,8.7c-4.88,0.85-9.9,1.16-14.86,1.21c-15.16,0.15-30.33,0.52-45.47-0.03
			c-54.6-2.01-109.21,0.03-163.8-1.09c-19.67-0.4-39.29-2.64-58.85-5.41c-14.22-2.01-27.75-6.55-41.74-9.3
			c-5.87-1.16-11.59-4.14-15.6-8.4c-7.79-8.26-6.48-17.62,5.19-22.59c21.97-9.36,45.27-13.88,68.86-17.23
			c20.84-2.96,41.78-4.84,62.71-6.74C537.76,822.3,557.25,822.98,576.71,822.93z"/>
		<path class="st3" d="M549.58,121.06c-12.76,0-23.1,0.3-33.41-0.06c-23.22-0.82-46.44-1.64-69.63-3.07
			c-18.67-1.16-37.32-2.93-55.91-5.01c-9.19-1.03-18.46-2.48-26.98-6.56c-5.97-2.85-8.94-7.35-8.74-14.27
			c0.18-6.36,4.46-8.64,9.18-10.29c17.08-5.99,33.77-13.22,51.46-17.31c14.53-3.36,29.26-5.44,44.2-6.59
			c18.31-1.41,36.62-1.17,54.86-0.56c17.75,0.6,35.51,1.24,53.25,1.96c21.34,0.86,42.64,2.93,63.91,4.91
			c16.41,1.53,32.38,5.35,47.91,10.93c3.35,1.2,6.44,2.72,8.09,6.18c2.25,4.71,2.26,11.33-4.79,13.03
			c-5.85,1.41-11.73,2.07-17.66,2.71c-4.45,0.48-8.95,0.6-13.35,1.32c-2.18,0.36-4.64,0.52-6.35,2.52
			c-8.77,10.3-21.15,13.18-33.47,16.22C590.72,122.41,568.88,120.88,549.58,121.06z"/>
		<path class="st3" d="M902.63,602.76c-8.65,1.14-16.86-0.97-25.18-0.83c-17.43,0.3-34.7,2.42-52.03,3.88
			c-10.57,0.9-21.16,1.48-31.75,2.15c-15.04,0.94-30.03,2.56-45.05,3.7c-12.23,0.93-24.4,2.37-36.61,3.42
			c-13.04,1.13-25.98,3.34-39.15,2.96c-3.86-0.11-7.62-0.75-11.32-1.49c-6.57-1.32-10.43-6.4-10.53-13.22
			c-0.03-2.24-0.59-4.03-1.92-5.96c-4.13-5.98-2.53-11.22,3.74-14.86c7.76-4.49,16.53-5.13,24.98-6.1
			c18.05-2.09,35.35-7.46,53.08-10.84c16.92-3.22,33.96-5.72,51.08-7.61c14.15-1.57,28.28-3.28,42.43-4.8
			c4.77-0.51,9.6-0.71,14.38-1c26.25-1.57,52.56-1.78,78.82-0.97c18.52,0.57,36.95,3.14,55.13,6.97c5.96,1.26,11.41,4.22,13.8,9.76
			c4.12,9.55,0.77,16.53-10.46,19.95c-3.63,1.1-7.5,1.37-11.22,2.18c-4.53,0.98-8.89,1.94-12.41,5.67
			c-3.37,3.56-8.62,3.22-13.1,4.04c-5.03,0.91-10.26,0.61-15.34,1.28C916.77,601.98,909.69,604.04,902.63,602.76z"/>
		<path class="st3" d="M615.14,200.14c-17.26-0.24-29.8,0.88-42.04-2.16c-8.12-2.02-16.03-4.63-20.97-12.23
			c-5.12-7.88-3.12-17.88,4.66-23.18c10.49-7.14,22.73-9.09,34.76-11.48c25.83-5.12,51.96-7.22,78.23-5.88
			c13.36,0.68,26.82,1.99,38.72,9.48c2.72,1.71,6.27,2.08,9.38,3.22c6.87,2.52,10.62,7.98,11.18,14.42
			c0.61,6.96-4.79,11.57-12.56,14.66c-12.43,4.93-25.5,7.4-38.69,8.94C655.39,198.57,632.94,200.81,615.14,200.14z"/>
		<path class="st4" d="M234.03,276.1c3.88,0.71,7.64-1.2,11.37-4.66c6.72-6.23,14.4-11.29,22.46-15.7
			c4.96-2.71,10.42-3.3,15.91-3.64c5.18-0.33,10.15-1.09,14.77-3.88c4.97-3,17.82,2.45,18.18,8.68c0.56,9.77,7.52,12.89,13.89,17.15
			c11.21,7.49,22.74,14.55,33.53,22.6c10.08,7.53,19.13,16.46,21.33,29.67c1.75,10.47-1.61,19.46-10.37,25.91
			c-6.72,4.95-12.07,2.59-13.11-5.64c-0.19-1.48-0.21-3.01-0.08-4.49c0.91-10.19-3.9-17.58-11.54-23.53
			c-11.45-8.91-23.98-16.22-35.98-24.32c-1.52-1.02-3.38-1.73-4.54-3.06c-7.13-8.15-14.56-6.83-23.51-2.56
			c-10.31,4.93-21.35,8.49-32.96,9.4c-2.06,0.16-3.33,1.33-4.67,2.58c-11.58,10.83-23.84,20.91-37.53,28.86
			c-10.34,6.01-20.96,11.58-31.3,17.62c-5.08,2.97-10.69,4.57-16.45,5.64c-2.88,0.53-5.43,0.04-8.16-1.26
			c-3.83-1.82-3.79-4.16-1.98-7.21c2.5-4.21,6.86-6.12,10.7-8.74c17.95-12.27,37.82-21.7,54.09-36.46c2.76-2.51,5.39-4.01,1.98-8.57
			c-3.85-5.14,1.33-13.86,7.84-14.38C229.55,275.98,231.23,276.1,234.03,276.1z"/>
		<path class="st4" d="M449.41,478.97c5.29,3.77,9.29,8.63,12.8,13.87c6.09,9.07,13.76,16.03,23.99,20.36
			c9.81,4.15,19.4,8.64,29.68,11.73c22.52,6.78,39.37,30.14,39.98,54.46c0.06,2.48,0.01,4.97,0.01,8.68
			c2.39-3.89,2.79-7.22,3.53-10.32c3.5-14.75,7.94-29.23,12.76-43.58c4.16-12.39,4.16-24.8,1.2-37.34c-1-4.24-1.75-8.45-1.56-12.84
			c0.1-2.28,0.86-4.2,2.18-5.98c2.28-3.05,4.42-3.39,7.24-0.35c13.44,14.49,18.48,31.31,14.1,50.65
			c-3.95,17.41-11.16,33.82-15.97,50.97c-2.06,7.34-3.32,14.94-7.31,21.69c-3.98,6.73-8.86,12.12-15.85,16.1
			c-5.99,3.41-11.21,8.29-16.46,12.88c-6.64,5.81-13.88,8.92-22.86,7.34c-3.26-0.57-6.62-0.54-9.93-0.81
			c-4.65-0.39-7.39-3.57-8.42-7.47c-0.99-3.72,1.9-6.47,4.76-8.68c3.8-2.94,8.44-3.88,12.9-5.16c2.43-0.7,4.7-1.61,6.96-2.68
			c2.89-1.36,4.07-3.33,3.88-6.7c-0.55-9.78,2.14-19.55,0.07-29.37c-2.83-13.47-9.66-24.21-22.16-30.26
			c-11.2-5.42-21.41-12.16-31-19.95c-4.99-4.06-8.91-9.03-11.69-14.79C457.18,500.95,452.42,490.36,449.41,478.97z"/>
		<path class="st3" d="M222.38,523.07c21.5-0.82,42.61,2.45,63.78,5.61c12.02,1.79,23.27,5.26,33.72,11.31
			c4.02,2.33,6.94,9.46,5.79,13.43c-1.6,5.52-5.32,9.98-10.96,10.21c-7.99,0.33-15.2,3.41-22.87,4.69
			c-12.05,2.02-24.06,2.23-36.17,0.85c-7.32-0.83-14.52,0.94-21.79,1.39c-20.53,1.25-41.09,3.41-61.55-0.4
			c-8.26-1.54-14.34-5.85-15.54-15.15c-0.31-2.35-2.01-4.53-3.09-6.78c-3.92-8.09,0.18-17.53,9.06-18.74
			c7.92-1.08,15.54-3.33,23.4-4.57C198.17,523.02,210.25,522.77,222.38,523.07z"/>
		<path class="st3" d="M172.72,71.11c-19.3-0.28-38.54-1.06-56.89-8c-5.12-1.93-10.18-4.03-13.39-9.01
			c-5.35-8.27-1.84-18.17,7.78-20.16c21.1-4.38,41.97-10.08,63.41-12.62c13.67-1.62,27.44-1.69,41.27-0.54
			c10.06,0.83,20.29,0.48,30.23,2.42c7.94,1.55,16.9,1.09,22.78,8.29c4.63,5.68,5.46,12.9-0.15,18.71
			c-8.48,8.8-19.28,11.92-30.37,13.62c-12.11,1.85-24.24,3.69-36.36,5.5C191.63,70.73,182.21,71.4,172.72,71.11z"/>
		<path class="st3" d="M462.26,241.06c13.92,0.22,26.36-2.1,38.8-0.92c17.1,1.62,34.52,1.22,51.08,6.84
			c11.29,3.83,15.37,15.74,8.55,25.36c-2.62,3.7-6.67,6.05-11.05,7.26c-5.43,1.5-10.97,2.61-16.68,2.46
			c-14.48-0.37-28.68,2.55-43.03,3.71c-16,1.29-32.35,4.12-47.83-1.93c-10-3.91-19.99-7.69-30.2-11.02
			c-4.85-1.58-9.29-4.54-8.98-11.11c0.27-5.65,2.33-8.92,7.95-10.38c2.71-0.7,5.58-1.32,8.33-1.19c5.28,0.25,9.75-0.71,13.39-4.99
			c1.85-2.18,4.93-2.97,7.74-3.01C448.16,242.04,455.88,240.17,462.26,241.06z"/>
		<path class="st4" d="M837.75,239.96c-0.78,2.34-1.59,4.66-2.32,7.01c-1.16,3.7-3.68,5.32-7.5,5.05c-3.13,0.29-5.94-0.29-8.15-2.77
			c-1.84-2.06-4.3-2.33-6.88-2.18c-2.76,0.17-5.6,0.29-6.21-3.33c-0.7-4.18-4.41-9.04,0.63-12.35c6.28-4.14,6.12-10.56,7.38-16.58
			c0.29-1.36-0.03-2.92-2.05-2.42c-17.47,4.34-33.41-1.99-49.53-7.07c-8.09-2.55-16.04-5.5-23.41-9.76c-2.72-1.57-6.43-3.83-5.03-7
			c1.38-3.11,5.45-1.35,8.17-0.45c12.14,3.98,24.01,8.83,36.63,11.26c12,2.31,23.71,2.97,34.37-4.62c2.33-1.66,5.01-2.99,7.77-3.25
			c5.23-0.48,7.98-3.86,11.15-7.46c10.41-11.85,16.98-25.49,22-40.39c7.09-21.01,20.87-36.88,40.87-47.02
			c3.63-1.84,7.49-2.83,11.46-3.26c4.5-0.49,6.58,2.1,5.34,6.4c-1.37,4.77-4.44,8.5-7.7,12.09c-5.25,5.8-10.61,11.49-15.66,17.46
			c-6.52,7.72-10.97,16.63-14.16,26.19c-4.26,12.77-10.37,24.27-20.1,34.03c-4.8,4.82-7.16,12-8.69,18.7
			c-2.12,9.24-3.95,18.51-7.4,27.38C838.21,236.99,838.07,238.51,837.75,239.96z"/>
		<path class="st3" d="M776.69,752.14c-6.34-0.72-13.42-1.4-20.46-2.39c-2.42-0.34-4.81-1.23-6.83-2.86
			c-8.65-6.97-8.29-16.15,1.38-21.72c8.17-4.7,16.82-8.02,26.62-8.36c10.22-0.36,20.41-1.86,30.61-2.85
			c3.04-0.29,5.93,0.36,8.77,1.42c4.62,1.73,9.08,3.6,14.23,4.02c4.57,0.37,8.96,2.79,11.23,7.34c3.9,7.79-0.88,17.65-9.6,19.12
			c-10.1,1.7-20.29,2.9-30.47,4.04C793.96,750.83,785.7,751.36,776.69,752.14z"/>
		<path class="st5" d="M907.46,283.82c-19.1-0.96-38.37-0.92-57.26-5.2C869.24,280.53,888.36,281.53,907.46,283.82z"/>
		<path class="st6" d="M950.5,574.67c-3.59,0.07-7.23,1.18-10.68-1.41C943.75,572.65,947.26,572.91,950.5,574.67z"/>
	</g>
</g>
<g id="Layer_5">
	<g>
		<path class="st7" d="M999.9,295.04c0,153.3,0,306.61,0,459.91c-8,1.56-15.99,3.17-24.01,4.66c-3.08,0.57-6.04,1.8-9.32,1.29
			c-7.65-1.17-12.02,1.59-14.4,8.73c-1.26,3.78-2.12,7.84-4.1,11.22c-9.12,15.56-15.74,32.32-23.61,48.48
			c-3.35,6.88-0.17,13.06,7.4,14.64c4.96,1.04,9.95,0.82,14.91,0.08c4.27-0.64,5.14,0.86,3.37,4.58c-2.36,4.96-4.72,9.93-6.91,14.96
			c-10.39,23.79-21.39,47.33-29.99,71.87c-1.08,3.07-1.29,5.88,1.67,8.06c3.21,2.36,6.33,2.31,9.62-0.08
			c3.93-2.86,7.42-6.19,10.61-9.82c14.94-17,29.7-34.16,44.81-51c6.39-7.12,12.56-14.53,19.96-20.7c0,44.66-0.05,89.32,0.1,133.97
			c0.01,3.43-0.67,4.1-4.1,4.09c-161.63-0.11-323.27-0.09-484.9-0.09c1.27-4.09,4.45-6.94,6.94-10.16c2.53-3.28,1.42-4.55-1.86-4.7
			c-4.97-0.22-9.82-1.35-14.85-1.2c-16.25,0.48-32.53-0.67-48.77,0.86c3.6-4.94,6.95-10.08,10.87-14.74
			c3.12-3.7,4.15-7.37,2.3-11.83c1-0.86,2.2-1.57,2.95-2.61c10.56-14.51,20.99-29.1,30.73-44.17c0.69-1.07,2.11-2.1,1.18-3.52
			c-0.99-1.51-2.42-0.35-3.62-0.07c-20.15,4.8-40.73,5.27-61.28,6c11.58-18.06,19.49-38.29,32.74-55.36
			c1.89-2.44,2.7-4.78,0.83-7.71c-1.9-2.98-4.06-5.49-7.88-5.11c-5.46,0.53-10.91,1.2-16.31,2.14c-8.19,1.42-16.17,3.89-24.52,4.56
			c-4.37,0.35-5-1.06-3.37-4.7c4.34-9.73,8.73-19.44,12.86-29.25c5.18-12.3,14.04-22.16,21.51-32.94c1.81-2.6,3.12-4.91,0.54-8.01
			c-2.45-2.94-4.84-3.26-8.31-2.03c-23.04,8.2-46.07,16.72-70.17,21.08c-10.89,1.97-17.86,4.91-20.73,17.01
			c-2.37,9.96-8.51,19.03-12.99,28.49c-2.08,4.39-4,8.98-4.2,13.79c-0.47,11.1-5.29,20.92-8.65,31.12
			c-2.81,8.54,0.12,13.57,9.2,12.61c7.83-0.82,15.63-0.32,23.43-0.76c4.43-0.25,5.35,1.06,3.57,5.05
			c-4.81,10.8-9.61,21.6-14.13,32.51c-6.82,16.45-13.07,33.14-20.28,49.41c-2.25,5.06-3.86,9.28-0.69,14.2
			c-107.98,0-215.96-0.02-323.94,0.1c-3.42,0-4.11-0.67-4.1-4.1c0.15-45.32,0.1-90.65,0.1-135.97c10.99-10.8,21.8-21.78,33.7-31.62
			c2.62-2.16,3.15-5.18,2.6-8.59c-0.97-5.97-5.56-7.44-10.31-8.6c-8.54-2.09-17.21-3.53-25.99-4.18c0-3,0-6,0-9
			c1.54-0.23,2-1.63,2.82-2.62c8.34-10.05,15.49-21.17,26.24-29.09c2.04-1.5,2.92-3.78,2.03-6.65c-0.96-3.1-2.93-4.75-5.89-5.37
			c-8.45-1.76-16.83-0.61-25.19,0.74c0-154.3,0-308.61,0-462.91c2.63-1.21,3.38-3.99,4.94-6.07c4.46-5.92,2.38-11.63-4.94-13.93
			c0-8.33,0-16.66,0-25c4.55-4.36,8.32-9.42,12.48-14.12c2.27-2.57,2.44-4.77,0.73-7.58c-1.7-2.79-3.91-3.13-6.83-2.3
			c-2.06,0.58-4.25,0.69-6.38,1.01c0-74.65,0-149.31,0-223.96c123.31,0,246.62,0,369.93,0c-0.04,1.32,0.11,2.67-0.14,3.95
			c-4.35,22.15-7.79,44.48-13.14,66.44c-3.5,14.36-6.49,28.86-7.55,43.64c-0.55,7.78,2.05,9.82,9.74,8.52
			c-0.14,1.15-0.15,2.33-0.45,3.43c-2.07,7.57-1.06,9.02,7.01,8.96c7.82-0.06,15.53,1.47,23.38,1.12c7.56-0.34,8.39,0.75,8.11,8.19
			c-0.05,1.31-0.38,2.62-0.54,3.93c-1.23,9.85-5.75,18.71-8.55,28.09c-3.89,13.05-6.57,26.45-11.8,39.11
			c-5.4,13.06-9.95,26.44-14.04,39.97c-0.78,2.57-1.98,5.1-1.48,8.31c0.76-0.51,1.26-0.68,1.5-1.02
			c12.89-17.92,28.24-33.88,40.99-51.95c10.32-14.63,22.39-27.94,33.97-41.61c14.14-16.69,27.23-34.27,40.78-51.46
			c2.84-3.6,2.12-5.75-2.34-6.49c-1.62-0.27-3.39-0.35-4.97,0.02c-8.34,1.94-16.95-0.25-25.29,1.76c-1.77,0.42-3.79-0.08-4.81-1.89
			c-0.99-1.77,0.4-3.1,1.27-4.51c4.54-7.35,9.24-14.61,13.55-22.09c12.28-21.32,25.27-42.17,39.54-62.23
			c5.08-7.14,10.36-14.22,14.21-22.17c162.13,0,324.27,0.02,486.4-0.09c3.75,0,4.6,0.84,4.59,4.59
			c-0.13,73.15-0.1,146.31-0.1,219.46c-6.31,1.42-12.61,2.88-18.94,4.25c-10.26,2.23-19.66,5.74-26.14,14.83
			c-15.45,21.65-28.65,44.71-42.27,67.49c-3.81,6.38-2.08,9.4,5.35,11.25c-1.23,15.21-4.42,30.14-6.54,45.22
			c-1.62,11.48-3.69,22.9-5.36,34.37c-0.72,5,0.06,5.54,4.97,4.33c8.76-2.16,17.64-3.19,26.66-2.76c1.57,0.07,3.71-0.88,4.56,0.91
			c0.79,1.67-0.97,2.94-1.94,4.26c-16.33,22.27-31.08,45.59-45.46,69.15c-1.03,1.7-1.9,3.54-2.55,5.41
			c-0.56,1.61-0.05,3.54,1.95,2.98c5.24-1.47,10.62-0.12,15.87-1.26c7.51-1.63,15.17-1.9,22.82-1.4c4.84,0.32,5.75,1.88,3.72,5.42
			c-16,27.85-30.86,56.3-44.12,85.55c-3.85,8.49-6.82,17.38-10.19,26.09c1.82-0.8,2.85-2.03,3.73-3.36
			c6.59-10,12.71-20.34,19.8-29.97c23.3-31.6,45.07-64.22,65.8-97.53c2.79-4.48,5.78-8.96,7.4-14.12c0.84-2.67,0.64-4.16-2.8-3.84
			c-9.07,0.85-18.15,1.55-27.13,3.12c-0.8,0.14-1.67,0.68-2.34-0.03c-0.88-0.94-0.14-1.93,0.37-2.69c2.22-3.31,5.02-6.32,6.74-9.86
			c7.01-14.42,16.91-27.06,24.71-41c5.93-10.6,12.29-20.93,16.93-32.19c2.68-6.51,1.27-8.63-5.63-8.66
			c-7.83-0.03-15.67,0.15-23.49-0.1c-2.2-0.07-4.49,1.74-6.62-0.18c8.93-19.14,19.55-37.29,31.82-54.48
			C994.13,301.7,996.22,297.7,999.9,295.04z M276.66,445.88c3.65-8.02,7.44-15.98,12.12-23.46c1.71-2.74,1.05-5.05-0.8-7.29
			c-1.63-1.98-3.6-2.11-5.8-1c-22.44,11.32-46.41,17.98-70.85,23.14c-5.04,1.06-8.4,3.88-10.26,8.5
			c-2.48,6.16-4.87,12.37-7.11,18.62c-5.65,15.8-10.28,31.96-16.82,47.45c-1.96,4.65,1.62,10.43,6.87,10.98
			c2.95,0.31,5.97-0.09,8.95-0.17c-0.47,1.75-0.7,3.61-1.44,5.25c-5.38,11.94-10.9,23.82-16.29,35.76
			c-4.37,9.67-8.6,19.4-12.96,29.07c-1.79,3.98-0.96,6,3.66,6.79c7.89,1.34,15.45-0.67,23.14-1.53c2.97,4.57,7.5,4.82,12.34,4.74
			c10.05-0.16,10.09-0.04,7.46,9.78c-4,14.97-9.25,29.53-14.82,43.96c-3.41,8.82-5.71,18.07-10.1,26.51
			c-2.52,0.61-1.73,2.62-1.81,4.26c0.03,0.27-0.03,0.51-0.18,0.73c-3.11,0.86-3.3,4-4.56,6.18c-5.14,8.93-10.03,18-14.93,27.07
			c-0.77,1.43-2.3,4.26,1.25,3.42c4.29-1.01,8.58-0.53,12.86-1.21c10.62-1.7,21.25-3.69,32.09-3.47c5.28,0.11,6.17,1.1,4.52,5.89
			c-4.97,14.49-7.88,29.53-12.04,44.24c-7.92,27.97-15.2,56.12-22.69,84.21c-1.48,5.57-2.71,11.2-4.05,16.81
			c10.23-11.17,20.72-21.65,28.61-34.18c7.36-11.7,14.71-23.48,25.28-32.55c11.81-10.13,22.09-21.7,31.24-34.04
			c13.6-18.33,28.4-35.5,44.31-51.8c5.08-5.21,9.63-10.96,14.18-16.67c3.56-4.47,3.17-5.4-2.64-5.84
			c-15.2-1.15-30.42-2.04-45.63-3.08c-2.21-0.15-5.02,0.98-6.29-1.72c-1.15-2.45,0.74-4.36,1.99-6.33
			c7.99-12.65,16.33-25.1,22.85-38.6c4.26-8.83,7.48-18.19,12.1-26.81c11.86-22.12,21.43-45.5,36.04-66.11
			c2.19-3.09,0.77-4.3-2.04-4.68c-5.41-0.73-10.84-1.5-16.28-1.65c-17.45-0.49-34.87,0.17-52.24,1.88
			c9.29-18.54,16.79-38.02,28.58-55.28c0.89-1.31,1.08-3.09,1.6-4.65c2.26-0.1,2.8-1.98,3.78-3.51
			c5.49-8.65,10.11-17.86,17.34-25.39c3.64-3.79,6.48-8.35,9.55-12.66c1.36-1.9,1.3-3.34-1.68-3.46c-4.12-0.17-8.15-1.2-12.35-1.02
			C300.64,443.46,288.65,444.62,276.66,445.88z M703.57,966.25c1.15,0.13,1.52-0.67,1.97-1.31c6.79-9.64,13.96-19.04,20.29-28.98
			c27.39-43.05,55.51-85.61,85.19-127.13c5.82-8.13,5.08-9.25-4.99-10.98c-13.02-2.25-25.84-5.72-39.3-4.05
			c-2.6,0.32-7.03-0.26-7.75-1.79c-1.28-2.7,2.02-5.19,3.86-7.42c12.29-14.89,22.96-30.92,33.12-47.27
			c6.66-10.72,12.66-21.85,19-32.77c0.64-1.11,2.21-1.91,1.59-3.4c-0.75-1.8-2.58-1.14-3.98-1.14c-1.31,0-2.67,0.2-3.91,0.59
			c-21.08,6.62-42.85,10.58-64,16.78c-5.56,1.63-14.05,0.22-15.54,11.1c-1.32,9.6-6.1,18.87-8.71,28.52
			c-5.08,18.75-12.14,36.95-15.7,56.14c-1.5,8.07-0.59,9.43,7.61,9.79c1.99,0.09,4.06,0.32,5.98-0.06
			c8.92-1.76,17.92-0.66,26.88-0.88c5.82-0.14,6.44,0.68,4.83,6.45c-6.14,21.95-14.09,43.33-21.36,64.9
			c-7.36,21.87-15.45,43.52-22.77,65.42C705.05,961.2,703.3,963.38,703.57,966.25z M660.21,420.4c-0.88-0.64-6.85,2.68-4.4-3.47
			c4.14-10.38,10.12-19.85,16.59-28.96c1.61-2.27,3.33-4.24,1.3-7.1c-2.07-2.92-4.64-2.6-7.53-1.49
			c-8.39,3.22-16.78,6.39-25.71,7.99c-4.9,0.87-7.91,4.16-9.9,8.89c-5.61,13.36-10.88,26.81-15.32,40.62
			c-2.69,8.36-0.31,12.93,8.48,12.98c4.14,0.03,4.71,1.02,3.3,4.88c-5.82,15.96-11.54,31.97-14.14,48.87c-0.42,2.76-1.55,5.7,2,7.37
			c3.74,1.76,6.22,0.22,8.46-2.87c11.73-16.17,24.17-31.82,34.89-48.71c6.06-9.56,12.07-19.17,19.32-27.9
			c1.61-1.94,3.57-3.54,2.12-6.51c-1.43-2.93-3.23-4.87-6.87-4.64C669,420.58,665.17,420.4,660.21,420.4z"/>
		<path class="st8" d="M509,0.09c-3.85,7.96-9.13,15.04-14.21,22.17c-14.28,20.06-27.26,40.91-39.54,62.23
			c-4.31,7.48-9.01,14.75-13.55,22.09c-0.87,1.4-2.26,2.74-1.27,4.51c1.02,1.82,3.04,2.32,4.81,1.89c8.34-2,16.95,0.18,25.29-1.76
			c1.58-0.37,3.35-0.29,4.97-0.02c4.46,0.73,5.17,2.89,2.34,6.49c-13.55,17.19-26.64,34.77-40.78,51.46
			c-11.58,13.67-23.65,26.99-33.97,41.61c-12.75,18.07-28.1,34.03-40.99,51.95c-0.25,0.34-0.74,0.51-1.5,1.02
			c-0.49-3.21,0.71-5.74,1.48-8.31c4.08-13.53,8.64-26.91,14.04-39.97c5.24-12.66,7.91-26.07,11.8-39.11
			c2.8-9.38,7.32-18.24,8.55-28.09c0.16-1.31,0.49-2.62,0.54-3.93c0.28-7.44-0.56-8.54-8.11-8.19c-7.85,0.36-15.56-1.18-23.38-1.12
			c-8.08,0.07-9.08-1.39-7.01-8.96c0.3-1.1,0.31-2.29,0.45-3.43c10.11-10.63,16.56-23.67,23.99-36.09
			c16.69-27.89,36.4-53.77,54.35-80.83c1.14-1.72,3.16-3.11,2.72-5.63C463.01,0.09,486,0.09,509,0.09z"/>
		<path class="st9" d="M465.64,958.13c1.85,4.46,0.82,8.13-2.3,11.83c-3.93,4.66-7.28,9.81-10.87,14.74
			c-3.84,4.82-7.98,9.44-10.45,15.2c-5.67,0-11.33,0-17,0c0.01-2.02,1.51-3.29,2.57-4.72c6.24-8.42,12.57-16.77,18.87-25.15
			c0.68-0.91,1.83-1.74,1.44-3c-0.36-1.17-1.62-0.99-2.58-0.95c-13.45,0.64-26.95-0.06-40.36,1.43c-5,0.56-9.72,0.91-12.37-4.6
			c-0.94-4.23,0.83-7.7,2.96-11.15c13.84-22.38,27.77-44.69,41.36-67.22c4.52-7.49,8.6-15.27,13.53-22.87
			c-1.17-0.33-1.69-0.67-2.06-0.55c-12.27,3.96-25.19,4.58-37.68,7.34c-7.39,1.63-12.35-2.76-10.73-10.15
			c3.97-18.08,12.76-34.24,21.02-50.56c2.17-4.29,5.01-8.24,8.34-13.63c-19.86,7.97-39.19,12.2-58.36,16.99
			c-1.85,0.46-2.66,1.62-3.17,3.4c-3.25,11.32-8.67,21.71-15.04,31.45c-7.77,11.89-9.79,25.72-14.48,38.65
			c-0.61,1.67-0.66,3.55,1.94,3.45c8.49-0.33,17.07,0.92,25.44-0.68c9.38-1.79,13.7,1.95,11.59,11.44
			c-2.47,11.12-7.59,21.3-12.16,31.64c-7.41,16.77-14.19,33.78-20.74,50.89c-2.12,5.54-1.97,5.62,3.67,4.73
			c8.05-1.27,16.11-2.53,24.15-3.88c2.71-0.45,5.3-0.46,7.76,0.9c5.47,4.59,4.01,10.88,4.1,16.78c-4.33,0-8.66,0-13,0
			c-0.01-2.63-0.51-4.57-3.96-3.94c-7.34,1.35-14.81,1.97-22.03,3.94c-5.67,0-11.33,0-17,0c-3.17-4.92-1.55-9.14,0.69-14.2
			c7.21-16.27,13.46-32.96,20.28-49.41c4.52-10.92,9.32-21.72,14.13-32.51c1.78-3.99,0.86-5.3-3.57-5.05
			c-7.8,0.44-15.6-0.07-23.43,0.76c-9.08,0.95-12.01-4.07-9.2-12.61c3.36-10.21,8.19-20.03,8.65-31.12c0.2-4.81,2.12-9.39,4.2-13.79
			c4.48-9.46,10.62-18.53,12.99-28.49c2.87-12.1,9.84-15.04,20.73-17.01c24.1-4.36,47.13-12.88,70.17-21.08
			c3.46-1.23,5.86-0.91,8.31,2.03c2.58,3.1,1.26,5.4-0.54,8.01c-7.47,10.78-16.33,20.63-21.51,32.94
			c-4.13,9.81-8.52,19.52-12.86,29.25c-1.62,3.64-0.99,5.05,3.37,4.7c8.36-0.68,16.33-3.15,24.52-4.56
			c5.4-0.93,10.86-1.6,16.31-2.14c3.82-0.37,5.98,2.13,7.88,5.11c1.86,2.92,1.06,5.27-0.83,7.71
			c-13.25,17.07-21.15,37.3-32.73,55.36c-6.86,11.54-13.75,23.07-20.57,34.63c-1.91,3.24,0.87,2.72,2.51,2.76
			c11.78,0.29,23.56,0.52,35.34,0.76C458.09,952.04,462.75,953.26,465.64,958.13z"/>
		<path class="st9" d="M999.9,295.04c-3.68,2.67-5.78,6.66-8.32,10.23c-12.26,17.18-22.89,35.34-31.82,54.48
			c-1.11,1.65-2.22,3.3-3.32,4.96c-5.31,8.04-10.08,16.45-16.41,23.79c-1.89,2.2-4.15,2.61-6.74,1.8c-2.53-0.79-3.76-2.68-3.88-5.24
			c-0.09-1.82-0.17-3.7,0.17-5.46c1.47-7.67,2.85-15.37,4.74-22.94c3.1-12.42,6.59-24.73,9.85-37.11c0.34-1.28,1.6-4.2-1.45-3.01
			c-8.04,3.11-16.73,2.79-24.82,5.33c-7.43-1.86-9.16-4.87-5.35-11.25c13.62-22.79,26.83-45.84,42.27-67.49
			c6.48-9.09,15.88-12.61,26.14-14.83c6.32-1.37,12.63-2.83,18.94-4.25c0,8.33,0,16.66,0,25c-6.3,7.31-11.53,15.36-17.59,24
			c6.7,0,12.15,0,17.59,0C999.9,280.37,999.9,287.71,999.9,295.04z M981.26,298.14c2.55-3.27,5.15-6.51,7.63-9.83
			c1.44-1.92,1.48-3.54-1.56-3.36c-4.63,0.27-9.35-0.32-13.87,1.09c-3.13,0.98-6.42,1.95-8.67-1.19c-2.29-3.2-0.73-6.3,1.33-9.15
			c8.08-11.19,16.16-22.38,24.17-33.62c0.97-1.36,2.75-2.45,2.08-5.12c-5.83,1.63-11.46,3.92-17.29,4.63
			c-6.02,0.73-9.46,3.86-12.59,8.49c-10.74,15.85-20.08,32.55-29.96,48.92c-1.49,2.47-3.54,4.7-4.23,8.2
			c6.92-0.39,12.7-3.11,18.4-5.52c4.99-2.11,8.6-1.3,12.03,2.42c1.33,8.04-1.8,15.37-3.66,22.89c-1.96,7.92-4.17,15.78-6.27,23.67
			c1.96-1.54,3.05-3.37,3.97-5.28c4.82-10.03,10.19-19.74,16.42-28.98C973.28,310.35,977.24,304.22,981.26,298.14z"/>
		<path class="st9" d="M999.9,861.93c-7.41,6.17-13.57,13.57-19.96,20.7c-15.11,16.84-29.87,34-44.81,51
			c-3.19,3.63-6.67,6.95-10.61,9.82c-3.28,2.39-6.41,2.44-9.62,0.08c-2.96-2.17-2.75-4.99-1.67-8.06
			c8.6-24.54,19.6-48.07,29.99-71.87c2.2-5.03,4.55-10,6.91-14.96c1.77-3.73,0.9-5.23-3.37-4.58c-4.96,0.74-9.95,0.96-14.91-0.08
			c-7.57-1.58-10.75-7.76-7.4-14.64c7.87-16.16,14.49-32.92,23.61-48.48c1.98-3.38,2.84-7.43,4.1-11.22
			c2.38-7.14,6.74-9.89,14.4-8.73c3.29,0.5,6.25-0.72,9.32-1.29c8.01-1.49,16.01-3.1,24.01-4.66c0,4.33,0,8.67,0,13
			c-11.4,2.28-22.79,4.56-34.19,6.82c-1.5,0.3-2.19,1.31-2.76,2.58c-7.39,16.38-14.77,32.76-22.24,49.1
			c-1.89,4.14,0.1,4.44,3.48,4.18c5.47-0.43,10.95-0.64,16.44-0.85c4.44-0.17,6.59,2.64,7.79,6.41c0.71,2.23-0.45,4.25-1.16,6.26
			c-6.9,19.66-17.37,37.79-24.71,57.26c-0.58,1.54-2.23,2.97-0.67,5.53c4.71-5.46,9.24-10.69,13.75-15.93
			c14.13-16.38,28.98-32.09,44.28-47.38C999.9,848.6,999.9,855.27,999.9,861.93z"/>
		<path class="st9" d="M440.01,0.09c0.44,2.52-1.58,3.91-2.72,5.63c-17.96,27.05-37.66,52.93-54.35,80.83
			c-7.44,12.42-13.88,25.47-23.99,36.09c-7.69,1.29-10.29-0.74-9.74-8.52c1.05-14.78,4.05-29.27,7.55-43.64
			c5.35-21.96,8.78-44.29,13.14-66.44c0.25-1.28,0.1-2.63,0.14-3.95c4.67,0,9.33,0,14,0c-0.37,4.33-0.74,8.66-1.1,12.98
			c-0.3,1.1-0.73,2.19-0.89,3.32c-2.09,14.47-4.45,28.89-7.82,43.13c-1.45,6.15-2.66,12.35-3.98,18.53
			c4.83-6.18,8.74-12.71,13.08-18.95c10.63-15.28,21.69-30.26,31.61-46.02c3.03-4.33,6.06-8.66,9.09-12.99
			C429.35,0.09,434.68,0.09,440.01,0.09z"/>
		<path class="st7" d="M999.9,841.93c-15.31,15.28-30.15,31-44.28,47.38c-4.52,5.24-9.04,10.47-13.75,15.93
			c-1.56-2.56,0.08-3.98,0.67-5.53c7.34-19.47,17.81-37.59,24.71-57.26c0.71-2.01,1.87-4.03,1.16-6.26
			c-1.2-3.77-3.35-6.58-7.79-6.41c-5.48,0.21-10.97,0.43-16.44,0.85c-3.38,0.26-5.38-0.03-3.48-4.18
			c7.47-16.34,14.85-32.73,22.24-49.1c0.58-1.28,1.27-2.29,2.76-2.58c11.4-2.26,22.8-4.54,34.19-6.82c0,3.67,0,7.33,0,11
			c-8.3,9.3-16.2,18.92-22.87,29.48c-4.17,6.6-0.95,12.33,6.91,12.47c5.32,0.09,10.64,0.03,15.96,0.04
			C999.9,827.94,999.9,834.94,999.9,841.93z"/>
		<path class="st8" d="M392.57,962.92c2.65,5.51,7.37,5.16,12.37,4.6c13.41-1.49,26.91-0.79,40.36-1.43
			c0.96-0.05,2.22-0.22,2.58,0.95c0.39,1.26-0.75,2.09-1.44,3c-6.3,8.38-12.63,16.73-18.87,25.15c-1.05,1.42-2.55,2.69-2.57,4.72
			c-13.66,0-27.33,0-40.99,0c-0.08-5.91,1.38-12.19-4.09-16.79c-0.04-2.18,0.52-4.17,1.52-6.12c2.23-4.37,4.74-8.67,6.35-13.28
			C389.22,959.65,390.52,960.43,392.57,962.92z"/>
		<path class="st8" d="M442.01,999.9c2.47-5.77,6.61-10.38,10.45-15.2c16.23-1.53,32.52-0.38,48.77-0.86
			c5.03-0.15,9.88,0.98,14.85,1.2c3.27,0.15,4.39,1.42,1.86,4.7c-2.49,3.22-5.67,6.08-6.94,10.16
			C488,999.9,465.01,999.9,442.01,999.9z"/>
		<path class="st9" d="M0.1,806.94c8.78,0.65,17.45,2.08,25.99,4.18c4.74,1.16,9.34,2.63,10.31,8.6c0.55,3.41,0.02,6.42-2.6,8.59
			c-11.89,9.84-22.71,20.83-33.7,31.62c0-6.33,0-12.66,0-19c6.29-4.29,11.52-9.81,17.23-14.77c2.3-2,1.8-3.14-1.02-3.85
			c-5.34-1.35-10.75-1.58-16.22-1.38C0.1,816.27,0.1,811.61,0.1,806.94z"/>
		<path class="st9" d="M0.1,754.95c8.37-1.35,16.75-2.5,25.19-0.74c2.96,0.62,4.93,2.27,5.89,5.37c0.89,2.87,0,5.15-2.03,6.65
			c-10.75,7.92-17.89,19.03-26.24,29.09c-0.82,0.99-1.28,2.4-2.82,2.62c0-6.67,0-13.33,0-20c3.78-3.3,6.7-7.28,10.5-11.95
			c-2.73,0.19-4.18,0.27-5.63,0.4c-1.62,0.15-3.24,0.37-4.86,0.55C0.1,762.95,0.1,758.95,0.1,754.95z"/>
		<path class="st9" d="M999.9,820.94c-5.32-0.01-10.64,0.05-15.96-0.04c-7.86-0.14-11.08-5.88-6.91-12.47
			c6.67-10.55,14.57-20.17,22.87-29.48c0,6.67,0,13.33,0,20c-0.72,0.89-1.45,1.78-2.17,2.67c-3.99,4.98-3.99,4.98,2.17,6.32
			C999.9,812.27,999.9,816.61,999.9,820.94z"/>
		<path class="st8" d="M424.01,0.09c-3.03,4.33-6.06,8.66-9.09,12.99c-10.67-1.68-21.34-1.23-32.01-0.01
			c0.37-4.33,0.74-8.66,1.1-12.98C397.35,0.09,410.68,0.09,424.01,0.09z"/>
		<path class="st9" d="M0.1,224.05c2.13-0.32,4.32-0.42,6.38-1.01c2.92-0.83,5.13-0.48,6.83,2.3c1.72,2.81,1.55,5.01-0.73,7.58
			c-4.16,4.7-7.93,9.76-12.48,14.12C0.1,239.38,0.1,231.72,0.1,224.05z"/>
		<path class="st7" d="M0.1,820.94c5.46-0.2,10.88,0.03,16.22,1.38c2.82,0.71,3.32,1.85,1.02,3.85
			c-5.71,4.96-10.94,10.48-17.23,14.77C0.1,834.27,0.1,827.6,0.1,820.94z"/>
		<path class="st7" d="M999.9,273.04c-5.44,0-10.88,0-17.59,0c6.05-8.64,11.28-16.69,17.59-24
			C999.9,257.05,999.9,265.04,999.9,273.04z"/>
		<path class="st9" d="M0.1,272.04c7.33,2.3,9.4,8.01,4.94,13.93c-1.57,2.08-2.31,4.85-4.94,6.07C0.1,285.37,0.1,278.71,0.1,272.04z
			"/>
		<path class="st7" d="M345.03,999.9c7.23-1.97,14.7-2.59,22.03-3.94c3.45-0.63,3.96,1.31,3.96,3.94
			C362.36,999.9,353.7,999.9,345.03,999.9z"/>
		<path class="st7" d="M0.1,766.95c1.62-0.19,3.24-0.4,4.86-0.55c1.45-0.14,2.91-0.21,5.63-0.4c-3.79,4.67-6.72,8.65-10.5,11.95
			C0.1,774.28,0.1,770.61,0.1,766.95z"/>
		<path class="st7" d="M999.9,807.94c-6.16-1.34-6.16-1.34-2.17-6.32c0.72-0.9,1.44-1.78,2.17-2.67
			C999.9,801.94,999.9,804.94,999.9,807.94z"/>
		<path class="st8" d="M265.88,548.93c17.38-1.71,34.8-2.36,52.24-1.88c5.44,0.15,10.88,0.92,16.28,1.65
			c2.81,0.38,4.23,1.59,2.04,4.68c-14.61,20.61-24.18,43.99-36.04,66.11c-4.62,8.62-7.84,17.98-12.1,26.81
			c-6.52,13.5-14.87,25.95-22.85,38.6c-1.24,1.97-3.14,3.88-1.99,6.33c1.27,2.7,4.08,1.57,6.29,1.72
			c15.21,1.04,30.43,1.92,45.63,3.08c5.81,0.44,6.2,1.37,2.64,5.84c-4.54,5.7-9.09,11.46-14.18,16.67
			c-15.91,16.3-30.71,33.47-44.31,51.8c-9.15,12.34-19.44,23.91-31.24,34.04c-10.57,9.07-17.91,20.85-25.28,32.55
			c-7.89,12.53-18.37,23.01-28.61,34.18c1.34-5.6,2.57-11.24,4.05-16.81c7.49-28.09,14.77-56.24,22.69-84.21
			c4.17-14.71,7.07-29.76,12.04-44.24c1.64-4.79,0.76-5.78-4.52-5.89c-10.84-0.23-21.47,1.77-32.09,3.47
			c-4.28,0.69-8.57,0.2-12.86,1.21c-3.55,0.84-2.02-1.99-1.25-3.42c4.9-9.07,9.79-18.14,14.93-27.07c1.25-2.17,1.45-5.32,4.56-6.18
			c0.45,1.87-0.11,3.6-0.66,5.36c-1.35,4.28-2.74,8.55-3.86,12.89c-0.67,2.6,0.01,5.03,2.53,6.47c2.67,1.52,5.24,1,7.29-1.12
			c2.19-2.26,4.44-4.56,6.15-7.18c29.65-45.39,58.87-91.07,92.93-133.38c1.89-2.35,2.39-4.54,1.22-7.32
			c-1.26-2.99-3.47-4.36-6.57-4.45c-3.32-0.1-6.66-0.01-9.98-0.2c-3.24-0.19-8.08,1.86-9.34-0.67
			C260.15,555.31,264.17,552.06,265.88,548.93z"/>
		<path class="st8" d="M703.57,966.25c-0.27-2.87,1.48-5.05,2.3-7.5c7.32-21.9,15.41-43.55,22.77-65.42
			c7.26-21.57,15.21-42.95,21.36-64.9c1.62-5.78,0.99-6.6-4.83-6.45c-8.96,0.22-17.96-0.88-26.88,0.88
			c-1.92,0.38-3.99,0.14-5.98,0.06c-8.2-0.35-9.11-1.71-7.61-9.79c3.56-19.19,10.63-37.38,15.7-56.14
			c2.61-9.64,7.39-18.91,8.71-28.52c1.49-10.88,9.98-9.47,15.54-11.1c21.15-6.2,42.93-10.16,64-16.78c1.25-0.39,2.61-0.59,3.91-0.59
			c1.4,0,3.23-0.65,3.98,1.14c0.62,1.49-0.95,2.29-1.59,3.4c-6.34,10.92-12.34,22.05-19,32.77c-10.16,16.36-20.83,32.39-33.12,47.27
			c-1.84,2.23-5.14,4.71-3.86,7.42c0.72,1.52,5.15,2.11,7.75,1.79c13.46-1.67,26.27,1.81,39.3,4.05
			c10.08,1.74,10.81,2.85,4.99,10.98c-29.68,41.52-57.8,84.08-85.19,127.13c-6.32,9.94-13.5,19.34-20.29,28.98
			C705.08,965.58,704.71,966.38,703.57,966.25z"/>
		<path class="st9" d="M265.88,548.93c-1.71,3.13-5.73,6.37-4.2,9.44c1.26,2.53,6.09,0.49,9.34,0.67c3.32,0.19,6.65,0.1,9.98,0.2
			c3.1,0.09,5.31,1.46,6.57,4.45c1.17,2.78,0.67,4.97-1.22,7.32c-34.06,42.31-63.28,87.99-92.93,133.38
			c-1.71,2.62-3.95,4.92-6.15,7.18c-2.06,2.11-4.62,2.64-7.29,1.12c-2.53-1.44-3.2-3.87-2.53-6.47c1.12-4.34,2.52-8.61,3.86-12.89
			c0.56-1.76,1.11-3.49,0.66-5.36c0.15-0.22,0.21-0.47,0.18-0.73c1.01-1.24,1.98-2.51,1.81-4.26c4.39-8.45,6.69-17.69,10.1-26.51
			c5.57-14.43,10.82-28.99,14.82-43.96c2.63-9.83,2.58-9.94-7.46-9.78c-4.84,0.07-9.37-0.18-12.34-4.74
			c-1.18-2.87-1.44-5.67-0.1-8.65c3.68-8.17,7.19-16.4,10.78-24.61c5.39-12.31,10.49-24.74,14.95-37.41
			c0.46-1.31,2.54-4.1-0.53-4.24c-7.05-0.31-14.1-2.72-21.2-0.42c-2.99,0.08-6.01,0.48-8.95,0.17c-5.25-0.55-8.83-6.33-6.87-10.98
			c6.53-15.49,11.17-31.65,16.82-47.45c2.23-6.26,4.63-12.46,7.11-18.62c1.86-4.62,5.22-7.44,10.26-8.5
			c24.44-5.16,48.41-11.82,70.85-23.14c2.2-1.11,4.17-0.97,5.8,1c1.85,2.24,2.51,4.55,0.8,7.29c-4.68,7.48-8.47,15.44-12.11,23.46
			c-5.97,11.14-11.79,22.37-17.99,33.39c-2.26,4.02-0.39,3.97,2.68,3.83c7.99-0.37,15.98-0.56,23.96-0.98
			c5.31-0.28,9.07,1.6,10.74,6.88c-0.52,1.56-0.71,3.35-1.6,4.65C282.66,510.91,275.17,530.39,265.88,548.93z M262.49,447.09
			c2.88-4.63,5.86-9.2,8.43-15.58c-20.41,7.62-39.5,13.84-59.12,18.3c-2.99,0.68-3.79,3.03-4.56,5.38
			c-5.34,16.26-10.63,32.53-15.92,48.81c-2.11,6.5-2.1,6.51,4.9,5.88c1.32-0.12,2.63-0.35,3.94-0.52
			c6.47,0.75,12.99,1.34,19.39-0.08c7.53-1.67,12.7,2.83,11.44,10.53c-0.48,2.94-1.43,5.82-2.35,8.67
			c-6.13,19.06-14.43,37.27-22.2,55.68c-2.11,5-2.04,5.12,3.5,5.16c0.5,0,1-0.01,1.5-0.01c10.45,0.12,14.95,5.51,12.86,15.73
			c-2.48,12.09-5.86,23.93-10.14,35.51c-1.97,5.33-3.89,10.68-5.84,16.02c0.45,0.26,0.9,0.51,1.35,0.77
			c18.13-29.41,38.99-56.91,59.6-85.33c-6.24-0.55-11.2,0.93-16.26,1.86c-8.08,1.5-11.92-2.99-9.08-10.65
			c1.09-2.95,2.5-5.82,4.09-8.54c10.69-18.29,18.65-37.97,29-56.43c1.45-2.59,0.91-3.6-2.11-3.42c-8.31,0.51-16.64,0.68-24.92,1.48
			c-3.48,0.34-6.85,1.05-9.03-2.23c-2.23-3.36-0.66-6.57,1.15-9.78C249.07,472,257.05,460.24,262.49,447.09z"/>
		<path class="st8" d="M917.9,321.87c8.1-2.55,16.78-2.22,24.82-5.33c3.06-1.18,1.79,1.73,1.45,3.01
			c-3.26,12.38-6.75,24.69-9.85,37.11c-1.89,7.57-3.26,15.27-4.74,22.94c-0.34,1.77-0.26,3.65-0.17,5.46
			c0.12,2.55,1.35,4.45,3.88,5.24c2.59,0.8,4.84,0.39,6.74-1.8c6.33-7.34,11.11-15.75,16.41-23.79c1.1-1.66,2.21-3.31,3.32-4.96
			c2.13,1.92,4.42,0.11,6.62,0.18c7.82,0.25,15.66,0.08,23.49,0.1c6.9,0.02,8.31,2.15,5.63,8.66c-4.64,11.26-11,21.59-16.93,32.19
			c-7.8,13.94-17.71,26.58-24.71,41c-1.72,3.54-4.52,6.55-6.74,9.86c-0.51,0.76-1.25,1.75-0.37,2.69c0.67,0.72,1.54,0.17,2.34,0.03
			c8.98-1.56,18.06-2.26,27.13-3.12c3.44-0.32,3.64,1.16,2.8,3.84c-1.62,5.16-4.61,9.64-7.4,14.12
			c-20.73,33.31-42.5,65.93-65.8,97.53c-7.1,9.62-13.21,19.97-19.8,29.97c-0.88,1.33-1.92,2.56-3.73,3.36
			c3.37-8.71,6.34-17.6,10.19-26.09c13.26-29.25,28.11-57.7,44.12-85.55c2.03-3.54,1.12-5.11-3.72-5.42
			c-7.64-0.5-15.3-0.23-22.82,1.4c-5.24,1.14-10.62-0.21-15.87,1.26c-2,0.56-2.51-1.37-1.95-2.98c0.66-1.87,1.52-3.72,2.55-5.41
			c14.37-23.56,29.13-46.88,45.46-69.15c0.97-1.32,2.73-2.59,1.94-4.26c-0.85-1.79-2.99-0.83-4.56-0.91
			c-9.02-0.43-17.89,0.6-26.66,2.76c-4.91,1.21-5.69,0.66-4.97-4.33c1.66-11.48,3.74-22.89,5.36-34.37
			C913.48,352.01,916.67,337.09,917.9,321.87z"/>
		<path class="st9" d="M660.21,420.4c4.96,0,8.79,0.18,12.6-0.05c3.64-0.22,5.44,1.71,6.87,4.64c1.45,2.97-0.51,4.58-2.12,6.51
			c-7.26,8.73-13.26,18.34-19.32,27.9c-10.72,16.9-23.16,32.54-34.89,48.71c-2.24,3.09-4.72,4.63-8.46,2.87
			c-3.55-1.67-2.43-4.61-2-7.37c2.6-16.9,8.32-32.91,14.14-48.87c1.41-3.86,0.85-4.86-3.3-4.88c-8.79-0.06-11.17-4.63-8.48-12.98
			c4.44-13.81,9.72-27.26,15.32-40.62c1.99-4.74,5-8.02,9.9-8.89c8.93-1.59,17.32-4.77,25.71-7.99c2.89-1.11,5.47-1.43,7.53,1.49
			c2.02,2.86,0.31,4.83-1.3,7.1c-6.47,9.11-12.45,18.58-16.59,28.96C653.36,423.08,659.32,419.77,660.21,420.4z M631.95,476.96
			c11.47-12.99,20.03-28.07,30.16-42.03c1.37-1.89,0.46-2.69-1.57-2.72c-4.32-0.05-8.64-0.09-12.97-0.15
			c-6.24-0.09-9.1-4.08-6.83-9.95c1.37-3.55,3.28-6.89,5.02-10.29c2.53-4.96,5.13-9.88,8.02-15.43c-4.59,0.92-8.46,1.84-12.44,1.82
			c-2.26-0.01-3.05,1.45-3.67,3.37c-3.3,10.11-6.78,20.16-10.03,30.28c-2.45,7.63-2.35,7.67,5.69,6.84
			c5.26-0.54,8.19,2.19,7.86,7.42c-0.23,3.71-1.78,7.05-2.97,10.51c-2.31,6.72-5.53,13.18-6.21,20.39c-0.08,0.1-0.15,0.19-0.23,0.29
			C631.84,477.2,631.9,477.08,631.95,476.96z"/>
		<path class="st8" d="M465.64,958.13c-2.89-4.87-7.55-6.09-12.76-6.2c-11.78-0.24-23.56-0.47-35.34-0.76
			c-1.64-0.04-4.42,0.48-2.51-2.76c6.82-11.57,13.71-23.09,20.57-34.63c20.55-0.73,41.12-1.2,61.28-6c1.2-0.29,2.63-1.44,3.62,0.07
			c0.93,1.41-0.49,2.45-1.18,3.52c-9.74,15.07-20.17,29.67-30.73,44.17C467.84,956.56,466.63,957.27,465.64,958.13z"/>
		<path class="st8" d="M192.97,522.65c7.1-2.3,14.15,0.1,21.2,0.42c3.07,0.14,1,2.93,0.53,4.24c-4.46,12.68-9.56,25.1-14.95,37.41
			c-3.59,8.2-7.11,16.44-10.78,24.61c-1.34,2.98-1.09,5.78,0.1,8.65c-7.68,0.86-15.24,2.87-23.14,1.53
			c-4.62-0.78-5.45-2.81-3.66-6.79c4.36-9.67,8.59-19.4,12.96-29.07c5.4-11.93,10.91-23.81,16.29-35.76
			C192.26,526.27,192.5,524.41,192.97,522.65z"/>
		<path class="st8" d="M296.06,489c-1.67-5.27-5.43-7.16-10.74-6.88c-7.98,0.41-15.98,0.61-23.96,0.98
			c-3.07,0.14-4.94,0.19-2.68-3.83c6.19-11.02,12.02-22.24,17.99-33.39c11.99-1.26,23.98-2.42,36.04-2.92
			c4.2-0.17,8.22,0.85,12.35,1.02c2.98,0.12,3.04,1.56,1.68,3.46c-3.08,4.3-5.92,8.87-9.55,12.66
			c-7.23,7.53-11.85,16.74-17.34,25.39C298.86,487.02,298.32,488.9,296.06,489z"/>
		<path class="st8" d="M183.95,682.98c0.17,1.75-0.79,3.01-1.81,4.26C182.22,685.6,181.43,683.58,183.95,682.98z"/>
		<path class="st7" d="M392.57,962.92c-2.05-2.49-3.36-3.28-4.78,0.8c-1.61,4.61-4.12,8.9-6.35,13.28c-1,1.95-1.55,3.94-1.52,6.12
			c-2.47-1.36-5.05-1.35-7.76-0.9c-8.04,1.35-16.1,2.61-24.15,3.88c-5.63,0.89-5.79,0.81-3.67-4.73
			c6.56-17.11,13.34-34.12,20.74-50.89c4.57-10.34,9.69-20.52,12.16-31.64c2.11-9.49-2.21-13.24-11.59-11.44
			c-8.37,1.6-16.96,0.35-25.44,0.68c-2.61,0.1-2.55-1.78-1.94-3.45c4.69-12.92,6.71-26.76,14.48-38.65
			c6.37-9.75,11.79-20.14,15.04-31.45c0.51-1.78,1.32-2.94,3.17-3.4c19.17-4.79,38.5-9.02,58.36-16.99
			c-3.33,5.39-6.17,9.34-8.34,13.63c-8.26,16.33-17.05,32.48-21.02,50.56c-1.62,7.4,3.34,11.79,10.73,10.15
			c12.5-2.76,25.42-3.37,37.68-7.34c0.37-0.12,0.9,0.22,2.06,0.55c-4.93,7.6-9.01,15.38-13.53,22.87
			c-13.59,22.52-27.53,44.84-41.36,67.22C393.4,955.22,391.63,958.69,392.57,962.92z"/>
		<path class="st7" d="M958.73,304.09c-3.43-3.71-7.04-4.53-12.03-2.42c-5.7,2.41-11.48,5.14-18.4,5.52c0.69-3.5,2.74-5.74,4.23-8.2
			c9.88-16.37,19.21-33.07,29.96-48.92c3.14-4.63,6.58-7.76,12.59-8.49c5.83-0.71,11.46-3,17.29-4.63c0.67,2.67-1.11,3.76-2.08,5.12
			c-8.02,11.24-16.09,22.43-24.17,33.62c-2.06,2.85-3.62,5.95-1.33,9.15c2.25,3.14,5.54,2.17,8.67,1.19
			c4.52-1.42,9.24-0.82,13.87-1.09c3.04-0.18,3,1.44,1.56,3.36c-2.49,3.32-5.08,6.56-7.63,9.83c-2.13-0.17-4.19-0.02-6.27,0.69
			C969.6,300.67,964.16,302.35,958.73,304.09z"/>
		<path class="st8" d="M958.73,304.09c5.42-1.74,10.87-3.42,16.26-5.26c2.08-0.71,4.13-0.87,6.27-0.69
			c-4.01,6.09-7.98,12.21-12.06,18.25c-6.23,9.23-11.6,18.95-16.42,28.98c-0.92,1.91-2.01,3.74-3.97,5.28
			c2.1-7.89,4.3-15.75,6.27-23.67C956.93,319.47,960.07,312.13,958.73,304.09z"/>
		<path class="st7" d="M382.92,13.08c10.67-1.22,21.34-1.67,32.01,0.01C405,28.84,393.94,43.82,383.31,59.1
			c-4.34,6.24-8.25,12.77-13.08,18.95c1.32-6.18,2.52-12.38,3.98-18.53c3.37-14.24,5.73-28.66,7.82-43.13
			C382.19,15.27,382.62,14.18,382.92,13.08z"/>
		<path class="st8" d="M262.49,447.09c-5.44,13.15-13.42,24.9-20.37,37.22c-1.81,3.21-3.38,6.41-1.15,9.78
			c2.17,3.27,5.55,2.56,9.03,2.23c8.28-0.8,16.61-0.98,24.92-1.48c3.02-0.18,3.56,0.83,2.11,3.42c-10.35,18.46-18.31,38.14-29,56.43
			c-1.59,2.72-3,5.59-4.09,8.54c-2.84,7.66,1,12.15,9.08,10.65c5.05-0.94,10.02-2.41,16.26-1.86
			c-20.61,28.42-41.47,55.92-59.6,85.33c-0.45-0.26-0.9-0.51-1.35-0.77c1.94-5.34,3.87-10.69,5.84-16.02
			c4.28-11.58,7.67-23.43,10.14-35.51c2.09-10.22-2.41-15.61-12.86-15.73c-0.5-0.01-1,0.01-1.5,0.01c-5.54-0.04-5.61-0.17-3.5-5.16
			c7.77-18.41,16.07-36.61,22.2-55.68c0.92-2.85,1.87-5.73,2.35-8.67c1.26-7.71-3.91-12.2-11.44-10.53
			c-6.4,1.42-12.92,0.83-19.39,0.08c6.67-15.17,13.24-30.38,20.05-45.48c2.3-5.1,5.15-10.43,8.58-14.33
			c3.61-4.1,10.53,0.77,15.99-0.53c1.12-0.27,2.28-0.38,3.42-0.55C252.94,447.77,257.63,446.51,262.49,447.09z"/>
		<path class="st7" d="M262.49,447.09c-4.86-0.58-9.55,0.67-14.29,1.37c-1.14,0.17-2.3,0.28-3.42,0.55
			c-5.46,1.29-12.38-3.57-15.99,0.53c-3.43,3.9-6.28,9.23-8.58,14.33c-6.81,15.1-13.39,30.32-20.05,45.48
			c-1.31,0.18-2.62,0.4-3.94,0.52c-6.99,0.63-7.01,0.62-4.9-5.88c5.29-16.27,10.58-32.55,15.92-48.81c0.77-2.35,1.57-4.7,4.56-5.38
			c19.62-4.46,38.71-10.67,59.12-18.3C268.35,437.89,265.37,442.47,262.49,447.09z"/>
		<path class="st7" d="M632.02,477.03c0.69-7.22,3.9-13.67,6.21-20.39c1.19-3.46,2.73-6.8,2.97-10.51c0.33-5.24-2.61-7.97-7.86-7.42
			c-8.04,0.83-8.15,0.8-5.69-6.84c3.25-10.12,6.73-20.17,10.03-30.28c0.62-1.91,1.41-3.38,3.67-3.37c3.98,0.02,7.84-0.89,12.44-1.82
			c-2.89,5.55-5.48,10.47-8.02,15.43c-1.74,3.4-3.65,6.74-5.02,10.29c-2.27,5.87,0.59,9.86,6.83,9.95c4.32,0.06,8.64,0.1,12.97,0.15
			c2.03,0.03,2.95,0.82,1.57,2.72c-10.13,13.95-18.7,29.03-30.16,42.03L632.02,477.03z"/>
		<path class="st7" d="M631.95,476.96c-0.05,0.12-0.11,0.24-0.16,0.36c0.08-0.1,0.15-0.19,0.23-0.29
			C632.02,477.03,631.95,476.96,631.95,476.96z"/>
	</g>
</g>
</svg>
