<?xml version="1.0" encoding="utf-8"?>
<!-- Generator: Adobe Illustrator 24.2.1, SVG Export Plug-In . SVG Version: 6.00 Build 0)  -->
<svg version="1.1" xmlns="http://www.w3.org/2000/svg" xmlns:xlink="http://www.w3.org/1999/xlink" x="0px" y="0px"
	 viewBox="0 0 1000 1000" style="enable-background:new 0 0 1000 1000;" xml:space="preserve">
<style type="text/css">
	.st0{display:none;}
	.st1{display:inline;}
	.st2{fill:none;}
	.st3{fill:#E1DCEC;}
	.st4{fill:#7C64B1;}
	.st5{fill:#7C64B2;}
	.st6{fill:#7E66B3;}
	.st7{fill:#856EB7;}
	.st8{fill:#CAC1DF;}
	.st9{fill:#C1B6D9;}
	.st10{fill:#E6E2F0;}
	.st11{fill:#D8CFEC;}
	.st12{fill:#7D65B2;}
	.st13{fill:#816AB5;}
	.st14{fill:#D9D0ED;}
	.st15{fill:#D8CFED;}
	.st16{fill:#C8BDE2;}
	.st17{fill:#D5CBEA;}
</style>
<g id="Layer_1" class="st0">
	<g class="st1">
		<path class="st2" d="M292.27,226.42c3.31,4.68,6.28,9.66,10.61,13.55c3.58-12.56,8.87-24.18,19.34-33.17
			c-16.45-6.93-30.15-16.26-40.65-30.24c-3.25,23.07-3.25,23.07-11.57,35.45c0.4,0.29,0.82,0.86,1.18,0.81
			C281.99,211.55,287.04,219.03,292.27,226.42z"/>
		<path class="st2" d="M855.06,762c-15.44-6.9-22.35-20.47-28.76-35.63c-5.2,18.36-19.11,27.54-32.44,36.83
			c17.79,10.78,26.14,27.2,29.12,47.28C829.82,791.74,840.49,776,855.06,762z"/>
		<path class="st2" d="M190.7,833.12c0.99,0.13,1.97,0.26,3.11,0.41c7.36,0.17,14.83-10.82,11.87-17.74
			c-0.25-0.58-0.7-1.13-1.18-1.56c-3.13-2.79-15.01-3.16-18.54-0.6c-3.44,2.49-7.18,11.47-5.58,15.17
			C182.26,833.13,186.85,832.62,190.7,833.12z"/>
		<path class="st2" d="M63.01,54.24c-1.96-0.45-2.94,1.47-3.48,2.94c-0.96,2.61,1.96,3.47,2.9,5.27c0.67,1.29,0.91,3.87,3.1,3.09
			c1.96-0.69,1.53-3.04,1.62-4.83C67.14,57.67,66.28,54.99,63.01,54.24z"/>
		<path class="st2" d="M397.44,113.11c-0.56,4.64,4.67,3.17,7.2,3.34c5.41,0.36,4.38-4.58,5.23-7.45c-0.02-4.56-3.31-7.63-8.13-6.84
			C395.08,103.26,397.88,109.46,397.44,113.11z"/>
		<path class="st2" d="M925.25,650.26c3.14-1.96,5.02-4.72,4.79-8.47c0.1-2.71-0.17-5.25-2.83-6.47c-2.74-1.26-4.16,0.91-5.78,2.57
			c-0.9,0.93-2.2,1.47-3.13,2.38c-2.8,2.74-3.59,6.34-1.5,9.4C918.87,652.67,922.33,652.08,925.25,650.26z"/>
		<path class="st2" d="M509.13,76.21c3.9,0.11,6.87-1.4,7.97-5.29c1.25-4.43-1.14-7.76-4.28-10.34c-2.92-2.4-5.5-0.34-8.04,1.39
			c-2.72,1.86-1.29,4.55-1.64,6.86C502.34,74.16,503.94,76.03,509.13,76.21z"/>
		<path class="st2" d="M518.71,673.44c-6.64-2.62-11.81-6.94-16.56-11.87c-4.87-5.06-7.97-11.32-11.52-17.78
			c-6.49,17.44-17.51,31.16-29.2,44.89c5.02,1.1,9.64,2.34,14.34,3.07c6.91,1.09,11.95,4.61,15.44,10.6
			c3.06,5.25,6.23,10.44,9.51,15.94C502.01,701.32,507.91,686.5,518.71,673.44z"/>
		<path class="st3" d="M999.89,879.93c-14.95-0.73-29.75,1.78-44.66,2.13c-6.16,0.15-10.57-2.44-14.26-6.71
			c-2.7-3.12-5.02-6.58-7.36-9.99c-7.57-11.01-12.28-23.55-18.61-35.22c-2.62-4.83-5.34-9.62-9.64-13.18
			c-11.27-9.31-24.14-14.18-38.88-14.04c-10.29,0.1-20.44,1.27-30.55,3.02c-5.11,8.61-6.05,18.4-7.83,27.94c0,0,0,0,0,0
			c4.59,3.14-0.25,4.79-1.12,7.06c-2.51,7.72-4.43,8.68-9.88,4.91c0,0,0,0,0,0c0,0,0,0,0,0c-5.6-2.66-5.71-2.99-2.31-6.76
			c-1.8-9.03-2.47-18.26-4.92-27.18h0c-9.97,2.94-17.71-0.57-24.49-7.92c-6.43-6.97-10.65-15.14-14.52-23.65
			c-5.23-11.51-11.65-22.25-24.05-27.38c-8.82-3.66-18.43-3.98-27.76-4.89c-14.42-1.41-28.49,1.91-42.11,5.95
			c-16.64,4.94-30.64,15.08-43.67,26.26c-10.36,8.89-18.7,19.76-27.38,30.26c-7.12,8.62-11.93,18.31-14.32,29.21
			c-1.19,5.42-1.51,11.16-0.1,16.32c2.22,8.09-0.17,14.23-5.77,19.52c-11.75,11.09-25.52,18.81-40.6,24.54
			c-10.68,4.06-21.59,7.76-30.97,14.7c-17.93,13.25-22.54,26.65-16.31,47.04c0.76,2.48,2.16,4.39,3.86,6.29
			c11.43,12.73,26.58,19.03,42.17,24.59c7.31,2.6,15.06,3.83,22.14,7.16c143.3,0,286.61-0.02,429.91,0.09c3.42,0,4.11-0.67,4.1-4.09
			C999.83,957.25,999.89,918.59,999.89,879.93z"/>
		<path class="st3" d="M360.93,319.2c7.09-4.64,10.45-10.78,10.14-19.14c-0.12-3.16-0.21-6.34,0.01-9.49
			c0.35-4.8-2.11-7.99-5.78-10.31c-4.63-2.92-9.61-5.29-14.22-8.24c-11.61-7.43-24.5-12.62-35.88-20.45
			c-2.05-1.41-3.63-2.88-3.21-5.6c-2.8,13.61-3,27.28-1.01,41c0.5,3.43,1.62,6.79,1.97,10.23c0.29,2.76-0.61,5.68-3.62,6.37
			c-2.7,0.62-4.02-1.85-5.06-3.99c-4.09-8.43-5.23-17.78-8.18-26.58c-2.91-8.7-6.17-17.29-10.58-25.25
			c-3.38-6.1-9.18-10.37-15.72-13.22c-1.67-0.73-3.65-0.88-5.15-1.84c-4.01-2.55-8.12-2.82-12.29-0.89
			c-4.58,2.13-8.75-0.12-13.04-0.88c-2.47-0.43-1.67-1.93-0.6-3.25c2.46-3.02,5.82-4.93,8.86-7.25c2.62-2,5.79-3.34,7.64-6.29
			c-2.16-0.03-4.35,0.13-6.49-0.12c-10.51-1.2-20.76-3.11-28.09-11.88c-3.4-4.07-6.7-8.22-10.21-12.2
			c-11.33-12.86-25.23-22.5-39.68-31.44c-2.71-1.68-5.73-2.62-9.01-2.45c-22.38,1.17-41.27,8.85-53.93,28.48
			c-10.03,15.55-21.49,29.93-35.16,42.5c-5.42,4.98-11.59,7.85-18.92,9.14c-14,2.47-25.94,8.97-34.85,20.34
			c-5.74,7.33-12.52,13.68-18.77,20.53c0,23.66,0,47.32,0,70.99c9.8,0.23,19.52-1.25,29.26-1.67c13.43-0.57,26.51-4.08,40.1-3.51
			c11.25,0.47,22.55,0.37,33.87-0.62c14.86-1.3,29.45-4.38,44.26-5.78c6.74-0.64,13.49-2.18,20.31-1.23
			c6.4,0.88,12.78,1.8,19.26,1.79c13.83,0,27.65,0.02,41.48,0.01c3.16,0,6.36,0.15,9.48-0.23c11.81-1.47,23.59-4.43,35.38-4.41
			c17.16,0.04,34.08-2.86,51.23-2.48C337.78,330.19,349.86,326.43,360.93,319.2z"/>
		<path class="st3" d="M235.68,959.11c-9.43-5.29-19.79-7.62-29.9-10.75c-18.52-5.75-37.25-10.56-56.77-11.43
			c-12.89-0.57-25.77-1.63-38.44-4.07c-18.15-3.5-34.95-9.88-48.98-22.68c-6.96-6.35-14.45-12.15-21.45-18.51
			c-11.37-10.32-25.55-11.7-40.03-11.75c0,38.66,0.06,77.32-0.1,115.98c-0.01,3.43,0.67,4.1,4.1,4.1
			c77.98-0.12,155.97-0.1,233.95-0.1c2.36-2.5,5.08-4.61,6.89-7.68C252.83,978.83,249.25,966.72,235.68,959.11z"/>
		<path class="st3" d="M995.39,0.01c-141.8,0.11-283.61,0.09-425.41,0.09c7.29,2.65,14.68,5.06,21.85,7.99
			c16.13,6.58,32.27,13.17,48.2,20.23c20.19,8.94,41.18,7.32,62.21,5.47c14.5-1.27,28.94-3.57,43.5-3.62
			c44.79-0.18,89.57-0.24,134.36,0.13c8.09,0.07,16.25,0.4,24.35,0.98c16.67,1.21,33.26,3.5,49.98,3.78
			c15.15,0.25,30.3,0.05,45.45,0.04c0-10.16-0.2-20.34,0.1-30.49C1000.1,0.84,999.14,0.01,995.39,0.01z"/>
		<path class="st3" d="M0.1,34.1c9.62-0.34,19.24-0.27,28.88-0.72c17.07-0.8,34.18-0.79,51.23-2.3c10.38-0.92,20.87-1.43,31.07-3.37
			c19.05-3.62,38.36-5.04,57.52-7.61c17.73-2.38,35.47-4.88,52.4-10.98c5.73-2.07,11.49-4.38,15.85-9.01c-33.93,0-67.86,0-101.79,0
			C91.52,0.11,47.77,0.16,4.03,0C0.48-0.01-0.08,0.87,0.01,4.16C0.27,14.14,0.1,24.12,0.1,34.1z"/>
		<path class="st3" d="M922.92,343.25c3.3-0.13,8.68-3.22,10.02,3.51c0.04,0.2,0.92,0.2,1.38,0.36c2.23,0.75,4.52,0.87,6.87,0.96
			c10.45,0.37,20.88-0.23,31.38,0.7c9.01,0.8,18.27,1.28,27.32-0.74c0-23.33,0-46.66,0-69.99c-1.06,0.02-1.94,0.43-2.65,1.2
			c-7.22,7.87-16.61,11.62-26.82,12.97c-11.77,1.56-23.22,3.87-33.59,9.89c-5.16,3-9.99,6.59-15.2,9.5
			c-4.86,2.71-7.79,6.82-10.85,11.29C905.3,330.91,913.4,343.63,922.92,343.25z"/>
		<path class="st3" d="M466.05,473.51c21.45,4.26,42.87,3.04,64.34-0.07c8.66-1.26,16.12-5.91,24.66-7.63
			c11.2-2.26,22.42-4.75,33.17-8.76c9.94-3.7,13.05-16.09,5.18-22.48c-10.67-8.66-23.61-12.74-37.35-13.47
			c-6.76-0.36-12.27-2.04-15.75-8.42c-2.58-4.71-6.81-7.21-12.03-8.93c-8.87-2.91-17.84-1.18-26.75-1.72
			c-7.69-0.47-14.93-1.96-19.67-8.8c-2.73-3.94-5.32-7.94-7.19-12.48c-2.66-6.43-5.78-12.67-10.25-18.19
			c-7.23-8.92-15.19-10.01-23.74-2.7c-4.84,4.14-10.07,6.8-16.75,6.23c-7.06-0.6-13,2.1-17.76,7.33
			c-7.52,8.26-13.34,17.78-19.71,26.88c-4.51,6.44-10.07,10.97-18.17,12.86c-13.5,3.15-26.19,8.54-37.42,16.95
			c-7.54,5.64-9.68,14.55-5.24,22.95c1.6,3.03,3.47,5.92,5.67,9.65c-3.37-1.22-5.94-2.15-9.05-3.27c0.53,3.1,2.13,4.95,4.03,6.19
			c6.85,4.45,13.97,8.28,22.49,8.4c15.29,0.21,30.43-1.47,45.65-2.66c19.52-1.53,39.25-0.71,58.83,0.82
			C457.47,472.52,461.81,472.66,466.05,473.51z"/>
		<path class="st4" d="M251.26,219.47c-3.1,2.25-6.25,4.42-9.14,6.96c-2.3,2.02-1.81,3.06,0.98,3.95c2.64,0.84,5.24,1.33,7.82,0.3
			c8.93-3.59,16.44,0.88,23.47,4.91c6.9,3.95,12.19,9.8,15.47,17.68c5.13,12.35,9.49,24.88,12.65,37.85
			c0.67,2.78,1.61,5.43,3.07,7.88c0.76,1.28,1.6,2.8,3.41,2.35c1.93-0.48,2.34-2.24,2.45-3.94c0.17-2.7-0.73-5.26-1.23-7.87
			c-2.62-13.55-1.91-27.14-0.35-40.73c0.14-1.24,0.23-2.79,2.13-2.83c1.94-11.15,5.36-21.65,13.69-29.82
			c3.29-3.23,7.1-5.39,12.11-4.32c2.65,0.56,5.33-0.07,7.79-1.18c1.53-0.69,3-1.74,3.04-3.63c0.04-1.71-1.39-2.75-2.67-3.33
			c-2.09-0.95-4.38-1.48-6.6-2.14c-20.66-6.18-39.09-15.76-52.29-33.61c-2.85-3.86-6.19-7.39-9.55-10.83
			c-2.19-2.25-5.19-1.64-7.38-0.19c-2.03,1.35-0.76,3.58,0.19,5.34c0.62,1.15,1.61,2.05,1.73,3.52
			c1.57,18.63-2.01,35.46-16.85,48.37c0,0,0,0,0,0c0,0,0,0,0,0C255.35,217.01,253.09,218.13,251.26,219.47z M268.58,213.35
			c0.49-0.43,0.95-0.88,1.43-1.33c8.32-12.38,8.32-12.38,11.57-35.45c10.5,13.97,24.19,23.3,40.65,30.24
			c-10.47,8.99-15.75,20.61-19.34,33.17l0,0c-0.7,4.49-2.16,8.84-2.09,13.53c-0.84-0.23-1.33-0.24-1.38-0.39
			c-4.5-15.58-15.24-25.49-29.46-32.02C265.19,218.9,264.74,216.7,268.58,213.35z"/>
		<path class="st4" d="M247.55,220.44c-3.04,2.32-6.4,4.23-8.86,7.25c-1.07,1.32-1.87,2.81,0.6,3.25c4.29,0.76,8.46,3.01,13.04,0.88
			c4.17-1.94,8.28-1.66,12.29,0.89c1.5,0.95,3.48,1.11,5.15,1.84c6.54,2.85,12.34,7.13,15.72,13.22
			c4.41,7.95,7.67,16.55,10.58,25.25c2.95,8.8,4.09,18.15,8.18,26.58c1.03,2.13,2.36,4.6,5.06,3.99c3.02-0.69,3.91-3.62,3.62-6.37
			c-0.36-3.44-1.48-6.8-1.97-10.23c-1.99-13.71-1.79-27.39,1.01-41c-1.9,0.04-1.99,1.59-2.13,2.83
			c-1.56,13.59-2.27,27.17,0.35,40.73c0.5,2.61,1.41,5.17,1.23,7.87c-0.11,1.7-0.53,3.46-2.45,3.94c-1.82,0.45-2.65-1.07-3.41-2.35
			c-1.46-2.45-2.4-5.11-3.07-7.88c-3.15-12.97-7.51-25.5-12.65-37.85c-3.28-7.89-8.57-13.73-15.47-17.68
			c-7.03-4.03-14.55-8.5-23.47-4.91c-2.57,1.03-5.18,0.54-7.82-0.3c-2.79-0.89-3.27-1.93-0.98-3.95c2.89-2.54,6.04-4.7,9.14-6.96
			c1.83-1.33,4.1-2.46,3.94-5.31c0,0,0,0,0,0C253.35,217.1,250.18,218.44,247.55,220.44z"/>
		<path class="st4" d="M812.18,815.4c1.16,7.63,3.09,15.14,3.35,22.89c-0.19,0.38-0.36,0.75-0.5,1.11c1.11,1.52,0.95,3.47,1.48,5.18
			c0.34,0.17,0.71,0.32,1.15,0.46c5.11,2.33,5.26,2.26,8.47-4.24c0.28-0.42,0.56-0.84,0.82-1.26c-0.05-1.8-0.04-3.58,0.9-5.23
			c-0.17-0.42-0.4-0.84-0.71-1.28c0.9-8.02,2.26-15.93,5.5-23.38c0.66-1.51,0.83-3.7,3.29-3.71c0.42-1.25,0.7-2.57,1.28-3.74
			c8.38-16.98,17.03-33.74,36.27-41.17c2.06-0.79,2.53-2.63,2.25-4.53c-0.4-2.68-2.67-2.69-4.66-2.64
			c-13.21,0.39-21.82-6.7-28-17.43c-5.48-9.52-10.19-19.38-12.52-30.27c-0.66-3.11-1.71-7.33-6.04-6.65
			c-4.04,0.64-3.35,4.73-3.5,7.81c-0.11,2.32-0.13,4.57-0.72,6.89c-4.64,18.25-16.04,30.97-32.13,40.01
			c-2.45,1.38-4.87,2.97-6.91,4.89c-5.3,4.99-4.7,9.28,1.84,12.4c17.04,8.13,24.69,22.39,26.77,40.38
			C811.56,812.47,811.95,813.92,812.18,815.4z M793.86,763.2c13.33-9.29,27.23-18.47,32.44-36.83
			c6.42,15.16,13.32,28.73,28.76,35.63c-14.57,13.99-25.24,29.74-32.08,48.48C820,790.4,811.65,773.99,793.86,763.2z"/>
		<path class="st4" d="M826.13,840.79c-3.22,6.5-3.37,6.58-8.47,4.24c-0.44-0.14-0.81-0.29-1.15-0.46c0.14,0.45,0.32,0.88,0.59,1.28
			c0,0,0,0,0,0c5.45,3.76,7.37,2.81,9.88-4.91c0-0.47-0.01-0.94-0.03-1.41C826.69,839.96,826.41,840.38,826.13,840.79z"/>
		<path class="st4" d="M815.02,839.4c0.15-0.36,0.32-0.73,0.5-1.11c-0.26-7.75-2.19-15.27-3.35-22.89
			c-0.23-1.48-0.61-2.93-2.31-3.47c2.45,8.91,3.12,18.15,4.92,27.18C814.88,839.2,814.95,839.3,815.02,839.4z"/>
		<path class="st4" d="M832.63,809.65c-3.23,7.45-4.59,15.37-5.5,23.38c0.32,0.44,0.55,0.86,0.71,1.28
			c0.08-0.14,0.15-0.29,0.25-0.43c0,0,0,0,0,0c0,0,0,0,0,0c1.78-9.55,2.72-19.33,7.83-27.94
			C833.46,805.96,833.28,808.14,832.63,809.65z"/>
		<path class="st4" d="M506.75,756.27c1.05,1.75,2.66,3.28,4.96,2.18c1.94-0.93,1.98-2.9,1.73-4.78
			c-0.92-7.07-1.76-14.16-2.82-21.21c-2.6-17.16,0.44-33.08,10.33-47.47c3.27-4.75,7.36-8.69,13.29-9.84
			c2.75-0.53,3.03-2.12,2.64-4.61c-0.48-2.07,0.77-5.52-3.51-5.58c-12.33-0.18-20.96-7.04-27.63-16.37
			c-5.11-7.14-9.56-14.72-15.11-21.59c-2.08-2.58-3.89-2.74-6.33-1.98c-2.8,0.87-2.57,3.26-1.96,5.39c1.26,4.4,0.76,8.78-1.19,12.63
			c-8.06,15.95-17.44,30.99-31.65,42.39c-3.24,2.6-6.54,5.13-9.71,7.81c-1.22,1.03-2.68,2.16-2.01,4.18
			c0.66,2.03,2.22,2.79,4.21,2.9c1.32,0.07,2.74,0.45,3.95,0.12c9.18-2.53,18.05-0.66,27.05,1.25c4.62,0.98,7.79,3.11,10.39,6.89
			c5.02,7.3,9.13,14.94,11.88,23.45C498.02,740.54,502.13,748.56,506.75,756.27z M475.75,691.74c-4.69-0.74-9.31-1.98-14.34-3.07
			c11.69-13.73,22.71-27.45,29.2-44.89c3.55,6.47,6.65,12.72,11.52,17.78c4.75,4.93,9.92,9.26,16.56,11.87
			c-10.79,13.06-16.69,27.88-18.01,44.85c-3.29-5.49-6.46-10.68-9.51-15.94C487.7,696.35,482.67,692.83,475.75,691.74z"/>
		<path class="st4" d="M193.96,842.91c4.18-0.5,8.26-1.23,11.65-3.91c7.58-5.96,9.83-14.41,9.97-23.38
			c0.07-4.71-2.75-8.73-7.47-10.24c-5.59-1.79-11.31-4.04-17.35-2.43c-7.06,1.88-14.46,3.63-17.1,11.82c-1.26,3.92-2.14,8-2.8,12.07
			c-0.83,5.12,1.98,9.94,6.72,12.19C182.78,841.49,188.45,841.87,193.96,842.91z M185.96,813.63c3.54-2.55,15.42-2.19,18.54,0.6
			c0.48,0.43,0.93,0.98,1.18,1.56c2.96,6.92-4.5,17.91-11.87,17.74c-1.14-0.15-2.13-0.29-3.11-0.41c-3.86-0.5-8.44,0.01-10.32-4.32
			C178.79,825.09,182.52,816.12,185.96,813.63z"/>
		<path class="st4" d="M492.45,79.39c5.6,1.94,10.38,5.9,16.57,6.38c8.72,0.68,17.33-6.73,17.53-15.41
			c0.23-10.21-7.59-18.86-16.66-18.38c-1.64,0.09-3.29,0.62-4.79-0.57c-3.35-2.67-5.96-0.78-8.24,1.6
			c-4.73,4.92-6.6,11.03-6.87,17.54C490.04,73.91,489.69,78.43,492.45,79.39z M504.78,61.98c2.54-1.74,5.12-3.79,8.04-1.39
			c3.14,2.58,5.53,5.9,4.28,10.34c-1.1,3.89-4.07,5.4-7.97,5.29c-5.19-0.18-6.79-2.04-5.98-7.38
			C503.5,66.53,502.06,63.84,504.78,61.98z"/>
		<path class="st4" d="M919.6,661.24c10.97,0.5,19.73-7.93,20.25-19.48c0.38-8.32-5.54-14.94-13.69-15.32
			c-10.8-0.51-19.88,7.75-20.25,18.42C905.55,655.17,910.27,660.81,919.6,661.24z M918.31,640.26c0.93-0.91,2.22-1.45,3.13-2.38
			c1.62-1.66,3.05-3.83,5.78-2.57c2.66,1.22,2.93,3.76,2.83,6.47c0.23,3.75-1.65,6.52-4.79,8.47c-2.92,1.82-6.39,2.41-8.44-0.59
			C914.72,646.61,915.51,643,918.31,640.26z"/>
		<path class="st4" d="M556.57,570.79c-7.3-0.71-14.51,1.11-20.93,4.81c-2.81,1.62-5.84,4.03-5.48,7.8
			c1.1,11.72,7.08,17.06,19.61,17.42c2.77-0.27,6.23-0.65,9.51-1.95c6.8-2.69,10.31-7.76,9.71-14.02
			C568.25,576.97,564.04,571.51,556.57,570.79z M555.36,590.26c-2.06,0.95-4.21,0.77-6.43,0.97c-2.55-0.66-6.25,1.1-7.04-3.49
			c-0.77-4.43,1.96-6.33,5.38-7.71c2.68-1.08,5.46-1.43,8.24-0.21c2.5,1.1,4.05,3.2,4.26,5.71
			C560,588.29,557.54,589.26,555.36,590.26z"/>
		<path class="st4" d="M388.96,122.81c5.1,0.21,9.44,3.03,14.39,3.62c4.39,0.52,8.28-0.53,11.4-3.69c3.74-3.8,5.71-15.93,3.32-20.84
			c-3.14-6.47-9.11-7.64-15.08-7.94c-4.49,0.44-8.99-0.2-11.78,3.81c-4.34,6.23-6.4,13.1-5.03,20.74
			C386.51,120.3,386.91,122.72,388.96,122.81z M401.74,102.16c4.82-0.8,8.11,2.28,8.13,6.84c-0.85,2.87,0.18,7.81-5.23,7.45
			c-2.53-0.17-7.76,1.3-7.2-3.34C397.88,109.46,395.08,103.26,401.74,102.16z"/>
		<path class="st5" d="M164.5,883.15c-5.86-0.79-11.67-0.15-17.07,2.36c-4.83,2.24-6.32,6.79-4.2,11.7
			c2.91,6.72,9.03,6.36,14.79,6.78c2.71,0.05,5.34-0.31,7.91-1.07c4.88-1.44,8.43-5.31,8.23-8.86
			C173.89,889.52,169.04,883.76,164.5,883.15z"/>
		<path class="st5" d="M556.25,137.84c2.12,0.89,4.13,2.15,5.98,3.51c3.19,2.35,6.44,2.57,9.77,0.61c3.52-2.08,5.58-4.92,5.12-9.4
			c-0.38-3.67-1.81-6.64-4.2-9.32c-2.28-2.54-4.5-5.06-0.53-8.15c1.21-0.95,1.54-2.56,0.45-4.04c-0.95-1.29-2.24-2.18-3.83-1.78
			c-1.58,0.4-3.22,0.98-4.55,1.88c-7.23,4.9-10.66,11.95-11.23,20.53C553.1,134.3,553.31,136.61,556.25,137.84z M566.49,127.26
			c1.22,2.27,3.59,3.71,1.53,6.1c-0.85,0.99-1.88,0.36-2.63-0.3C562.88,130.88,564.87,129.36,566.49,127.26z"/>
		<path class="st5" d="M590.5,619.12c4.38,0.04,8.6-0.83,12.55-2.68c5.11-2.39,6.84-6.82,4.63-11.98c-2-4.66-5.53-7.58-10.77-7.37
			c-5.8,0.23-11.33,1.42-15.15,7.41c2.3,0.3,3.89,0.51,6.04,0.8c-1.16,1.75-2.08,2.92-2.78,4.21
			C581.95,615.15,584.19,619.06,590.5,619.12z"/>
		<path class="st5" d="M63.01,45.42c-5.61,0.67-8.98,5.46-9.02,12.46c-0.02,3.4,1.17,6.51,1.96,9.71c1.03,4.13,3.91,7.86,7.83,7.95
			c4.12,0.09,8.32-2.34,10.23-6.82c1.12-2.63,1.44-5.45,1.37-8.3c-0.07-1.33-0.04-2.67-0.22-3.98C74.3,50.28,68.22,44.8,63.01,45.42
			z"/>
		<path class="st6" d="M485.42,129.38c3.56-1.38,6.94-3.17,9.68-5.91c1.79-1.79,3.08-3.89,3.17-6.24c-0.13-5.05-3.91-7.5-8.28-5.49
			c-4.34,1.99-7.15,5.83-10.35,9.15c-1.75,1.82-3.38,3.88-1.33,6.54C480.17,129.83,482.69,130.44,485.42,129.38z"/>
		<path class="st7" d="M135.72,823.95c0.56-2.37-1.44-3.59-3.16-4.47c-2.18-1.12-4.55-1.86-6.85-2.74
			c-1.51-0.58-3.27-1.63-4.24,0.55c-0.82,1.84-0.98,3.89,0.72,5.51c2.4,2.29,5.46,2.94,8.66,3.29
			C132.71,825.98,135.11,826.54,135.72,823.95z"/>
		<path class="st8" d="M815.52,843.94c-0.56-1.22-0.63-2.62-0.69-4.01C814.3,841.5,814.33,842.9,815.52,843.94z"/>
		<path class="st8" d="M815.52,843.94c-1.19-1.04-1.22-2.44-0.69-4.01c-0.01-0.28-0.02-0.55-0.04-0.82
			c-3.41,3.77-3.29,4.1,2.31,6.76c0,0,0,0,0,0C816.34,845.3,815.85,844.65,815.52,843.94z"/>
		<path class="st8" d="M815.52,843.94c0.27,0.23,0.59,0.45,0.98,0.64c-0.53-1.71-0.37-3.66-1.48-5.18
			c-0.07,0.18-0.14,0.35-0.19,0.53C814.89,841.32,814.96,842.72,815.52,843.94z"/>
		<path class="st8" d="M815.02,839.4c-0.07-0.1-0.15-0.2-0.23-0.3c0.02,0.27,0.03,0.55,0.04,0.82
			C814.89,839.75,814.95,839.58,815.02,839.4z"/>
		<path class="st8" d="M815.52,843.94c0.33,0.71,0.82,1.36,1.57,1.92c-0.27-0.4-0.45-0.83-0.59-1.28
			C816.11,844.39,815.79,844.17,815.52,843.94z"/>
		<path class="st9" d="M826.97,840.95c0.87-2.28,5.7-3.92,1.12-7.06C829.05,836.45,827.55,838.62,826.97,840.95z"/>
		<path class="st9" d="M827.84,834.31c-0.94,1.64-0.94,3.43-0.9,5.23C827.95,837.89,828.6,836.19,827.84,834.31z"/>
		<path class="st9" d="M827.84,834.31c0.76,1.88,0.11,3.58-0.9,5.23c0.01,0.47,0.03,0.94,0.03,1.41c0.58-2.32,2.08-4.5,1.12-7.06
			c0,0,0,0,0,0C827.99,834.02,827.92,834.17,827.84,834.31z"/>
		<path class="st3" d="M269.96,221.09c14.22,6.53,24.97,16.44,29.46,32.02c0.04,0.15,0.54,0.16,1.38,0.39
			c-0.07-4.69,1.39-9.03,2.09-13.53l0,0v0c-2.56,0.43-3.39-1.71-4.58-3.18c-3.56-4.4-6.62-9.17-10.05-13.67
			c-3.84-5.05-8.01-9.4-15.15-8.94c-1.27,0.08-3.21,0.18-3.1-2.16c-0.48,0.44-0.94,0.9-1.43,1.33
			C264.74,216.7,265.19,218.9,269.96,221.09z"/>
		<path class="st3" d="M273.11,214.18c7.14-0.45,11.31,3.9,15.15,8.94c3.42,4.5,6.49,9.27,10.05,13.67
			c1.19,1.47,2.02,3.61,4.58,3.18v0c-4.34-3.89-7.3-8.87-10.61-13.55c-5.23-7.39-10.28-14.87-21.08-13.59
			c-0.36,0.04-0.79-0.53-1.18-0.81C269.9,214.36,271.84,214.26,273.11,214.18z"/>
		<path class="st10" d="M565.39,133.07c0.75,0.66,1.77,1.29,2.63,0.3c2.06-2.39-0.31-3.83-1.53-6.1
			C564.87,129.36,562.88,130.88,565.39,133.07z"/>
	</g>
</g>
<g id="Layer_2">
	<g>
		<path class="st11" d="M0.1,879.93c0-177.3,0-354.6,0-531.89c1.38-1.41,3.13-1.81,5.01-1.87c16.81-0.56,33.51-2.21,50.13-4.79
			c5.26-0.82,10.65-0.44,15.97-0.24c22.57,0.81,44.82-1.79,67.07-5.29c13.11-2.06,26.27-3.35,39.71-1.15
			c9.47,1.55,19.29,0.03,28.93,0.47c21.73,0.98,43.19-1.58,64.63-4.5c1.16-0.16,2.32-0.44,3.47-0.38
			c16.85,0.82,33.49-2.67,50.33-2.25c13.06,0.32,24.8-4.06,35.63-11.24c4.99-3.31,7.33-7.87,8.15-13.62
			c0.67-4.69,0.01-9.31-0.24-13.94c-0.21-3.89-2.91-6.31-6-8.1c-10.23-5.92-20.22-12.24-30.8-17.55
			c-7.45-3.74-14.64-7.9-20.93-13.45c-1.45-1.53-1.24-3.39-0.88-5.19c1.88-9.4,4.82-18.38,10.68-26.14
			c4.36-5.77,9.81-9.46,17.47-8.62c0.66,0.07-0.16,0.08,0.5,0.01c2.6-0.24,6.17,0.11,6.49-3.12c0.28-2.77-3.25-2.84-5.36-3.4
			c-15.37-4.08-29.02-11.52-41.72-20.94c-7.62-5.66-12.02-14.24-18.94-20.51c-0.61-0.56-1.11-1.24-1.66-1.86
			c-1.4-1.57-3.11-3.05-5.18-1.87c-2.34,1.33-0.44,3.25,0.09,4.81c5.3,15.52-2.08,40.55-15.02,50.71c-0.66,0.52-1.39,0.92-2.18,1.2
			c-15.73,1.38-29.38-2.63-39.34-15.63c-12.45-16.24-28.01-28.78-45.54-39.1c-5.57-3.28-11.57-3.43-17.44-2.25
			c-18.51,3.72-34.55,11.22-44.93,28.39c-8.8,14.56-19.67,27.62-32.09,39.37c-6.59,6.23-13.81,10.58-22.99,12.06
			c-13.5,2.18-24.69,8.88-33.13,19.69c-4.84,6.19-10.56,11.53-15.72,17.4c-1.06,1.21-2.15,2.67-4.18,1.93c0-80.98,0-161.97,0-242.95
			c2.27-2.27,5.2-2.01,8-1.94c14.82,0.37,29.6-0.84,44.39-1.26c28.12-0.79,56.01-4.24,83.75-9.02c14.57-2.51,29.44-2.82,44.08-5.21
			c19.63-3.21,38.86-7.47,56.73-16.56c110.64,0,221.29,0,331.93,0c12.46,1.19,23.63,6.26,34.98,11.06
			c16.38,6.93,32.54,14.5,49.68,19.5c12.54,3.65,25.43,2.9,38.19,2.02c21.88-1.51,43.61-4.81,65.63-4.64
			c31.63,0.24,63.27,0.13,94.9,0.04c27.13-0.07,54.17,1.11,81.17,3.88c19.24,1.98,38.58,0.93,57.87,1.15
			c2.96,0.03,6.07-0.42,8.49,1.99c0,80.65,0,161.3,0,241.95c-2.25,5.64-6.87,8.86-12.02,11.39c-6.62,3.26-13.64,5.42-20.98,6.17
			c-13.03,1.33-24.96,5.5-35.68,13.06c-3.13,2.21-6.35,4.28-9.67,6.2c-3.87,2.24-6.64,5.49-8.76,9.36
			c-4.24,7.75,0.47,16.83,9.25,17.82c1.99,0.22,3.99,0.12,5.99,0.22c1.5,0.07,3.39-0.08,4.26,1.07c3.66,4.8,8.8,3.98,13.69,3.84
			c16.15-0.45,32.24,1.65,48.39,1.08c2.02-0.07,4.01,0.18,5.53,1.78c0,176.96,0,353.93,0,530.89c-1.11,1.12-2.49,1.73-4.04,1.69
			c-13.17-0.29-26.19,1.96-39.33,2.16c-7.41,0.11-13.02-2.77-17.71-8.46c-8.03-9.73-13.91-20.68-19.16-32.04
			c-1.54-3.33-3.28-6.54-4.89-9.83c-9.72-19.92-26.55-27.95-47.73-28.65c-8.49-0.28-16.92,0.82-25.33,1.93
			c-1.81,0.24-3.61,0.72-5.39-0.12c-2.06-1.68-1.18-3.74-0.36-5.45c7.82-16.35,16.42-32.09,33.8-40.47c0.75-0.36,1.5-0.73,2.16-1.25
			c0.79-0.61,1.64-1.26,1.32-2.44c-0.27-0.97-1.2-1.03-2.01-1.19c-0.82-0.16-1.65-0.18-2.48-0.23c-11.86-0.7-20.13-7.1-26.19-16.77
			c-6.04-9.65-10.53-19.99-13.46-31.02c-0.61-2.29-0.86-5.87-3.85-5.63c-3.2,0.26-2.33,3.83-2.61,6.16
			c-1.88,15.95-8.9,29.04-21.54,39.07c-3.52,2.8-7.07,5.54-11,7.75c-1.89,1.06-3.75,2.16-5.47,3.48c-6.29,4.83-6.1,8.59,0.9,12.23
			c14.98,7.78,22.5,20.64,25.46,36.7c0.31,1.66,0.39,3.32-0.71,4.79c-6.63,3.77-14.21,2.88-21.25-2.8
			c-7.12-5.75-12.19-13.15-16.3-21.26c-3.16-6.23-5.72-12.71-9.59-18.63c-6.95-10.63-16.5-15.91-28.98-18.2
			c-19.64-3.6-38.48-0.64-57.3,4.2c-6.48,1.67-12.22,5.27-18.02,8.53c-19.5,10.97-34.96,26.36-48.64,43.86
			c-6.84,8.74-13.2,17.52-16.11,28.44c-1.8,6.76-1.91,13.51-0.6,20.26c1.22,6.31,0.21,11.91-4.09,16.75
			c-9.81,11.05-21.84,18.92-35.36,24.67c-8.74,3.72-17.61,7.12-26.36,10.8c-9.87,4.15-17.83,10.82-24.69,19
			c-8.72,10.4-7.62,33.2,2.9,42.22c10.5,9.01,22.27,15.08,35.02,19.71c6.74,2.45,13.63,4.4,20.51,6.41c1.91,0.56,4.45,0.67,4.6,3.61
			c-109.31,0-218.62,0-327.93,0c-0.48-2.41,1.5-3.55,2.72-5.01c2.83-3.38,5.02-7.07,5.91-11.42c1.53-7.46-0.21-13.91-6.33-18.78
			c-5.79-4.61-12.25-8.12-19.36-10.13c-12.34-3.48-24.64-7.11-36.98-10.6c-12.13-3.42-24.57-4.23-37-5.29
			c-11.77-1-23.56-1.91-35.24-3.74c-24.06-3.77-44.1-15.36-61.54-31.93c-3.38-3.21-7.13-6-10.5-9.24
			c-9.39-9.03-21.25-11.18-33.58-12C3.99,881.62,1.76,881.7,0.1,879.93z"/>
		<path class="st3" d="M835.91,805.94c10.94-2.15,22-3.24,33.13-2.95c14.9,0.39,27.91,5.73,38.55,16.22
			c5.4,5.33,8.67,12.28,11.73,19.02c6.01,13.23,12.52,26.05,21.91,37.26c3.51,4.19,7.8,6.47,13.4,6.47c15.12,0,30.1-2.89,45.26-2.04
			c0,38.66-0.06,77.32,0.1,115.98c0.01,3.43-0.67,4.1-4.1,4.09c-143.3-0.11-286.61-0.09-429.91-0.09
			c-8.51-2.77-17.08-5.36-25.51-8.36c-13.05-4.65-25.65-10.19-35.65-20.28c-9.91-9.99-13.02-25.89-6.64-38.51
			c6.78-13.41,18.52-21.3,32.12-26.79c14.02-5.67,28.43-10.53,41.13-19.03c6.65-4.45,12.71-9.69,17.78-15.87
			c3.26-3.97,3.52-8.68,2.43-13.85c-1.34-6.32-1.26-12.86,0.19-19.26c2.85-12.54,10.11-22.55,17.98-32.37
			c13.49-16.86,28.8-31.45,47.45-42.67c13.33-8.02,27.87-11.29,42.78-13.96c13.85-2.48,27.47-0.39,41.02,2.12
			c7.97,1.48,14.56,5.89,19.52,12.19c4.2,5.33,8,11,10.51,17.47c3.14,8.11,7.63,15.49,13.28,22.13c6.76,7.94,14.79,12.28,25.52,9.09
			c1.72,0.44,2.36,1.82,2.61,3.32c1.32,7.68,3.28,15.27,3.35,23.13c-1.05,2.59-2.29,5.24,1.9,6.26c4.91,1.97,5.02,1.91,8.08-4.1
			c1.58-2.31,3.18-4.6,1.06-7.45c0.61-8.17,2.1-16.14,5.4-23.68C832.97,807.86,833.46,805.8,835.91,805.94z"/>
		<path class="st3" d="M0.1,277.05c6.24-6.85,13.01-13.21,18.75-20.53c9.02-11.51,20.98-18.11,35.31-20.43
			c5.18-0.84,9.97-2.38,14.12-5.7c16.03-12.81,28.43-28.79,39.44-45.86c12.72-19.74,31.59-27.31,53.97-28.46
			c3.27-0.17,6.3,0.75,9.02,2.43c13.45,8.3,26.59,17.01,37.21,28.94c4.4,4.95,8.77,9.95,13.02,15.03
			c7.13,8.55,17.25,9.94,27.27,11.52c2.27,0.36,4.65,0.07,6.98,0.09c0.5,2.89-1.7,4.14-3.5,5.52c-2.64,2.03-5.46,3.82-7.97,6.02
			c-0.95,0.83-2.55,1.58-2.09,3.07c0.43,1.4,2.17,1.31,3.39,1.75c1.46,0.53,3.04,0.68,4.42,0.09c7.92-3.41,15.17-0.54,21.98,2.9
			c7.64,3.86,14,9.29,17.76,17.5c5.91,12.93,10.37,26.31,13.77,40.08c0.72,2.93,1.69,5.75,3.41,8.26c0.57,0.83,1.2,1.7,2.37,1.53
			c1.39-0.2,1.83-1.39,2.09-2.51c0.59-2.52-0.11-4.99-0.74-7.38c-3.16-11.99-1.54-24.16-1.45-36.27c0.02-2.07,0.39-4.38,2.64-5.59
			c4.65,1.93,8.32,5.44,12.65,7.88c11.87,6.67,23.72,13.37,35.69,19.86c11.05,5.98,12.78,11.1,12.08,23.48
			c-0.89,15.79-12.35,20.42-23.75,25.56c-7.21,3.25-15.03,3.83-22.87,4.22c-25.99,1.31-52.06,1.28-77.83,5.8
			c-11.17,1.96-22.56,1.13-33.86,1.16c-9.83,0.02-19.66-0.06-29.49,0.03c-5.51,0.05-10.91-0.81-16.3-1.7
			c-6.55-1.08-12.89,0.7-19.31,1.19c-14.7,1.11-29.14,4.31-43.85,5.66c-13.82,1.27-27.61,0.75-41.39,0.71
			c-10.88-0.04-21.34,2.87-32.14,3.43c-10.25,0.53-20.48,1.9-30.79,1.69C0.1,324.37,0.1,300.71,0.1,277.05z"/>
		<path class="st3" d="M0.1,879.93c14.68,0.09,29.03,1.51,40.49,12.11c7.2,6.66,14.84,12.77,22.25,19.16
			c15.8,13.64,34.6,19.78,54.86,22.78c21.62,3.2,43.78,2.06,65.04,7.92c15.52,4.28,31.23,7.96,46.25,13.88
			c4.96,1.96,9.47,4.83,13.58,8.22c7.46,6.15,8.81,19.28,2.82,27.85c-2.08,2.98-4.21,5.98-7.34,8.05
			c-77.98,0-155.97-0.03-233.95,0.1c-3.42,0.01-4.11-0.67-4.1-4.1C0.16,957.25,0.1,918.59,0.1,879.93z"/>
		<path class="st3" d="M999.89,35.1c-14.66,0-29.31,0.09-43.97-0.02c-17.26-0.13-34.36-2.58-51.54-3.8
			c-8.94-0.64-17.94-0.88-26.87-0.97c-44.63-0.44-89.27-0.47-133.9-0.04c-13.87,0.13-27.71,2.25-41.55,3.66
			c-23.64,2.41-46.71,1.95-69.29-8.36c-20.78-9.49-41.81-18.8-63.8-25.45c142.14,0,284.27,0.02,426.41-0.09
			c3.75,0,4.71,0.83,4.6,4.6C999.69,14.76,999.89,24.93,999.89,35.1z"/>
		<path class="st3" d="M237.05,0.11c-7.83,7.3-17.78,10.3-27.71,12.81c-14.29,3.61-28.84,6.34-43.48,7.83
			c-16.64,1.7-33.21,3.65-49.73,6.24c-13.88,2.17-27.89,3.57-41.87,4.97c-7.25,0.72-14.61,0.81-21.85,0.9
			c-17.44,0.21-34.85,1.97-52.3,1.25c0-9.98,0.17-19.96-0.09-29.94C-0.08,0.87,0.48-0.01,4.03,0c43.74,0.16,87.49,0.11,131.23,0.11
			C169.19,0.11,203.12,0.11,237.05,0.11z"/>
		<path class="st3" d="M999.89,349.04c-20.45-0.33-40.89-0.61-61.33-1.09c-2.4-0.06-5.8,0.87-6.27-3.64
			c-0.22-2.17-2.77-1.15-4.27-1.23c-4.58-0.26-9.43,0.82-13.3-2.76c-9.57-8.83-6.96-18,2.08-25.06
			c12.75-9.96,26.53-19.06,43.2-21.72c4.41-0.7,8.9-0.98,13.28-1.84c10.4-2.04,19.29-6.96,26.62-14.65
			C999.89,301.04,999.89,325.04,999.89,349.04z"/>
		<path class="st3" d="M322.36,459.82c3.3-0.16,5.3,2.14,8.48,2.45c-1.16-2.14-1.95-4.09-3.16-5.75
			c-8.75-12.06-4.63-21.79,7.5-29.53c10.47-6.68,21.87-11.38,33.95-14.06c7.78-1.73,12.94-6.47,17.25-12.56
			c6.62-9.34,12.46-19.26,20.42-27.61c4.22-4.43,9.46-7.13,15.55-6.61c7.6,0.66,13.43-2.2,19.01-6.94
			c7.84-6.67,16.78-5.23,23.25,3.16c4.83,6.26,7.94,13.46,11.12,20.58c1.86,4.17,4.36,7.81,7.08,11.37
			c4.86,6.35,11.94,7.3,19.19,7.7c8.28,0.46,16.64-0.98,24.85,1.16c5.69,1.48,10.68,4.15,13.45,9.5c3.3,6.36,8.85,7.96,15.28,8.36
			c13.02,0.79,25.08,4.5,35.89,11.97c8.72,6.02,8.09,18.24-1.21,23.38c-3.26,1.8-6.86,2.5-10.38,3.45
			c-14.57,3.96-29.47,6.61-43.63,12.14c-7.77,3.03-16.31,3.47-24.48,3.76c-14.9,0.51-29.91,1.48-44.73-1.84
			c-4.82-1.08-9.82-1.48-14.77-1.82c-19.59-1.33-39.34-2.4-58.81-0.63c-15.24,1.38-30.39,3.07-45.66,2.45
			c-9.17-0.37-17.44-3.87-23.97-10.71c-0.45-0.47-0.74-1.11-1.02-1.7C322.61,461.05,322.55,460.55,322.36,459.82z"/>
		<path class="st4" d="M311.27,249.08c-1.77,14.73-2.95,29.44,1.06,44.04c0.35,1.27,0.63,2.61,0.65,3.92
			c0.04,2.78-0.47,5.71-3.51,6.47c-3.05,0.76-4.26-2.01-5.36-4.24c-3.93-7.96-4.99-16.83-7.73-25.18
			c-2.91-8.89-6.33-17.55-10.59-25.8c-3.25-6.3-9.07-10.46-15.47-13.52c-2.54-1.21-5.38-1.8-7.88-3.09
			c-2.57-1.32-5.03-1.56-7.66-0.58c-4.83,1.81-9.56,1.67-14.51,0.14c-3.06-0.94-3.06-1.95-1.24-3.98c3.15-3.52,7.29-5.77,11.02-8.55
			c1.86-1.39,3.95-2.49,5.14-4.62c10.84-10.09,17.44-22.12,16.82-37.33c-0.22-5.35,1.4-10.96-2.33-15.9
			c-0.95-1.26-1.13-3.45,0.93-4.25c2.33-0.9,4.98-1.52,7,0.62c3.3,3.5,6.7,6.96,9.55,10.82c13.08,17.72,31.41,27.14,51.83,33.39
			c2.52,0.77,5.26,0.93,7.49,2.57c2.98,2.19,2.76,4.34-0.24,6.22c-2.16,1.36-4.71,2.11-7.17,1.65c-8.21-1.54-13.19,3.01-17.46,8.92
			C315.53,229.25,312.96,239.01,311.27,249.08z"/>
		<path class="st4" d="M835.91,805.94c-5.09,8.62-6.06,18.39-7.81,27.94c0.94,2.56-0.43,4.76-1.12,7.06
			c-2.48,7.65-4.42,8.62-9.86,4.91c-2.29-1.72-2.66-4.11-2.34-6.74c-1.74-9.04-2.48-18.25-4.89-27.17
			c-2.1-18-9.74-32.27-26.79-40.43c-6.48-3.1-7.07-7.51-1.74-12.43c2.17-2.01,4.78-3.62,7.37-5.1c15.86-9.1,27.05-21.82,31.65-39.88
			c0.72-2.83,0.37-5.62,0.66-8.41c0.27-2.58,0.18-5.85,3.68-6.21c3.28-0.34,4.65,2.41,5.28,5.06c2.73,11.43,7.24,22.12,13.22,32.18
			c6.23,10.48,14.72,17.46,27.69,17.18c1.98-0.04,4.29-0.15,4.78,2.49c0.4,2.14-0.36,3.9-2.62,4.78
			c-18.11,7.06-26.54,22.86-34.85,38.73C837.2,801.79,836.66,803.92,835.91,805.94z"/>
		<path class="st4" d="M456.15,698.96c-3.74,0.47-7.84,1.25-11.96,1.42c-2.33,0.1-5.33,0.3-6.29-2.85
			c-0.89-2.93,1.59-4.22,3.41-5.45c15.98-10.82,27.02-25.88,36.53-42.28c3.67-6.32,6.47-12.76,4.34-20.34
			c-0.52-1.87-0.11-3.82,2.16-4.4c2.03-0.52,4.02-1.18,5.78,1.21c5.02,6.81,9.98,13.63,14.61,20.74
			c6.56,10.09,15.39,17.48,28.3,17.93c2.39,0.08,3.81,1.02,3.73,3.58c-0.08,2.46,1.48,5.52-2.5,6.53
			c-7.34,1.87-11.67,7.18-15.47,13.27c-9.74,15.65-10.29,32.62-7.51,50.12c0.78,4.92,1.33,9.87,2.07,14.79
			c0.31,2.1,0.37,4.18-1.78,5.2c-2.33,1.1-3.9-0.64-4.91-2.34c-4.58-7.73-8.7-15.76-11.46-24.3c-2.7-8.36-6.74-15.87-11.67-23.04
			c-2.69-3.92-5.84-6.48-10.8-7.11C467.32,700.96,462.07,699.08,456.15,698.96z"/>
		<path class="st4" d="M194.1,842.91c-5.46-0.99-11.14-1.39-16.35-3.8c-4.98-2.3-7.71-7.24-6.79-12.65
			c0.67-3.92,1.51-7.84,2.7-11.63c2.52-8.06,9.79-9.84,16.65-11.82c6.02-1.74,11.79,0.49,17.44,2.21c4.76,1.45,7.09,5.32,7.9,10.06
			c2,11.75-7.31,25.08-18.97,27.26C195.86,842.7,195.03,842.78,194.1,842.91z"/>
		<path class="st4" d="M489.97,70.93c0.22-6.63,2.05-12.9,6.89-17.96c2.31-2.42,4.95-4.07,8.28-1.53c1.64,1.25,3.52,0.58,5.31,0.53
			c8.76-0.23,16.31,8.51,15.94,18.46c-0.34,9.02-8.59,16.13-17.46,15.34c-6.16-0.55-10.95-4.47-16.53-6.45
			C489.72,78.36,490.11,74.14,489.97,70.93z"/>
		<path class="st4" d="M905.92,644.65c0.26-10.35,9.16-18.43,19.95-18.1c8.31,0.25,14.16,6.49,14,14.93
			c-0.22,11.33-9.02,20.02-19.97,19.72C910.35,660.93,905.65,655.38,905.92,644.65z"/>
		<path class="st4" d="M550.02,600.83c-12.42-0.11-19.28-6.28-19.83-17.64c-0.18-3.76,2.8-6.05,5.61-7.72
			c6.12-3.62,13.1-5.04,20.01-4.87c7.34,0.19,12.26,6.1,13.16,13.94c0.72,6.26-2.69,11.39-9.4,14.21
			C556.3,600.12,552.83,600.45,550.02,600.83z"/>
		<path class="st4" d="M403.32,93.98c5.67,0.34,11.65,1.46,14.74,7.97c2.38,5,0.44,17.02-3.35,20.79c-3.58,3.56-7.97,4.4-12.86,3.42
			c-4.21-0.85-8-3.09-12.42-3.3c-2.46-0.12-2.92-2.48-3.25-4.43c-1.27-7.61,0.65-14.51,5.09-20.69
			C394.08,93.82,398.53,94.29,403.32,93.98z"/>
		<path class="st5" d="M157.94,903.97c-5.56-0.45-11.51-0.02-14.53-6.37c-2.39-5.04-0.94-9.8,4.07-12.11
			c5.4-2.49,11.21-3.13,17.06-2.32c4.52,0.63,9.59,6.46,9.51,10.96c-0.09,5.21-3.99,7.29-8.22,8.78
			C163.31,903.79,160.65,904.04,157.94,903.97z"/>
		<path class="st4" d="M553.11,132.88c0.73-9.65,4.17-16.71,11.34-21.69c1.2-0.83,2.66-1.38,4.07-1.8c1.79-0.53,3.26,0.25,4.32,1.73
			c1.08,1.49,0.65,3.07-0.54,4.05c-3.59,2.93-1.86,5.38,0.43,7.89c2.53,2.78,4.08,5.88,4.4,9.77c0.35,4.27-1.6,7.01-4.93,9.03
			c-3.29,1.99-6.57,1.92-9.79-0.43c-1.74-1.27-3.58-2.47-5.55-3.31C553.95,136.86,552.81,134.83,553.11,132.88z"/>
		<path class="st5" d="M587.37,605.69c-1.48-1.57-4.49,0.46-4.74-1.96c-0.21-2.11,2.24-3.07,3.95-4.04
			c7.4-4.22,15.26-3.43,19.47,1.9c4.62,5.86,2.88,12.54-4.05,15.3c-3.73,1.49-7.61,2.3-11.65,2.2c-6.01-0.14-8.25-3.91-5.45-9.36
			C585.62,608.3,586.58,606.97,587.37,605.69z"/>
		<path class="st4" d="M75.33,60.3c-0.09,4.98-0.5,9.4-4.56,12.47c-5.63,4.27-12.04,2.89-14.37-3.65c-1.31-3.66-2.45-7.54-2.38-11.6
			c0.11-6.75,3.93-11.83,9.34-12.14c5.17-0.3,10.92,4.98,11.76,10.87C75.32,57.73,75.28,59.24,75.33,60.3z"/>
		<path class="st12" d="M498.18,117.31c-0.13,2.28-1.21,4.14-2.7,5.75c-2.9,3.12-6.62,5.01-10.53,6.45
			c-2.87,1.06-5.11-0.14-6.82-2.65c-1.68-2.47-0.12-4.18,1.31-5.7c3.18-3.36,6.02-7.2,10.3-9.29
			C494.25,109.66,498.32,112.37,498.18,117.31z"/>
		<path class="st13" d="M131.05,826.07c-3.32-0.32-6.2-0.96-8.56-3.04c-1.75-1.54-1.86-3.52-1.08-5.46c1.03-2.57,3-1.32,4.63-0.75
			c2.18,0.76,4.38,1.54,6.43,2.6c1.74,0.9,3.74,2.11,3.22,4.48C135.1,826.56,132.63,825.83,131.05,826.07z"/>
		<path class="st8" d="M814.77,839.11c1.64,1.95,1,4.69,2.34,6.74C811.62,843.27,811.49,842.88,814.77,839.11z"/>
		<path class="st9" d="M826.98,840.95c-0.03-2.42-0.31-4.88,1.12-7.06C832.28,836.96,828.03,838.7,826.98,840.95z"/>
		<path class="st14" d="M269.16,213.09c9.42-13.39,10.47-16.48,12.25-36.69c10.67,14.09,24.29,23.46,40.82,30.4
			c-11.24,9.59-16.23,22.23-20.08,35.48c-4.35-4.58-7.6-9.97-11.3-15.04c-1.76-2.41-3.5-4.82-5.51-7.05
			c-3.15-3.49-6.68-5.9-11.66-5.53C272.05,214.77,270.31,214.63,269.16,213.09z"/>
		<path class="st3" d="M269.16,213.09c10.51-2.08,16.78,3.77,22.07,11.67c2.76,4.13,5.82,8.06,8.69,12.11
			c1.14,1.62,2.37,3.24,2.23,5.4c-0.54,3.69-1.08,7.39-1.64,11.21c-0.69-0.32-1.15-0.4-1.2-0.58
			c-4.44-15.52-15.33-25.03-29.25-31.93C264.57,218.26,264.73,217.94,269.16,213.09z"/>
		<path class="st14" d="M826.25,727.24c4.12,6.99,6.62,14.33,11.05,20.58c4.41,6.23,10.99,10.02,17.37,14.56
			c-14.2,13.75-25.03,29.46-32.05,48.09c-0.86-3.95-1.64-7.91-2.59-11.84c-3.59-14.75-11.82-26.25-24.68-34.27
			c-3.75-2.34-0.06-2.38,0.72-2.84c9-5.31,16.48-12.32,23.22-20.23C822.7,737.29,824.1,732.3,826.25,727.24z"/>
		<path class="st14" d="M490.65,643.68c6.39,13.12,14.44,23.87,27.97,29.77c-10.59,13.01-16.62,27.76-17.92,44.89
			c-3.21-5.42-6.19-10.34-9.06-15.33c-3.62-6.28-8.71-10.24-16.08-11.3c-4.58-0.66-9.07-1.93-14.1-3.03
			C473.02,674.96,484.09,661.3,490.65,643.68z"/>
		<path class="st14" d="M193.46,833.49c-0.82-0.13-1.67-0.17-2.47-0.39c-4.09-1.1-10.62,0.86-10.55-6.08
			c0.11-10.57,4.34-15.07,12.52-15.09c0.83,0,1.67-0.01,2.5,0.02c7.81,0.2,10.74,2.12,10.48,6.85
			C205.45,827.78,200.36,833.76,193.46,833.49z"/>
		<path class="st15" d="M511.05,76.23c-7.08-0.22-8.67-2.09-7.95-7.44c0.31-2.32-0.91-5.02,1.72-6.84c2.51-1.74,5.08-3.75,8.02-1.34
			c3.16,2.59,5.47,5.92,4.25,10.32C516.01,74.84,512.99,76.27,511.05,76.23z"/>
		<path class="st11" d="M930.02,641.44c0.31,3.75-1.4,6.62-4.55,8.69c-2.92,1.91-5.98,2.32-8.65-0.28
			c-1.98-1.93-1.02-7.38,1.46-9.53c1.12-0.97,2.46-1.73,3.48-2.79c1.55-1.6,3.03-3.35,5.52-2.17
			C929.75,636.53,930.1,638.87,930.02,641.44z"/>
		<path class="st11" d="M548.87,591.19c-2.59-0.57-6.23,1.03-6.96-3.55c-0.71-4.43,1.99-6.31,5.47-7.62
			c1.22-0.46,2.55-0.79,3.85-0.89c4.24-0.33,8.4,2.43,8.48,5.97c0.1,4.39-3.66,4.95-6.8,5.82
			C551.65,591.27,550.27,591.11,548.87,591.19z"/>
		<path class="st11" d="M403.54,116.53c-2.04-1.19-7.17,0.95-6.09-3.89c0.8-3.6-2.56-10.14,4.95-10.45c5.2-0.21,7.95,2.66,7.39,7.18
			C409.35,112.87,409.3,117.11,403.54,116.53z"/>
		<path class="st16" d="M566.39,127.42c1.36,2.02,3.54,3.41,1.71,5.78c-0.95,1.23-2.11,0.45-2.92-0.37
			C563.19,130.81,564.81,129.38,566.39,127.42z"/>
		<path class="st17" d="M67.13,61.07c-0.06,1.65,0.24,3.81-1.54,4.41c-2.23,0.76-2.28-1.86-3.25-3.02
			c-0.64-0.76-1.15-1.65-1.85-2.34c-2.29-2.27-0.81-4.06,0.93-5.39c1.98-1.5,3.36,0.18,4.54,1.61
			C67.1,57.71,67.17,59.38,67.13,61.07z"/>
	</g>
</g>
</svg>
