<?xml version="1.0" encoding="utf-8"?>
<!-- Generator: Adobe Illustrator 24.2.1, SVG Export Plug-In . SVG Version: 6.00 Build 0)  -->
<svg version="1.1" xmlns="http://www.w3.org/2000/svg" xmlns:xlink="http://www.w3.org/1999/xlink" x="0px" y="0px"
	 viewBox="0 0 1000 1000" style="enable-background:new 0 0 1000 1000;" xml:space="preserve">
<style type="text/css">
	.st0{display:none;}
	.st1{display:inline;}
	.st2{fill:#7C64B1;}
	.st3{fill:#E1DCEC;}
	.st4{fill:#E0DBEC;}
	.st5{fill:#FCFCFD;}
	.st6{fill:#F2F0F7;}
	.st7{fill:#EBE7F2;}
	.st8{fill:#BDB1D8;}
	.st9{fill:#D8CFEC;}
	.st10{fill:#D9D0ED;}
	.st11{fill:#E0DBEB;}
	.st12{fill:#7D66B2;}
	.st13{fill:#D3C9E9;}
	.st14{fill:#BDB2D8;}
	.st15{fill:#DED8EA;}
	.st16{fill:#D9D2E8;}
	.st17{fill:#DAD1ED;}
	.st18{fill:#D7CFEB;}
	.st19{fill:#C6EBEE;}
	.st20{fill:#2D8494;}
	.st21{fill:#DEEEEF;}
	.st22{fill:#FBD5D6;}
	.st23{fill:#FBE2E3;}
	.st24{fill:#F4757A;}
</style>
<g id="Layer_1" class="st0">
	<g class="st1">
		<path class="st2" d="M730.83,196.89c-6.86-4.29-14.59-7.17-21.92-10.71c-11.92-3.76-24.11-6.23-36.58-6.99
			c-25.94-1.56-48.96,6.78-70.5,20.64c-24.55,15.8-45.05,35.64-61.77,59.5c-9.5,13.57-13.77,28.97-16.06,45.09
			c-0.35,2.46-1.15,4.95-0.99,7.38c0.76,12.13-1.96,23.84-4.51,35.47c-2,9.11-0.42,17.27,2.76,25.67
			c2.39,6.32,3.68,13.05,5.88,19.46c4.44,12.92,10.97,24.86,18.02,36.52c0,0,0,0,0,0c9.8,13.37,21.43,24.77,34.74,34.77
			c33.64,25.28,71.12,33.02,111.67,24.04c32.8-7.26,61.42-23.76,86-46.43c37.61-34.68,53.06-77.21,40.14-127.67
			C804.77,263.1,774.96,224.45,730.83,196.89z M782.18,410.21c-24.91,32.24-57.73,53.12-96.36,63.14
			c-37.03,9.6-72.25,2.26-103.3-21.36c-6.88-5.24-13.99-10.19-19.6-16.89c-10.17-9.87-17.26-21.83-23.41-34.42
			c-0.61-1.24-1.06-2.6-0.33-3.83c4.74-7.91,3.05-16.15-0.29-23.52c-4.04-8.9-4.74-17.56-1.88-26.55
			c3.72-11.65,4.75-23.68,5.89-35.72c2.94-31.05,20.58-53.57,42.54-73.7c12.07-11.07,24.85-21.16,39.32-28.83
			c25.62-13.58,51.94-13.25,78.46-2.77c19.58,7.73,35.7,20.37,49.78,35.8c0,0,0,0,0,0c26.27,26.21,43.38,57.63,48.31,94.25
			C804.92,362.44,799.35,388,782.18,410.21z"/>
		<path class="st2" d="M656.12,633.26c-20.8-24.56-46.15-40.6-78.64-44.74c-18.33-2.34-34.29,1.79-47.99,14.25
			c-5.91,5.38-11.93,10.66-17.6,16.28c-12.68,12.58-19.68,27.55-17.83,45.77c0.4,3.93-0.19,7.42-1.38,11.08
			c-2.47,7.63-3.97,15.53-2.1,23.49c6.22,26.46,18.64,49.55,37.75,69.02c17.26,17.58,37.05,29.19,61.23,27.44
			c21.57,1.49,52.83-11.51,66.86-22.38c24.56-19.02,37.61-58.14,28.9-87.92C679.56,665.87,669.31,648.83,656.12,633.26z
			 M671.22,715.8c-0.34,1.75-0.79,3.47-1.2,5.21c-3.5,19.94-13.04,35.77-31.13,45.8c0,0,0,0,0,0c0,0,0,0,0,0
			c-1.28,0.73-2.57,1.46-3.85,2.19v0l0,0c-16.09,8.66-33.04,13.49-51.53,12.31c-7.35-0.47-14.68-0.88-21.34-4.21
			c-7.41-3.7-14.53-6.98-18.9-15.56c-5.01-9.85-10.48-19.63-17.94-28.38c-9.77-11.45-9.03-26.19-8.1-40.52
			c1.42-21.73,10.42-41.02,19.3-60.26c5.1-11.06,13.82-19.02,25.54-23.24c0,0,0,0,0,0c0,0,0,0,0,0c6.28-2.72,12.56-0.46,18.84-0.01
			c8.9,1.42,17.32,4.19,25.07,8.85c7.08,3.32,13.84,7.19,19.92,12.15c15.58,13.06,28.19,28.47,36.96,46.91l0,0l0,0
			C669.58,689.11,673.94,701.69,671.22,715.8z"/>
		<path class="st2" d="M670.02,721c-0.12-0.26-0.23-0.53-0.34-0.79C669.76,720.48,669.87,720.74,670.02,721z"/>
		<path class="st3" d="M535.18,414.15c-8.46-14.91-12.04-31.67-17.56-47.69c-3.34-9.69-0.62-19.11,1.31-28.52
			c1.31-6.37,2.59-12.7,2.74-19.24c0.54-24.79,7.08-47.4,22.53-67.4c20.09-26,44.1-47.18,73.44-61.94
			c22.24-11.19,45.84-14.54,70.45-9.59c7.17,1.44,14.51,2.25,20.83,6.41c-0.33-1.02-1.16-1.53-1.96-2.16
			c-14.88-11.62-31.14-20.95-48.14-29.02c-16.13-7.66-32.69-9-49.8-3.49c-16.03,5.16-31.2,12.22-46.09,20.01
			c-11.15,5.83-20.05,13.94-27.34,24.14c-8.31,11.62-11.96,25.56-19.2,37.69c-3.06,5.13-5.43,10.6-7.45,16.26
			c-4.1,11.47-5.7,23.49-7.62,35.39c-2.33,14.4-3.81,28.84,0.15,43.4c1.98,7.29,3.68,15.01,2.35,22.62
			c-1.09,6.25,0.14,12.19,0.84,18.19c1.8,15.38,8.72,29.15,14.15,43.4c2.12,5.55,5.15,9.79,11.46,11.04
			c5.19,1.03,9.28,5.35,14.9,5.26c0,0,0,0,0,0C540.09,425.18,538.1,419.31,535.18,414.15z"/>
		<path class="st3" d="M521.26,372.94c-3.18-8.4-4.76-16.55-2.76-25.67c2.56-11.63,5.27-23.34,4.51-35.47
			c-0.15-2.43,0.64-4.92,0.99-7.38c2.29-16.12,6.56-31.52,16.06-45.09c16.71-23.87,37.22-43.71,61.77-59.5
			c21.54-13.86,44.56-22.2,70.5-20.64c12.47,0.75,24.66,3.23,36.58,6.99c-6.32-4.16-13.66-4.97-20.83-6.41
			c-24.6-4.95-48.21-1.6-70.45,9.59c-29.33,14.76-53.35,35.94-73.44,61.94c-15.45,20-21.99,42.62-22.53,67.4
			c-0.14,6.53-1.42,12.87-2.74,19.24c-1.94,9.41-4.66,18.83-1.31,28.52c5.52,16.02,9.1,32.78,17.56,47.69
			c2.92,5.15,4.92,11.02,9.98,14.76c-7.05-11.66-13.58-23.59-18.02-36.52C524.93,385.99,523.65,379.26,521.26,372.94z"/>
		<path class="st3" d="M268.79,80.39c-11.14-9.34-23.5-14.96-38.6-14.49c-11.85,0.36-22.8,4-33.84,7.28
			c-4.55,1.35-9.57,3.19-12.28,7.94c14.43,4.62,27.99,10.8,40.75,19.22c17.27,11.39,25.74,27.39,27.32,47.34
			c2.09,26.27-6.55,49.29-22.51,69.84c-1.01,1.3-2.28,2.39-3.42,3.59c0,0,0,0,0,0c10.16,1.92,20.34,2.03,30.44-0.11
			c12.5-2.65,23.98-7.14,33.09-16.9c7.35-7.87,11.76-17.31,16.07-26.79c9.43-20.76,8.72-40.91-4.15-60.48
			C292.5,102.93,281.43,90.99,268.79,80.39z"/>
		<path class="st2" d="M227.73,217.81c13.66-16.93,21.55-36.04,23.19-57.91c1.26-16.85-2.53-32.14-12.49-45.58
			c-6.87-9.28-17.03-14.81-26.86-20.45c-7.39-4.24-15.3-7.34-23.43-9.92c-1.55-0.49-3.86-0.26-4.09-2.82
			c-11.45-1.59-22.94-0.48-34.35,0.09c-31.98,1.59-51.83,17.82-60.33,45.99c-5.46,18.1-5.53,37.27-0.94,55.68
			c4.25,17.03,12.37,32.8,27.87,42.26c16.05,9.79,34.21,14.17,53.06,15.01c10.91,0.48,20.65-4.61,30.99-6.82
			c9.64-2.06,18.27-5.92,25.83-12.21c0,0,0,0,0,0C225.44,219.43,226.97,218.75,227.73,217.81z M200.92,211.81
			c-8.84,3.38-17.67,6.78-26.52,10.13c-8.86,3.36-17.72,1.38-26.55-0.17c-2.77-0.49-5.49-1.28-8.21-2.03
			c-23.6-6.55-40.43-27.79-42.65-53c-0.98-11.19-0.58-22.23,0.9-33.3c0.2-1.5,0.41-2.87,1.65-4.01c8.77-8.14,17.2-16.7,26.35-24.39
			c4.83-4.06,11.34-5.47,17.7-5.92c4.47-0.31,8.98,0.05,13.47,0.12c0,0,0,0,0,0c0,0,0,0,0,0c19.7-2.28,35.41,6.25,51.09,17.03
			c22.69,15.61,24.36,37.63,18.36,58.93c-2.44,8.66-6.55,16.72-10.88,24.58C212.41,205.63,207.34,209.65,200.92,211.81z"/>
		<path class="st2" d="M229.62,217.53c15.96-20.55,24.6-43.58,22.51-69.84c-1.59-19.95-10.05-35.95-27.32-47.34
			c-12.76-8.42-26.33-14.6-40.75-19.22c0.22,2.56,2.53,2.33,4.09,2.82c8.13,2.57,16.05,5.68,23.43,9.92
			c9.83,5.64,19.99,11.17,26.86,20.45c9.96,13.45,13.75,28.74,12.49,45.58c-1.64,21.86-9.53,40.97-23.19,57.91
			c-0.76,0.95-2.29,1.62-1.54,3.31C227.34,219.92,228.61,218.82,229.62,217.53z"/>
		<path class="st2" d="M245.99,813.83c-11.38-16.65-28.01-24.15-47.34-25.77c-12.67-1.06-22.58,5.78-31.12,14.41
			c-4.31,4.36-8.29,9.07-12.21,13.79c-7.12,8.59-11.07,18.44-11.23,29.7c-0.06,4.66-0.11,9.32-0.17,13.97c0,0,0,0,0,0c0,0,0,0,0,0
			c0.39,1.61,0.8,3.22,1.17,4.84c6.22,27.34,28.68,46.09,56.44,47.24c10.9,0.45,20.1-4.02,28.77-9.8
			c13.3-8.86,24.59-19.51,28.32-35.92c3.34-14.71,1.06-28.74-5.75-42.1C250.58,820.74,248.33,817.25,245.99,813.83z M233.34,876.39
			c-2.93,2.91-6.11,5.58-9.13,8.41c-12.63,11.79-26.88,11.92-41.95,5.77c-2.43-0.99-4.86-2.2-6.13-4.77
			c-9.83-13.07-15.29-27.48-12.97-44.07c1.45-10.4,13.54-21.12,25.08-22.68c15.99-2.17,33.13,6.86,40.41,21.35
			c3.19,6.35,7.38,12.29,8.25,19.62l0,0l0,0C240.51,866.51,238.02,871.75,233.34,876.39z"/>
		<path class="st3" d="M156.95,812.45c5.53-5.97,10.52-12.44,17.09-17.39c15.3-11.52,31.42-9.88,47.66-2.69
			c11.81,5.23,21.52,13.1,28.01,24.57c1.32,2.34,2.61,4.61,3.17,7.25c0.3-1.96,0.77-3.91,0.86-5.88c0.3-6.61,1.37-13.3-0.69-19.77
			c-5.31-16.73-17.58-26.78-32.95-33.7c-15.37-6.92-29.67-4.14-43.44,4.69c-8.3,5.32-15.96,11.25-21.9,19.22
			c-16.28,21.81-21.84,45.24-10.83,71.19C140.32,841.93,144.35,826.04,156.95,812.45z"/>
		<path class="st3" d="M144.09,845.96c0.16-11.25,4.11-21.11,11.23-29.7c3.92-4.73,7.9-9.44,12.21-13.79
			c8.55-8.63,18.46-15.47,31.12-14.41c19.33,1.62,35.96,9.11,47.34,25.77c2.34,3.42,4.59,6.91,6.88,10.37
			c-0.55-2.64-1.85-4.91-3.17-7.25c-6.49-11.48-16.2-19.34-28.01-24.57c-16.23-7.19-32.35-8.84-47.66,2.69
			c-6.57,4.95-11.56,11.42-17.09,17.39c-12.6,13.59-16.63,29.48-13.02,47.49c0,0,0,0,0,0C143.98,855.28,144.03,850.62,144.09,845.96
			z"/>
		<path class="st2" d="M952.88,607.37c-3.84-11.52-12.87-17.15-23.83-20.35c-3.24-0.95-6.05,1.36-9.14,1.76c0,0,0,0,0,0c0,0,0,0,0,0
			c-7.78,1.74-12.91,7.28-17.98,12.77c-6.58,7.12-9.78,14.45-6.1,24.93c7.47,21.28,33.85,30.15,49.29,16.59
			C953.53,632.44,957.36,620.77,952.88,607.37z M945.42,624.4c-2.84,13.11-10.6,19.24-24.71,15.74c0,0,0,0,0,0
			c-3.63,0.06-6.31-1.85-8.73-4.26c-5.58-5.17-9.14-11.25-8.99-19.14c0.09-4.94,2.67-7.98,6.93-9.95c2.41-1.12,4.99-2.03,7.15-3.53
			c6.44-4.45,12.67-4.84,19.38-0.42C944.42,608.08,947.32,615.64,945.42,624.4z"/>
		<path class="st2" d="M138.45,287.07c-5.23-5.78-11.86-8.73-19.44-9.85c0,0,0,0,0,0c-7.54-0.68-15.84,4.32-19.6,10.81
			c-2.94,5.06-3.82,10.43-4.41,15.99c0,0,0,0,0,0c0,0,0,0,0,0c-0.93,3.52,2.26,4.33,4.01,6.08c1.62,4.7,3.85,8.98,8.04,11.95
			c0,0,0,0,0,0c0,0,0,0,0,0c10.34,7.41,25.67,5.2,32.92-5.66C145.69,307.82,145.34,294.68,138.45,287.07z M121.51,317.11
			c-7.81-0.32-17.06-9.48-16.99-16.82c0.05-5.11,8.2-12.1,14-12.01c8.6,0.13,17.49,7.68,17.36,14.74
			C135.74,310.96,129.15,317.42,121.51,317.11z"/>
		<path class="st2" d="M914.31,575.45c9.22-9.51,8.8-26.81-0.31-36.72c-1.02-0.83-2.1-1.59-3.05-2.49
			c-7.08-6.6-15.5-6.82-23.05-0.76c-2.05,1.65-3.57,4.9-7.29,2.83c-0.73-0.41-1.59,1-2.08,1.85c-4.15,7.22-6.46,19.65-0.24,26.97
			c0.4,0.47,0.47,1.21,0.7,1.83l0,0c5.09,5.73,12.1,8.44,19.05,10.12C903.47,580.39,910.03,579.86,914.31,575.45z M881.73,555.62
			c-0.89-2.18-0.42-3.93,0.64-5.64c6.77-10.98,21.35-11.95,27.87-1.98c1.88,2.88,2,5.88,1.54,9.07c0,0,0,0,0,0
			c0.3,9.99-4.87,14.78-12.83,11.89C889.8,568.9,884.93,563.43,881.73,555.62z"/>
		<path class="st3" d="M960.58,598.41c-6.95-17.04-27.61-23.24-40.68-9.63c5.34-4.2,10.41-2.69,16.28-0.43
			c11.42,4.41,17.36,13.06,19.26,24.14c1.99,11.59-0.58,22.52-10.33,30.57c8.2-1.97,15.12-6.33,17.47-14.47
			C965.49,618.58,964.6,608.26,960.58,598.41z"/>
		<path class="st3" d="M955.44,612.5c-1.9-11.09-7.84-19.74-19.26-24.14c-5.87-2.26-10.94-3.77-16.28,0.43c0,0,0,0,0,0
			c3.09-0.4,5.9-2.71,9.14-1.76c10.97,3.2,19.99,8.84,23.83,20.35c4.47,13.4,0.65,25.06-7.77,35.7
			C954.86,635.01,957.43,624.09,955.44,612.5z"/>
		<path class="st3" d="M876.93,540.49c0.61-1.21,1.58-2.73,2.81-2.61c3.88,0.37,5.77-2.85,8.64-4.22
			c11.82-5.64,17.62-6.54,25.61,5.06c-2.76-7.16-7.97-12.21-14.48-15.83c-5.17-2.87-11.53-3.5-16.79-2.65
			c-8.42,1.37-17.33,15.44-17.87,24.46c-0.67,11.33,6.71,17.75,14.12,24.26v0C870.12,561.18,872.92,548.42,876.93,540.49z"/>
		<path class="st3" d="M878.54,540.17c0.49-0.85,1.34-2.26,2.08-1.85c3.71,2.07,5.24-1.19,7.29-2.83
			c7.54-6.07,15.97-5.84,23.05,0.76c0.96,0.89,2.03,1.66,3.05,2.49c-8-11.6-13.8-10.71-25.61-5.06c-2.87,1.37-4.76,4.59-8.64,4.22
			c-1.23-0.12-2.2,1.4-2.81,2.61c-4.01,7.94-6.81,20.69,2.06,28.47c-0.23-0.62-0.3-1.36-0.7-1.83
			C872.07,559.82,874.38,547.39,878.54,540.17z"/>
		<path class="st4" d="M97.98,310.99c-0.13-0.1-0.25-0.19-0.37-0.29c-0.88,0.35-1.75,0.46-2.48-0.76c-0.7-1.18-1.21-2.41-1.1-3.66
			c-0.29-0.89-0.38-1.88-0.2-3.02c0.66-10.7,4.42-19.61,14.38-24.94c3.45-1.84,7-2.68,10.8-1.11c0,0,0,0,0,0
			c-0.46-1.14-1.5-1.13-2.48-1.3c-11.99-2.04-25.78,9.22-26.49,21.42c-0.43,7.37,2.73,13.11,7.26,18.48
			c2.64,3.13,4.47,7.31,9.74,6.23C101.21,320.66,100.17,315.36,97.98,310.99z"/>
		<path class="st4" d="M108.21,278.33c-9.97,5.33-13.72,14.24-14.38,24.94c-0.18,1.14-0.09,2.13,0.2,3.02
			c0.07-0.75,0.36-1.51,0.97-2.26c0,0,0,0,0,0c0.59-5.57,1.48-10.93,4.41-15.99c3.77-6.49,12.07-11.48,19.6-10.81
			C115.21,275.65,111.66,276.49,108.21,278.33z"/>
		<path class="st4" d="M99,310.11c-0.46,0.16-0.93,0.42-1.4,0.6c0.12,0.1,0.25,0.19,0.37,0.29c2.19,4.37,3.24,9.67,9.07,11.06
			c0,0,0,0,0,0C102.85,319.08,100.62,314.8,99,310.11z"/>
		<path class="st3" d="M569.44,434.73c11.73,4.67,23.94,6.31,36.5,6.38c3.74,0.02,7.48,1.23,11.22,1.9
			c14.34,2.57,27.96-0.82,41.45-5.06c6.02-1.89,11.93-3.87,18.36-4.05c4.22-0.12,7.58-3.41,11.65-4.19
			c10.42-1.98,19.19-7.86,28.71-11.93c4.92-2.11,8.01-6.85,12.66-9.56c4.11-2.39,8.93-3.76,12.05-7.78
			c5.5-7.1,10.01-14.86,12.55-23.39c1.85-6.22,3.67-12.35,6.4-18.24c3.85-8.3,6.35-17.05,4.83-26.24c-0.64-3.85,1.93-6.43,2.19-9.82
			c0.49-6.48-2.87-12.21-3.11-18.55c-0.5-13.09-4.35-25.68-6.31-38.56c-1.22-8.03-4.85-15.75-5.57-24.06c0,0,0,0,0,0c0,0,0,0,0,0
			c-14.08-15.43-30.2-28.07-49.78-35.8c-26.52-10.48-52.84-10.81-78.46,2.77c-14.47,7.67-27.25,17.76-39.32,28.83
			c-21.96,20.14-39.6,42.66-42.54,73.7c-1.14,12.05-2.18,24.07-5.89,35.72c-2.86,8.99-2.16,17.65,1.88,26.55
			c3.34,7.38,5.03,15.61,0.29,23.52c-0.73,1.22-0.28,2.59,0.33,3.83c6.16,12.6,13.25,24.56,23.41,34.42
			C564.99,433.19,567.29,433.88,569.44,434.73z"/>
		<path class="st3" d="M664.96,695.17c-0.7-4.7-1.55-9.37-2.46-14.04c-0.28-1.46-1.05-2.83,0.35-4.1l0,0
			c-8.76-18.44-21.37-33.84-36.96-46.91c-5.96,0.19-10.14-3.79-14.68-6.63c-2.03-1.27-5.3-2.01-5.24-5.52
			c-7.75-4.66-16.17-7.44-25.07-8.85c-6.28,1.44-12.56,1.39-18.84,0.01c0,0,0,0,0,0c-11.72,4.22-20.44,12.18-25.54,23.24
			c-8.88,19.24-17.88,38.53-19.3,60.26c-0.93,14.32-1.68,29.07,8.1,40.52c7.46,8.74,12.93,18.53,17.94,28.38
			c4.37,8.58,11.48,11.86,18.9,15.56c6.66,3.33,13.99,3.74,21.34,4.21c18.49,1.18,35.44-3.65,51.53-12.31l0,0
			c0.33-2.84,0.93-3.18,3.85-2.19c0,0,0,0,0,0c18.09-10.02,27.63-25.86,31.13-45.8c-0.15-0.26-0.26-0.52-0.34-0.79
			C666.26,712.23,666.21,703.58,664.96,695.17z M594.72,717.53c-1.35-2.64-0.92-5.27-0.57-7.63c0.38-2.57,0.88-5.14,1.22-7.77
			C596.87,714.69,596.87,714.69,594.72,717.53z"/>
		<path class="st5" d="M669.68,720.21c0.11,0.26,0.22,0.53,0.34,0.79c0.4-1.74,0.86-3.46,1.2-5.21"/>
		<path class="st5" d="M662.86,677.03L662.86,677.03"/>
		<path class="st6" d="M562.07,609.14C562.07,609.14,562.07,609.14,562.07,609.14c6.28-0.57,12.56,0.31,18.84-0.01"/>
		<path class="st3" d="M208.16,116.27c-15.68-10.78-31.39-19.31-51.09-17.03c0,0,0,0,0,0c1.94,0.72,3.97,0.42,5.93,0.3
			c3.94-0.24,4.32,1.64,2.92,4.56c-2.16,4.52-4.22,9.04-5.25,13.99c-5.66,27.14-1.12,51.46,18.7,72.15
			c6.13,6.39,12.18,12.73,19.28,18.03c1.17,0.87,2.58,1.68,2.26,3.54c6.42-2.16,11.49-6.18,14.72-12.03
			c4.34-7.85,8.44-15.92,10.88-24.58C232.52,153.9,230.85,131.88,208.16,116.27z"/>
		<path class="st3" d="M180.53,884.08c17.2,2.48,31.82-3.42,45.39-13.37c4.21-3.09,7.33-7.12,10.98-10.69l0,0
			c-0.87-7.33-5.06-13.27-8.25-19.62c-7.28-14.5-24.42-23.52-40.41-21.35c-11.54,1.57-23.63,12.28-25.08,22.68
			c-2.32,16.59,3.14,31,12.97,44.07C176.68,882.94,178.97,883.85,180.53,884.08z"/>
		<path class="st3" d="M936.44,602.83c-6.71-4.42-12.94-4.02-19.38,0.42c-2.16,1.49-4.74,2.41-7.15,3.53
			c-4.26,1.97-6.84,5.01-6.93,9.95c-0.15,7.9,3.41,13.98,8.99,19.14c3.53,0.15,6.53,1.4,8.74,4.26c0,0,0,0,0,0c0,0,0,0,0,0
			c14.11,3.5,21.88-2.63,24.71-15.74C947.32,615.64,944.42,608.08,936.44,602.83z"/>
		<path class="st7" d="M920.71,640.14c-2.81-1.63-5.83-2.82-8.73-4.26C914.4,638.29,917.07,640.19,920.71,640.14z"/>
		<path class="st7" d="M911.97,635.87c2.9,1.44,5.93,2.63,8.73,4.26c0,0,0,0,0,0C918.5,637.27,915.5,636.03,911.97,635.87z"/>
		<path class="st3" d="M118.51,288.28c-5.8-0.09-13.96,6.9-14,12.01c-0.07,7.34,9.18,16.5,16.99,16.82
			c7.65,0.31,14.23-6.14,14.37-14.09C136,295.96,127.11,288.41,118.51,288.28z"/>
		<path class="st8" d="M95.99,309.29c-0.48-0.48-0.91-0.98-1.26-1.53C94.96,308.4,95.38,308.91,95.99,309.29z"/>
		<path class="st8" d="M94.73,307.77c0.35,0.55,0.78,1.05,1.26,1.53c0.73,0.45,1.73,0.73,3.01,0.81c-1.75-1.76-4.94-2.56-4.01-6.08
			c0,0,0,0,0,0C94.48,305.55,94.39,306.8,94.73,307.77z"/>
		<path class="st8" d="M95.99,309.29c-0.61-0.38-1.03-0.89-1.26-1.53c-0.3-0.46-0.54-0.95-0.71-1.48c-0.11,1.25,0.4,2.48,1.1,3.66
			c0.73,1.22,1.6,1.11,2.48,0.76C97.03,310.26,96.48,309.79,95.99,309.29z"/>
		<path class="st8" d="M94.03,306.28c0.17,0.53,0.41,1.02,0.71,1.48c-0.35-0.96-0.26-2.21,0.26-3.74
			C94.39,304.78,94.09,305.53,94.03,306.28z"/>
		<path class="st8" d="M97.6,310.71c0.47-0.19,0.94-0.44,1.4-0.6c-1.28-0.09-2.28-0.36-3.01-0.81
			C96.48,309.79,97.03,310.26,97.6,310.71z"/>
		<path class="st3" d="M911.77,557.08c0.46-3.19,0.35-6.19-1.54-9.07c-6.52-9.98-21.09-9-27.87,1.98c-1.05,1.71-1.53,3.46-0.64,5.64
			c3.21,7.81,8.07,13.28,17.21,13.34C903.99,565.83,908.15,561.74,911.77,557.08z"/>
	</g>
</g>
<g id="Layer_2" class="st0">
</g>
<g id="Layer_3">
	<g>
		<path class="st9" d="M468.12,999.69c-145.28,0-290.55,0-435.83,0c-0.74-1.73,0.42-2.87,1.37-3.95
			c6.01-6.76,8.69-15.19,11.84-23.39c1.17-3.05,0.48-5.9-1.01-8.6c-5.89-10.67-15.12-16.47-27.02-18.18
			c-4.63-0.67-8,2.82-12.07,4.07c-1.68,0.52-3.11,2.05-5.11,1.07c0-104.29,0-208.58,0-312.87c3.07-2.57,6.64-1.5,10.06-1.32
			c13.28,0.71,26.54,1.74,39.8,2.6c18.73,1.22,35.72-4.61,51.95-13.49c10.98-6.01,21.74-12.32,31.46-20.21
			c14.71-11.94,24.94-27.45,34.42-43.61c8.14-13.86,13.64-28.87,20.02-43.51c1.82-4.17,2.26-8.65,2.86-13.12
			c4.04-29.63-3.58-56.04-21.93-79.43c-9.13-11.64-17.8-23.67-28.2-34.3c-9.95-10.17-22.2-16.84-34.71-23.14
			c-2.67-1.34-5.41-2.56-8.01-4.06c-16.23-9.35-33.65-14.08-52.44-13.7c-4.39,0.09-8.6,0.76-12.74,2.12
			c-8.86,2.91-17.58,6.2-26.36,9.34c-1.99,0.71-3.93,1.99-6.2,0.92c0-118.79,0-237.58,0-356.37c0-6.48,0-6.48,6.5-6.48
			c0.83,0,1.66,0,2.5,0c7.33,2.66,14.66,2.86,21.99,0c145.61,0,291.22,0,436.82,0c1.32,1.17,1.82,2.76,2.16,4.4
			c2.54,12.29,8.27,23.1,15.38,33.28c0.91,1.31,2.18,2,3.5,2.71c2.65,1.62,4.24,4.2,5.89,6.68c11.46,17.2,27.05,29.02,46.4,36.12
			c13.31,4.89,26.73,9.08,40.96,10.42c17.43,1.64,33.44-2.22,47.75-12.13c26.7-18.47,43.21-43.74,49.26-75.72
			c0.41-2.16,0.87-4.24,2.61-5.77c78.64,0,157.27,0,235.91,0c-0.94,4.4-4.79,4.25-7.82,4.37c-10.94,0.41-20.26,4.44-28.56,11.4
			c-4.88,4.09-8.19,9.26-10.54,14.95c-6.83,16.56-8.02,32.87,3.17,48.35c1.31,1.82,2.7,3.33,4.69,4.3
			c5.92,5.6,11.6,11.5,19.49,14.48c17.98,6.79,35.9,7.23,53.18-1.72c12.16-6.3,18.09-17.9,20.37-30.6
			c3.62-20.15-1.14-38.03-18.34-51.06c-0.8-0.61-1.52-1.3-2.05-2.16c-2.13-4.62-6.27-6.85-10.58-8.92
			c-1.59-0.77-4.03-0.67-4.02-3.39c19.66,0,39.32,0.11,58.98-0.1c3.43-0.04,4.1,0.68,4.09,4.1c-0.11,119.62-0.1,239.23-0.1,358.85
			c-1.09,1.27-2.3,2.38-3.85,3.08c-14.75,6.72-28.4,15.15-40.48,26.04c-0.98,0.88-2.12,1.61-3.33,2.18
			c-12.47,8.26-23.39,18.2-30.91,31.2c-6.35,10.98-7.58,23.23-6.39,35.74c-0.62,6.33-2.73,12.34-4.37,18.41
			c-4.26,15.75-4.89,31.7-1.39,47.42c3.66,16.4,9.99,31.97,17.69,47.02c6.59,12.87,16.76,22.67,26.24,33.11
			c4.25,4.68,8.99,8.9,13.36,13.47c7.53,7.88,16.64,12.59,27.39,14.21c2.11,0.32,4.38,0.27,6.03,2c0,104.96,0,209.91,0,314.87
			c-2.55,5.36-6.2,10.24-7.07,16.31c-0.79,5.53-0.56,10.93,2.7,15.78c1.86,2.77,2.78,5.99,4.37,8.89c0,7,0,7-7,7
			c-103.63,0-207.25,0-310.88,0c-1.31-1.26-1.77-2.91-1.56-4.58c2.84-22.98-7.97-41.97-17.68-61.36
			c-12.9-25.76-34.13-39.71-61.72-46c-22.98-5.24-44.23-0.46-65.16,8.4c-1.07,0.45-2.21,0.88-3.09,1.61
			c-9.53,7.88-20.67,13.3-30.89,20.13c-8.6,5.75-12.81,14.67-17.69,23.17c-2.32,4.05-3.65,8.57-6.16,12.52
			c-14.6,11.94-16.06,27.23-10.49,41.36C468.19,996.47,469.02,998,468.12,999.69z"/>
		<path class="st3" d="M0.31,616.85c0-77.3,0-154.6,0-231.9c5.18-8.9,13.21-14.62,21.95-19.47c3.75-2.08,8.27-0.02,12.14-1.85
			c7.55-2.55,14.89-0.35,22.11,1.36c9.22,2.19,18.22,5.09,26.56,9.93c7.04,4.08,14.36,7.67,21.96,10.73
			c12.8,5.16,23.37,13.71,31.77,24.4c10.47,13.33,21.03,26.82,28.28,42.23c8.68,18.47,12.55,38.09,7.31,58.25
			c-3.26,12.55-9.16,24.26-15.18,35.79c-6.26,11.98-13.42,23.36-22.16,33.74c-3.03,3.59-6.16,6.93-9.91,9.77
			c-14.56,11-30.27,19.96-47.14,26.9c-10.89,4.48-22.26,5.68-33.83,4.51c-10.11-1.02-20.19-1.89-30.37-1.78
			C9.19,619.49,4.43,619.61,0.31,616.85z"/>
		<path class="st3" d="M999.9,369.95c0,82.3,0,164.6,0,246.9c-6.18,2.61-11.32-0.34-16.24-3.36c-5.55-3.41-10-8.24-14.91-12.49
			c-7.04-6.1-13.67-12.67-20.35-19.15c-7.09-6.89-11.7-15.84-16.16-24.52c-6.6-12.83-12.53-26.03-14.3-40.73
			c-1.62-13.47,0.11-26.49,2.99-39.58c4.87-22.15,13.39-42.87,24.11-62.72c7.89-14.62,20.88-24.4,33.76-34.17
			c4.78-3.62,9.95-6.69,15.45-9.14C996.04,370.21,997.77,368.94,999.9,369.95z"/>
		<path class="st3" d="M662.04,999.69c-58.98,0-117.95,0-176.93,0c-2.41-2.02-2.66-4.82-2.8-7.68c-0.57-11.62,0.53-23.19,1.31-34.76
			c0.49-7.25,3.36-13.81,7.62-19.71c7.35-6.25,13.77-13.69,22.99-17.54c2.27-0.95,4.66-1.61,6.81-2.83
			c9.67-2.69,18.25-8.01,27.79-11.14c19.74-6.46,39.46-6.72,58.9-0.06c15.79,5.41,29.21,14.65,37.21,30.03
			c5.45,10.49,10.99,20.96,15.51,31.9c3.16,7.66,4.48,15.67,4.19,23.93C664.55,994.68,664.28,997.53,662.04,999.69z"/>
		<path class="st3" d="M485.11,0.1c58.98,0,117.95,0,176.93,0c1.77,1.88,1.14,4.03,0.62,6.12c-7.14,28.95-23.85,50.85-49.57,65.61
			c-8.87,5.09-18.87,7.24-29.3,5.05c-2.25-1.88-4.59-2.97-7.67-1.83c-3.45,1.28-7.04,0.03-10.14-0.97c-3.34-1.08-6.39-0.68-9.6-0.53
			c-11.08-2.04-21.52-5.9-30.93-12.06c-17.12-11.21-30.03-26.09-37.95-45.11c-1.62-3.88-2.23-8-3.16-12.05
			C484,2.83,483.92,1.34,485.11,0.1z"/>
		<path class="st2" d="M0.31,616.85c14.91,1.4,29.92,0.94,44.85,2.72c13.49,1.61,26.31-1.37,38.74-7.19
			c13.34-6.24,25.85-13.65,37.83-22.17c10.9-7.74,18.26-18.46,25.26-29.32c9.12-14.15,16.53-29.36,22.06-45.26
			c4.06-11.68,4.86-23.79,2.65-36.31c-5.73-32.53-25.95-56.27-46.96-79.64c-3.02-3.36-7.06-5.75-11.09-7.59
			c-18.56-8.47-35.68-20.14-55.77-25.18c-7.75-1.94-15.55-3.79-23.62-1.89c-3.89,1.11-7.9,0.43-11.84,0.66
			c-6.4,0.39-12.41,1.76-18.26,4.23c-1.23,0.52-2.57,0.73-3.86,0.02c0-2.33,0-4.66,0-7c17.56-6.25,34.23-16.1,53.9-14.02
			c11.41,1.21,22.77,2.96,33.21,8.15c10.12,5.03,20.16,10.23,30.23,15.38c13.73,7.02,24.9,17.22,34.51,29.03
			c8.71,10.71,17.44,21.5,24.93,33.06c13.55,20.91,18.97,44.03,15.7,68.98c-2.54,19.38-11.92,36.15-20.29,53.29
			c-6.38,13.07-14.86,24.77-23.87,36.16c-8.87,11.22-20.35,19.15-32.29,26.38c-15.82,9.56-31.98,18.49-50.84,20.96
			c-10.87,1.42-21.56-0.06-32.33-0.79c-10.94-0.74-21.9-1.14-32.85-1.69C0.31,630.84,0.31,623.85,0.31,616.85z"/>
		<path class="st2" d="M662.04,999.69c2.04-12.7,0.54-24.9-5.37-36.4c-6.54-12.69-11.18-26.47-20.82-37.39
			c-8.02-9.09-18.3-15.08-29.64-18.62c-7.37-2.29-15.07-4.2-22.96-4.46c-17.5-0.57-33.94,3.52-49.5,11.38
			c-4.03,2.04-8.34,3.29-12.65,4.53c-4.34,0.85-8.52,2.38-12.86,3.27c-3.42,0.7-5.89,2.92-7.82,5.74c-2.34,3.41-4.98,6.6-7.41,9.94
			c-5.32,7.56-7.94,15.91-7.96,25.21c-0.01,7.81-1.33,15.57-1.05,23.41c0.16,4.48-0.02,8.98,1.11,13.38c-3.67,0-7.33,0-11,0
			c-1.8-1.81-1.86-4.16-1.97-6.47c-0.53-11.62,1.31-23.07,2.64-34.55c0.25-2.14,1.2-4.12,2.37-5.95
			c2.59-7.77,7.03-14.61,10.84-21.77c6.05-11.4,16.76-17.21,27.34-23.16c2.47-1.39,4.95-2.68,7.21-4.39
			c23.13-17.48,48.98-22.46,77.3-17.52c17.07,2.98,31.78,10.59,45.16,21.1c5.26,4.13,9.43,9.48,12.85,15.19
			c8.14,13.58,15.21,27.72,21.04,42.47c4.51,11.39,3.23,23.27,3.12,35.06C675.37,999.69,668.7,999.69,662.04,999.69z"/>
		<path class="st2" d="M584.08,76.12c11.73,0.59,22.73-1.61,32.69-8.17c24.66-16.24,40.22-38.53,45.27-67.84c6.66,0,13.33,0,19.99,0
			c-4.27,28.26-16.13,52.43-37.3,72.1c-21.3,19.78-45.64,27.52-74.3,21.53c-15.09-3.16-29.51-8.22-43.22-15.06
			c-13.48-6.72-24.18-16.93-32.66-29.42c-1.95-2.88-3.73-5.91-6.39-8.25c-5.09-4.88-8.23-10.99-10.74-17.44
			c-2.34-6.03-3.51-12.36-4.2-18.77c-0.18-1.65-0.39-3.31,0.89-4.68c3.67,0,7.33,0,11,0c8.14,39.19,33.18,61.78,70.76,72.07
			c7.87,0.62,15.51,3.41,23.55,2.44C581.14,74.4,582.67,75.16,584.08,76.12z"/>
		<path class="st2" d="M999.9,369.95c-18.33,8.3-33.75,20.51-46.9,35.56c-8.89,10.17-13.52,22.87-18.65,35.08
			c-8.64,20.6-14.81,41.92-15.45,64.51c-0.54,18.78,6.75,35.33,14.69,51.68c11.17,23.01,30.84,38.36,49.54,54.55
			c4.77,4.13,10.77,4.92,16.77,5.52c0,6.66,0,13.33,0,19.99c-12.34-0.06-23.04-4.19-32.07-12.68
			c-10.67-10.03-20.96-20.47-30.54-31.51c-9.1-10.48-15.54-22.89-20.13-35.93c-3.84-10.91-8.73-21.45-10.47-33.17
			c-2.7-18.18-0.52-35.71,4.45-53.13c0.91-3.19,1.76-6.39,2.64-9.58c-0.41-6.2,2.19-11.64,4.63-17.03
			c5.55-12.25,12.2-23.92,19.06-35.48c3.7-6.24,8.75-11.18,14.62-15.35c13.14-11.64,27.36-21.63,43.67-28.41
			c1.37-0.57,2.77-1.09,4.15-1.63C999.9,365.29,999.9,367.62,999.9,369.95z"/>
		<path class="st3" d="M0.31,969.7c0-0.33,0-0.67,0-1c0.87-1.13,0.59-2.54,0.89-3.8c2-8.48,9.96-13.19,18.3-10.54
			c6.76,2.14,12.63,5.79,17.5,11.03c2.36,2.53,3.16,5.41,2.5,8.71c-1.15,5.75-3.18,11.22-6.47,16.07
			c-4.78,7.06-11.03,8.34-18.55,4.24c-7.19-3.92-12.6-9.15-13.67-17.75C0.56,974.34,1.38,971.95,0.31,969.7z"/>
		<path class="st2" d="M1.28,976.73c2.92,7.55,7.52,13.49,15.13,16.97c5.78,2.64,9.51,2.3,13.77-2.54
			c4.88-5.54,6.86-12.38,7.92-19.52c0.32-2.15-0.6-3.79-2.2-5.25c-4.07-3.7-8.34-6.96-13.45-9.26c-9.09-4.09-16.34-1.48-20.24,7.69
			c-0.56,1.32-0.43,3.01-1.91,3.89c0-6,0-11.99,0-17.99c3.92-2.07,7.8-4.22,11.78-6.17c1.13-0.56,2.59-0.87,3.83-0.72
			c13.76,1.59,24.43,7.94,30.79,20.59c1.47,2.93,1.54,5.87,0.2,9.08c-3.89,9.3-6.91,19.05-14.62,26.21c-8.33,0-16.66,0-24.99,0
			c-3.1-1.11-5.85-2.61-7-6c0-5.66,0-11.33,0-16.99C0.65,976.11,0.98,976.12,1.28,976.73z"/>
		<path class="st3" d="M878.01,83.95c-2.85,0.69-3.53-1.91-4.68-3.38c-8.67-11.05-10.62-23.54-8.04-37.13
			c1.72-9.03,5.01-17.4,10.82-24.36c8.24-9.87,19.2-15.1,32.08-15.93c3.55-0.23,6.95-0.57,9.74-3.04c6.33,0,12.66,0,18.99,0
			c5.07,2.35,10.5,4.12,14.19,8.71c0.55,0.68,1.81,1.24,0.61,2.39c-1.85,1.25-3.54,0.23-5.19-0.45c-5.16-2.12-10.54-2.98-16.09-2.96
			c-6.32,0.03-12.65,0.1-18.97-0.01c-14.7-0.26-25.31,7.12-32.25,19.1c-9.27,15.99-10.95,32.93-2.46,50.11
			C877.8,79.11,879.64,81.28,878.01,83.95z"/>
		<path class="st3" d="M477.16,952.72c-0.65,12.06-3.55,23.91-3.31,36.05c0.07,3.64,0.18,7.28,0.27,10.93c-2,0-4,0-6,0
			c-6.45-12.06-7.22-24.24-0.71-36.56C469.71,958.78,473.4,955.71,477.16,952.72z"/>
		<path class="st2" d="M999.9,992.69c-12.29-12.45-12.18-29.47,0-40.98C999.9,965.37,999.9,979.03,999.9,992.69z"/>
		<path class="st10" d="M0.31,369.95c2.43-1.04,4.93-1.93,7.26-3.15c4.9-2.56,9.91-2.77,15.31-1.86c3.7,0.63,7.59,0.11,11.39,0.1
			c-0.27,0.19-0.55,0.57-0.8,0.55c-13.14-1.11-20.79,7.87-29.05,15.74c-1.32,1.26-2.73,2.41-4.1,3.62
			C0.31,379.95,0.31,374.95,0.31,369.95z"/>
		<path class="st11" d="M474.12,0.1c1.62,14.68,5.19,28.7,14.04,40.89c-1.21,1.05-1.87-0.12-2.36-0.78
			c-8.85-12.06-16.1-24.84-17.68-40.11C470.12,0.1,472.12,0.1,474.12,0.1z"/>
		<path class="st12" d="M31.29,0.1c-6.99,5.32-13.94,5.32-21.99,0C16.63,0.1,23.96,0.1,31.29,0.1z"/>
		<path class="st13" d="M0.31,993.69c2.33,2,4.66,4,7,6c-0.33,0-0.68-0.06-1,0.01C1.18,1000.82-0.82,998.82,0.31,993.69z"/>
		<path class="st14" d="M1.28,976.73l-0.49-0.09l-0.49,0.06c0-2.33,0-4.66,0-7C2.2,971.83,0.95,974.39,1.28,976.73z"/>
		<path class="st3" d="M835.8,224.67c0.47,20.65-10.3,34.26-27.61,43.72c-18.48,10.1-38.08,12.48-56.9,3.14
			c-16.03-7.96-31.09-18.62-35.53-38.05c-2.44-10.68-0.06-20.87,5.24-30.27c8.28-14.7,19.22-27.07,34.01-35.47
			c14.06-8,28.88-11.63,44.9-5.9c8.08,2.89,13.85,8.52,18.46,15.34c8.45,12.51,14.87,25.97,17.38,41.01
			C836.11,220.29,835.8,222.5,835.8,224.67z"/>
		<path class="st2" d="M650.88,393.05c23.95,8.77,40.36,25.33,51.05,48.28c16.21,34.78,9.61,67.07-10.09,97.95
			c-24.33,38.14-61.27,49.16-102.43,43.3c-6.36-0.91-12.13-3.8-17.18-7.69c-11.84-9.14-24.03-17.89-34.11-29.12
			c-11-12.25-16.18-26.91-18.1-42.94c-1.95-16.22-0.86-32.26,4.09-47.83c3.49-10.95,8.85-21.26,15.07-30.79
			c5.37-8.23,14.56-12.97,22.32-18.95c12.46-9.6,26.37-15.31,42.13-16.07c4.75-0.23,9.28-0.1,13.92-2.16
			c4.75-2.11,9.74,0.66,14.57,1.68C638.75,388.6,644.82,390.81,650.88,393.05z"/>
		<path class="st3" d="M241.1,900.58c0.87-12.77,4.69-26.87,15.79-37.89c7.1-7.06,16.24-10.25,26.11-10.88
			c11.11-0.72,21.88,0.48,31.56,6.82c18.94,12.41,28.42,36.78,23.01,59.39c-2.06,8.59-4.09,17.08-10.77,23.67
			c-7.73,7.62-17.42,10.41-27.62,10.86c-17.4,0.76-33.24-3.6-45.6-16.94C245.03,926.38,241.11,915.45,241.1,900.58z"/>
		<path class="st2" d="M360,57.06c19.48-1,36.81,7.04,52.5,18.95c8.72,6.62,14.6,15.92,16.22,26.77c2.86,19.1,4.51,38.27-1.54,57.3
			c-7.56,23.78-21.97,42.19-44.33,52.75c-26.27,12.41-51.86,8.78-74.1-10.03c-13.22-11.18-25.84-23.89-30.1-41.39
			c-4.01-16.5-7.58-33.31-4.04-50.69c1.22-6,1.86-12.1,3.78-17.99c3.47-10.64,10.25-17.86,21.24-20.47
			c9.27-2.2,18.1-5.45,26.83-9.22C336.83,58.55,347.78,56.64,360,57.06z"/>
		<path class="st3" d="M96.26,79.06c21.35,0.22,41.47,14.63,43.81,37.85c0.77,7.61-1.63,15.11-3.17,22.55
			c-4.42,21.29-18.46,33.24-41.85,36.7c-24.04,3.55-44.16-12.37-48.22-33.03c-1.28-6.51-0.22-12.81,1.3-19.17
			c4.18-17.51,17.2-28.42,29.79-39.37C82.96,80.19,89.96,78.25,96.26,79.06z"/>
		<path class="st2" d="M878.01,83.95c-0.89-1.96-1.7-3.96-2.67-5.87c-8.47-16.73-7.41-33.59,0.98-49.66
			c7.15-13.69,18.34-22.54,34.91-22.31c5.32,0.08,10.63-0.15,15.95-0.2c8.58-0.08,16.89,1.12,24.55,5.29
			c17.14,10.28,23.36,26.8,22.93,45.29c-0.63,27.1-18.16,48.4-49.3,47.78c-9.89-0.2-19.49-0.72-28.62-5.17
			C889.26,95.45,882.74,90.87,878.01,83.95z"/>
		<path class="st2" d="M156.12,709.45c-0.04-3.39,0.34-6.67,1-9.95c0.39-1.96,1.51-3.97-0.2-6.12c-0.56-0.7,0.11-2.55,0.5-3.78
			c7.19-22.77,32.95-37.79,56.09-32.97c6.37,1.33,11.23,4.91,15.68,9.2c8.98,8.66,17.27,17.92,17.33,31.37
			c0.12,25.13-13.64,48.98-42.3,51.26c-10.16,0.81-20.85-1.23-30.01-5.85C161.04,735.96,156.55,723.54,156.12,709.45z"/>
		<path class="st3" d="M942.93,713.91c2.33,16.34-7.11,26.25-19.64,33.41c-10.26,5.87-24.5,3.25-30.99-8.88
			c-2.27-4.24-4.31-8.61-6.47-12.91c-5.52-10.99-4.09-28.99,8.94-37.36c5.57-3.58,10.31-8.36,17.59-8.39
			c15.77-0.08,30.55,14.4,30.58,30.13C942.93,711.25,942.93,712.58,942.93,713.91z"/>
		<path class="st3" d="M550.09,629.29c0.02-12.35,10.76-22.42,23.93-22.44c13.02-0.02,24.2,11.69,23.95,25.08
			c-0.19,10.26-13.61,21.18-25.62,20.85C561.05,652.48,550.07,640.89,550.09,629.29z"/>
		<path class="st2" d="M691.73,770.9c-1.61-4.65-3.43-9.45-2.82-14.32c1.84-14.74,12.18-22.71,26.85-20.67
			c11.27,1.57,21.41,5.48,28.49,15.35c5.39,7.51,6.22,15.09,2.45,23.39c-3.76,8.3-9.69,13.16-19.22,13.2
			c-6.38,0.03-12.55-0.67-18.53-2.88C700.45,783.65,694.46,779.27,691.73,770.9z"/>
		<path class="st3" d="M952.09,392.99c-18.36,19.46-29.56,42.96-38.31,67.85c-2.37-8.29-0.68-16.58,1.46-24.38
			C920.7,416.45,935.42,403.77,952.09,392.99z"/>
		<path class="st15" d="M691.73,770.9c3.94,6.89,10.27,10.86,17.22,14.08C700.68,787.27,691.08,779.42,691.73,770.9z"/>
		<path class="st16" d="M650.88,393.05c-6.45-0.59-12.42-3.19-18.74-4.35C639.05,387.29,645.19,389.23,650.88,393.05z"/>
		<path class="st17" d="M82.48,437.73c1.01-4.67,1.96-9.35,3.08-13.99c0.34-1.4,0.81-3.2,2.56-3.35c2.17-0.18,3.61,1.43,4.96,2.92
			c1.34,1.47-0.08,2.5-0.78,3.45c-2.9,3.94-5.92,7.8-8.9,11.69C83.1,438.21,82.79,437.97,82.48,437.73z"/>
		<path class="st17" d="M53.48,541.37c3.02-2.52,4.95-4.13,6.98-5.83C61.63,540.52,61.63,540.52,53.48,541.37z"/>
		<path class="st9" d="M493.01,937.69c4.39-13.68,14.05-19.56,28.08-18.95C509.77,922.16,501.61,930.25,493.01,937.69z"/>
		<path class="st18" d="M584.08,76.12c-9.54-0.33-19.13-0.29-28.21-3.95c3.7-0.54,7.21-0.51,10.99,0.63
			c3.42,1.03,7.23,1.84,11.11,0.43C580.48,72.33,582.82,73.48,584.08,76.12z"/>
		<path class="st3" d="M595.04,399.05c10.55-2.99,20.92-3.24,31.03,1.79c2.22,1.11,4.6,1.97,6.98,2.67
			c14.76,4.37,26.46,13.16,37.46,23.77c10.73,10.34,17.77,22.58,21.43,36.47c6.89,26.18-2.35,48.07-19.35,68
			c-20.87,24.46-47.62,29.09-77.39,24.86c-5.46-0.77-9.57-4.54-13.87-7.65c-7.69-5.56-15.09-11.52-22.96-16.81
			c-11.93-8.02-16.78-20.14-20.31-33.18c-2.1-9.37-0.59-18.49,2.02-27.5c2.13-7.36,4.16-14.74,6.27-22.1
			c5.1-17.82,14.28-32.54,32.05-40.47C584.3,406.25,588.59,400.8,595.04,399.05z"/>
		<path class="st10" d="M595.04,399.05c-7.33,5.66-15.07,10.58-23.12,15.26c-12.45,7.24-19.56,19.38-23.23,32.92
			c-3.53,13.05-8.35,25.79-10.11,39.34c-0.54,4.16-0.2,8.27-0.53,12.38c-4.64-17.32-4.55-34.5,2.18-51.26
			c3.87-9.62,6.84-19.85,16.02-26.41c11.43-8.17,21.55-18.42,35.84-21.88C593.06,399.18,594.06,399.17,595.04,399.05z"/>
		<path class="st3" d="M316.96,187.12c-12.78-10.13-25.27-20.7-28.01-37.98c-2.38-15-0.58-29.88,4.38-44.21
			c2.5-7.23,8.67-11.34,15.4-14.07c6.61-2.68,12.24-6.65,17.6-11.15c3.05-2.56,6.66-3.96,10.4-4.56
			c15.07-2.42,30.19-3.24,44.87,1.91c8.56,3,15.95,8.39,22.53,14.45c5.73,5.28,8.9,12.23,9.52,20.32
			c1.56,20.43,0.63,40.38-10.7,58.34c-7.62,12.08-18.7,20.17-31.72,25.68c-2.45,1.04-5.13,1.41-7.84,1.27
			c-2.49,0.98-4.76,0.11-6.41-1.53c-8.35-8.35-18.89-7.85-29.34-7.26C323.93,188.54,320.39,188.71,316.96,187.12z"/>
		<path class="st10" d="M316.96,187.12c8.23,0.27,16.33-1.73,24.73-0.34c6.17,1.02,11.59,2.38,15.84,7.11
			c1.57,1.75,3.21,3.42,5.86,3.24C345.64,204.36,331.01,197.06,316.96,187.12z"/>
		<path class="st3" d="M923.59,89.99c-7.04-0.02-13.88-0.68-20.42-3.78c-15.08-7.16-23.02-22.16-20.7-38.7
			c1.1-7.86,2.41-15.48,7.7-21.75c4.22-5.01,9.29-7.16,15.95-5.13c8.96,2.73,18.42,2.59,27.55,4.39
			c8.96,1.77,16.23,6.07,20.02,14.74c4.68,10.7,7.69,21.29,2.17,33.09c-5.51,11.79-15.49,15.17-26.79,17.1
			C927.3,90.25,925.42,89.99,923.59,89.99z"/>
		<path class="st3" d="M202.84,673.68c21.51,0.18,35.88,21.44,27.9,41.31c-2.49,6.19-5.3,12.04-10.97,16.29
			c-8.85,6.64-18.17,7.58-28.75,5.1c-8.4-1.96-16.15-3.96-20.31-12.44c-5.12-10.42-5.12-20.89,0.1-31.17
			C175.31,683.91,193.02,673.59,202.84,673.68z"/>
		<path class="st3" d="M719.44,778.68c-6.78-0.78-13.36-2.61-18.41-8.09c-4.03-4.38-5.54-10.68-3.22-15.13
			c2.63-5.04,7.71-6.83,12.64-6.28c8.15,0.92,16.38,2.27,22.28,9.37c3.31,3.99,3.62,7.83,2.13,12.45c-1.48,4.59-4.56,6.67-9.17,6.98
			C723.71,778.12,721.74,778.42,719.44,778.68z"/>
	</g>
</g>
<g id="Layer_4" class="st0">
	<g class="st1">
		<path class="st19" d="M999.92,596.95c0,74.32,0,148.64,0,222.95c-0.59-0.3-1.22-0.55-1.78-0.91
			c-15.77-10.39-32.98-17.02-51.56-20.44c-15.01-2.76-29.9-5.44-45.28-6.09c-15.66-0.66-31.15-0.21-46.71,1
			c-8.43,0.66-16.6,3.13-25.08,3.2c2.58-1.81,5.12-3.7,7.76-5.42c29.67-19.32,49.13-45.83,57.42-80.48
			c5.27-22.04,3.49-44.01,0.23-66.01c-4.54-30.55-16.24-58.15-34.25-83.17c-7.06-9.8-16.52-16.31-27.64-20.6
			c-12.62-4.88-25.71-8.21-38.94-10.82c-9.46-1.87-18.98-3.2-28.77-2.47c-21.3,1.58-40.9,9.12-60.27,17.1
			c-10.73,4.42-21.19,10.15-28.42,19.78c-4.71,6.27-9.77,12.23-14.92,18.11c-26.82,30.62-38.56,66.05-33.5,106.55
			c4.14,33.14,15.28,63.5,39.17,87.81c26.19,26.65,55.92,45.93,95.57,42.71c-0.14,3.15-2.97,3.87-4.96,5.06
			c-12.58,7.51-23.45,17.21-32.4,28.51c-14.65,18.5-26.44,38.97-36.39,60.37c-5.34,11.49-8.73,23.8-8.06,36.6
			c0.62,11.91,1.78,23.79,1.81,35.72c0.02,4.65-0.08,9.29,1.02,13.86c-78.99,0-157.98,0-236.96,0
			c-13.76-16.62-31.52-22.96-52.7-20.52c-6.22,0.72-12.25,2.13-18.74,1.23c-23.73-3.28-44.56,3.55-62.53,19.29
			c-73.66,0-147.31,0-220.97,0c0.31-5.38-1.26-10.51-2.01-15.76c-2.25-15.63-5.47-30.96-11.12-45.84
			c-8.18-21.55-20.16-41.18-30.04-61.86c-7.94-16.65-19.15-30.76-32.87-42.85c-5.07-4.46-9.63-9.7-15.94-12.65
			c0-74.32,0-148.64,0-222.95c17.54,8.89,35.55,16.6,54.35,22.43c46.76,14.49,93.84,18.58,141.53,4.61
			c31.47-9.22,59.08-25.59,84.91-45.36c47.74-36.54,86.75-80.47,114.74-133.97c21.77-41.61,31.68-85.74,28.18-132.52
			c-2.37-31.73-8.57-62.96-16-93.89c-0.81-3.38-0.29-4.44,3.02-5.57c8.95-3.06,18.13-5.56,26.42-10.38
			c30.1-17.52,48.72-43.32,55.36-77.45c4.04-20.74,3.48-41.3-4.27-61.38c-3.36-8.71-7.3-17.14-11.29-25.54
			c-5.15-10.85-11.55-20.95-19.57-30.02c-2.71-3.07-6.69-4.9-8.46-8.83c78.32,0,156.64,0,234.96,0c0.54,3.1,0.93,6.23,1.63,9.29
			c5.17,22.64,10.11,45.35,15.71,67.88c3.65,14.7,8.92,28.8,17.41,41.66c6.99,10.59,15.12,20.19,23.42,29.68
			c6.64,7.59,12.62,15.98,22.1,20.56c-0.52,9.44,2.75,17.76,8.73,24.69c8.12,9.42,19.31,9.82,28.57,1.45
			c3.42-3.09,6.25-6.83,9.35-10.27c16.2,4.07,32.83,4.51,49.33,4.82c19.2,0.37,38.39-1.58,57.57-2.83c-0.13,0.3-0.21,0.63-0.39,0.9
			c-29.03,42.75-43.55,90.21-46.66,141.56c-2.28,37.63,0.35,74.77,9.26,111.41c15.63,64.25,50.87,114.56,107.22,149.65
			C991.21,593.02,994.95,596.27,999.92,596.95z M288.86,756.92c22.72,0,30.44-2.12,42.99-12.68c16.33-13.75,24.78-31.99,26.01-53.11
			c0.99-16.88-5.84-31.64-14.72-45.66c-6.35-10.02-14.19-18.28-24.49-24.23c-14.55-8.4-30.21-10.72-46.58-8.15
			c-8.65,1.36-17.32,3.02-24.56,8.78c-16.97,13.49-28.3,30.68-34.05,51.5c-2.63,9.53-4.41,19.49-0.06,28.82
			c8.26,17.73,18.13,34.07,36.99,43.17C264.71,752.26,279.37,756.65,288.86,756.92z M450.88,713c14.21,0.24,27.68-2.96,39.47-10.76
			c35.71-23.61,36.94-66.35,25.1-91.7c-5.77-12.36-14.93-21.85-25.32-30.47c-13.07-10.84-28.84-15.89-44.79-18.19
			c-20.03-2.88-37.31,5.38-50.26,21.05c-21.74,26.3-26.92,55.7-14.76,87.75c6.57,17.32,16.66,31.64,35.6,37.11
			C427.3,711.09,438.99,712.86,450.88,713z"/>
		<path class="st19" d="M0.07,432.99c0-44.66,0-89.31,0-133.97c0.67-1.69,1.4-3.36,2-5.08c7.48-21.14,17.98-40.43,34.35-56.15
			c12.63-12.13,25.75-23.72,39.93-33.98c15.09-10.92,30.8-21.02,49.25-25.29c11.98-2.77,24.14-5.3,36.36-6.38
			c23.42-2.07,46.54,0.69,69.05,7.65c21.19,6.55,38.42,19.58,54.78,33.95c29.45,25.86,49.49,57.39,56.98,96.17
			c6.92,35.87,5.25,71.55-3.49,106.99c-7.21,29.24-21.48,54.35-43.31,75.11c-22.62,21.5-49.21,36.29-78.75,45.9
			c-24.15,7.85-48.95,11.93-74.33,9.46c-34.09-3.32-63.94-17.02-90.84-38.1c-22.41-17.57-38.77-39.16-47.99-66.13
			C2.87,439.7,1.4,436.37,0.07,432.99z M92.8,366.04c0.11,15.05,5.7,27.69,17.73,36.74c12.87,9.67,27.61,14.85,43.77,16.29
			c16.77,1.49,30.6-4.16,38.29-18.88c10.59-20.28,14.69-42.13,6.02-64.43c-6.54-16.83-25.04-34.05-50.07-29.03
			c-10.43,2.09-18.6,8.01-27.02,13.3C104.77,330.56,92.77,344.69,92.8,366.04z"/>
		<path class="st19" d="M0.07,267.02c0-37.66,0-75.32,0-112.98c0.33-0.06,0.7-0.04,0.97-0.19c20.79-11.5,39.11-26.04,54.06-44.55
			c4.96-6.14,9.7-12.61,11.9-20.45c4.8-1.25,9.6-2.53,14.41-3.75c25.06-6.33,50.98-4.45,76.35-8.01
			c13.98-1.96,28.28-0.75,42.37-2.31c10.84-1.19,21.47-0.74,32.11,2.26c11.55,3.25,23.09,6.34,33.64,12.26
			c1.79,1.01,3.25,1.99,2.9,4.59c-1.61,11.82-0.77,23.55,1.19,35.29c3.3,19.83,10.1,38,24.9,52.23
			c25.41,24.42,56.19,35.45,91.12,35.34c4.78-0.02,6.98,1.11,8.25,5.92c6.94,26.27,11.72,52.93,15,79.87
			c4.9,40.33,0.28,79.54-15.92,116.85c-31.89,73.44-84.39,128.96-151.55,171.26c-29.61,18.65-62.18,28.76-97.11,30.15
			c-37.43,1.49-73.43-5.91-108.28-19.45c-12.41-4.82-24.12-11.11-36.3-16.4c0-38.33,0-76.65,0-114.98
			c11.67,22.51,28.89,40.11,49.03,55.07c34.09,25.32,72,39.5,114.86,37.49c45.43-2.14,86.6-17.09,123.32-43.92
			c30.64-22.4,52.3-51.42,63.33-87.98c9.54-31.63,11.95-63.97,9.58-96.82c-3.72-51.45-24.41-94.5-63.06-128.79
			c-18.17-16.13-37.33-30.94-61-37.93c-28.77-8.49-58.12-12.45-88.23-8.8c-13.42,1.63-26.72,3.51-39.45,8.22
			c-33.17,12.28-58.79,34.7-81.34,61.07C16.71,239.73,8.45,253.44,0.07,267.02z"/>
		<path class="st19" d="M999.92,155.04c0,37.66,0,75.32,0,112.98c-0.6,0.99-1.29,1.94-1.78,2.98
			c-31.12,66.27-28.98,132.26,1.78,197.98c0,38.33,0,76.65,0,114.98c-1.63-0.8-3.34-1.47-4.88-2.41
			c-47.09-28.47-80.21-68.33-98.23-120.52c-9.86-28.54-14.36-58.05-16.12-88.03c-2.51-42.92,1.33-85.08,16.31-125.75
			c8.49-23.06,19.42-44.83,34.59-64.31c13.17-1.83,25.14-7.24,37.23-12.32C979.53,166.12,989.8,160.73,999.92,155.04z"/>
		<path class="st20" d="M0.07,584.95c12.18,5.3,23.89,11.58,36.3,16.4c34.85,13.53,70.86,20.93,108.28,19.45
			c34.93-1.39,67.5-11.5,97.11-30.15c67.16-42.3,119.66-97.82,151.55-171.26c16.2-37.31,20.83-76.52,15.92-116.85
			c-3.28-26.94-8.05-53.6-15-79.87c-1.27-4.82-3.47-5.94-8.25-5.92c-34.92,0.11-65.7-10.91-91.12-35.34
			c-14.8-14.23-21.6-32.4-24.9-52.23c-1.95-11.74-2.79-23.47-1.19-35.29c0.35-2.6-1.11-3.58-2.9-4.59
			c-10.55-5.92-22.09-9-33.64-12.26c-10.64-3-21.27-3.45-32.11-2.26c-14.09,1.55-28.38,0.34-42.37,2.31
			c-25.37,3.56-51.3,1.69-76.35,8.01C76.6,86.32,71.8,87.6,67,88.85c-14.97,2.55-27.9,10-41.01,17.02
			c-1.79,0.82-3.64,1.53-5.35,2.49c-6.88,3.85-13.72,7.78-20.58,11.69c0-3,0-6,0-9c14.63-8.72,29.72-16.57,45.07-23.94
			c9.78-4.48,19.74-8.54,29.92-12.03c1.28-0.32,2.59-0.54,3.83-0.97c42.11-14.75,85.06-21.05,129.74-15.37
			c20.45,2.6,40.23,6.55,58.94,15.24c2.45,1.14,3.79,1.84,4.76-1.86c7.2-27.3,19.66-51.78,39.69-72.05c5.33,0,10.67,0,16,0
			c-4.29,4.83-9.98,8.21-13.96,13.36c-15.03,19.43-24.67,41.31-29.86,65.26c-0.63,2.92,0.64,4.19,3.07,5.28
			c16.99,7.66,32.26,17.95,46.15,30.32c0.58,0.51,1.09,1.29,2.52,0.91c0-1.99-0.15-4.1,0.02-6.18
			c1.89-22.37,11.63-39.69,32.63-49.29c24.05-10.99,49.08-0.73,57.9,23.65c6.53,18.04,0.16,33.66-10.14,48.15
			c-4.91,6.9-11.74,11.54-19.76,14.68c-7.5,2.93-15.19,4.43-23.43,4.6c0.32,0.98,0.34,1.53,0.62,1.84
			c12.35,13.87,21.02,29.91,27.66,47.12c0.89,2.31,2.27,2.37,4.3,1.92c25.75-5.76,46.75-19.27,60.63-41.48
			c17.82-28.5,21.6-59.41,9.51-91.35c-9.3-24.58-21.46-47.34-43.56-63.2c-2.28-1.63-4.23-3.71-6.33-5.58c7.67,0,15.33,0,23,0
			c1.77,3.93,5.75,5.76,8.46,8.83c8.02,9.06,14.42,19.16,19.57,30.02c3.99,8.4,7.93,16.83,11.29,25.54
			c7.75,20.08,8.31,40.64,4.27,61.38c-6.65,34.13-25.26,59.93-55.36,77.45c-8.29,4.83-17.47,7.32-26.42,10.38
			c-3.31,1.13-3.83,2.19-3.02,5.57c7.42,30.94,13.62,62.16,16,93.89c3.5,46.78-6.41,90.91-28.18,132.52
			c-27.99,53.5-67,97.43-114.74,133.97c-25.83,19.77-53.45,36.14-84.91,45.36c-47.69,13.97-94.77,9.88-141.53-4.61
			c-18.8-5.83-36.82-13.54-54.35-22.43C0.07,593.62,0.07,589.29,0.07,584.95z M282.01,98.3c-0.79,22.7,3.22,43.91,15.81,62.02
			c20.69,29.78,51.38,41.34,86.43,43.43c2.83,0.17,3-0.95,1.92-3.27c-4.58-9.82-9.28-19.53-15.84-28.26
			c-14.33-19.08-32.14-34.6-50.27-49.85C308.65,112.79,296.35,104.75,282.01,98.3z M374.69,138.22c7.32,0.7,14.57-1.77,21.46-5.24
			c19.26-9.68,24.54-35.84,11.15-52.65c-6.02-7.56-14.07-10.67-22.8-13.34c-4.31-1.32-8-1.21-12.01,0.61
			c-16.22,7.38-26.94,23.66-26.09,41.47C347.17,125.15,355.52,139.3,374.69,138.22z"/>
		<path class="st19" d="M426,0.08c2.1,1.87,4.06,3.95,6.33,5.58c22.1,15.86,34.25,38.63,43.56,63.2
			c12.09,31.94,8.3,62.85-9.51,91.35c-13.89,22.21-34.89,35.72-60.63,41.48c-2.03,0.45-3.41,0.39-4.3-1.92
			c-6.64-17.21-15.31-33.25-27.66-47.12c-0.28-0.32-0.31-0.87-0.62-1.84c8.23-0.17,15.92-1.66,23.43-4.6
			c8.02-3.14,14.85-7.78,19.76-14.68c10.3-14.49,16.67-30.11,10.14-48.15c-8.82-24.38-33.85-34.64-57.9-23.65
			c-21,9.6-30.74,26.92-32.63,49.29c-0.18,2.08-0.02,4.19-0.02,6.18c-1.43,0.39-1.95-0.39-2.52-0.91
			c-13.9-12.37-29.17-22.66-46.15-30.32c-2.43-1.09-3.7-2.36-3.07-5.28c5.18-23.94,14.82-45.83,29.86-65.26
			c3.98-5.15,9.67-8.52,13.96-13.36C360.68,0.08,393.34,0.08,426,0.08z"/>
		<path class="st19" d="M999.92,841.9c0,18.66,0,37.33,0,55.99c-1.76-0.04-2.42-1.4-3.4-2.57c-4.35-5.23-8.31-10.93-13.37-15.38
			c-10.26-9.03-22.87-13.76-35.66-18.27c-12.27-4.32-25.11-6.27-37.46-10.18c-7.79-2.46-15.84-3.63-24.03-3.59
			c-17.27,0.09-34.47,1.47-51.5,4.2c-14.54,2.32-28.34,6.86-40.41,15.91c-4.93,3.69-9.5,7.77-14.3,11.59
			c-11.32,8.99-20.9,19.13-25.38,33.62c-2.22,7.16-3.54,14.47-5.64,21.61c-6.23,21.25-10.58,42.8-10.83,65.04c-11,0-22,0-32.99,0
			c-1.15-4.73-0.91-9.56-1.04-14.37c-0.2-7.3-0.31-14.62-1.13-21.86c-1.26-11.15-1.6-22.15,1.41-33.1c2.2-8.01,4.04-16.1,3.76-24.51
			c-0.07-2.11,0.72-3.88,1.93-5.54c11.57-16,22.43-32.45,36.94-46.24c14.41-13.71,30.73-23.89,49.37-30.16
			c32.82-11.04,66.47-16.53,101.28-14.3c12.43,0.8,24.73,1.83,37.01,4.04c21.17,3.82,41.4,9.68,58.73,23.16
			C995.38,838.67,996.75,841.56,999.92,841.9z"/>
		<path class="st20" d="M0.07,267.02c8.38-13.58,16.64-27.29,27.03-39.44c22.55-26.37,48.17-48.79,81.34-61.07
			c12.74-4.71,26.04-6.59,39.45-8.22c30.1-3.65,59.46,0.31,88.23,8.8c23.68,6.99,42.83,21.81,61,37.93
			c38.64,34.3,59.34,77.35,63.06,128.79c2.38,32.85-0.04,65.19-9.58,96.82c-11.03,36.56-32.68,65.58-63.33,87.98
			c-36.72,26.84-77.88,41.78-123.32,43.92c-42.87,2.02-80.78-12.16-114.86-37.49c-20.14-14.96-37.35-32.56-49.03-55.07
			c0-12.33,0-24.66,0-36.99c1.33,3.38,2.8,6.72,3.97,10.15c9.22,26.97,25.58,48.56,47.99,66.13c26.9,21.08,56.75,34.78,90.84,38.1
			c25.37,2.47,50.18-1.61,74.33-9.46c29.54-9.6,56.13-24.39,78.75-45.9c21.84-20.76,36.1-45.87,43.31-75.11
			c8.74-35.43,10.42-71.11,3.49-106.99c-7.49-38.79-27.53-70.31-56.98-96.17c-16.36-14.37-33.59-27.4-54.78-33.95
			c-22.51-6.96-45.63-9.72-69.05-7.65c-12.22,1.08-24.38,3.6-36.36,6.38c-18.45,4.27-34.15,14.36-49.25,25.29
			c-14.18,10.27-27.3,21.85-39.93,33.98c-16.37,15.72-26.86,35-34.35,56.15c-0.61,1.71-1.33,3.39-2,5.08
			C0.07,288.35,0.07,277.68,0.07,267.02z"/>
		<path class="st19" d="M986.92,999.87c-16.33,0-32.66,0-48.99,0c-1.75-41.54-29.04-67.87-70.42-68.59
			c-36.66-0.63-61.56,31.41-63.56,68.59c-13.66,0-27.33,0-40.99,0c-0.76-2.57-1.07-5.17-1.03-7.87c0.17-11.63-0.54-23.29,1.05-34.87
			c1.55-11.33,4.54-22.74,10.88-31.82c7.68-11.01,17.07-21.08,30.29-26.74c8.88-3.8,17.74-7.16,26.98-10.02
			c8.11-2.52,15.73-2.99,23.91-1.81c5.72,0.82,11.73,1.72,17.32,0.8c7.47-1.23,14.6,0.05,21.73,1.09
			c7.18,1.04,14.07,4.14,21.25,5.08c11.04,1.44,21.31,5.14,31.45,9.26c6.28,2.56,12.05,6.11,16.09,12.12
			c3.69,5.49,8.4,10.28,12.23,15.69c4.78,6.74,11.1,13.21,12.5,21.26C990.33,967.86,991.51,983.99,986.92,999.87z"/>
		<path class="st19" d="M999.92,62.06c0,16.66,0,33.33,0,49.99c-2.08-0.29-3.33,1.31-4.8,2.26c-19.58,12.64-37.49,27.36-54.01,43.79
			c-1.29,0.24-2.62,0.38-3.88,0.73c-16.01,4.52-32.27,7.27-48.96,7.22c-13.3-0.04-26.59,0.01-39.89-0.03
			c-2.81-0.01-5.6,0.01-8.43-0.41c-11.45-1.7-22.84-3.7-34.06-6.55c-7.88-8.98-17.5-11.8-28.94-8.22
			c-10.11-8.56-18.54-18.78-27.8-28.19c-3.12-3.17-5.73-6.85-8.59-10.27c-14.29-17.12-18.13-38.44-23.43-59.08
			c-4.53-17.62-8.14-35.47-12.16-53.22c11,0,22,0,32.99,0c-0.31,4.18,0.09,8.33,1.05,12.36c2.98,12.56,4.34,25.59,10.31,37.32
			c9.74,19.13,22.46,35.77,38.63,50.16c14.49,12.88,31.48,20.24,49.34,26.07c17.24,5.62,34.98,5.18,52.67,1.85
			c12.85-2.41,25.85-4.26,37.45-11.04c5.58-3.26,11.22-6.54,17.17-9.02c20.45-8.52,37.63-20.89,49.59-39.94
			C995.56,65.63,996.58,62.54,999.92,62.06z"/>
		<path class="st19" d="M312.02,0.08c-20.03,20.27-32.49,44.74-39.69,72.05c-0.98,3.7-2.32,2.99-4.76,1.86
			c-18.71-8.69-38.48-12.64-58.94-15.24c-44.69-5.68-87.63,0.63-129.74,15.37c-1.24,0.43-2.55,0.65-3.83,0.97
			c4.32-10.61,9.68-20.8,12.91-31.84c4.13-14.12,6.58-28.41,4.08-43.16C165.38,0.08,238.7,0.08,312.02,0.08z"/>
		<path class="st21" d="M986.92,999.87c4.59-15.88,3.41-32.01,0.67-47.83c-1.39-8.06-7.72-14.52-12.5-21.26
			c-3.83-5.41-8.55-10.2-12.23-15.69c-4.04-6.01-9.8-9.56-16.09-12.12c-10.13-4.12-20.4-7.82-31.45-9.26
			c-7.18-0.94-14.07-4.04-21.25-5.08c-7.12-1.03-14.25-2.32-21.73-1.09c-5.59,0.92-11.6,0.02-17.32-0.8
			c-8.18-1.18-15.79-0.71-23.91,1.81c-9.23,2.87-18.1,6.23-26.98,10.02c-13.22,5.66-22.61,15.73-30.29,26.74
			c-6.34,9.08-9.33,20.5-10.88,31.82c-1.59,11.58-0.87,23.24-1.05,34.87c-0.04,2.7,0.27,5.3,1.03,7.87c-8.33,0-16.66,0-25,0
			c0.25-22.24,4.6-43.78,10.83-65.04c2.09-7.14,3.42-14.45,5.64-21.61c4.48-14.49,14.06-24.63,25.38-33.62
			c4.8-3.82,9.38-7.9,14.3-11.59c12.07-9.04,25.87-13.58,40.41-15.91c17.03-2.72,34.23-4.1,51.5-4.2
			c8.19-0.04,16.24,1.12,24.03,3.59c12.34,3.91,25.18,5.86,37.46,10.18c12.79,4.51,25.4,9.24,35.66,18.27
			c5.05,4.45,9.02,10.15,13.37,15.38c0.97,1.17,1.64,2.53,3.4,2.57c0,32.83-0.05,65.65,0.08,98.48c0.01,2.98-0.58,3.89-3.59,3.57
			C993.28,999.62,990.08,999.87,986.92,999.87z"/>
		<path class="st21" d="M999.92,62.06c-3.34,0.48-4.36,3.56-5.74,5.77c-11.96,19.05-29.14,31.41-49.59,39.94
			c-5.95,2.48-11.59,5.76-17.17,9.02c-11.6,6.78-24.6,8.62-37.45,11.04c-17.69,3.32-35.43,3.77-52.67-1.85
			c-17.86-5.82-34.86-13.18-49.34-26.07c-16.18-14.39-28.9-31.03-38.63-50.16C743.35,38.03,741.98,25,739,12.43
			c-0.96-4.03-1.36-8.18-1.05-12.36c8.33,0,16.66,0,25,0c0.52,7.96,4.83,14.8,6.58,22.38c1.49,6.43,3.9,12.56,7.94,17.61
			c15.25,19.05,32.61,35.58,55.13,46.18c16.09,7.58,32.65,9.71,49.92,6.7c8.77-1.53,17.91-1.74,26.12-5.78
			c12.8-6.29,25.53-12.74,38.29-19.11c4.07-2.03,7.47-4.84,10.56-8.2c8.28-9,14.62-19.24,20.02-30.13
			c4.66-9.4,8.95-18.92,9.41-29.66c4.33,0,8.67,0,13,0c0,4.33,0,8.66,0,13C999.92,29.4,999.92,45.73,999.92,62.06z"/>
		<path class="st19" d="M986.92,0.08c-0.45,10.74-4.74,20.26-9.41,29.66c-5.4,10.89-11.74,21.13-20.02,30.13
			c-3.09,3.36-6.48,6.17-10.56,8.2c-12.77,6.36-25.49,12.82-38.29,19.11c-8.2,4.03-17.35,4.24-26.12,5.78
			c-17.26,3.01-33.82,0.88-49.92-6.7c-22.53-10.61-39.88-27.13-55.13-46.18c-4.04-5.05-6.45-11.18-7.94-17.61
			c-1.75-7.58-6.06-14.42-6.58-22.38c13.33,0,26.66,0,39.99,0c0.1,0.65,0.27,1.3,0.29,1.95c0.49,28.57,15.08,47.97,39.64,60.84
			c11.73,6.15,24.61,7.46,37.37,6.77c28.42-1.53,43.2-8.84,53.96-35.24c4.51-11.06,4.48-22.7,4.73-34.32
			C954.92,0.08,970.92,0.08,986.92,0.08z"/>
		<path class="st21" d="M999.92,841.9c-3.17-0.35-4.53-3.23-6.71-4.92c-17.33-13.48-37.56-19.35-58.73-23.16
			c-12.27-2.21-24.58-3.24-37.01-4.04c-34.8-2.23-68.46,3.26-101.28,14.3c-18.64,6.27-34.96,16.45-49.37,30.16
			c-14.5,13.79-25.37,30.25-36.94,46.24c-1.2,1.66-2,3.44-1.93,5.54c0.28,8.4-1.56,16.5-3.76,24.51
			c-3.01,10.95-2.67,21.95-1.41,33.1c0.82,7.24,0.93,14.57,1.13,21.86c0.13,4.81-0.11,9.64,1.04,14.37c-7,0-14,0-21,0
			c-1.1-4.56-1.01-9.21-1.02-13.86c-0.04-11.94-1.19-23.82-1.81-35.72c-0.67-12.8,2.72-25.11,8.06-36.6
			c9.94-21.4,21.73-41.87,36.39-60.37c8.95-11.3,19.82-21.01,32.4-28.51c1.99-1.19,4.82-1.91,4.96-5.06
			c23.36-4.32,46-10.73,66.57-23.09c8.49-0.07,16.66-2.54,25.08-3.2c15.56-1.21,31.05-1.67,46.71-1
			c15.38,0.65,30.27,3.33,45.28,6.09c18.58,3.42,35.79,10.05,51.56,20.44c0.55,0.36,1.18,0.61,1.78,0.91
			C999.92,827.24,999.92,834.57,999.92,841.9z"/>
		<path class="st20" d="M941.1,158.1c16.52-16.43,34.43-31.14,54.01-43.79c1.47-0.95,2.72-2.54,4.8-2.26c0,3,0,6,0,9
			c-11.94,7.16-23.07,15.39-33.27,24.88c-13.34,10.77-25.13,23.01-35.06,37.01c-15.17,19.48-26.1,41.25-34.59,64.31
			c-14.97,40.67-18.82,82.82-16.31,125.75c1.75,29.98,6.26,59.5,16.12,88.03c18.03,52.19,51.14,92.05,98.23,120.52
			c1.55,0.94,3.25,1.61,4.88,2.41c0,4.33,0,8.66,0,13c-4.97-0.68-8.71-3.93-12.71-6.42c-56.35-35.09-91.58-85.4-107.22-149.65
			c-8.91-36.63-11.54-73.78-9.26-111.41c3.11-51.35,17.63-98.81,46.66-141.56c0.18-0.27,0.26-0.6,0.39-0.9
			C925.03,176.95,932.95,167.43,941.1,158.1z"/>
		<path class="st19" d="M45.13,87.11c-15.35,7.37-30.44,15.23-45.07,23.94c0-18,0-35.99,0-53.99c11.67-17.32,20.85-35.61,22-56.99
			c16.33,0,32.66,0,48.99,0c-0.28,10.24,0.93,20.56-1.73,30.69c-4.85,18.5-13.96,35.06-23.11,51.62
			C45.42,83.82,43.34,85.05,45.13,87.11z"/>
		<path class="st19" d="M0.07,900.89c0-19.33,0-38.66,0-57.99c7.88,7.35,15.94,14.43,21.65,23.86c5.19,8.55,9.21,17.65,13.93,26.41
			c9.93,18.45,19.21,37.15,26.09,57.01c5.59,16.14,5.97,33.18,9.32,49.7c-16,0-32,0-47.99,0c0.16-1.31,0.07-2.71,0.53-3.91
			c5.44-14.35,4.78-29.34,4.3-44.21c-0.19-5.83-1.55-11.6-4.15-17.2c-4.09-8.81-9.82-16.49-15.33-24.28
			C6.07,906.97,4.49,902.51,0.07,900.89z"/>
		<path class="st19" d="M813.94,0.08c12,0,24,0,35.99,0c3.3,9.74,11.38,15.89,20.49,15.59c9.37-0.31,15.58-5.55,18.5-15.59
			c12,0,24,0,35.99,0c1.87,14.31-1.91,27.28-9.32,39.39c-4.19,6.86-10.31,10.94-17.97,13.36c-10.19,3.23-20.65,4.24-31.06,3.13
			c-11.25-1.2-22.53-3.92-31.29-11.67C822.15,32.64,813.18,18.61,813.94,0.08z"/>
		<path class="st19" d="M849.94,999.87c-12,0-24,0-35.99,0c0.68-5.61,1.06-11.28,2.09-16.82c3.03-16.25,12.04-28.37,25.58-37.74
			c7.22-4.99,14.35-2.16,21.64-1.82c13.84,0.65,26.35,5.43,38.07,12.36c16.64,9.85,23.08,25.4,23.6,44.01c-12,0-24,0-35.99,0
			c0.16-1.15,0.37-2.3,0.47-3.46c0.6-7.4-6.7-19.83-12.59-21.49c-11.62-3.28-24.8,4.76-26.72,16.49
			C849.63,994.16,849.97,997.04,849.94,999.87z"/>
		<path class="st21" d="M704.96,0.08c4.02,17.75,7.64,35.6,12.16,53.22c5.3,20.63,9.14,41.96,23.43,59.08
			c2.86,3.43,5.47,7.1,8.59,10.27c9.25,9.41,17.69,19.63,27.8,28.19c-8.44,3.19-11.86,9.86-12.71,18.31
			c-9.47-4.58-15.45-12.97-22.1-20.56c-8.3-9.48-16.43-19.08-23.42-29.68c-8.49-12.86-13.75-26.96-17.41-41.66
			c-5.6-22.54-10.54-45.24-15.71-67.88c-0.7-3.06-1.09-6.19-1.63-9.29C690.96,0.08,697.96,0.08,704.96,0.08z"/>
		<path class="st21" d="M71.06,999.87c-3.34-16.52-3.73-33.56-9.32-49.7c-6.88-19.86-16.16-38.57-26.09-57.01
			c-4.71-8.76-8.74-17.86-13.93-26.41C16,857.33,7.94,850.25,0.07,842.9c0-7.33,0-14.66,0-22c6.31,2.95,10.88,8.19,15.94,12.65
			c13.72,12.09,24.93,26.21,32.87,42.85c9.87,20.68,21.85,40.31,30.04,61.86c5.65,14.88,8.87,30.21,11.12,45.84
			c0.76,5.24,2.33,10.38,2.01,15.76C85.05,999.87,78.06,999.87,71.06,999.87z"/>
		<path class="st20" d="M813.94,0.08c-0.76,18.54,8.21,32.57,21.36,44.22c8.75,7.76,20.04,10.47,31.29,11.67
			c10.41,1.11,20.87,0.09,31.06-3.13c7.66-2.42,13.77-6.5,17.97-13.36c7.4-12.11,11.19-25.09,9.32-39.39c4.67,0,9.33,0,14,0
			c-0.25,11.62-0.22,23.26-4.73,34.32c-10.76,26.39-25.54,33.71-53.96,35.24c-12.75,0.69-25.63-0.62-37.37-6.77
			C818.31,50,803.72,30.6,803.23,2.03c-0.01-0.65-0.19-1.3-0.29-1.95C806.61,0.08,810.28,0.08,813.94,0.08z"/>
		<path class="st20" d="M999.92,468.98c-30.76-65.72-32.9-131.7-1.78-197.98c0.49-1.04,1.18-1.99,1.78-2.98c0,11,0,22,0,32.99
			c-0.26,0.42-0.63,0.81-0.77,1.27c-8.99,30.32-13.13,61.1-7.99,92.59c1.94,11.9,4.08,23.85,8.76,35.12
			C999.92,442.98,999.92,455.98,999.92,468.98z"/>
		<path class="st20" d="M924.93,999.87c-0.52-18.61-6.96-34.16-23.6-44.01c-11.71-6.93-24.23-11.71-38.07-12.36
			c-7.3-0.34-14.43-3.17-21.64,1.82c-13.54,9.36-22.54,21.49-25.58,37.74c-1.03,5.54-1.41,11.21-2.09,16.82c-3.33,0-6.67,0-10,0
			c2-37.18,26.89-69.22,63.56-68.59c41.38,0.71,68.67,27.05,70.42,68.59C933.59,999.87,929.26,999.87,924.93,999.87z"/>
		<path class="st21" d="M0.07,900.89c4.43,1.62,6.01,6.08,8.34,9.38c5.51,7.79,11.24,15.47,15.33,24.28
			c2.6,5.6,3.96,11.37,4.15,17.2c0.48,14.87,1.15,29.86-4.3,44.21c-0.45,1.2-0.36,2.6-0.53,3.91c-6.67,0-13.34-0.13-19.99,0.07
			c-2.51,0.08-3.07-0.57-3.07-3.07C0.1,964.88,0.07,932.88,0.07,900.89z"/>
		<path class="st21" d="M45.13,87.11c-1.79-2.06,0.29-3.29,1.08-4.73c9.15-16.56,18.27-33.12,23.11-51.62
			c2.65-10.13,1.45-20.44,1.73-30.69c7,0,14,0,21,0c2.5,14.75,0.05,29.04-4.08,43.16c-3.23,11.05-8.6,21.23-12.91,31.84
			C64.87,78.57,54.92,82.62,45.13,87.11z"/>
		<path class="st21" d="M26,105.88C39.11,98.86,52.04,91.4,67,88.85c-2.2,7.84-6.94,14.3-11.9,20.45
			c-14.95,18.51-33.28,33.06-54.06,44.55c-0.27,0.15-0.65,0.13-0.97,0.19c0-8.66,0-17.33,0-25.99c6.37-3.29,11.74-7.95,17.2-12.49
			C20.66,112.75,24.64,110.51,26,105.88z"/>
		<path class="st20" d="M313.02,999.87c17.97-15.74,38.81-22.57,62.53-19.29c6.49,0.9,12.52-0.52,18.74-1.23
			c21.18-2.44,38.94,3.9,52.7,20.52c-7.67,0-15.33,0-23,0c-7.28-4.93-15.43-7.39-24.09-7.98c-6.29-0.43-12.94,0.59-18.79-1.54
			c-7.55-2.75-14.84-2.56-22.43-1.43c-10.38,1.54-20.49,3.72-28.69,10.95C324.35,999.87,318.69,999.87,313.02,999.87z"/>
		<path class="st21" d="M931.58,182.94c9.93-14,21.72-26.24,35.06-37.01c2.31,0.41,4.12-0.89,6.07-1.77
			c9.48-4.3,17.95-10.4,27.2-15.11c0,8.66,0,17.33,0,25.99c-10.12,5.69-20.38,11.07-31.1,15.58
			C956.72,175.7,944.75,181.11,931.58,182.94z"/>
		<path class="st19" d="M999.92,429.99c-4.69-11.26-6.82-23.21-8.76-35.12c-5.14-31.48-0.99-62.27,7.99-92.59
			c0.14-0.46,0.51-0.85,0.77-1.27C999.92,344,999.92,387,999.92,429.99z"/>
		<path class="st21" d="M22.06,0.08c-1.15,21.38-10.33,39.67-22,56.99c0-18,0.06-35.99-0.07-53.99c-0.02-2.5,0.56-3.15,3.07-3.07
			C9.39,0.21,15.73,0.08,22.06,0.08z"/>
		<path class="st19" d="M330.02,999.87c8.2-7.23,18.31-9.4,28.69-10.95c7.59-1.13,14.87-1.32,22.43,1.43
			c5.85,2.13,12.5,1.11,18.79,1.54c8.66,0.59,16.81,3.05,24.09,7.98C392.67,999.87,361.35,999.87,330.02,999.87z"/>
		<path class="st20" d="M849.94,999.87c0.03-2.83-0.3-5.71,0.15-8.47c1.92-11.73,15.1-19.77,26.72-16.49
			c5.9,1.66,13.19,14.1,12.59,21.49c-0.09,1.16-0.31,2.31-0.47,3.46c-3.33,0-6.67,0-10,0c0.17-3.39,0.03-6.75-3.1-8.89
			c-4.46-3.05-9.66-2.99-14.27-1.33c-4,1.44-2.41,5.91-2.49,9.24c-0.01,0.33-0.09,0.65-0.13,0.98
			C855.94,999.87,852.94,999.87,849.94,999.87z"/>
		<path class="st20" d="M888.93,0.08c-2.92,10.04-9.14,15.28-18.5,15.59c-9.11,0.3-17.19-5.85-20.49-15.59c3.33,0,6.67,0,10,0
			c0.89,2.5,2.73,4.14,4.99,5.34c5.88,3.12,11.72,0.7,13.01-5.34C881.6,0.08,885.27,0.08,888.93,0.08z"/>
		<path class="st19" d="M858.94,999.87c0.05-0.33,0.13-0.65,0.13-0.98c0.08-3.33-1.5-7.8,2.49-9.24c4.6-1.66,9.81-1.72,14.27,1.33
			c3.13,2.14,3.28,5.5,3.1,8.89C872.27,999.87,865.6,999.87,858.94,999.87z"/>
		<path class="st19" d="M999.92,129.05c-9.25,4.7-17.73,10.8-27.2,15.11c-1.94,0.88-3.75,2.18-6.07,1.77
			c10.2-9.49,21.33-17.72,33.27-24.88C999.92,123.72,999.92,126.38,999.92,129.05z"/>
		<path class="st19" d="M26,105.88c-1.35,4.63-5.34,6.87-8.72,9.68c-5.47,4.54-10.84,9.2-17.2,12.49c0-2.67,0-5.33,0-8
			c6.86-3.9,13.7-7.83,20.58-11.69C22.36,107.41,24.21,106.7,26,105.88z"/>
		<path class="st19" d="M877.93,0.08c-1.29,6.04-7.13,8.45-13.01,5.34c-2.25-1.19-4.1-2.84-4.99-5.34
			C865.94,0.08,871.93,0.08,877.93,0.08z"/>
		<path class="st20" d="M829.51,796.66c-20.57,12.36-43.21,18.77-66.57,23.09c-39.65,3.22-69.38-16.07-95.57-42.71
			c-23.89-24.31-35.03-54.67-39.17-87.81c-5.06-40.49,6.68-75.92,33.5-106.55c5.15-5.88,10.2-11.84,14.92-18.11
			c7.23-9.63,17.69-15.36,28.42-19.78c19.37-7.97,38.97-15.52,60.27-17.1c9.79-0.73,19.31,0.6,28.77,2.47
			c13.23,2.61,26.32,5.94,38.94,10.82c11.12,4.3,20.58,10.8,27.64,20.6c18.02,25.01,29.72,52.62,34.25,83.17
			c3.27,22.01,5.04,43.97-0.23,66.01c-8.28,34.64-27.74,61.16-57.42,80.48C834.63,792.97,832.09,794.85,829.51,796.66z
			 M882.18,672.75c0.31-9.24-0.2-17.87-1.32-26.47c-1.73-13.24-4.13-26.4-9.83-38.51c-6.78-14.39-16.79-26.76-26.68-39.12
			c-2.51-3.13-5.63-5.64-9.07-7.75c-11.12-6.82-23.69-9.59-36.05-12.9c-9.82-2.63-19.81-5.42-29.98-4.55
			c-30.32,2.6-58.64,11.57-84.24,28.38c-3.46,2.27-7.36,3.94-10.18,7.14c-11.53,13.07-21.01,27.55-28.22,43.36
			c-8.27,18.13-8.85,37.43-6.37,56.82c5.59,43.52,24.28,79.5,61.18,104.87c18.06,12.42,37.29,20.8,59.82,17.83
			c23.8-3.14,45.96-10.76,65.53-25.05c14.85-10.84,29-22.37,38.91-38.28C878.36,718.16,883.04,695.87,882.18,672.75z"/>
		<path class="st21" d="M288.86,756.92c-9.49-0.27-24.15-4.66-38.47-11.57c-18.86-9.1-28.73-25.44-36.99-43.17
			c-4.35-9.33-2.58-19.29,0.06-28.82c5.75-20.81,17.09-38.01,34.05-51.5c7.24-5.76,15.91-7.41,24.56-8.78
			c16.37-2.58,32.03-0.26,46.58,8.15c10.3,5.95,18.13,14.21,24.49,24.23c8.89,14.02,15.71,28.78,14.72,45.66
			c-1.23,21.13-9.68,39.37-26.01,53.11C319.3,754.8,311.58,756.92,288.86,756.92z M278.73,647.88c-6.3,0.33-12.71,0.63-18.43,3.5
			c-13.75,6.9-21.8,18.28-24.09,33.37c-1.61,10.57,0.95,19.86,10.87,25.87c4.26,2.58,8.25,5.61,12.6,8.01
			c6.7,3.7,13.48,7.41,20.99,9.15c15.29,3.54,29.17-1.57,37.49-16.57c9.54-17.21,9.02-27.89-1.68-42.49
			c-6.21-8.48-15.12-12.73-23.85-17.49C288.29,648.87,283.69,647.67,278.73,647.88z"/>
		<path class="st20" d="M450.88,713c-11.88-0.15-23.57-1.91-34.96-5.2c-18.93-5.47-29.03-19.8-35.6-37.11
			c-12.16-32.05-6.97-61.45,14.76-87.75c12.95-15.67,30.22-23.93,50.26-21.05c15.95,2.29,31.72,7.34,44.79,18.19
			c10.39,8.62,19.55,18.1,25.32,30.47c11.84,25.36,10.6,68.09-25.1,91.7C478.55,710.05,465.09,713.25,450.88,713z M445.62,694.96
			c33.75,1.12,55.68-20.93,58.96-46.76c1.85-14.59,1.35-28.6-8.52-40.77c-16.31-20.1-37.47-31-63.11-33.28
			c-9.56-0.85-18.61,0.65-25.99,7.61c-5,4.72-9.55,9.84-12.51,16.08c-12.76,26.91-11.62,53.14,4.26,78.49
			c4.67,7.45,11.13,12.64,19.74,15.16C427.37,694.11,436.47,694.64,445.62,694.96z"/>
		<path class="st21" d="M941.1,158.1c-8.15,9.34-16.07,18.86-23.33,28.91c-19.18,1.25-38.36,3.19-57.57,2.83
			c-16.5-0.31-33.13-0.75-49.33-4.82c1.81-9.32,0.72-18.09-4.99-25.96c11.23,2.85,22.61,4.85,34.06,6.55
			c2.83,0.42,5.62,0.4,8.43,0.41c13.3,0.05,26.59-0.01,39.89,0.03c16.69,0.05,32.95-2.7,48.96-7.22
			C938.49,158.47,939.81,158.34,941.1,158.1z"/>
		<path class="st20" d="M805.88,159.06c5.71,7.88,6.8,16.64,4.99,25.96c-3.1,3.44-5.94,7.18-9.35,10.27
			c-9.26,8.37-20.45,7.97-28.57-1.45c-5.98-6.94-9.25-15.25-8.73-24.69c0.86-8.45,4.28-15.12,12.71-18.31
			C788.38,147.26,798,150.08,805.88,159.06z M778.03,177.03c0.88,2.83,3.05,4.65,5.24,6.37c6.32,4.96,12.01,4.45,16.65-1.36
			c3.14-5.31,2.99-12.6-0.33-16.68c-4.37-5.38-12.29-7.84-18.1-5.97C775.07,161.44,774.06,169.38,778.03,177.03z"/>
		<path class="st20" d="M92.8,366.04c-0.04-21.35,11.96-35.48,28.72-46c8.43-5.29,16.6-11.21,27.02-13.3
			c25.03-5.03,43.53,12.2,50.07,29.03c8.66,22.29,4.57,44.15-6.02,64.43c-7.68,14.72-21.51,20.37-38.29,18.88
			c-16.16-1.44-30.9-6.62-43.77-16.29C98.5,393.73,92.91,381.09,92.8,366.04z M153.99,408.07c10.72,1.34,20.28-1.19,26.72-10.12
			c12.71-17.65,14.6-46.34-1.2-65.23c-9.04-10.8-34.25-16.19-47.12-10.35c-0.6,0.27-1.18,0.62-1.76,0.94
			c-9,5.04-16.57,11.66-22.55,20.11c-12.72,17.99-8.22,42.1,10.12,54.38C129.07,405.08,141,408.5,153.99,408.07z"/>
		<path class="st21" d="M282.01,98.3c14.33,6.45,26.64,14.49,38.04,24.08c18.13,15.24,35.94,30.76,50.27,49.85
			c6.56,8.73,11.25,18.45,15.84,28.26c1.08,2.32,0.92,3.44-1.92,3.27c-35.04-2.09-65.74-13.66-86.43-43.43
			C285.23,142.21,281.22,121,282.01,98.3z"/>
		<path class="st19" d="M374.69,138.22c-19.17,1.08-27.52-13.07-28.28-29.14c-0.85-17.81,9.88-34.1,26.09-41.47
			c4.01-1.82,7.7-1.93,12.01-0.61c8.73,2.67,16.78,5.77,22.8,13.34c13.39,16.81,8.1,42.96-11.15,52.65
			C389.26,136.45,382.01,138.92,374.69,138.22z"/>
		<path class="st19" d="M882.18,672.75c0.85,23.13-3.83,45.41-16.51,65.77c-9.92,15.91-24.06,27.44-38.91,38.28
			c-19.57,14.29-41.73,21.91-65.53,25.05c-22.53,2.97-41.76-5.41-59.82-17.83c-36.9-25.37-55.59-61.34-61.18-104.87
			c-2.49-19.39-1.9-38.69,6.37-56.82c7.21-15.81,16.69-30.29,28.22-43.36c2.82-3.2,6.71-4.87,10.18-7.14
			c25.6-16.81,53.92-25.78,84.24-28.38c10.17-0.87,20.17,1.92,29.98,4.55c12.36,3.31,24.93,6.08,36.05,12.9
			c3.45,2.12,6.57,4.62,9.07,7.75c9.89,12.36,19.9,24.73,26.68,39.12c5.7,12.1,8.11,25.27,9.83,38.51
			C881.99,654.88,882.49,663.51,882.18,672.75z M705.92,672.5c-0.37,3.06,0.34,7.16,1.05,11.25c3.47,20.08,20.67,38.19,40.43,42.16
			c24.51,4.93,45.54-2.54,63.89-18.73c4.55-4.02,7.69-9.09,9.96-14.76c6.34-15.85,6.92-32.23,3.18-48.54
			c-2.66-11.58-7.75-22.54-17.51-30.1c-15.75-12.2-33.41-15.54-52.72-10.1C727.42,611.22,705.9,641.28,705.92,672.5z"/>
		<path class="st19" d="M278.73,647.88c4.97-0.22,9.57,0.99,13.9,3.35c8.73,4.76,17.64,9,23.85,17.49
			c10.69,14.61,11.22,25.28,1.68,42.49c-8.32,15-22.2,20.11-37.49,16.57c-7.51-1.74-14.29-5.46-20.99-9.15
			c-4.35-2.4-8.34-5.43-12.6-8.01c-9.92-6.01-12.48-15.31-10.87-25.87c2.29-15.08,10.35-26.47,24.09-33.37
			C266.01,648.51,272.42,648.21,278.73,647.88z M297.27,689.82c0.02-8.1-4.05-15.52-11.05-20.13c-7.89-5.19-16.22-3.96-23.16,2.38
			c-5.74,5.25-6.4,11.59-6.14,18.57c0.45,11.79,8.68,20.78,19.21,20.83C287.34,711.53,297.24,701.38,297.27,689.82z"/>
		<path class="st19" d="M445.62,694.96c-9.16-0.32-18.26-0.85-27.16-3.46c-8.62-2.52-15.07-7.71-19.74-15.16
			c-15.88-25.35-17.02-51.58-4.26-78.49c2.96-6.24,7.5-11.36,12.51-16.08c7.38-6.96,16.42-8.46,25.99-7.61
			c25.64,2.28,46.8,13.18,63.11,33.28c9.87,12.17,10.37,26.19,8.52,40.77C501.3,674.03,479.38,696.08,445.62,694.96z M409.88,642.07
			c-1.35,13.82,10.6,26.35,22.21,29.3c5.11,1.3,10.44,1.73,15.64,2.73c14.01,2.7,22.49-2.17,29.75-13.99
			c11.25-18.3-1.2-51.08-19.32-55.76c-13.72-3.54-26.08-3.86-37.1,6.57C412.39,619.14,410.2,629.54,409.88,642.07z"/>
		<path class="st21" d="M778.03,177.03c-3.97-7.65-2.96-15.58,3.47-17.65c5.82-1.87,13.73,0.59,18.1,5.97
			c3.32,4.08,3.46,11.37,0.33,16.68C792.79,179.66,785.32,178.76,778.03,177.03z"/>
		<path class="st19" d="M778.03,177.03c7.28,1.74,14.76,2.63,21.89,5c-4.65,5.82-10.33,6.32-16.65,1.36
			C781.09,181.68,778.91,179.86,778.03,177.03z"/>
		<path class="st19" d="M153.99,408.07c-12.99,0.42-24.93-2.99-35.79-10.27c-18.34-12.28-22.84-36.39-10.12-54.38
			c5.98-8.45,13.55-15.07,22.55-20.11c0.58-0.33,1.15-0.67,1.76-0.94c12.88-5.84,38.08-0.45,47.12,10.35
			c15.8,18.89,13.91,47.58,1.2,65.23C174.27,406.89,164.72,409.41,153.99,408.07z"/>
		<path class="st20" d="M705.92,672.5c-0.02-31.22,21.5-61.28,48.28-68.81c19.31-5.44,36.97-2.1,52.72,10.1
			c9.76,7.56,14.85,18.52,17.51,30.1c3.74,16.31,3.16,32.69-3.18,48.54c-2.27,5.67-5.41,10.75-9.96,14.76
			c-18.35,16.18-39.37,23.66-63.89,18.73c-19.76-3.97-36.96-22.08-40.43-42.16C706.26,679.65,705.55,675.55,705.92,672.5z
			 M715.22,675.9c0.23,8.67,4.08,16.05,8.88,22.83c15.68,22.11,43.7,22.56,61.04,11.28c2.95-1.09,5.49-2.85,7.92-4.8
			c10.6-6.19,16.56-15.52,18.83-27.45c1.45-7.61,1.76-15.31,0.77-22.88c-2.24-17.17-9.4-31-26.86-37.65
			c-8.59-3.27-17.39-4.3-26.39-4.2c-3.42,0.04-7-0.85-10.29,1.05c-8.63,4.99-15.8,11.54-21.47,19.75c-0.61,0.91-1.22,1.82-1.84,2.74
			c-0.29,0.46-0.57,0.92-0.86,1.39C717.64,649.55,713.77,662.04,715.22,675.9z"/>
		<path class="st20" d="M297.27,689.82c-0.03,11.56-9.93,21.71-21.14,21.66c-10.53-0.05-18.76-9.04-19.21-20.83
			c-0.27-6.98,0.4-13.32,6.14-18.57c6.94-6.34,15.27-7.58,23.16-2.38C293.22,674.29,297.29,681.71,297.27,689.82z M264.08,686.74
			c-0.11,8.3,4.6,15.05,10.59,15.17c4.75,0.09,8.72-4.57,8.7-10.21c-0.03-6.35-6.22-12.69-12.37-12.67
			C266.32,679.03,264.15,681.46,264.08,686.74z"/>
		<path class="st21" d="M409.88,642.07c0.32-12.53,2.52-22.93,11.19-31.14c11.02-10.43,23.38-10.12,37.1-6.57
			c18.12,4.68,30.56,37.46,19.32,55.76c-7.26,11.82-15.74,16.68-29.75,13.99c-5.2-1-10.53-1.43-15.64-2.73
			C420.48,668.42,408.52,655.89,409.88,642.07z"/>
		<path class="st21" d="M725.82,636.56c0.61-0.91,1.22-1.82,1.84-2.74c6.41-2.28,11.62-6.83,17.98-9.3
			c8.95-3.48,17.59-7.42,27.72-6.05c10.67,1.44,18.47,6.72,25.51,14.66c13.44,15.17,16.67,43.57,2.44,61.21
			c-2.83,3.5-7.31,5.9-8.25,10.86c-2.43,1.95-4.97,3.71-7.92,4.8c-7.07,0.54-13.7,3.22-21.03,3.09
			c-24.32-0.44-39.78-11.45-47.03-34.58c-0.36-1.14-0.43-2.3-1.85-2.61c-1.45-13.86,2.42-26.35,9.74-37.96
			C725.25,637.48,725.54,637.02,725.82,636.56z M769.77,674.97c9.64,0.08,15.71-5.39,15.36-13.51c-0.25-5.55-4.16-10.15-10.84-12.2
			c-2.98-0.91-6.62-0.42-9.11-1.94c-3.19-1.96-4.92-0.74-6.92,1.17c-5.58,5.33-7.18,15.6-3.41,22.2c0.55,0.97,1.73,2.58,2.21,2.45
			C761.73,671.84,765.61,675.7,769.77,674.97z"/>
		<path class="st19" d="M793.06,705.21c0.94-4.96,5.43-7.36,8.25-10.86c14.23-17.65,11-46.04-2.44-61.21
			c-7.04-7.94-14.85-13.22-25.51-14.66c-10.13-1.37-18.76,2.58-27.72,6.05c-6.36,2.47-11.57,7.02-17.98,9.3
			c5.66-8.2,12.84-14.75,21.47-19.75c3.28-1.9,6.87-1.02,10.29-1.05c9-0.1,17.8,0.93,26.39,4.2c17.46,6.64,24.62,20.47,26.86,37.65
			c0.99,7.57,0.68,15.28-0.77,22.88C809.62,689.69,803.66,699.02,793.06,705.21z"/>
		<path class="st19" d="M715.22,675.9c1.42,0.31,1.49,1.47,1.85,2.61c7.25,23.13,22.71,34.14,47.03,34.58
			c7.33,0.13,13.96-2.54,21.03-3.09c-17.34,11.28-45.36,10.83-61.04-11.28C719.3,691.95,715.45,684.57,715.22,675.9z"/>
		<path class="st19" d="M725.82,636.56c-0.29,0.46-0.57,0.92-0.86,1.39C725.25,637.48,725.54,637.02,725.82,636.56z"/>
		<path class="st19" d="M264.08,686.74c0.07-5.28,2.24-7.71,6.91-7.72c6.16-0.02,12.34,6.32,12.37,12.67
			c0.03,5.64-3.95,10.31-8.7,10.21C268.68,701.79,263.97,695.04,264.08,686.74z"/>
		<path class="st20" d="M769.77,674.97c-4.16,0.74-8.04-3.13-12.72-1.83c-0.48,0.13-1.66-1.48-2.21-2.45
			c-3.76-6.61-2.17-16.88,3.41-22.2c2-1.91,3.73-3.13,6.92-1.17c2.49,1.53,6.13,1.03,9.11,1.94c6.69,2.05,10.6,6.65,10.84,12.2
			C785.49,669.58,779.41,675.05,769.77,674.97z M763.11,661.37c-0.59,4.98,2.87,5.37,6.3,5.54c2.87,0.14,6.01-0.77,5.5-4.07
			c-0.7-4.53-5.2-4.24-8.66-4.82C763.65,657.6,762.51,658.81,763.11,661.37z"/>
		<path class="st21" d="M763.11,661.37c-0.6-2.57,0.54-3.77,3.14-3.34c3.46,0.57,7.96,0.29,8.66,4.82c0.51,3.29-2.64,4.21-5.5,4.07
			C765.98,666.74,762.52,666.36,763.11,661.37z"/>
	</g>
</g>
<g id="Layer_5" class="st0">
	<g class="st1">
		<path class="st22" d="M878.93,0.1c38.99,0,77.98,0.06,116.98-0.1c3.43-0.01,4.1,0.67,4.09,4.1c-0.11,121.97-0.1,243.95-0.1,365.92
			c-1.31,2.11-2.69,4.18-3.93,6.33c-3.16,5.48-5.96,11.29-10.51,15.74c-10.83,10.6-21.69,21.17-32.96,31.29
			c-14.62,13.12-29.8,25.71-42.7,40.55c-17.03,19.59-29.88,41.22-28.99,68.57c0.36,10.97,0.3,21.95,0.42,32.93
			c0.14,13.13-4.8,23.99-14.72,32.55c-12.34,10.65-26.37,17.93-42.46,21c-18.15,3.46-36.52,5.23-54.85,7.41
			c-26.15,3.11-51.64,9.51-77.18,15.65c-34.53,8.3-68.7,17.59-99.45,36.26c-11.66,7.08-23.52,13.86-33.22,23.74
			c-12.51,12.74-16.16,40.39,3.28,55.41c23.14,17.88,48.53,31.48,75.45,42.44c18.27,7.44,36.18,15.29,50.47,29.52
			c6.01,5.99,12.49,11.51,18.63,17.37c10.71,10.22,22.3,19.55,31.63,31.19c7.76,9.69,16.65,18.14,27.36,24.57
			c4.85,2.91,9.62,5.97,14.36,9.05c7.12,4.62,14.42,9.02,20.25,15.34c5.85,6.34,6,12.63,0.32,19.1c-1.31,1.49-2.81,2.85-4.37,4.09
			c-19.36,15.44-42.39,22.54-65.78,28.8c0.98-5.71,1.6-11.45,3.42-17.03c5.31-16.27,6.32-33.09,2.96-49.68
			c-4.55-22.49-17.31-40.28-35.36-54.19c-6.3-4.86-13.79-8.28-19.67-13.55c-11.26-10.09-24.65-15.54-38.75-19.51
			c-15.32-4.32-30.87-7.84-46.3-11.8c-22.11-5.68-44.79-7.12-67.38-9.17c-10.92-0.99-21.84-1.97-32.29-5.4
			c-12.8-4.2-21.21-19.3-19.34-32.88c1.7-12.38,7.67-22.6,13.08-33.11c10.15-19.7,11.35-40.35,8.41-61.66
			c-0.64-4.65-2.63-8.6-6.2-12.12c-9.8-9.68-20.66-17.42-33.38-23c-10.8-4.74-21.7-9.31-32.66-13.53
			c-16.25-6.25-33.48-9.44-50.39-13.62c-19.01-4.7-37.87-10.12-55.49-18.96c-3.27-1.64-6.43-3.47-10.01-4.37
			c-7.24-1.82-14.61-3.24-21.72-5.48c-12.35-3.89-24.76-7.76-34.18-17.59c-3.72-3.88-4.53-7.96-2.96-12.76
			c2.37-7.23,8.19-11.72,13.95-15.78c21.58-15.24,46.4-23.75,71.01-32.29c32.97-11.44,66.81-20.09,100.69-28.44
			c27.07-6.67,54.22-13.04,81.44-19.08c28.17-6.26,56.4-12.24,84.7-17.84c29.26-5.79,58.66-10.86,87.96-16.46
			c22.79-4.36,45.62-8.64,68.25-13.73c31.66-7.12,63.09-15.13,91.94-30.75c18.84-10.2,35.12-23.31,47.02-41.38
			c6.96-10.57,11.47-21.96,8.56-34.82c-3.08-13.62-12.55-22.33-24.27-28.83c-24.68-13.7-52.07-17.34-79.41-21.02
			c-11.98-1.61-24-2.84-35.99-4.34c-17.41-2.18-34.8-4.46-52.2-6.69c-13.96-1.79-27.93-3.46-41.87-5.35
			c-15.92-2.16-31.84-4.29-47.56-7.67c-15.75-3.38-31.66-6.34-45.92-14.45c-6.42-3.65-12.19-8.18-16.71-14.02
			c-9.72-12.54-7.65-22.65,2.05-37.41c1.53-2.33,3.87-4.13,4.58-6.99c4.71-1.03,9.42-2.05,14.13-3.1
			c16.41-3.66,32.76-7.49,47.97-15.01c6.53-3.23,11.45-7.89,14.21-14.74c2.17-5.4,4.57-10.71,6.68-16.13
			c1.08-2.77,2.51-5.29,5.32-6.28c10.92-3.84,16.68-12.71,22.12-22.02c11.53-19.76,27.62-32.93,50.66-37.89
			c37.85-8.15,75.59-16.88,112.98-26.98C856.4,6.94,867.98,4.59,878.93,0.1z"/>
		<path class="st22" d="M560,999.89c-185.04,0-370.08-0.02-555.12,0.11c-4.02,0-4.88-0.75-4.88-4.84
			c0.13-161.39,0.11-322.78,0.11-484.17c1.11-0.29,2.35-0.34,3.3-0.89c15.06-8.87,31.09-15.98,45.86-25.38
			c20.11-12.79,38.28-27.73,52.47-47.09c8.08-11.03,11.97-23.34,10.47-37.04c-2.7-24.65,5-45.61,22.2-63.22
			c4.1-4.19,8.58-7.95,14.56-9.22c11.06-2.35,21.85-5.62,32.69-8.85c26.13-7.8,51.06-18.22,74.57-32.03
			c19.26-11.32,34.87-25.95,44.01-46.87c4.86-11.13,10.42-21.96,15.91-32.8c7.5-14.79,19.19-24.45,35.56-28.08
			c15.62-3.46,31.47-5.17,47.39-6.45c16.57-1.33,33.16-2.44,49.73-3.86c14.4-1.24,28.78-2.79,43.17-4.2c0.06,1-0.01,2.02,0.21,2.98
			c3.31,14.31,10.39,26.71,20.52,37.08c8.93,9.13,16.7,19.27,26.04,28.08c7.21,6.79,12.75,15.3,22.74,18.73
			c3.6,1.24,6.96,3.16,10.48,4.66c21.53,9.18,43.01,18.5,65.6,24.89c10.74,3.04,20.32,8.27,28.31,16.1
			c8.75,8.58,4.89,23.17-7.13,26.3c-17.14,4.46-34.33,8.79-51.64,12.52c-11.2,2.41-21.97,6.78-33.33,8.07
			c-10.82,1.23-21.06,4.48-31.53,7c-14.84,3.57-29.44,8.06-44.52,10.68c-19.91,3.46-39.79,7-59.8,9.84
			c-16.26,2.31-31.89,7.65-47.83,11.5c-29.71,7.18-60,10.92-89.93,16.7c-18.24,3.52-36.63,6.93-53.23,15.96
			c-10.5,5.71-21.01,11.46-31.23,17.65c-30.38,18.41-59.13,38.87-82.28,66.32c-19.27,22.85-31.63,48.29-30.35,78.97
			c0.87,20.89,8.82,38.13,25.87,50.93c18.31,13.74,39.43,20.43,61.39,24.89c13.47,2.73,27.11,4.45,40.88,5.25
			c17.03,0.99,34.02,2.64,51.05,3.82c13.33,0.93,26.03,3.26,35.81,13.52c0.78,0.82,1.82,1.59,2.88,1.92
			c13.64,4.26,16.26,16.34,18.87,27.76c4.69,20.52-2.1,38.9-11.97,56.64c-11.49,20.65-25.69,39.54-37.95,59.69
			c-8.94,14.7-15.56,30.1-16.78,47.43c-0.45,6.32,0.04,12.49,2.58,18.55c6.72,16.04,21.07,21.1,35.96,24.18
			c10.94,2.26,22.3,3.19,33.38,4.87c12.07,1.84,24.01,2.04,35.65-0.03c14.75-2.63,29.09-0.91,43.56,0.76
			c12.66,1.47,25.2,4.08,38.04,3.69c1.49-0.05,3.02-0.07,4.48,0.18c17.6,3.05,34.15,9.22,50.27,16.77c4.71,2.21,7.47,6.52,11.48,9.5
			c7.75,5.77,16.9,9.88,21.32,19.64C554.39,978.99,559.78,988.55,560,999.89z"/>
		<path class="st23" d="M560,999.89c-0.21-11.34-5.61-20.9-10.12-30.88c-4.41-9.76-13.57-13.87-21.32-19.64
			c-4-2.98-6.76-7.3-11.48-9.5c-16.12-7.55-32.67-13.73-50.27-16.77c-1.46-0.25-2.99-0.22-4.48-0.18
			c-12.84,0.39-25.38-2.22-38.04-3.69c-14.47-1.68-28.8-3.39-43.56-0.76c-11.65,2.07-23.58,1.86-35.65,0.03
			c-11.09-1.69-22.44-2.61-33.38-4.87c-14.89-3.08-29.24-8.14-35.96-24.18c-2.54-6.06-3.02-12.23-2.58-18.55
			c1.22-17.33,7.84-32.73,16.78-47.43c12.26-20.15,26.46-39.04,37.95-59.69c9.87-17.74,16.66-36.12,11.97-56.64
			c-2.61-11.41-5.23-23.5-18.87-27.76c-1.06-0.33-2.1-1.1-2.88-1.92c-9.78-10.26-22.48-12.6-35.81-13.52
			c-17.02-1.19-34.01-2.83-51.05-3.82c-13.77-0.8-27.41-2.52-40.88-5.25c-21.96-4.46-43.08-11.14-61.39-24.89
			c-17.06-12.8-25-30.05-25.87-50.93c-1.28-30.69,11.08-56.12,30.35-78.97c23.15-27.45,51.9-47.91,82.28-66.32
			c10.22-6.19,20.72-11.94,31.23-17.65c16.6-9.03,34.99-12.44,53.23-15.96c29.93-5.77,60.21-9.51,89.93-16.7
			c15.94-3.85,31.57-9.19,47.83-11.5c20.01-2.85,39.9-6.39,59.8-9.84c15.08-2.62,29.68-7.12,44.52-10.68
			c10.46-2.51,20.71-5.77,31.53-7c11.37-1.29,22.13-5.66,33.33-8.07c17.31-3.73,34.5-8.06,51.64-12.52
			c12.02-3.13,15.88-17.73,7.13-26.3c-7.99-7.83-17.57-13.06-28.31-16.1c-22.6-6.39-44.07-15.71-65.6-24.89
			c-3.52-1.5-6.88-3.42-10.48-4.66c-9.99-3.43-15.54-11.94-22.74-18.73c-9.34-8.81-17.12-18.94-26.04-28.08
			c-10.13-10.37-17.21-22.77-20.52-37.08c-0.22-0.96-0.15-1.99-0.21-2.98c2.88-1.74,6.18-1,9.25-1.42
			c23.35-3.19,46.55-7.24,69.73-11.43c-0.71,2.86-3.05,4.66-4.58,6.99c-9.7,14.76-11.78,24.87-2.05,37.41
			c4.53,5.84,10.29,10.36,16.71,14.02c14.26,8.11,30.17,11.07,45.92,14.45c15.72,3.38,31.64,5.52,47.56,7.67
			c13.94,1.89,27.91,3.56,41.87,5.35c17.4,2.23,34.79,4.51,52.2,6.69c11.99,1.5,24.02,2.73,35.99,4.34
			c27.34,3.68,54.73,7.32,79.41,21.02c11.72,6.51,21.19,15.21,24.27,28.83c2.91,12.86-1.6,24.25-8.56,34.82
			c-11.89,18.06-28.18,31.17-47.02,41.38c-28.85,15.62-60.28,23.63-91.94,30.75c-22.64,5.09-45.46,9.37-68.25,13.73
			c-29.3,5.61-58.7,10.67-87.96,16.46c-28.3,5.6-56.54,11.59-84.7,17.84c-27.22,6.05-54.37,12.41-81.44,19.08
			c-33.88,8.35-67.72,17-100.69,28.44c-24.61,8.54-49.42,17.05-71.01,32.29c-5.76,4.06-11.58,8.55-13.95,15.78
			c-1.57,4.8-0.76,8.88,2.96,12.76c9.42,9.83,21.83,13.7,34.18,17.59c7.11,2.24,14.48,3.66,21.72,5.48
			c3.57,0.9,6.73,2.73,10.01,4.37c17.62,8.84,36.49,14.26,55.49,18.96c16.91,4.18,34.15,7.37,50.39,13.62
			c10.96,4.22,21.86,8.79,32.66,13.53c12.72,5.58,23.58,13.32,33.38,23c3.57,3.52,5.56,7.47,6.2,12.12
			c2.93,21.31,1.73,41.96-8.41,61.66c-5.41,10.51-11.38,20.73-13.08,33.11c-1.87,13.58,6.54,28.68,19.34,32.88
			c10.45,3.43,21.36,4.41,32.29,5.4c22.59,2.04,45.27,3.48,67.38,9.17c15.43,3.96,30.97,7.48,46.3,11.8
			c14.1,3.97,27.49,9.42,38.75,19.51c5.88,5.27,13.37,8.7,19.67,13.55c18.05,13.91,30.81,31.7,35.36,54.19
			c3.36,16.59,2.35,33.41-2.96,49.68c-1.82,5.58-2.44,11.33-3.42,17.03c-11.01,3.01-22.01,6.01-33.02,9.02
			c-14.03,3.83-28.38,6.57-41.97,11.94C623.98,999.89,591.99,999.89,560,999.89z"/>
		<path class="st22" d="M0.11,368.02c0-121.14,0.02-242.28-0.09-363.42c0-3.75,0.84-4.59,4.59-4.59C189.74,0.11,374.87,0.1,560,0.1
			c0.03,12.29,0.11,24.8-5.25,36.06c-5.31,11.15-12.02,21.67-17.02,32.99c-2.82,6.4-8.17,11.34-9.86,18.28
			c-14.88,2.93-29.97,4.03-45.07,4.53c-9.32,0.31-18.69,0.39-27.9,1.61c-29.36,3.88-58.85,6.42-88.3,9.4
			c-26.02,2.64-51.72,6.75-77.08,13.27c-30.1,7.74-50.15,24.21-55.34,56.67c-3.99,24.96-18.84,43.19-40.23,56.3
			c-20.84,12.77-43.25,22.11-66.04,30.61c-25.11,9.37-51.35,15.58-75.9,26.4c-15.17,6.68-26.7,18.1-33.96,33.12
			c-5.03,10.41-5.78,22.16-8.85,33.2C7.52,358.58,5.35,364.15,0.11,368.02z"/>
		<path class="st22" d="M999.9,511.99c0,161.13-0.02,322.27,0.09,483.4c0,3.75-0.84,4.61-4.59,4.6c-37.82-0.16-75.65-0.1-113.48-0.1
			c0.86-0.45,1.68-1,2.58-1.33c11.9-4.31,23.8-8.58,33.99-16.45c11.57-8.93,14.55-22.02,7.95-35.11
			c-8.18-16.22-22.06-26.02-38.09-33c-23.63-10.3-47.58-19.86-71.19-30.22c-12.78-5.61-25.41-11.69-34.44-23.16
			c-6.9-8.77-10.95-19.01-15.8-28.83c-3.47-7.03-6.66-14.23-11.94-20.1c-17.51-19.46-37.32-36.05-60.97-47.68
			c-17.47-8.59-35.22-16.61-52.09-26.4c-4.51-2.62-8.65-5.68-11.62-10.04c-3.31-4.85-2.92-7.46,1.7-11.02
			c4.53-3.49,9.72-5.73,15.1-7.57c31.69-10.84,64.75-14.3,97.75-17.94c13.87-1.53,27.86-2.02,41.75-3.4
			c22.96-2.27,45.94-4.45,68.8-7.71c21.72-3.09,43.12-7.54,64.22-13.74c29.75-8.74,42.21-38.85,38.47-63.21
			c-1.36-8.86-2.96-17.81-2.1-26.81c0.99-10.32,0.01-20.89,5.39-30.64C970.21,529.56,984.21,519.89,999.9,511.99z"/>
		<path class="st22" d="M999.9,391.02c0,36.33,0,72.65,0,108.98c-4.73,1.32-8.48,4.47-12.58,6.92
			c-10.67,6.38-21.58,12.33-27.98,23.98c-4.33,7.88-10.16,15.26-11.13,24.31c-1.73,16.19-2.87,32.55,0.58,48.69
			c2.88,13.46-1.23,25.54-7.58,36.75c-5.89,10.4-16.66,14.94-27.61,18.4c-32.82,10.37-66.86,13.95-100.82,17.8
			c-16.49,1.87-33.09,2.84-49.63,4.3c-19.51,1.72-38.98,3.78-58.33,6.85c-19.52,3.09-38.97,6.48-57.73,12.91
			c-8.02,2.75-16.08,5.55-22.36,11.68c-5.59,5.46-6.38,11.44-2.18,17.98c3.18,4.95,7.15,9.19,12.28,12.21
			c11.62,6.84,23.26,13.68,35.59,19.15c21.09,9.37,40.93,20.41,58.22,36.13c12.61,11.47,24.03,23.37,30.65,39.38
			c2.66,6.44,6.06,12.6,9.36,18.75c5.79,10.79,13.9,19.49,24.42,25.79c14.18,8.49,29.58,14.44,44.69,20.98
			c17.85,7.73,36.35,13.95,53.63,23.02c9.42,4.95,17.65,11.25,23.54,20.32c8.42,12.94,6.16,23.02-6.96,31.13
			c-9.71,6-20.31,9.93-31.1,13.36c-9.94,3.16-19.96,6.07-29.94,9.1c-40.66,0-81.32,0-121.97,0c-0.55-2.92,1.51-5.19,1.97-7.85
			c12.53-3.92,25.22-7.32,37.55-11.9c14.27-5.3,27.85-11.82,39.76-21.53c16.61-13.53,16.63-29.98-0.1-43.45
			c-0.13-0.1-0.28-0.18-0.41-0.29c-7.38-6.29-15.65-11.29-23.82-16.42c-11.3-7.09-22.36-14.42-31.02-24.87
			c-6.59-7.95-13.72-15.42-21.34-22.41c-8.1-7.42-16.45-14.61-24.06-22.51c-17.13-17.75-37.88-29.53-60.52-38.64
			c-26.79-10.79-52.6-23.46-75.01-42.09c-3.88-3.23-7.02-7.08-8.11-12.25c-2.8-13.36,1.79-24.13,12.33-32.08
			c17.06-12.88,35.5-23.57,55.33-31.63c35.61-14.48,73.3-21.52,110.56-29.83c24.48-5.46,49.68-6.61,74.5-10.15
			c18.81-2.68,36.66-7.68,52.42-19.01c15.79-11.36,26.63-25.17,27.21-45.65c0.4-14.09-1.29-28.17,0.57-42.3
			c1.25-9.5,2.91-18.53,7.67-27.04c12.54-22.39,29.75-40.92,48.31-58.15C966.03,423.81,983.58,408.06,999.9,391.02z"/>
		<path class="st22" d="M0.11,499c0-36.66,0-73.32,0-109.98c8.66-8.24,15.85-17.63,19.85-28.91c2.99-8.44,5.56-17.19,6.85-26.01
			c1.8-12.28,8.97-19.95,18.85-25.97c11.79-7.18,25.03-10.74,37.96-15.02c12.48-4.13,25.1-7.9,37.07-13.38
			c12.86-5.88,25.46-12.35,38.4-18.07c13.1-5.79,26.04-11.8,38.55-18.82c29.01-16.3,46.98-40.26,51.71-73.47
			c2.92-20.51,14.81-32.48,34.05-38.71c32.54-10.54,66.28-13.89,99.98-17.53c18.67-2.02,37.5-2.79,56.06-5.49
			c25.43-3.69,51.12-2.75,76.56-5.57c-2.8,6.16-8.12,10.55-11.28,16.6c-5.88,11.23-9.51,23.13-12.69,35.26
			c-3.62,0.49-7.24,0.98-10.86,1.47c-19.11,2.62-38.32,4.3-57.55,5.57c-22.73,1.5-45.42,3.17-67.88,7.11
			c-23.39,4.1-40.77,16.35-51.21,37.94c-3.69,7.64-7.74,15.15-10.97,22.98c-9.05,21.95-23.93,38.47-44.47,50.28
			c-11.14,6.4-22.53,12.24-34.27,17.4c-18.79,8.26-38.08,14.89-58.54,17.68c-8.39,1.14-16.94,1.91-23.86,7.71
			c-24.64,20.65-36.85,46.64-34,79.11c0.87,9.96-1.27,19.17-6.99,27.46c-10.53,15.26-23.91,27.62-38.84,38.47
			C35.97,479.18,17.5,488.19,0.11,499z"/>
		<path class="st24" d="M999.9,391.02c-16.33,17.04-33.87,32.79-51.16,48.84c-18.56,17.24-35.77,35.76-48.31,58.15
			c-4.77,8.51-6.43,17.54-7.67,27.04c-1.86,14.13-0.17,28.21-0.57,42.3c-0.58,20.48-11.43,34.29-27.21,45.65
			c-15.75,11.33-33.6,16.32-52.42,19.01c-24.82,3.54-50.02,4.69-74.5,10.15c-37.27,8.31-74.95,15.35-110.56,29.83
			c-19.83,8.06-38.27,18.75-55.33,31.63c-10.54,7.95-15.12,18.72-12.33,32.08c1.08,5.18,4.23,9.03,8.11,12.25
			c22.42,18.62,48.22,31.3,75.01,42.09c22.64,9.12,43.39,20.89,60.52,38.64c7.62,7.89,15.96,15.09,24.06,22.51
			c7.63,6.99,14.75,14.46,21.34,22.41c8.66,10.44,19.71,17.77,31.02,24.87c8.17,5.13,16.44,10.14,23.82,16.42
			c0.13,0.11,0.28,0.19,0.41,0.29c16.73,13.47,16.7,29.93,0.1,43.45c-11.91,9.7-25.49,16.22-39.76,21.53
			c-12.32,4.58-25.02,7.99-37.55,11.9c-10.04,2.4-20.17,4.51-29.97,7.85c-13.66,0-27.33,0-40.99,0
			c13.59-5.37,27.94-8.11,41.97-11.94c11.01-3.01,22.01-6.01,33.02-9.02c23.39-6.26,46.42-13.36,65.78-28.8
			c1.56-1.24,3.06-2.6,4.37-4.09c5.68-6.46,5.53-12.76-0.32-19.1c-5.84-6.32-13.13-10.72-20.25-15.34
			c-4.75-3.08-9.52-6.13-14.36-9.05c-10.71-6.44-19.6-14.89-27.36-24.57c-9.33-11.64-20.92-20.97-31.63-31.19
			c-6.14-5.86-12.62-11.38-18.63-17.37c-14.29-14.24-32.2-22.09-50.47-29.52c-26.92-10.96-52.31-24.56-75.45-42.44
			c-19.44-15.02-15.8-42.67-3.28-55.41c9.7-9.88,21.56-16.66,33.22-23.74c30.75-18.67,64.92-27.96,99.45-36.26
			c25.54-6.14,51.03-12.54,77.18-15.65c18.32-2.18,36.7-3.95,54.85-7.41c16.09-3.07,30.13-10.35,42.46-21
			c9.92-8.56,14.86-19.42,14.72-32.55c-0.12-10.98-0.06-21.96-0.42-32.93c-0.89-27.35,11.96-48.98,28.99-68.57
			c12.9-14.84,28.08-27.43,42.7-40.55c11.27-10.12,22.14-20.69,32.96-31.29c4.55-4.45,7.35-10.26,10.51-15.74
			c1.24-2.15,2.61-4.22,3.93-6.33C999.9,377.02,999.9,384.02,999.9,391.02z"/>
		<path class="st24" d="M0.11,499c17.38-10.81,35.86-19.81,52.48-31.9c14.93-10.85,28.31-23.21,38.84-38.47
			c5.72-8.28,7.86-17.5,6.99-27.46c-2.85-32.47,9.36-58.45,34-79.11c6.92-5.8,15.47-6.56,23.86-7.71
			c20.46-2.79,39.75-9.42,58.54-17.68c11.74-5.16,23.13-10.99,34.27-17.4c20.55-11.81,35.43-28.33,44.47-50.28
			c3.23-7.84,7.27-15.34,10.97-22.98c10.44-21.6,27.82-33.84,51.21-37.94c22.46-3.94,45.15-5.6,67.88-7.11
			c19.23-1.27,38.44-2.95,57.55-5.57c3.62-0.5,7.24-0.98,10.86-1.47c0.83,0.01,1.68,0.15,2.49,0.02c19.51-3.01,39.05-5.8,58.5-9.17
			c12.4-2.15,24.85-4.21,36.96-7.85c8.08-1.08,15.68-3.98,23.5-6.08c15.36-4.12,25.63-13.16,29.67-28.88
			c1.9-7.38,6.75-12.35,13.77-15.36c3.01-1.3,6.14-2.6,8.09-5.56c4.37-6.63,8.78-13.24,13.18-19.86c7.34-8.95,14.7-17.88,24.9-23.85
			c7.28-3.21,14.54-6.46,22.33-8.29c26.91-6.32,53.86-12.53,80.72-19.05c12.34-3,24.86-5.37,36.8-9.89c12,0,23.99,0,35.99,0
			c-10.95,4.49-22.53,6.84-33.89,9.91c-37.39,10.11-75.13,18.83-112.98,26.98c-23.04,4.96-39.13,18.13-50.66,37.89
			c-5.43,9.31-11.2,18.18-22.12,22.02c-2.81,0.99-4.24,3.51-5.32,6.28c-2.12,5.42-4.51,10.73-6.68,16.13
			c-2.76,6.85-7.68,11.52-14.21,14.74c-15.21,7.52-31.56,11.35-47.97,15.01c-4.71,1.05-9.42,2.07-14.13,3.1
			c-23.18,4.19-46.38,8.24-69.73,11.43c-3.08,0.42-6.37-0.32-9.25,1.42c-14.39,1.41-28.77,2.96-43.17,4.2
			c-16.56,1.43-33.16,2.53-49.73,3.86c-15.91,1.28-31.77,2.98-47.39,6.45c-16.37,3.63-28.06,13.29-35.56,28.08
			c-5.49,10.84-11.05,21.67-15.91,32.8c-9.15,20.93-24.75,35.56-44.01,46.87c-23.51,13.81-48.43,24.22-74.57,32.03
			c-10.84,3.24-21.63,6.5-32.69,8.85c-5.98,1.27-10.47,5.02-14.56,9.22c-17.19,17.61-24.89,38.56-22.2,63.22
			c1.5,13.7-2.39,26.01-10.47,37.04c-14.19,19.36-32.36,34.3-52.47,47.09c-14.77,9.4-30.8,16.51-45.86,25.38
			c-0.95,0.56-2.19,0.61-3.3,0.89C0.11,506.99,0.11,502.99,0.11,499z"/>
		<path class="st23" d="M589.97,136.92c-12.1,3.63-24.56,5.7-36.96,7.85c-19.44,3.37-38.99,6.16-58.5,9.17
			c-0.81,0.12-1.66-0.01-2.49-0.02c3.18-12.13,6.81-24.03,12.69-35.26c3.16-6.05,8.48-10.43,11.28-16.6
			c12.12-1.83,24.21-3.92,36.33-5.6c12.52-1.75,20.9-7.56,25.46-19.27c2.28-5.84,6.99-8.68,13.04-9.31
			c8.48-0.89,16.62-3.12,24.64-5.93c3.9-1.37,7.16-3.67,9.59-6.89c4.31-5.71,7.78-11.81,8.8-19.16
			c2.01-14.48,11.05-22.3,24.78-25.87c11.52-3,22.88-6.6,34.31-9.94c10.33,0,20.66,0,30.99,0c-0.15,3.42-1.48,6.49-3.23,9.31
			c-4.98,8.01-9.39,16.41-15.87,23.41c-1.13,1.22-1.88,2.74-1.78,4.52c-10.2,5.97-17.56,14.9-24.9,23.84
			c-0.64,0.13-1.42,0.07-1.9,0.43c-12.68,9.37-24.15,20.06-34.55,31.91c-0.76,0.87-1.43,1.88-2.34,2.56
			c-14.06,10.44-26.16,23.35-41.14,32.69C595.13,130.71,591.06,132.55,589.97,136.92z"/>
		<path class="st24" d="M692.97,0.1c-11.43,3.34-22.79,6.94-34.31,9.94c-13.72,3.58-22.77,11.39-24.78,25.87
			c-1.02,7.36-4.49,13.45-8.8,19.16c-2.43,3.22-5.68,5.52-9.59,6.89c-8.02,2.81-16.16,5.03-24.64,5.93
			c-6.06,0.64-10.77,3.48-13.04,9.31c-4.56,11.7-12.94,17.52-25.46,19.27c-12.12,1.69-24.21,3.78-36.33,5.6
			c-25.44,2.82-51.13,1.88-76.56,5.57c-18.56,2.7-37.39,3.47-56.06,5.49c-33.7,3.64-67.45,6.99-99.98,17.53
			c-19.24,6.23-31.14,18.2-34.05,38.71c-4.72,33.21-22.69,57.17-51.71,73.47c-12.51,7.03-25.45,13.03-38.55,18.82
			c-12.93,5.72-25.53,12.19-38.4,18.07c-11.98,5.48-24.59,9.24-37.07,13.38c-12.93,4.28-26.17,7.84-37.96,15.02
			c-9.88,6.02-17.04,13.69-18.85,25.97c-1.3,8.83-3.86,17.58-6.85,26.01c-4,11.28-11.19,20.68-19.85,28.91c0-7,0-14,0-21
			c5.23-3.87,7.41-9.44,9.08-15.47c3.06-11.05,3.81-22.8,8.85-33.2c7.26-15.02,18.79-26.44,33.96-33.12
			c24.55-10.81,50.8-17.03,75.9-26.4c22.79-8.51,45.21-17.84,66.04-30.61c21.39-13.11,36.24-31.34,40.23-56.3
			c5.19-32.45,25.24-48.92,55.34-56.67c25.36-6.53,51.06-10.63,77.08-13.27c29.44-2.99,58.94-5.52,88.3-9.4
			c9.21-1.22,18.58-1.3,27.9-1.61c15.1-0.5,30.19-1.6,45.07-4.53c8.23-0.31,15.95-3.15,23.94-4.63c6.64-1.23,11.08-4.42,13.54-10.9
			c5.23-13.76,16.41-19.9,30.18-19.5c14.25,0.42,21.63-6.31,25.55-18.82c0.4-1.27,0.85-2.52,1.17-3.81
			c2.66-10.95,9.47-18.47,19.32-23.49c4.11-2.1,8.27-4.12,12.4-6.17C666.97,0.1,679.97,0.1,692.97,0.1z"/>
		<path class="st24" d="M846.94,999.89c9.98-3.02,20-5.94,29.94-9.1c10.79-3.43,21.39-7.36,31.1-13.36
			c13.12-8.11,15.38-18.19,6.96-31.13c-5.89-9.06-14.13-15.37-23.54-20.32c-17.27-9.07-35.78-15.29-53.63-23.02
			c-15.11-6.54-30.51-12.49-44.69-20.98c-10.52-6.3-18.64-15-24.42-25.79c-3.3-6.16-6.7-12.31-9.36-18.75
			c-6.61-16.01-18.03-27.91-30.65-39.38c-17.28-15.72-37.12-26.77-58.22-36.13c-12.33-5.48-23.97-12.31-35.59-19.15
			c-5.13-3.02-9.1-7.26-12.28-12.21c-4.2-6.54-3.41-12.52,2.18-17.98c6.28-6.13,14.34-8.93,22.36-11.68
			c18.76-6.44,38.22-9.82,57.73-12.91c19.35-3.07,38.82-5.12,58.33-6.85c16.54-1.46,33.13-2.43,49.63-4.3
			c33.96-3.85,68.01-7.43,100.82-17.8c10.95-3.46,21.71-8,27.61-18.4c6.35-11.2,10.46-23.28,7.58-36.75
			c-3.45-16.14-2.31-32.5-0.58-48.69c0.97-9.05,6.8-16.43,11.13-24.31c6.4-11.65,17.31-17.6,27.98-23.98
			c4.1-2.45,7.85-5.6,12.58-6.92c0,4,0,8,0,12c-15.69,7.9-29.7,17.57-38.51,33.55c-5.38,9.75-4.4,20.32-5.39,30.64
			c-0.86,8.99,0.74,17.95,2.1,26.81c3.75,24.36-8.72,54.47-38.47,63.21c-21.1,6.2-42.5,10.65-64.22,13.74
			c-22.85,3.25-45.83,5.44-68.8,7.71c-13.89,1.37-27.88,1.87-41.75,3.4c-33,3.64-66.06,7.1-97.75,17.94
			c-5.38,1.84-10.57,4.08-15.1,7.57c-4.62,3.56-5.01,6.17-1.7,11.02c2.97,4.36,7.1,7.42,11.62,10.04
			c16.86,9.79,34.62,17.81,52.09,26.4c23.65,11.63,43.46,28.22,60.97,47.68c5.28,5.87,8.47,13.08,11.94,20.1
			c4.86,9.82,8.9,20.06,15.8,28.83c9.03,11.48,21.66,17.56,34.44,23.16c23.61,10.35,47.56,19.92,71.19,30.22
			c16.03,6.99,29.91,16.78,38.09,33c6.6,13.08,3.62,26.18-7.95,35.11c-10.19,7.87-22.09,12.14-33.99,16.45
			c-0.9,0.33-1.72,0.88-2.58,1.33C870.27,999.89,858.6,999.89,846.94,999.89z"/>
		<path class="st23" d="M653.98,0.1c-4.13,2.06-8.29,4.08-12.4,6.17c-9.85,5.02-16.67,12.54-19.32,23.49
			c-0.31,1.29-0.77,2.54-1.17,3.81c-3.92,12.51-11.3,19.24-25.55,18.82c-13.77-0.4-24.95,5.74-30.18,19.5
			c-2.47,6.48-6.9,9.67-13.54,10.9c-7.99,1.49-15.72,4.32-23.94,4.63c1.69-6.94,7.04-11.88,9.86-18.28
			c4.99-11.33,11.71-21.84,17.02-32.99c5.36-11.26,5.28-23.77,5.25-36.06C591.32,0.1,622.65,0.1,653.98,0.1z"/>
		<path class="st22" d="M703.08,37.34c-0.09-1.78,0.65-3.3,1.78-4.52c6.48-7,10.89-15.4,15.87-23.41c1.75-2.81,3.08-5.89,3.23-9.31
			c39.66,0,79.32,0,118.98,0c-11.94,4.52-24.46,6.9-36.8,9.89c-26.87,6.52-53.81,12.73-80.72,19.05
			C717.62,30.88,710.36,34.12,703.08,37.34z"/>
		<path class="st23" d="M696.97,999.89c9.8-3.34,19.92-5.45,29.97-7.85c-0.46,2.67-2.52,4.93-1.97,7.85
			C715.63,999.89,706.3,999.89,696.97,999.89z"/>
		<path class="st22" d="M589.97,136.92c1.09-4.37,5.16-6.22,8.27-8.16c14.99-9.35,27.08-22.25,41.14-32.69
			c0.91-0.68,1.58-1.69,2.34-2.56c10.4-11.85,21.87-22.54,34.55-31.91c0.48-0.35,1.26-0.29,1.9-0.43
			c-4.39,6.62-8.8,13.23-13.18,19.86c-1.95,2.96-5.08,4.26-8.09,5.56c-7.01,3.02-11.87,7.98-13.77,15.36
			c-4.05,15.72-14.32,24.76-29.67,28.88C605.65,132.94,598.05,135.85,589.97,136.92z"/>
	</g>
</g>
</svg>
