<?xml version="1.0" encoding="utf-8"?>
<!-- Generator: Adobe Illustrator 24.2.1, SVG Export Plug-In . SVG Version: 6.00 Build 0)  -->
<svg version="1.1" xmlns="http://www.w3.org/2000/svg" xmlns:xlink="http://www.w3.org/1999/xlink" x="0px" y="0px"
	 viewBox="0 0 1000 1000" style="enable-background:new 0 0 1000 1000;" xml:space="preserve">
<style type="text/css">
	.st0{display:none;}
	.st1{display:inline;}
	.st2{fill:#FBEFEF;}
	.st3{fill:#F47479;}
	.st4{fill:#FBEDED;}
	.st5{fill:#FDFAFA;}
	.st6{fill:#FEFBFB;}
	.st7{fill:#FDF8F8;}
	.st8{fill:#FDF9F9;}
	.st9{fill:#F8AFB1;}
	.st10{fill:#FBEEEE;}
	.st11{fill:#FBEDEE;}
	.st12{fill:#FBEAEA;}
	.st13{fill:#FBE6E6;}
	.st14{fill:#FAE5E5;}
	.st15{fill:#FBCED0;}
	.st16{fill:#FBE9EA;}
	.st17{fill:#FBD3D5;}
	.st18{fill:#FADCDD;}
	.st19{fill:#F9B6B8;}
	.st20{fill:#FEFCFC;}
	.st21{fill:#FDF7F8;}
	.st22{fill:#F8B8BA;}
	.st23{fill:#FDF2F2;}
	.st24{fill:#FCF2F2;}
	.st25{fill:#FDF7F7;}
	.st26{fill:#FEFDFD;}
	.st27{fill:#F7A8AA;}
	.st28{fill:#FEFAFA;}
	.st29{fill:#FAD4D5;}
	.st30{fill:#FBE0E1;}
	.st31{fill:#FBD6D7;}
	.st32{fill:#FBDADB;}
	.st33{fill:#FBDCDD;}
	.st34{fill:#FBDEDF;}
	.st35{fill:#FBE5E6;}
	.st36{fill:#FAD6D7;}
	.st37{fill:#FBE7E7;}
	.st38{fill:#FBD8D9;}
	.st39{fill:#FBE5E5;}
	.st40{fill:#FBECEC;}
	.st41{fill:#FAE4E5;}
	.st42{fill:#FBE1E2;}
	.st43{fill:#FBE9E9;}
	.st44{fill:#FADDDE;}
	.st45{fill:#F7A2A5;}
	.st46{fill:#FBD5D6;}
	.st47{fill:#FACBCC;}
	.st48{fill:#FBD9DA;}
	.st49{fill:#FBD4D5;}
	.st50{fill:#FBD3D4;}
	.st51{fill:#FBDDDE;}
</style>
<g id="Layer_1" class="st0">
	<g class="st1">
		<path class="st2" d="M381.96,999.94c-21.66,0-43.33,0-64.99,0c-3.17-6.77-3.18-14.2-4.19-21.37c-1.4-9.87-1.46-19.86-1.29-29.85
			c0.06-3.68,0.85-6.9,3.61-9.46c3.72-3.46,4.56-8.9,8.43-12.24c4.1-0.51,8.28-0.34,11.07-4.67c1.39-2.15,2.52-4,2.31-6.55
			c2.51-3,5.6-5.43,9.18-6.68c10.51-3.67,21.02-7.42,32.2-8.61c4.65-0.5,9.14-1.78,13.7-2.68c20.09-3.98,39.78-3.59,59.41,3.38
			c9.49,3.37,19.41,5.83,29.3,8.12c3.58,0.83,7.21,1.54,10.87,1.18c10.38-1.01,20.05,2.08,29.77,4.88
			c3.26,4.86,7.55,8.76,12.06,12.41c2.34,1.89,4.96,3.63,6.3,6.29c0.78,1.55,2.07,0.24,2.64,1.21c2.73,6.22,2.93,12.95,3.93,19.49
			c1.01,6.6,2.25,13.1,4.39,19.44c2.35,6.96,2.32,14.43,4.28,21.5c0.41,1.49,0.07,2.98-1.01,4.2c-31.66,0-63.33,0-94.99,0
			c-2.33-1.68-4.67-3.21-7,0c-11,0-22,0-33,0c-0.91-0.77-2.17-0.68-3.13-1.41c-6.29-4.78-11.31-4.99-17.66-0.73
			c-3.48,2.34-7.32,1.67-11.1,1.42C385.29,999.09,383.46,998.25,381.96,999.94z"/>
		<path class="st3" d="M553.94,999.94c-1.9-9.38-2.37-19.01-5.56-28.16c-3.85-11.04-3.66-22.89-6.37-34.17
			c-0.23-0.97-0.2-1.99-1.04-2.71c-0.81-0.59-1.49-1.33-1.92-2.22c-3.01-6.16-7.59-10.65-13.86-13.47c-1.18-0.53-2.34-1.21-3.17-2.3
			c-10.11-2.16-19.78-6.26-30.62-4.98c-8.18,0.97-15.97-2.47-23.78-4.64c-10.37-2.88-20.55-6.6-31.06-8.76
			c-14.91-3.07-30.04-2.79-44.89,0.79c-11.58,2.79-23.53,3.67-34.93,7.57c-7.15,2.45-14.13,4.71-19.66,10.09
			c-3.61,3.84-8.03,6.7-12.06,10.04c-4.4,4.93-5.81,12-11.53,16.04c-0.63,0.45-0.46,2.17-0.5,3.31
			c-0.51,15.82,0.74,31.52,3.38,47.12c0.36,2.12,0.41,4.29,0.6,6.43c-4,0-8,0-12,0c-0.34-7.79-0.71-15.58-1.01-23.38
			c-0.53-13.82,0.87-27.6,1.01-41.41c0.03-3.07,1.05-5.91,2.41-8.54c3.44-6.67,7.71-12.82,12.83-18.32
			c2.17-2.33,4.49-4.52,8.04-4.43c1.08,0.03,1.9-0.49,2.64-1.22c5.31-5.22,11.73-8.02,19.1-8.75c6.22-0.04,11.83-2.21,17.43-4.66
			c2.24-0.98,4.79-1.29,7.28-1.26c0.36-0.05,0.77,0.13,1.13-0.12c-0.42,0.17-0.87,0.09-1.34,0.1c-3.98,0.06-8.19,1.51-11.42-2.19
			c-7.37-2.83-11.27-9.32-14.98-15.46c-4-6.63-6.99-13.94-9.82-21.19c-2.09-5.34-1.89-11.07-0.66-16.72
			c1.51-6.94,1.44-14.07,3.41-21.05c5.67-20.03,20.24-32.73,35.45-45.06c1.01-0.82,2.02-1.64,2.68-3.4
			c-4.74,1.32-9.49,2.64-14.23,3.96c-13.1,7.53-26.9,12.93-42.19,13.79c-1.33,0.07-2.64,0.18-3.71-0.84
			c-1.21-0.53-2.41-1.08-3.63-1.59c-6.2-2.61-7.02-4.56-6.98-11.17c0.02-3.63-0.01-6.59,1.69-10.26
			c3.94-8.5,11.77-11.13,19.03-13.77c14.08-5.12,26.76-13.14,40.82-18.24c10.76-3.9,21.51-7.62,32.76-9.81
			c3.78-0.73,7.35-2.01,10.72-3.89c0.94-0.53,1.83-1,0.68-2.15c-1.42-1.46-1.3-3.03-0.03-4.43c1.43-1.59,1.77-3.5,1.98-5.49
			c-1.14-15.37-3.53-30.58-5.48-45.85c-0.66-5.2-0.88-10.61-0.24-15.79c0.83-6.68,7.89-12.36,16.81-12.72
			c7.68-0.31,15.98-0.22,20.82,7.86c1.51,2.51,3.61,4.89,0.68,7.98c-1.33,1.4-0.53,3.48-0.27,5.29c1.7,11.96,4.45,23.79,4.73,35.93
			c0.06,2.65,0.06,5.34-0.28,7.97c-0.73,5.66-0.79,5.72,4.87,5.18c5.34-0.51,10.57-1.83,15.22-4.35c8.11-4.41,14.54-1.3,20.84,3.6
			c2.31,2.07-0.73,4.94,1.06,7.09c0,0.29,0.07,0.56,0.21,0.81c1.94,2.72,3.25,5.58,1.98,9.01c-1.14,2.58-2.14,5.24-3.47,7.73
			c-1.25,2.35-2.93,3.71-6.02,4.36c-6.05,1.27-11.21,5.08-16.06,8.76c-8.45,6.41-17.82,10.28-28.16,11.71
			c-5.24,0.73-9.91,2.55-14.43,5.07c-4.2,2.34-8.64,4.04-14.86,5.02c8.05,3.36,14.81,6.25,22.14,7.14
			c14.74,1.8,26.09,9.66,32.57,22.11c5.41,10.41,8.2,22.57,3.21,34.61c-2.12,5.12-2.72,10.59-4.25,15.82
			c-7.28,24.87-22.42,42.17-48.18,49.09c2.16,2.36,5.01,1.33,7.49,1.7c6.28,0.94,12.26,2.93,18.22,4.94
			c13.28,4.48,27.06,6.61,40.83,8.76c6.92,1.08,13.97-2.05,20.83,0.12c10.33,3.27,21.3,4.47,30.16,12.08
			c10.93,9.37,16.18,21.19,17.91,34.98c1.22,9.69,2.16,19.28,5.55,28.7c3,8.33,3.74,17.47,5.47,26.25
			C561.94,999.94,557.94,999.94,553.94,999.94z"/>
		<path class="st2" d="M68.99,999.94c-20.33,0-40.66,0-60.99,0c-4.92-2.5-6.07-7.51-8-12c0-79.65,0-159.3,0-238.95
			c5.5-1.21,8.34,2.43,10.48,6.35c7.1,13.02,10.92,26.96,11.91,41.83c0.93,13.88,7.81,25.26,17.43,34.81
			c5.24,5.21,10.54,10.66,17.75,13.47c1.76,0.69,2.92,2.3,3.34,4.15c1.62,7.11,3.53,14.16,4.88,21.33
			c-0.79,5.06-1.16,10.04,2.77,14.2c1.43,4.32,1.96,8.85,1.87,13.29c-0.43,21.15,1.22,42.25,1.13,63.38c-0.01,2,0.16,4.04-0.33,5.97
			c-1.96,7.75-1.85,15.46-0.22,23.25C71.66,994.2,71.34,997.35,68.99,999.94z"/>
		<path class="st2" d="M316.96,0.13c79.32,0,158.65,0,237.97,0c3.3,7.15,4.59,14.67,2.64,22.3c-2.47,9.7-13.17,17.04-24.42,17.1
			c-11.84,0.06-23.65,0.53-35.13,3.67c-7.89,2.16-15.88,3.67-23.98,4.7c-1.32,0.17-2.64,0.36-3.97,0.14
			c-4.38-1.89-9.02-1.49-13.62-1.55c-3.94-0.06-7.9,0.37-11.79-0.74c-1.74-0.5-3.2,0.41-4.65,1.18c-4.48,1.13-8.96,0.9-13.32-0.39
			c-10.31-3.03-20.84-2.38-31.25-1.53c-11.11,0.91-21.93,0.45-32.52-3.06c-5.76-1.91-11.75-3-17.67-2.95
			c-11.38,0.1-17.43-7.37-23.04-15.25c-4.22-5.93-5.08-13.29-6.24-20.37C315.79,2.19,316.17,1.07,316.96,0.13z"/>
		<path class="st3" d="M68.99,999.94c1.18-5.31,0.32-10.5-0.65-15.75c-0.53-2.89-0.66-6.07-0.07-8.93
			c2.66-12.86,1.85-25.7,0.95-38.66c-0.78-11.27-0.22-22.63-0.24-33.94c-0.01-5.97-0.59-11.88-1.87-17.72
			c-1.7-4.48-2.69-9.07-2.33-13.9c-1.54-6.43-3.28-12.83-4.54-19.31c-0.58-2.98-2.05-4.57-4.6-5.93
			c-17.15-9.15-28.04-23.57-33.92-41.78c-2.29-7.1-1.07-14.82-2.57-22.2c-1.88-9.25-6.12-17.51-9.8-26
			c-1.69-3.9-5.35-5.75-9.34-6.84c0-7.33,0-14.66,0-22c1.96-2.42,4.84-2.69,7.6-3.27c9.94-2.08,20.04-2.98,30.1-4.15
			c3.15-0.37,6.25-0.92,9.23-2c6.25-2.26,10.62-7.7,10.5-14.32c-0.27-14.6-1.05-29.19-4-43.56c-0.83-4.05-3.34-5.88-7.31-6.17
			c-6.36-0.47-12.59,0.65-18.85,1.43c-7.66,0.96-15.25,0.67-22.8-0.9c-1.65-0.34-3.21-0.86-4.46-2.05c0-7.67,0-15.33,0-23
			c1.07-0.62,2.23-0.5,3.38-0.42c6.19,0.42,10.26-2.65,13.23-7.78c5.2-8.97,7.3-18.66,6.99-28.94c0.51-5.81-0.47-11.4-2.52-16.82
			c-1.88-6.49-4.79-12.4-9.83-17.08c-2.87-3.65-6.82-4.85-11.26-4.94c0-4,0-8,0-12c6.67-2.77,12,0.1,16.91,4.21
			c10.53,8.81,15.4,20.98,17.64,33.8c2.81,16.07,2.15,32.15-6.94,46.7c-1.4,2.23-2.87,4.42-4.92,7.56
			c7.24-1.87,13.67-2.36,20.27-1.41c15.59,2.25,27.44,15.76,28.23,31.31c0.62,12.25,1.26,24.53,3,36.73
			c2.14,14.97-6.96,28.84-21.14,34.06c-10.46,3.85-21.42,4.42-32.25,5.99c-1.75,0.26-3.48,0.72-5.38,1.12
			c8.34,9.88,10.89,21.93,14.28,33.44c4.06,13.76,8.14,27.39,16.78,39.07c6.15,8.32,13.22,15.76,22.02,21.45
			c5.75,3.72,6.24,5.46,4.36,12.05c-0.8,2.8-0.79,5.51-0.18,8.36c2.65,12.49,5.77,24.92,7.6,37.54c1.88,12.94,3.55,25.9,3.53,39.16
			c-0.02,11.5,0.95,23.13-2.08,34.17c-3.07,11.2-2.49,22.36-2.75,33.6C75.66,999.94,72.33,999.94,68.99,999.94z"/>
		<path class="st3" d="M982.89,999.94c0.13-0.26,0.17-0.53,0.12-0.82c-0.84-25.79-3.36-51.38-7.49-76.9
			c-3.22-19.88-6.99-39.67-9.83-59.61c-0.74-5.23-0.4-10.54-0.73-15.81c-0.42-5.29-0.83-10.58-1.25-15.87
			c-2.93-11.9-5.01-23.89-4.34-36.23c0.3-5.59,0.61-11.17,1.45-16.71c0.57-11.28,3.98-22.12,5.13-33.32
			c0.29-2.83-0.3-3.65-2.79-3.72c-4.81-0.13-8.67-1.96-12.18-5.39c-3.82-3.74-5.72-7.32-6.04-13.18c-1.18-21.6,1.48-42.61,6.94-63.4
			c3.37-12.45,15.26-22.12,29.1-23.5c-1.45-1.93-3.12-3.58-3.95-5.77c-7-12.04-7.94-25.34-8.41-38.84
			c-0.37-10.58,2.43-20.62,4.22-30.85c-0.11-1.34-0.37-2.68,0.03-4.02c7.19-8.26,17.67-10.59,27.01-14.99c0,4,0,8,0,12
			c-3.16,4.6-8.68,4.83-13.1,7.1c-7.23,1.44-8.53,6.76-8.54,12.97c0,2.3,0.1,4.61-0.4,6.89c-1.27,14.33,0.33,28.18,6.85,41.19
			c1.93,3.86,5.31,5.83,9.54,6.37c1.95,0.25,4.04-0.08,5.66,1.46c0,7.33,0,14.66,0,22c-1.68,1.39-3.47,0.74-5.22,0.25
			c-2.57-0.71-5.15-1.35-7.76-1.89c-14.01-2.91-24.02,4.07-26.69,18.17c-2.79,14.71-1.71,29.52-1.79,44.31
			c0,0.33,0.06,0.66,0.1,0.99c1.36,11.26,4.57,14.38,16.05,14.62c7.46,0.16,14.98,0.77,22.4-0.83c0.99-0.21,1.99-0.16,2.91,0.35
			c0,7.33,0,14.66,0,22c-2.05,0.93-3.91-0.05-5.8-0.59c-2.08-0.6-4.11-1.37-6.26-1.69c-8.05-1.19-10.23,0.37-12.68,8.17
			c-3.85,12.3-3.92,24.75-3.28,37.52c0.62,12.36,2.81,24.43,4.28,36.64c1.04,8.65,3.44,16.97,5.64,25.32
			c3.91,14.83,7.06,29.88,9.29,44.96c3.54,23.97,8.84,47.82,7.91,72.32c-0.17,4.39-0.06,8.92,0.89,13.31c0,0.67,0,1.33,0,2
			c-0.82,3.67-0.82,7.33,0,11c0.4,1.73-0.26,2.11-2,2.05C992.89,999.84,987.89,999.94,982.89,999.94z"/>
		<path class="st3" d="M316.96,0.13c1.55,12.59,4.41,24.45,15.18,32.94c3.06,2.41,5.94,3.91,9.75,4.16
			c8.45,0.56,16.72,1.76,24.89,4.42c8.41,2.74,17.37,2.82,26.17,2.15c12.29-0.94,24.5-1.79,36.55,1.91
			c3.35,1.03,6.92,0.73,10.41,0.51c10-0.13,20.01-0.71,29.98,0.71c12.66-0.81,24.71-4.82,37.09-7.11
			c9.05-1.67,18.24-1.04,27.33-1.75c8.13-0.64,19.66-5.89,22.09-15.81c1.38-5.63,0.26-10.88-0.79-16.24
			c-0.38-1.97-0.84-3.89-0.67-5.91c3.67,0,7.33,0,11,0c2.79,10.36,5.06,20.68,0.25,31.14c-2.82,6.14-7.1,10.43-13.15,13.67
			c-9.92,5.31-20.26,6.91-31.3,6.11c-13.37-0.97-25.79,4.23-38.63,6.63c-11.83,2.21-23.55,3.54-35.63,2.91
			c-9.26-0.49-18.46-0.38-27.67-2.34c-8.3-1.77-16.82-0.47-25.31,0.34c-12.24,1.17-24.59,1.46-36.47-3.02
			c-4.71-1.78-9.7-2.13-14.69-2.47c-10.46-0.73-18.67-4.54-25.04-13.79c-8.29-12.02-11.94-24.95-12.33-39.17
			C309.63,0.13,313.3,0.13,316.96,0.13z"/>
		<path class="st2" d="M999.89,984.94c-1.83-4.17-1.67-8.71-1.74-13.04c-0.29-17.84-3.48-35.3-5.67-52.92
			c-2.05-16.52-5.6-32.69-8.62-48.98c-2.23-12.05-6.14-23.79-8.33-35.84c-3.41-18.77-5.81-37.69-5.68-56.86
			c0.07-9.62,2.65-18.67,5.35-27.72c1-3.35,3.67-4.39,6.91-4.71c6.42-0.62,12.03,1.99,17.78,4.12
			C999.89,827.64,999.89,906.29,999.89,984.94z"/>
		<path class="st2" d="M0,652.01c14.52,3.97,29.02,0.76,43.54-0.04c8.31-0.46,10.04,1.59,11.78,9.81
			c2.46,11.59,2.15,23.41,3.65,35.06c2.1,16.23-6.73,22.7-20.71,24.15c-12.85,1.34-25.71,2.7-38.26,5.99C0,702,0,677,0,652.01z"/>
		<path class="st2" d="M999.89,726.99c-11.45,3.21-22.95,2.46-34.46,0.42c-4.12-0.73-6.35-3.27-7-7.33
			c-0.45-2.78-1.37-5.55-1.38-8.32c-0.05-14.76-0.66-29.49,1.63-44.25c1.66-10.68,7.9-16.53,17.03-20.07
			c5.91-2.29,11.7,0.85,17.49,1.93c2.25,0.42,4.26,1.91,6.7,1.63C999.89,676.33,999.89,701.66,999.89,726.99z"/>
		<path class="st2" d="M0,39.12c0-13,0-26,0-38.99c23,0,45.99,0,68.99,0c1.76,5.18-0.51,10.15-0.99,15.19
			c-0.58,6.11-2.35,12.08-3.74,18.07c-1.36,5.84-4.35,8.71-10.25,8.04c-12.25-1.4-24.15,1.08-36.2,1.99
			C11.59,43.88,5.07,44.13,0,39.12z"/>
		<path class="st3" d="M0,39.12c9.38,4.53,19.33,3.35,28.88,1.68c8.2-1.44,16.14-1.3,24.27-0.65c6.65,0.53,8.42-1.33,9.92-7.7
			c2.5-10.68,3.84-21.56,5.92-32.32c3.33,0,6.67,0,10,0c0.16,13.68-1.6,27.2-3.8,40.64c-1.6,9.76-9.81,16.82-19.75,16.2
			c-9.86-0.61-19.5,0.15-29.23,1.07C17.39,58.88,8.62,58.42,0,56.12C0,50.45,0,44.79,0,39.12z"/>
		<path class="st2" d="M24.87,591.96c0.6,10.92-1.97,21.05-7.54,30.44c-3.98,6.7-9.83,8.93-17.34,6.61c0-24.66,0-49.32,0-73.99
			c1.14-1.96,2.7-1.16,4.27-0.73c2.65,0.72,4.91,2.45,7.64,2.94c5.58,4.27,8.22,10.28,9.98,16.82
			C22.75,580.05,24.41,585.91,24.87,591.96z"/>
		<path class="st2" d="M986.83,558.99c4.35-1.99,8.71-3.97,13.06-5.96c0,25.33,0,50.66,0,75.99c-13.73,1.65-17.66-6.1-21.47-20.64
			c-2.2-8.41-2.67-17.25-2.28-26.03c0.04-0.79,0.41-1.56,0.63-2.33C978.17,572.07,982.2,565.38,986.83,558.99z"/>
		<path class="st3" d="M999.89,56.12c-12.65-4.59-17.9-13.62-18.31-27.03c-0.3-9.76-1.95-19.41,1.31-28.96c5,0,10,0,15,0
			c1.5,1.81,0.96,3.75,0.23,5.61c-2.62,6.73-2.42,13.59-0.7,20.39c1.01,3.97,0.22,8.3,2.46,11.99
			C999.89,44.12,999.89,50.12,999.89,56.12z"/>
		<path class="st4" d="M999.89,38.12c-4.75-4.83-3.53-11.44-4.84-17.22c-1.2-5.28-0.74-10.89,1.97-15.98
			c0.78-1.47,1.25-3.07,0.87-4.79c2.49-0.63,1.99,1.17,1.99,2.5C999.89,14.46,999.89,26.29,999.89,38.12z"/>
		<path class="st5" d="M381.96,999.94c0.13-2.25,1.21-2.79,3.3-2.04c5.38,1.93,10.08,1.48,14.43-2.95
			c3.28-3.34,13.26-1.78,16.22,1.86c0.91,1.13,2.03,2.09,3.05,3.13C406.62,999.94,394.29,999.94,381.96,999.94z"/>
		<path class="st6" d="M0,987.94c2.67,4,5.33,8,8,12c-8,0-8,0-8-8C0,990.61,0,989.28,0,987.94z"/>
		<path class="st7" d="M11.91,557.24c-2.36,1.87-3.88-0.88-5.86-1.05c-2.06-0.19-3.7-2.53-6.05-1.16c0-0.67,0-1.33,0-2
			C5.52,550.06,8.76,553.53,11.91,557.24z"/>
		<path class="st8" d="M451.95,999.94c0.02-1.49-0.05-3.57,1.76-3.54c2.19,0.04,4.57,0.78,5.24,3.54
			C456.62,999.94,454.28,999.94,451.95,999.94z"/>
		<path class="st9" d="M999.89,997.94c-1.7-3.67-1.55-7.33,0-11C999.89,990.61,999.89,994.27,999.89,997.94z"/>
		<path class="st3" d="M691.85,231.06c4.73-4.83,10.51-6.12,17.15-6.12c7.44,0,14.35-4,21.85-3.09c0.35-2.14-0.92-2.31-1.6-2.74
			c-9.41-5.94-12.88-15.09-14.38-25.55c-2.31-16.09,0.84-31.76,3.31-47.47c1.09-6.91,1.92-13.81,1.84-20.8
			c0.37-0.59,0.4-1.24,0.41-1.91c0.09-6.48-0.24-6.62-6.66-7.48c-2.62-0.35-5.31,0.31-7.84-0.71c-6.21-1.4-12.05-3.67-17.58-6.88
			c-12.31-7.14-15.77-21.19-7.87-33c2.98-4.45,6.57-8.44,11.24-11.21c14.91-8.86,28-20.34,41.66-30.78
			c13.77-10.52,27.22-11.87,42.44-8.18c8.76,2.12,13.89,8.82,15.2,17.36c2.3,14.92,2.56,30.22,6.36,44.84
			c1.98,7.62-0.27,12.76-4.62,18.15c-2.64,3.28-5.62,5.62-10,5.75c-1.49,0.04-2.98,0.25-4.59,1.62c9.58,9.3,8.19,21.83,9.75,33.57
			c1.98,14.96,0.45,29.92,0.08,44.88c-0.12,4.8,0.16,9.48,1.42,14.29c1.6,6.11-1.22,11.7-5.27,16.95c4.42,2.36,8.86,4.38,12.91,7.15
			c5.07,3.47,8.33,8.22,8.56,13.97c0.45,11.62,3.73,22.82,3.33,34.64c-0.7,20.77-1.65,41.52-2.81,62.27
			c-0.52,9.31-0.93,18.51-3.11,27.65c-2.5,10.46-7.71,18.25-18.13,21.98c-6.18,3.46-13.28,3.3-19.91,5.02
			c-1.1,0.28-2.27,0.28-3.34,0.72c-15.61,5.79-31.1,2.95-46.42-1.07c-12.12-3.18-19.55-11.72-24.56-22.9
			c-4.67-10.43-5.22-21.86-8.55-32.51c-3.09-9.89-3.57-19.57-2.02-29.41c1.04-6.62,1.35-13.13,0.91-19.75
			c0.94-14.51,4.48-28.7,4.76-43.34C685.88,241.47,685.43,234.63,691.85,231.06z"/>
		<path class="st3" d="M396.87,346.24c1,5.84,3.4,11.46,3.03,17.52c-0.54,8.79-5.68,14.53-12.8,18.88
			c-2.39,1.46-4.82,2.82-7.24,4.23c-2.36,2.98-5.39,4.08-9.14,3.69c2.54,0.23,5.24,0.4,7.23,2.38c3.49,1.07,6.96,2.22,10.47,3.21
			c14.78,4.17,26.87,12.47,35.75,24.83c8.63,12.01,7.35,23.68-1.72,35.3c-9.55,12.24-22.19,18.95-36.75,23.16
			c-9.87,2.86-19.22,8.37-29.51,8.82c-17.75,0.78-35.19,5.25-53.1,3.8c-13.48-1.09-26.33-10.77-30.93-23.38
			c-3.78-10.35-5.98-21.01-7.11-31.91c-0.36-3.47-0.2-6.95,0.82-10.38c4.86-16.27,11.59-31.06,28.03-39.18
			c3.91-1.93,6.15-6.39,11.24-7.24c6.21-1.04,12.18-1.16,18.51,1.21c0.05-2.3-1.19-3.46-2.13-4.63
			c-10.11-12.57-13.13-26.23-8.03-41.94c2.22-6.85,1.26-14.54,3.72-21.52c-0.58-2.03,1.15-3.6,1.42-6.1
			c-3.53,3.01-4.9,7.31-8.87,8.97c-3.44,0.54-6.67,1.84-10.13,2.45c-3.42,0.6-6.2-0.07-9.02-1.59c-10.35-5.59-12.6-20.82-4.07-29.05
			c6.57-6.34,12.58-13.2,19.26-19.45c5.85-5.47,11.88-10.82,18.51-15.01c8.8-5.56,18.98-8.5,29.32-10.14
			c4.9-0.77,9.97-0.37,14.88-1.11c7.27-1.09,12.16,1.78,15.47,8.01c2.5,5.22,1.8,8.68-2.62,12.18c-1.17,0.92-2.12,2.13-3.51,2.77
			c-6.34,9.33-14.75,16.42-25.02,22.52c5.67,2.05,11.18,2.52,15.8,5.3c11.05,6.64,17.62,16.49,20.37,29
			c0.17,0.79,0.44,1.56,0.66,2.33C393.77,330.96,395.01,338.7,396.87,346.24z"/>
		<path class="st2" d="M964.97,846.81c2.54,9.46,2.88,19.27,4.4,28.89c1.86,11.8,4.39,23.46,6.17,35.27
			c4.07,27.07,7.69,54.18,9.11,81.54c0.12,2.37-0.26,4.61-1.63,6.61c-2.18-2.7-4.27-5.48-6.56-8.09c-5.62-6.43-6.4-14.11-5.34-22.01
			c2.38-17.67,2.45-35.15-0.8-52.82c-2.5-13.6-4.77-27.29-5.61-41.2C964.13,865.55,963.28,856.2,964.97,846.81z"/>
		<path class="st2" d="M691.85,231.06c-5.1,4.3-4.23,10.52-4.87,16.1c-0.52,4.59-0.91,9.33-0.74,13.91
			c0.38,10.21-4.41,19.33-5.23,29.21c0.29-7.99-3.27-15.44-3.16-23.44c0.09-6.23,1.37-12.13,3.69-17.8c1.72-4.21,4.69-7.79,5-12.73
			C686.7,233.82,688.87,231.59,691.85,231.06z"/>
		<path class="st2" d="M319.01,779.8c11.32-1.38,22.73-2.26,32.99-8.08c4.02-2.27,8.09-4.62,12.9-4.88
			c-0.93,1.34-2.4,2.57-2.72,4.05c-1.82,8.42-8.85,9.73-15.39,10.93c-8.43,1.55-16.97-2.09-25.54-0.34
			C320.48,781.65,319.4,780.86,319.01,779.8z"/>
		<path class="st10" d="M977.03,629.72c1.84,1.85,3.67,3.7,5.91,5.97c-14.31,3.06-25.53,9.49-31.06,23.3
			c0.8-10.64,5.31-18.86,15.24-23.64c2-0.96,4.01-1.64,6.19-1.31C976.98,634.59,978.06,633.11,977.03,629.72z"/>
		<path class="st2" d="M960.83,777.99c0.03,7.13,0.33,14.27,0.04,21.38c-0.38,9.02,1.68,17.76,2.5,26.64
			c0.15,1.64,0.24,3.29,0.35,4.93C956.24,813.65,956,795.96,960.83,777.99z"/>
		<path class="st11" d="M761.65,395.93c7.22-4.08,15.41-4.21,23.25-5.74C778.74,398.53,770.33,397.78,761.65,395.93z"/>
		<path class="st12" d="M375.9,888.87c-4,0.89-8.16,1.35-11.95,2.79c-4.58,1.74-9.14,2.56-13.97,2.24c2.21-1.78,5.07-1.34,7.51-1.66
			c4.26-0.57,5.76-2.53,5.57-6.46c4.19,1.27,8.5,1.32,12.82,1.33C376.55,887.68,376.54,888.27,375.9,888.87z"/>
		<path class="st13" d="M705.93,115.18c3.76-0.14,7.51,0.08,11.25-0.75c3.26-0.72,5.79-0.19,4.13,4.2c-0.81,2.14,0.17,4.64-1.3,6.65
			c-0.27-5.18-3.9-8.54-9.89-9.15C708.69,115.98,707.09,116.54,705.93,115.18z"/>
		<path class="st10" d="M396.87,346.24c-3.68-6.94-4.92-14.68-7.19-22.08C395.46,330.41,397.33,337.95,396.87,346.24z"/>
		<path class="st14" d="M309.77,315.96c4.02-3.03,4.63-9.43,11.69-11.43c-1.76,3.57-3,6.06-4.24,8.56
			C314.25,312.77,312.68,316.12,309.77,315.96z"/>
		<path class="st15" d="M377.88,265.01c0.83-1.19,1.41-2.8,2.54-3.5c4.65-2.84,4.99-6.82,3.59-11.45
			C388.65,254.77,385.59,264.04,377.88,265.01z"/>
		<path class="st16" d="M377.96,392.93c-2.71-0.66-5.42-1.33-8.63-2.12c3.84-1.44,7.19-2.7,10.53-3.96
			C380.73,389.36,376.27,390.18,377.96,392.93z"/>
		<path class="st17" d="M416.05,699c1.47,1.68,1.01,3.29-0.38,4.65c-1.53,1.51-1.93,3.25-1.57,5.26c-0.85-0.18-1.91-0.74-1.76-1.45
			C412.99,704.42,413.76,701.36,416.05,699z"/>
		<path class="st18" d="M494.82,701.17c-2.36-2.06-0.91-4.7-1.06-7.09C498.04,695.86,494.29,698.84,494.82,701.17z"/>
		<path class="st18" d="M497,711c0.68-3.3-1.58-5.95-1.98-9.01C498.76,704.31,498.83,707.45,497,711z"/>
		<path class="st19" d="M972.88,556.02c0.53,1.34,1.76,2.69-0.03,4.02C969.37,558.66,972.03,557.35,972.88,556.02z"/>
		<path class="st20" d="M522.02,916.91c9.41,2.74,15.87,8.58,18.95,17.99c-0.19,0.41-0.39,0.83-0.58,1.24
			c-5.59-6.66-13.31-11.1-18.64-18.02C521.59,917.91,521.92,917.32,522.02,916.91z"/>
		<path class="st6" d="M325.01,927.03c2.56-5.1,7.26-7.63,12.06-10.04c0.83,0.14,1.96,0.38,1.7,1.36c-1.03,3.85-4.64,5.82-6.96,8.72
			C330.4,928.84,327.3,928.53,325.01,927.03z"/>
		<path class="st2" d="M346.86,848.14c-0.69-0.59-1.25-1.67-0.67-2.16c5.97-5.08,4.04-12.03,3.79-18.15
			c-0.41-9.74,3.64-17.73,9.31-24.55c7.96-9.58,17.27-18.11,27.66-25.08c8.08-5.42,17.16-7.54,27.01-4.82
			c7.19,1.99,14.55,3.3,21.86,4.82c17.46,3.62,30.35,18.34,24.79,37.68c-1.1,3.82-1.95,7.71-2.96,11.56
			c-3.99,15.19-12.27,27.45-24.97,36.74c-2.05,1.5-4.3,2.43-6.63,3.36c-8.17,3.26-16.93,4.54-25.09,8.02
			c-8.33,3.55-17.11,1.43-25.9,0.63c-9.36-0.85-14.63-6.08-19.37-12.84c-2.09-2.98-3.67-6.31-5.48-9.48
			C349.1,851.95,349.89,848.93,346.86,848.14z"/>
		<path class="st2" d="M378.67,727.78c6.55-4.69,14.44-4.36,21.86-5.68c2.42-0.43,5.17-0.07,7.32-1.17
			c8.1-4.17,16.92-4.61,25.64-6.05c4.99-0.82,10.42-2.64,12.81-8.34c0.85-2.03,3.09-2.26,4.73-2.16c9.36,0.55,18.02-2.57,26.81-4.91
			c3.56-0.95,5.92-0.01,7.11,3.4c1.22,3.48,2.57,7.25-1.46,9.84c-8.8,5.67-17.75,11.07-26.03,17.54c-3.7,2.89-8.46,3.76-13.21,3.74
			c-5.77-0.03-11.24,1.25-16.31,3.93c-11.86,6.26-24.93,8.63-37.61,12.37c-15.05,4.44-30.93,6.43-44.88,14.36
			c-1.85,1.05-3.6,2.29-5.01-1.09c-1.05-2.5-3.8-3.01-6.48-1.96c-2.64,1.03-5.19,2.4-7.91,3.03c-1.8,0.42-4.56,2.76-5.58-0.27
			c-0.77-2.29-0.28-5.32,2.49-6.95c4.72-2.78,9.03-6.24,14.24-8.19c2.33-0.87,4.57-1.97,6.85-2.97
			C356.36,741.52,367.85,735.26,378.67,727.78z"/>
		<path class="st2" d="M442.87,679.08c0.59,7.01-1.87,13.23-5.87,18.99c-1.63,2.36-3.54,3.78-6.64,3.32
			c-3.22-0.47-2.7-3.22-2.98-5.02c-2.04-13.09-4.42-26.1-6.98-39.1c-0.93-4.72-2.04-10.24-0.44-15.53
			c1.78-5.93,12.42-9.51,17.09-5.41c0.53,0.47,0.87,1.42,0.91,2.16c0.57,12.13,2.97,24.01,4.89,35.96
			C443.07,675.91,442.87,677.44,442.87,679.08z"/>
		<path class="st20" d="M378.67,727.78c0.79,0.57,0.51,0.98-0.15,1.44c-10.06,6.98-20.61,13.05-32.22,17.14
			c-0.81,0.29-1.53,0.61-2.24-0.13C354.89,738.75,366.22,732.22,378.67,727.78z"/>
		<path class="st21" d="M346.86,848.14c1.12-1.41,2.6-3.79,2.95,0.2c0.16,1.81,1.57,3.62,0.4,5.53
			C348.66,852.21,347.31,850.44,346.86,848.14z"/>
		<path class="st22" d="M375.9,888.87c-0.01-0.59-0.02-1.18-0.03-1.77c0.99-0.11,2.25,0.02,2.22,1.08
			C378.05,889.52,376.7,888.78,375.9,888.87z"/>
		<path class="st23" d="M64.79,871.04c0.64,4.65,2.94,9.03,2.33,13.9C62.82,880.9,63.64,876,64.79,871.04z"/>
		<path class="st24" d="M469.89,46.95c-10.01,0.35-20.01,0.57-29.97-0.71c0.77-1.85,2.35-2.49,4.07-2.03
			c6.4,1.7,12.89,0.61,19.34,0.89C465.69,45.2,467.9,45.62,469.89,46.95z"/>
		<path class="st7" d="M24.87,591.96c-1.48-5.89-3.97-11.6-2.98-17.9C24.79,579.71,25.59,585.71,24.87,591.96z"/>
		<path class="st6" d="M986.83,558.99c0.13,0.42,0.51,1.02,0.36,1.24c-4.33,6.15-7.38,12.96-10.42,19.78
			c0.04-2.65,0.05-5.3,0.12-7.95C977.13,562.86,977.88,561.89,986.83,558.99z"/>
		<path class="st2" d="M690.09,313.15c2.76-10.38,0.12-21.33,2.97-31.6c2.44-8.79,3.18-17.59,2.87-26.59
			c-0.1-2.89,0.78-5.57,1.33-8.33c1.54-7.7,7.51-8.68,13.87-9.42c13.33-1.55,26.62-3.35,39.94-4.95c14.21-1.71,26.6,4.03,38.99,9.72
			c1.57,5.96,4.8,11.24,6.9,16.99c1.77,3.44,1.17,7.16,1.05,10.75c-0.53,15.78-2,31.56-1.64,47.31c0.32,13.86-1.4,27.46-2.52,41.15
			c-0.35,4.3-1.8,8.42-3.25,12.5c-1.6,4.49-4.86,7.71-9.39,7.93c-11.59,0.57-22.3,4.98-33.58,6.83c-5.22,0.86-10.26,0.36-15.32-0.74
			c-4.21-0.91-8.41-1.9-12.61-2.87c-8.07-1.87-13.31-7.18-16.97-14.23c-4.3-8.29-7.39-16.99-9.01-26.24
			c-0.74-4.21-2.37-8.27-3.6-12.39C690.04,323.7,690.98,318.42,690.09,313.15z"/>
		<path class="st2" d="M776.98,180.82c0,8.32,0.05,16.64-0.02,24.96c-0.04,5.16-2.07,7.23-7.28,7.25c-6.47,0.03-13.02-0.79-19,2.68
			c-0.96,0.56-1.93,0.3-2.77-0.39c-0.51-0.42-0.96-0.97-1.53-1.27c-17.21-8.96-19.37-24.3-17.44-41.31
			c1.79-15.82,4.9-31.47,5.89-47.39c0.3-4.9,2.46-8.02,7.74-8.69c4.42-0.56,8.54-2.69,13.12-2.66c9.43,0.06,18.36,8.68,19.3,18.03
			C776.62,148.27,776.92,164.54,776.98,180.82z"/>
		<path class="st2" d="M728.71,100.93c-7.06,1.7-14.26,1.33-21.37,1.01c-5.61-0.25-10.54-3.15-14.62-6.82
			c-2.85-2.56-3.69-6.35-1.72-10.06c2.43-4.59,5.17-8.79,10.35-11c5.87-2.5,10.61-6.83,15.43-10.91
			c10.32-8.76,22.2-15.34,33.58-22.39c6.3-3.91,15.44-4.77,23.29-0.25c3.21,1.85,3.68,4.97,4.16,8.07
			c2.09,13.45,2.36,27.12,4.87,40.53c0.77,4.11-1.03,7.23-5.53,7.99c-8.08,1.37-16.03,2.18-23.86-1.74
			c-6.12-3.06-12.72-3.7-19.34-1.19C730.97,95.47,730.7,98.87,728.71,100.93z"/>
		<path class="st25" d="M796.96,258.97c-0.21,0.39-0.42,0.78-0.63,1.17c-2.43-5.52-4.88-11.04-7.22-16.6
			c-0.14-0.33,0.62-1.03,0.96-1.56c3.56,1.38,4.54,4.49,5.19,7.8C795.86,252.84,796.39,255.91,796.96,258.97z"/>
		<path class="st26" d="M690.09,313.15c1.36,5.27,1.3,10.55,0.03,15.82C688.5,323.7,689.96,318.42,690.09,313.15z"/>
		<path class="st27" d="M728.71,100.93c0.76-3.02,1.63-5.95,5.24-6.75C731.87,96.17,731.68,99.63,728.71,100.93z"/>
		<path class="st2" d="M347.32,475.78c-10.11-0.56-19.63,3.32-29.61,3.95c-12.57,0.79-24.5,0.09-33.6-9.94
			c-6.26-6.9-7.79-15.98-10.09-24.62c-3.9-14.65-0.01-27.81,7.71-40.31c5.78-9.36,14.67-13.72,24.87-15.85
			c4.83-1,9.5,1.1,13.03,4.05c11.97,10.03,26.63,10.2,40.89,12.08c14.66,1.93,29.29,4.02,42.05,12.39
			c6.23,4.08,11.61,8.79,13.55,16.53c0.68,2.74,1.04,5.33-0.19,7.76c-3.63,7.17-7.82,13.8-15.28,17.85
			c-14,7.6-29.6,10.65-44.4,15.96C353.59,476.59,350.31,475.78,347.32,475.78z"/>
		<path class="st2" d="M390.15,350.88c-0.46,5.75-0.71,9.73-1.13,13.69c-0.36,3.4-2.52,5.93-5.12,7.65
			c-9.78,6.49-20.52,9.92-32.39,9.22c-0.5-0.03-0.99-0.09-1.49-0.15c-5.31-0.63-11.6,1.92-15.67-2.8
			c-6.59-7.64-13.1-15.55-15.18-25.93c-0.24-1.22,0.03-2.29,0.56-3.36c2.91-5.9,4.12-12.28,4.81-18.7
			c0.69-6.32,3.26-11.78,6.37-17.12c7.82-13.46,26.2-15.91,38.59-6.57c10.34,7.8,13.6,18.82,17.31,29.91
			C388.52,341.82,390.91,346.95,390.15,350.88z"/>
		<path class="st2" d="M304.92,279.92c9.7-9.51,20.37-17.25,33.99-20.37c8.05-1.84,15.77-5.12,24.31-4.53
			c3.47,0.24,4.69,0.35,2.83,4.44c-3.47,7.63-8.94,13.2-15.81,17.44c-8.47,5.24-17.12,10.21-25.89,14.9
			c-6.88,3.68-13.99,6.88-20.19,11.76c-3.07,2.42-6.34,2.62-9.31-0.44C296.56,294.68,298.84,286.47,304.92,279.92z"/>
		<path class="st28" d="M304.92,279.92c-3.78,6.98-7.11,14.13-8.59,22.01c-0.09,0.48-0.96,0.81-1.47,1.21
			c-2.96-3.5-2.76-6.91-0.23-10.69C297.66,287.91,300.58,283.35,304.92,279.92z"/>
	</g>
</g>
<g id="Layer_2" class="st0">
	<g class="st1">
		<g>
			<path class="st29" d="M999.89,56.12c0,161.64,0,323.27,0,484.91c-3.82,2.9-7.95,5.33-12.44,6.94c-5.07,1.82-9.4,4.65-13.27,8.29
				c-2.02,1.7-0.4,3.6-0.3,5.43c-1.9,10.95-4.15,21.81-3.54,33.08c0.65,11.89,1.93,23.51,7.97,34.07c1.16,4.7-2.01,5.84-5.5,6.26
				c-12.28,1.48-19.3,13.38-19.2,23.54c-2.58,10.48-5.01,20.99-6.45,31.69c-1.61,11.91-1.12,23.9-0.33,35.79
				c0.43,6.54,6.16,9.81,11.62,12.52c1.02,0.51,2.29,0.41,3.3,1.03c1.05,2.47,3.73,1.76,5.52,2.81c0.76,1.96,0.39,3.97,0.01,5.87
				c-1.96,9.86-3.72,19.75-5.28,29.68c-4.41,15.68-3.38,31.33,0.33,46.95c0.2,0.83,0.9-0.67,1.44-0.08c0.7,0.53,1.24,1.25,1.26,2.05
				c0.19,7.53,1.98,14.95,1.56,22.52c-2.56,7.48-1.14,15.11-0.68,22.65c1.2,19.43,5.49,38.46,7.87,57.74
				c1.48,11.94,1.36,23.98-0.67,35.75c-2.2,12.75,1.38,22.88,10.58,31.46c0.93,1.3,0.3,2.15-0.83,2.86c-138.98,0-277.97,0-416.95,0
				c-3.2-3.59-3.4-8.25-4.23-12.59c-1.33-7.03-2.68-13.99-5.14-20.78c-2.45-6.75-2.28-14.08-3.17-21.17
				c-1.8-14.27-6.85-26.97-19.12-35.29c-11.5-7.79-24.46-11.92-38.53-10.85c-9.14,0.7-17.91-1.19-26.72-2.74
				c-10.48-1.85-20.9-4.22-30.85-8.12c-4.04-1.58-8.57-1.39-12.38-3.68c-1.13-0.94-1.76-2.1-1.58-3.61c0.56-2.1,2.4-2.7,4.13-3.2
				c8.5-2.47,15-8.1,20.77-14.27c9.36-9.98,16.23-21.51,18.23-35.42c0.52-3.64,1.86-7.06,2.91-10.57
				c4.49-15.04,2.33-29.1-7.94-41.13c-6.51-7.62-14.89-12.75-25.18-14.07c-6.83-0.88-13.18-3.5-19.63-5.71
				c-1.37-0.47-3.06-1.05-2.85-2.97c0.17-1.6,1.73-1.9,2.99-2.22c3.09-0.78,6.05-1.89,8.82-3.44c6.03-3.37,12.43-5.44,19.27-6.53
				c8.66-1.38,16.47-4.84,23.67-10.06c5.75-4.17,11.77-7.99,18.71-10.32c5.39-1.81,6.38-7.2,7.19-12.21
				c0.23-1.46-0.36-2.98,0.01-4.47c0.16-0.47,0.43-0.88,0.77-1.24c2.76-4.07,0.94-9.59-4.37-12.64c-1.86-1.07-3.85-1.93-5.72-3.03
				c-6.99-4.14-9.16-3.8-14.48,2.09c-2.62,2.17-5.84,2.98-9,3.84c-1.04,0.28-1.56,0.68-1.72,1.68c-1.72,1.38-3.74,1.22-5.74,1.1
				c-2.79-0.18-4.48-1.6-4.08-4.5c2.06-15-1.86-29.48-3.75-44.13c-0.32-2.48-0.71-4.89-0.05-7.42c1.23-4.7-1.47-10.79-6.07-12.11
				c-4.72-1.35-9.54-2.85-14.7-2.1c-10.26,1.5-14.04,6.84-14.32,17.13c-0.46,16.8,3.74,33.01,5.26,49.54
				c0.57,6.24-1.54,11.69-1.98,17.55c-0.15,1.99-2.31,2.68-3.98,3.44c-4.28,1.96-8.87,2.92-13.42,3.87
				c-18.59,3.89-35.77,11.4-52.56,19.99c-7.86,4.02-16.16,7.09-24.28,10.48c-7.89,3.29-13.36,14.59-11.45,22.68
				c1.16,4.91,6.21,6.06,10.7,6.96c1.78,0.36,3.67-0.16,5.44,0.52c9.34,3.24,18.73,3.7,28.19,0.57c2.71-0.9,4.41-2.9,5.54-5.4
				c1.16-2.59,2.42-5.1,4.45-7.14c3.97-2.77,8.7-3.08,13.22-4.06c0.98-0.21,2.13-0.05,2.64,0.94c0.52,1.01-0.13,1.98-0.83,2.68
				c-2.36,2.35-4.85,4.58-7.56,6.51c-8.53,6.08-15.26,13.92-21.27,22.31c-5.51,7.68-8.14,16.71-9.67,25.96
				c-0.62,3.75-0.82,7.62-1.5,11.37c-1.61,8.89-0.14,17.15,4.02,25.12c3.61,6.92,6.7,14.04,11.68,20.25
				c2.67,3.34,6.85,4.77,9.06,8.4c0.15,5.2,0.15,5.2-9.75,7.39c2.22-0.97,3.76-1.41,5.13,0.27c-1.29,2.41-3.66,2.05-5.73,2.04
				c-7.62-0.02-14.38,2.24-20.27,7.1c-0.9,0.74-1.79,1.59-2.89,1.94c-12.34,3.87-16.73,14.85-22.19,24.84
				c-1.03,1.89-1.41,4.09-1.47,6.27c-0.5,18.41-2.35,36.81-0.28,55.24c0.34,3.06,0.88,6.35-1.38,9.1c-75.32,0-150.65,0-225.97,0
				c-1.26-1.3-1.47-2.95-1.46-4.64c0.07-8.63-0.28-17.18,2.06-25.76c2.85-10.46,2.87-21.35,2.95-32.22
				c0.1-13.71-1.1-27.27-3.21-40.73c-2.03-12.98-5.03-25.81-7.7-38.68c-0.79-3.8-1.53-7.54-0.22-11.32
				c1.56-4.49,0.08-7.82-3.72-10.3c-7.32-4.77-13.81-10.49-18.93-17.57c-6.53-9.01-13.17-17.94-16.02-29.07
				c-3.09-12.1-7.23-23.9-11.45-35.65c-1.26-3.51-3.12-6.61-5.29-9.57c-1.9-2.59-1.09-4.33,1.8-5.23c3.35-1.05,6.8-1.55,10.32-1.72
				c9.4-0.46,18.47-2.54,27.17-6.1c10.92-4.48,19.22-18.09,17.61-29.93c-1.88-13.88-2.5-27.82-3.49-41.76
				c-0.84-11.83-12.56-23.67-25.59-25.98c-5.44-0.96-10.87-1.53-16.33-0.05c-1.43,0.39-3.23,0.69-4.23-0.62
				c-1.2-1.58,0-3.18,0.87-4.57c3.72-5.96,7.74-12.02,8.65-18.97c1.6-12.17,2.91-24.5-1.23-36.56c-0.7-2.05-1.26-4.15-2.09-6.15
				C23.87,553.38,16.72,541.72,0,541.03C0,379.39,0,217.75,0,56.12c1.27-1.1,2.75-0.99,4.26-0.74c11.43,1.94,22.83,1.8,34.22-0.4
				c2.81-0.54,5.63-0.44,8.45,0.04c2.64,0.44,5.29,0.61,7.96,0.51c10.81-0.42,18.08-7.11,19.39-17.82c0.3-2.46-0.07-5.02,1.13-7.34
				c5.29-5.76,5.29-5.76,1.45-13.51c0.32-5.63-0.45-11.39,2.15-16.72c75.66,0,151.32,0,226.97,0c1.38,1.44,1.42,3.29,1.6,5.12
				c1.36,14.14,6.37,26.77,15.56,37.7c4.75,5.65,11.18,7.78,18.11,8.33c7.36,0.58,14.43,2.11,21.53,4.07
				c12.42,3.42,25.11,2.9,37.67,0.95c7.93-1.23,15.63-0.28,23.32,1.03c6.1,1.04,12.13,1.64,18.34,1.4
				c7.61-0.29,15.15,1.15,22.89,0.2c9.95-1.22,19.8-2.9,29.43-5.43c11.4-2.99,22.83-4.66,34.56-3.91
				c10.39,0.67,19.57-3.2,27.57-8.84c9.98-7.03,11.88-17.84,10.34-29.49c-0.49-3.68-2.83-7.25-0.96-11.14
				c138.98,0,277.97,0,416.95,0c0.71,0.82,0.84,1.8,0.61,2.8c-2.49,10.71-0.76,21.43,0.23,32.08c0.69,7.47,4.45,13.43,11.34,17.02
				C996.99,53.04,998.86,54.07,999.89,56.12z"/>
			<path class="st2" d="M358.96,999.94c-14,0-28,0-42,0c-3.42-6.71-3.26-14.18-4.3-21.35c-1.44-9.87-1.47-19.88-1.3-29.87
				c0.06-3.67,0.87-6.91,3.59-9.49c3.8-3.6,4.67-9.24,8.8-12.6c8.92,0.24,12.76-5.77,15.74-12.84c1.81-2.27,4.07-4.05,6.79-4.93
				c10.59-3.44,21.04-7.44,32.26-8.52c4.82-0.47,9.47-1.83,14.2-2.77c19.8-3.93,39.16-3.28,58.48,3.44
				c9.53,3.31,19.43,5.82,29.31,8.18c5.09,1.21,10.23,1.47,15.38,1.17c8.74-0.51,16.7,2.36,24.69,5.2
				c7.54,7.65,16.83,13.6,22.65,22.97c1.39,3.07,1.79,6.36,2.23,9.64c1.27,9.35,2.76,18.61,5.73,27.66
				c2.11,6.41,2.21,13.36,3.84,19.95c0.37,1.5-0.02,2.96-1.1,4.16c-31.66,0-63.33,0-94.99,0c-2.33-1.57-4.67-2.96-7,0
				c-11,0-22,0-33,0c-0.77-0.68-2.17-0.4-2.63-1.25c-2.86-5.32-8.12-3.09-12.36-4.01c-1.19-0.26-2.44,0.3-3.21,1.1
				c-4.27,4.41-9.44,4.3-14.79,3.03c-1.7-0.4-2.9-0.05-4.01,1.13c-6.33,0-12.67,0-19,0C361.63,998.19,360.29,997.58,358.96,999.94z"
				/>
			<path class="st3" d="M553.94,999.94c-1.89-9.5-2.43-19.24-5.69-28.5c-3.81-10.82-3.25-22.52-6.43-33.48
				c-4.01-9.94-11.21-16.73-20.87-21.08c-9.73-2.65-19.19-6.14-29.72-4.94c-8.03,0.92-15.68-2.44-23.34-4.56
				c-9.59-2.65-19-6.05-28.68-8.3c-15.57-3.63-31.33-3.33-46.92,0.1c-13.11,2.89-26.53,4.36-39.3,8.84
				c-4.74,1.66-9.51,3.07-13.01,6.96c-4.26,4.94-10.14,7.84-15.06,11.94c-4.2,4.87-5.4,11.84-11.14,15.67
				c-1.39,0.93-0.76,2.79-0.8,4.24c-0.49,15.67,0.77,31.21,3.39,46.66c0.36,2.12,0.41,4.29,0.6,6.44c-4,0-8,0-12,0
				c-0.35-8.61-0.7-17.23-1.04-25.84c-0.51-12.97,0.98-25.88,1.07-38.83c0.03-4.63,2.14-8.64,4.5-12.48
				c3.22-5.23,6.64-10.34,10.94-14.77c2.11-2.18,4.32-4.19,7.65-4.13c1.27,0.02,2.17-0.68,3.03-1.51
				c6.48-6.24,14.32-8.71,23.19-8.47c1.61,0.04,3.36,0.4,4.75-0.91c5.03-3.4,10.61-5.06,16.68-5.16c-4.39,0.06-9.01,2.01-12.73-2.05
				c-8.56-4.42-13.4-12.03-17.42-20.34c-0.65-1.34-1.06-2.83-1.86-4.07c-7.34-11.35-7.36-23.4-5.25-36.4
				c1.87-11.51,4.5-22.47,11.11-32.03c7.44-10.76,17.26-19.29,27.63-27.16c0.77-0.59,1.47-1.27,1.92-2.85
				c-2.36,0.63-4.73,1.26-7.09,1.9c-2.37,0.64-4.73,1.3-7.1,1.95c-11.43,5.92-22.59,12.62-36.08,12.77c-1,0.01-1.98,0.21-2.85-0.44
				c-6.65,0.95-12.48-0.56-17.17-5.62c-1.33-1.43-2.38-2.82-1.02-4.82c0.36-0.53,0.87-1.35,0.69-1.78
				c-3.06-7.3,3.78-11.05,5.9-16.46c0.47-1.2,1.67-2,2.95-2.55c9.89-4.23,19.94-8.15,29.61-12.85
				c12.25-5.95,24.74-11.19,37.62-15.63c5.84-2.02,11.99-2.48,17.81-4.41c2.67-0.89,5.46-1.46,8.06-2.5c2.2-0.89,5.53-1.44,3.1-5.31
				c-0.3-0.47,0.11-1.87,0.64-2.31c3.53-2.95,2.04-6.79,1.64-10.19c-1.61-13.81-4.23-27.55-5.02-41.39
				c-0.4-7.12-2.92-14.83,2.55-21.89c3.82-4.93,8.4-7.21,14.01-6.92c7.34,0.38,15.33-0.28,20.15,7.48c1.82,2.92,3.83,5.39,0.92,8.87
				c-1.17,1.4-0.33,3.51-0.04,5.32c1.52,9.32,3.29,18.61,4.33,27.98c0.63,5.73,1.01,11.63-0.45,17.37c-0.58,2.27-0.18,3.64,2.48,3.4
				c2.11-0.19,4.35,0.6,6.29-0.82c4.33-2.06,9.04-3.16,13.35-5.27c3.09-1.03,6.1-2.62,9.5-1.22c0.74,0.09,1.45,0.28,2.15,0.55
				c6.46,1.63,9.39,5.97,9.57,12.44c0.41,1.18,0.44,2.36-0.01,3.54c3.24,8.04-1.25,16.14-9.48,19.21c-5.36,2-10.47,5.2-15.04,8.72
				c-8.42,6.5-17.91,10.11-28.21,11.59c-4.92,0.71-9.27,2.41-13.53,4.67c-4.39,2.33-8.82,4.53-13.98,5.47
				c6.7,3.21,13.46,6.13,20.76,7.03c14.72,1.82,26.07,9.64,32.55,22.08c5.42,10.41,8.12,22.59,3.2,34.61
				c-1.91,4.66-2.67,9.56-3.94,14.36c-6.06,22.87-18.83,39.97-41.79,48.22c-0.45,0.16-0.82,0.53-1.23,0.81
				c-2.94,1.89-2.94,1.89-6.73,1.17c2.47,1.02,5.43,0.04,7.72,1.78c15.11,3.13,29.43,9.4,44.78,11.53
				c9.33,1.3,18.55,3.89,28.18,1.87c2.63-0.55,5.64,0.15,8.38,0.73c18.5,3.9,35.02,10.65,43.21,29.71
				c3.55,8.25,4.45,16.98,5.38,25.71c0.63,5.98,2.01,11.65,3.7,17.42c2.79,9.51,4.33,19.4,6.39,29.12
				C561.94,999.94,557.94,999.94,553.94,999.94z"/>
			<path class="st2" d="M68.99,999.94c-20.33,0-40.66,0-60.99,0c-5.06-2.4-6.12-7.47-8-12c0-79.65,0-159.3,0-238.95
				c4.92-1.59,7.71,1.65,9.65,5.04c6.07,10.61,11.09,21.73,11.82,34.16c0.65,10.96,3.06,21.15,8.59,30.87
				c5.81,10.2,14.07,17.71,23.61,23.82c4.9,3.14,7.79,6.64,8.94,12.33c2.61,12.88,6.48,25.51,7.47,38.71
				c0.11,1.49,0.45,2.97,0.41,4.47c-0.62,21.15,1.12,42.26,1.04,63.4c-0.01,2,0.18,4.05-0.32,5.98c-2.01,7.75-1.89,15.46-0.22,23.25
				C71.69,994.2,71.34,997.35,68.99,999.94z"/>
			<path class="st2" d="M316.96,0.13c79.32,0,158.65,0,237.97,0c4.22,9.01,5.68,18.31,0.65,27.29c-4.6,8.21-12.83,11.46-21.73,12.15
				c-6.95,0.54-13.96,0.39-20.93,1.14c-4.82,0.52-9.6,1.14-14.26,2.47c-17.66,5.08-35.55,5.95-53.9,5.11
				c-14.47-0.66-28.55-5.09-43.18-3.63c-8.76,0.88-17.54,1.75-26.39,0.22c-3.78-0.65-7.62-0.96-11.19-2.41
				c-6.26-2.54-13.13-2.13-19.49-4.11c-3.17-2.25-6.83-2.93-10.61-3.2c-8.13-4.7-13.28-11.77-15.5-20.76
				C317.27,9.79,314.55,5.17,316.96,0.13z"/>
			<path class="st3" d="M68.99,999.94c1.18-5.32,0.33-10.51-0.66-15.77c-0.51-2.74-0.67-5.74-0.12-8.44
				c2.73-13.2,2.38-26.41,0.86-39.68c-0.3-2.63-0.15-5.33-0.08-7.99c0.68-23.36-0.27-46.55-7.27-69.11
				c-0.64-2.05-1.07-4.19-1.31-6.32c-0.4-3.52-2.39-5.49-5.41-7.15c-16.87-9.28-27.69-23.63-33.37-41.75
				c-2.23-7.11-1.01-14.86-2.56-22.24c-1.94-9.26-6.19-17.51-10.12-25.92c-1.74-3.72-5.1-5.57-8.96-6.57c0-7.33,0-14.66,0-22
				c1.91-2.48,4.78-2.79,7.54-3.37c9.94-2.09,20.05-2.97,30.11-4.16c2.82-0.33,5.6-0.8,8.29-1.67c7.12-2.31,11.58-7.73,11.37-15.19
				c-0.39-14.1-0.91-28.22-3.89-42.09c-1-4.67-3.02-6.43-7.85-6.83c-6.19-0.52-12.26,0.67-18.36,1.41
				c-7.49,0.91-14.92,0.68-22.32-0.83c-1.82-0.37-3.55-0.89-4.9-2.25c0-7.67,0-15.33,0-23c4.75-0.95,10.16,0.05,13.73-4.47
				c4.61-5.85,7.41-12.51,8.77-19.83c2.35-12.61,1.12-24.79-4.17-36.52c-0.68-1.94-1.31-3.91-3.16-5.14
				c-1.66-1.26-3.13-2.71-4.33-4.43c-2.33-4.35-6.38-5.36-10.84-5.6c0-4,0-8,0-12c6.68-2.77,11.97,0.14,16.89,4.25
				c10.55,8.82,15.49,20.97,17.67,33.83c2.72,16.07,2.1,32.13-6.92,46.75c-1.37,2.22-3.57,3.98-4.21,7.06
				c5.87-0.89,11.42-1.99,17.36-1.26c11.46,1.42,19.71,7.4,26.37,16.2c2.68,3.54,3.63,7.77,3.9,12.18
				c0.62,10.11,1.17,20.22,2.02,30.31c0.43,5.11,2.14,10.17,1.42,15.31c-2.51,17.99-12.61,27.57-31.78,31.41
				c-8.95,1.8-18.25,1.21-27.19,4.17c8.19,9.54,10.64,21.49,14.05,32.81c4.13,13.74,8.05,27.43,16.63,39.16
				c6.2,8.48,13.35,16.07,22.29,21.85c5.73,3.7,6.26,5.53,4.33,12.07c-0.78,2.63-0.86,5.19-0.29,7.87
				c4.53,21.09,9.74,42.14,10.93,63.71c1.04,18.83,2.23,37.89-3.7,56.35c-0.68,2.12-0.8,4.23-0.8,6.4c0,6.16,0.02,12.33,0.03,18.49
				C75.66,999.94,72.33,999.94,68.99,999.94z"/>
			<path class="st3" d="M961.9,740.95c-7-0.21-10.86-5.35-15.12-9.77c-1.26-1.31-1.91-3.06-1.94-5.01
				c-0.23-19.75-0.38-39.5,5.05-58.76c0.9-3.19,1.85-6.35,2.78-9.53c0.57-5.99,3.83-10.24,8.46-13.85
				c6.28-4.89,13.1-8.22,19.99-8.99c-1.51-0.43-2.96-2.24-3.4-4.94c-6.85-9.46-7.83-20.56-8.83-31.64
				c-1.18-13.06,1.06-25.79,3.96-38.44c0.04-1.34-0.46-2.68,0.03-4.01c7.21-8.22,17.64-10.65,27.01-14.99c0,4,0,8,0,12
				c-2.56,4.04-7.09,4.66-11,6.37c-9.84,3.9-10.39,4.68-10.59,15.19c-0.04,1.82-0.03,3.64,0.05,5.46
				c-1.71,13.42-0.17,26.33,5.35,38.8c2.41,5.45,6.14,8.45,12.07,8.71c1.51,0.07,2.97,0.32,4.12,1.45c0,7.33,0,14.66,0,22
				c-1.65,1.4-3.45,0.85-5.22,0.37c-2.73-0.75-5.48-1.41-8.26-1.99c-13.1-2.75-23.32,4.22-25.93,17.4
				c-2.98,15.03-1.91,30.19-1.9,45.32c0,0.33,0.07,0.66,0.11,0.99c1.39,10.87,4.36,13.84,15.37,14.22
				c7.3,0.25,14.65,0.75,21.93-0.63c1.32-0.25,2.64-0.4,3.89,0.31c0,7.33,0,14.66,0,22c-1.83,0.92-3.58,0.19-5.32-0.32
				c-2.08-0.6-4.1-1.38-6.24-1.75c-8.23-1.42-10.61,0.2-13.11,8.15c-3.8,12.12-3.89,24.41-3.25,37c0.62,12.35,2.74,24.42,4.25,36.61
				c1.13,9.14,3.63,17.94,5.96,26.76c3.75,14.17,6.66,28.57,8.85,42.97c3.64,23.93,8.84,47.77,7.92,72.24
				c-0.18,4.76,0.16,9.56,0.94,14.3c0,0.67,0,1.33,0,2c-0.81,3.67-0.81,7.33,0,11c0.4,1.73-0.26,2.11-2,2.05
				c-4.99-0.16-10-0.05-15-0.05c0.28-0.68,0.56-1.36,0.84-2.05c-2.06-8.11-1.72-16.49-2.22-24.72c-0.95-15.8-3.23-31.38-5.5-47.01
				c-3-20.73-7.01-41.28-10.14-61.98c-0.7-4.66-1.45-9.47-0.1-14.21c-0.94-8.37-1.87-16.74-2.81-25.12
				c-2.38-4.82-3.06-10.14-3.33-15.3c-0.56-10.51-0.74-21.09,1.21-31.54c0.7-11.67,4.05-22.91,5.65-34.44
				c0.1-0.73,0.04-1.27-0.5-1.75C964.48,742.21,963.04,742.27,961.9,740.95z"/>
			<path class="st3" d="M343.96,37.09c14.91,0.94,28.86,7.98,44.09,6.92c5.13-0.36,10.28-0.49,15.41-0.95
				c10.75-0.95,21.06,2.14,31.59,3.17c24.5,2.39,48.63,0.12,72.46-6.38c8.65-2.36,17.91-0.83,26.78-1.8
				c9.72-1.06,19.81-6.02,22.18-16.24c1.25-5.41,0.13-10.57-0.87-15.77c-0.38-1.97-0.85-3.89-0.66-5.91c3.67,0,7.33,0,11,0
				c2.79,10.36,5.07,20.68,0.21,31.15c-2.84,6.12-7.06,10.41-13.14,13.63c-9.79,5.18-19.93,7.05-30.81,6.15
				c-13.41-1.11-25.81,4.14-38.66,6.48c-12.31,2.24-24.5,3.28-37.07,3.1c-11.37-0.16-22.4-2.03-33.56-3.24
				c-5.2-0.57-10.3,0.26-15.41,0.84c-14.35,1.62-28.48,1.57-42.33-3.45c-3.5-1.27-7.5-1.36-11.29-1.63
				c-10.65-0.74-19.03-4.41-25.54-13.83c-8.32-12.03-11.95-24.97-12.37-39.2c3.67,0,7.33,0,11,0c1.54,13.38,4.97,25.82,16.91,34.04
				C337.04,35.83,340.81,35.4,343.96,37.09z"/>
			<path class="st2" d="M999.89,984.94c-1.82-4.18-1.67-8.71-1.74-13.05c-0.3-17.83-3.47-35.3-5.67-52.92
				c-2.05-16.52-5.6-32.69-8.62-48.98c-2.23-12.05-6.15-23.79-8.33-35.84c-3.4-18.77-5.8-37.69-5.67-56.86
				c0.06-9.62,2.65-18.66,5.35-27.72c1-3.35,3.67-4.39,6.91-4.71c6.41-0.63,12.03,1.99,17.78,4.12
				C999.89,827.64,999.89,906.29,999.89,984.94z"/>
			<path class="st2" d="M0,652.01c14.39,3.89,28.76,0.85,43.15-0.02c8.63-0.52,10.38,1.54,12.21,10c2.55,11.79,2.1,23.81,3.65,35.66
				c1.96,15-6.55,21.79-20.14,23.29c-13.05,1.44-26.12,2.7-38.87,6.06C0,702,0,677,0,652.01z"/>
			<path class="st2" d="M999.89,726.99c-11.45,3.2-22.95,2.44-34.46,0.43c-4.12-0.72-6.23-3.3-7.03-7.33
				c-0.75-3.75-1.51-7.46-1.47-11.32c0.14-13.27-0.8-26.55,1.68-39.75c3.42-18.16,13.62-24.85,31.7-20.46
				c3.2,0.78,6.16,2.55,9.58,2.45C999.89,676.33,999.89,701.66,999.89,726.99z"/>
			<path class="st2" d="M0,39.12c0-13,0-26,0-38.99c23,0,45.99,0,68.99,0c1.98,5.16-0.4,10.12-0.86,15.13
				c-0.56,6.1-2.32,12.05-3.73,18.02c-1.42,6.02-4.48,8.97-10.59,8.26c-12.23-1.42-24.09,1.18-36.11,1.99
				C11.5,43.95,4.97,44.28,0,39.12z"/>
			<path class="st3" d="M0,39.12c9.38,4.54,19.33,3.35,28.88,1.68c8.2-1.43,16.14-1.3,24.27-0.65c6.62,0.54,8.67-1.28,9.86-7.72
				c2-10.77,3.99-21.54,5.98-32.31c3.33,0,6.67,0,10,0c0.71,6.07-0.97,12.02-0.83,18.06c2.17,4.24,0.74,8.11-1.23,11.92
				c-1.01,1.11-0.83,2.49-0.82,3.8c0.21,17.58-12.36,24.94-27.18,22.95c-4.7-0.63-9.15-0.46-13.81,0.25
				c-11.73,1.8-23.49,1.99-35.12-1C0,50.45,0,44.79,0,39.12z"/>
			<path class="st2" d="M12.07,558.01c1.31,1.37,2.61,2.73,3.92,4.1c1.29,1.46,1.75,3.44,3.02,4.92
				c9.07,18.73,8.29,37.21-1.68,55.33c-3.78,6.87-9.76,8.98-17.32,6.66c0-24.66,0-49.32,0-73.99c1.71-2.55,3.74-0.88,5.65-0.4
				C8.04,555.24,10.03,556.68,12.07,558.01z"/>
			<path class="st2" d="M999.89,629.01c-13.81,1.71-17.9-6.37-21.49-20.84c-2.26-9.11-3.27-18.64-1.57-28.15
				c1.07-5.53,2.72-10.81,5.88-15.59c1.68-2.54,3.44-4.85,6.19-6.27c3.66-1.71,7.33-3.42,10.99-5.14
				C999.89,578.35,999.89,603.68,999.89,629.01z"/>
			<path class="st3" d="M999.89,56.12c-12.59-4.63-17.95-13.61-18.29-27.04c-0.24-9.75-1.93-19.4,1.29-28.94c5,0,10,0,15,0
				c1.54,1.82,0.99,3.82,0.3,5.68c-2.53,6.84-2.34,13.76-0.57,20.65c0.99,3.86,0.01,8.07,2.28,11.66
				C999.89,44.12,999.89,50.12,999.89,56.12z"/>
			<path class="st4" d="M999.89,38.12c-4.65-5.05-3.6-11.76-4.89-17.72c-1.12-5.15-0.57-10.56,2.03-15.48
				c0.78-1.47,1.26-3.07,0.87-4.79c2.49-0.63,1.99,1.17,1.99,2.5C999.89,14.46,999.89,26.29,999.89,38.12z"/>
			<path class="st30" d="M381.96,999.94c0.51-2.9,1.87-3.45,4.53-2.06c3.62,1.9,7.34,1.69,10.69-0.78c8-5.9,14.24-5.4,20.75,1.77
				c0.33,0.36,0.68,0.71,1.02,1.06c-1.33,0-2.67,0-4,0c-0.89-0.78-2.1-0.97-3.03-1.67c-5.2-3.92-9.6-1.31-13.97,1.67
				C392.62,999.94,387.29,999.94,381.96,999.94z"/>
			<path class="st31" d="M397.96,999.94c5.66-7.1,11.29-7.1,17,0C409.29,999.94,403.62,999.94,397.96,999.94z"/>
			<path class="st32" d="M0,987.94c2.67,4,5.33,8,8,12c-8,0-8,0-8-8C0,990.61,0,989.28,0,987.94z"/>
			<path class="st33" d="M12.07,558.01c-4.2-0.28-7.61-3.72-12.07-2.98c0-0.67,0-1.33,0-2C5.65,551.06,7.46,551.81,12.07,558.01z"/>
			<path class="st34" d="M451.95,999.94c0.03-1.49-0.04-3.54,1.76-3.52c2.2,0.02,4.55,0.79,5.24,3.52
				C456.62,999.94,454.28,999.94,451.95,999.94z"/>
			<path class="st35" d="M358.96,999.94c0.21-1.66-0.63-4.33,1.79-4.34c1.89-0.01,1.66,2.74,2.21,4.34
				C361.63,999.94,360.29,999.94,358.96,999.94z"/>
			<path class="st9" d="M999.89,997.94c-1.71-3.67-1.54-7.33,0-11C999.89,990.61,999.89,994.27,999.89,997.94z"/>
			<path class="st3" d="M762.99,395.21c-17.46,7.13-34.77,3.78-51.62-1.77c-10.06-3.31-16.43-11.48-20.58-21.24
				c-4.13-9.7-6.35-19.86-7.85-30.23c-0.16-1.14-0.35-2.33-0.83-3.36c-4.33-9.4-3.59-19.32-1.9-28.93
				c1.41-7.94,0.16-15.88,1.52-23.72c-0.59-2.11-0.85-4.38-0.17-6.37c3.43-10.05,2.94-20.55,3.8-30.89
				c0.14-1.65,0.16-3.34,1.62-4.51c0.28-0.76,0.74-1.51,0.82-2.29c1.15-10.49,7.66-16.66,18.1-16.65c8.7,0.01,16.61-4.38,25.18-3.38
				c0.31-1.89-0.67-2.12-1.29-2.49c-9.91-5.93-13.42-15.36-14.96-26.19c-2.26-15.91,0.81-31.39,3.34-46.89
				c1.42-8.7,1.6-17.47,2.69-26.18c-0.72-3.09-1.99-5.3-5.82-4.04c-1.07,0.35-2.24,0.06-3.14-0.8c-5.15,0.39-9.96-1.34-14.9-2.32
				c-5.48-0.77-9.82-3.47-13.21-7.78c-11.19-14.02-9.62-29.17,5.57-39.1c14.92-9.76,27.55-22.44,42.95-31.62
				c6.78-4.04,12.29-9.98,20.73-10.89c8.19-0.88,16.43-1.18,24.13,1.92c9.38,3.77,13.75,11.47,14.67,21.37
				c1.42,15.36,2.72,30.75,6.73,45.73c0.42,1.56,0.19,3.01-0.54,4.35c-3.83,7.06-7.36,14.5-17.19,14.5c-0.76,0-1.52,0.58-2.91,1.16
				c9.66,9.57,8.4,22.03,9.98,33.77c2.22,16.46-0.04,32.89,0,49.34c0,1.66-0.11,3.36,0.15,4.99c1.9,11.79,1.93,11.79-3.63,22.13
				c4.38,2,8.59,4.27,12.65,6.9c5.04,3.27,8.18,8.06,8.42,13.51c0.5,11.62,3.86,22.81,3.47,34.63c-0.69,20.93-1.77,41.83-2.88,62.73
				c-0.49,9.31-0.89,18.51-3.11,27.64c-2.43,9.99-7.28,17.71-17.11,21.69C778.74,393.76,770.84,394.36,762.99,395.21z"/>
			<path class="st3" d="M303.93,317.95c-4.68-0.03-9.28,1.63-13.97-1.37c-9.51-6.08-11.7-19.97-3.9-28.27
				c11.27-12,22.71-23.86,36.03-33.62c9.16-6.71,20.13-9.37,31.03-11.42c6.46-1.22,13.2-1.5,19.89-1.21
				c4.98,0.22,9.77,3.72,11.55,9.43c1.43,4.59,0.25,8.55-4.33,11.01c-0.7,0.38-1.33,1.04-1.79,1.71
				c-6.65,9.49-14.9,17.27-25.76,23.28c6.07,2.04,11.71,2.58,16.31,5.56c10.72,6.94,17.85,16.48,19.94,29.34
				c0.16,1,0.14,1.99,0.99,2.7c3.94,6.03,5.32,12.86,6.22,19.84c1.84,6.18,4.04,12.33,3.7,18.88c-0.46,9.01-5.99,14.72-13.26,19.12
				c-2.26,1.36-4.57,2.64-6.86,3.95c-2,3.1-4.99,3.79-8.25,3.75c1.22,0.61,3.31-0.3,4.28,1.54c4.06,1.96,8.47,2.81,12.77,4.01
				c14.26,3.99,26.02,11.98,34.78,23.7c9.65,12.89,8.56,24.15-1.31,36.85c-9.44,12.15-22.13,18.49-36.43,22.73
				c-9.38,2.78-18.26,7.34-28.04,8.63c-11.32,1.5-22.73,2-34.07,3.63c-8.4,1.2-17.33,1.54-25.81-0.73
				c-12.47-3.35-21.38-10.62-25.82-23.3c-3.54-10.11-5.61-20.43-6.78-30.98c-0.65-5.87,0.58-11.53,2.8-17.01
				c5.53-13.63,12.71-25.26,26.4-33.06c6.41-3.65,11.96-7.4,19.42-7.55c3.52-0.07,6.77,1.35,10.46,1.98
				c-0.17-2.01-1.25-3.3-2.32-4.39c-8.54-8.68-10.79-19.57-10.82-31.14c-0.02-6.01,3.63-11.38,3.49-17.49
				c-0.05-1.98,0.21-3.97,0.33-5.95c-2.15-2.84-0.33-5.28,0.76-7.8c0.91-2.41,2.27-4.61,3.39-7.09c-1.15-0.08-1.45,1-2.14,1.42
				c-1.75,1.49-2.44,3.71-3.8,5.47c-0.28,0.36-0.6,0.69-0.95,0.99C309.59,316.61,307.19,318.5,303.93,317.95z"/>
			<path class="st2" d="M965.77,849.98c2.16,20.48,6.38,40.64,9.66,60.94c4.37,27.06,7.8,54.22,9.23,81.61
				c0.1,1.9-0.38,3.62-0.93,5.36c-7.81-4.89-12.2-11.99-12.77-21.12c-0.53-8.47,1.52-16.8,1.97-25.25
				c0.95-17.75-2.71-34.97-5.43-52.32c-2.45-15.58-4.2-31.23-3.58-47.04C963.96,851.05,963.23,849.07,965.77,849.98z"/>
			<path class="st2" d="M686.99,244.18c0.08,14.15-1.19,28.14-5.25,41.77c-5.57-13.62-5.31-27.05,1.42-40.2
				C684.79,242.55,685.14,242.59,686.99,244.18z"/>
			<path class="st10" d="M326.01,779.14c12.01-1.3,23.13-5.25,33.68-11.03c1.53-0.84,3.49-0.88,5.25-1.3
				c-0.94,1.35-2.17,2.59-2.75,4.08c-1.33,3.44-2.38,7.31-6.03,8.74c-5.38,2.11-11.21,3.25-16.94,3.02
				c-3.86-0.15-7.67-1.89-11.71-1.81C326.55,780.86,326.18,780,326.01,779.14z"/>
			<path class="st10" d="M977.73,630.1c1.58,1.66,3.16,3.31,5.18,5.43c-13.39,3.44-25.07,8.62-30.23,22.34
				c-0.78-10.78,7.67-22.23,18.43-23.9C973.71,633.57,977.15,634.17,977.73,630.1z"/>
			<path class="st10" d="M960.84,778.02c0.38,15.63-0.46,31.31,2.12,46.84c-0.06,0.49,0,1.04-0.19,1.47
				c-0.61,1.36-0.81,0.32-0.96-0.23c-1.13-3.97-2.83-7.89-3.22-11.93C957.44,802.05,956.54,789.85,960.84,778.02z"/>
			<path class="st4" d="M762.99,395.21c7.23-3.54,15.27-3.54,22.91-5.29c-5.35,6.88-12.72,7.84-20.67,7.03
				C764.19,396.84,763.47,396.13,762.99,395.21z"/>
			<path class="st33" d="M494.77,701.35c-0.31-0.58-0.96-1.21-0.88-1.73c0.95-6.39-3.43-8.55-8.17-10.45
				c-3.38-2.85-6.92-3.33-10.75-0.86c-1.21,0.79-2.44,1.93-4.03,0.68c4.45-6.47,7.27-7.37,13.94-3.42c3.93,2.33,8.6,3.53,11.62,7.43
				c3,3.88,3.33,8.79,0.45,10.98c-1-1.65-0.14-3.53-0.66-5.24c0.2-0.64-0.98-0.42-0.32-0.29c0.14,0.03,0.13,0.17,0.11,0.45
				C495.96,699.89,495.75,700.82,494.77,701.35z"/>
			<path class="st36" d="M316.84,314.05c-0.65,2.68-2.41,5.07-2.02,8.01c-3.92-0.61-9.03,1.94-10.89-4.11
				c2.66-1.32,5.32-2.63,7.99-3.95c1.16,1.61,0.19,2.37-1.12,2.98C313.24,316.98,313.44,312.18,316.84,314.05z"/>
			<path class="st37" d="M363,885.8c4.47,1.77,9.53,0.33,15.32,2.78c-7.54,0.6-13.31,2.85-19.26,4.42c-1.64,0-3.27,0-4.91,0
				C357.44,890.89,363.9,893,363,885.8z"/>
			<path class="st38" d="M683.81,105.17c4.4,2.59,8.8,5.19,13.2,7.78C690.52,115.79,683.74,111.8,683.81,105.17z"/>
			<path class="st39" d="M470.94,689c1.87,0.04,2.76-1.59,4.12-2.41c4.08-2.45,8.39-1.38,10.65,2.58c-0.61-0.14-1.21-0.27-1.82-0.41
				c-3.3-2.35-6.16-1.09-8.93,1.06c-4.54,1.72-8.88,4.09-13.9,4.28c0.57-2.82,3.37-1.96,5.03-2.97
				C467.61,690.23,469.33,689.69,470.94,689z"/>
			<path class="st40" d="M396.16,344.94c-2.92-6.35-4.26-13.19-6.22-19.84c0.38-0.43,0.98-0.59,1.24-0.11
				C394.63,331.18,398.24,337.35,396.16,344.94z"/>
			<path class="st41" d="M711.91,115.27c1.29-0.21,2.59-0.42,3.88-0.63c6.29-1.05,6.73-0.58,5.07,5.47
				C716.82,120.46,713.24,119.96,711.91,115.27z"/>
			<path class="st42" d="M76.93,30.12c0.41-3.97,0.82-7.95,1.23-11.92C83.09,22.62,82.81,25.36,76.93,30.12z"/>
			<path class="st43" d="M375.78,392.16c-2.17-0.07-4.22-0.6-6.07-1.51c3.33-1.25,6.68-2.51,10.04-3.77
				C380.74,390.38,378.45,391.41,375.78,392.16z"/>
			<path class="st30" d="M494.77,701.35c0.12-2.13,0.23-4.26,0.39-7.19c2.77,3.44,3.56,6.4,1.78,9.83c-0.43,0.05-0.87,0.1-1.3,0.15
				C494.76,703.39,494.94,702.31,494.77,701.35z"/>
			<path class="st44" d="M425.91,883.85c-2.85,0.54-5.44-0.4-8.76-1.44c3.06-0.59,5.42-1.05,7.78-1.51
				C425.26,881.88,425.58,882.86,425.91,883.85z"/>
			<path class="st39" d="M961.9,740.95c1.41,0.09,2.91-0.29,4.08,0.89C963.87,744.99,962.64,744.12,961.9,740.95z"/>
			<path class="st45" d="M972.88,556.02c0.53,1.34,1.75,2.68-0.03,4.01C970.35,558.67,971.45,557.34,972.88,556.02z"/>
			<path class="st46" d="M520.95,916.88c10.12,1.66,19.1,10.57,20.87,21.08C535.86,929.95,527.06,924.74,520.95,916.88z"/>
			<path class="st31" d="M324.91,926.92c3.43-5.99,9.68-8.41,15.06-11.94c-0.34,5.56-5.15,8.23-8.06,12.08
				C330.11,929.46,327.3,926.58,324.91,926.92z"/>
			<path class="st2" d="M349.84,839.83c0.06-5.16-0.11-10.34,0.23-15.48c0.57-8.44,4.4-15.76,9.83-21.86
				c7.63-8.58,16.06-16.46,25.43-23.18c8.79-6.3,18.39-8.72,29.16-5.77c7.04,1.93,14.26,3.16,21.41,4.67
				c17.34,3.65,30.35,18.32,24.64,37.8c-0.93,3.18-1.85,6.38-2.57,9.62c-3.63,16.32-12.4,29.19-25.89,38.96
				c-1.78,1.29-3.71,2.2-5.81,2.8c-11.3,3.28-22.34,7.38-33.78,10.19c-6.01,1.48-11.46-1.7-17.21-1.62
				c-9.86,0.15-15.27-6.08-20.03-13.3c-2.01-3.05-3.62-6.36-5.42-9.55C346.53,848.69,349.22,844.26,349.84,839.83z"/>
			<path class="st2" d="M380.96,727.08c5.97-4.42,13.27-3.6,19.98-5.07c2.1-0.46,4.47-0.17,6.35-1.02c8.35-3.82,17.2-4.9,26.17-6.13
				c4.98-0.68,10.42-2.64,12.83-8.31c0.87-2.03,3.07-2.27,4.73-2.17c9.19,0.52,17.71-2.45,26.34-4.78c3.65-0.99,6.3-0.48,7.6,3.27
				c1.27,3.67,2.44,7.38-1.87,10.15c-8.39,5.38-17.04,10.33-24.79,16.73c-3.88,3.21-8.97,4.25-14.08,4.22
				c-5.95-0.03-11.58,1.36-16.77,4.15c-11.54,6.21-24.35,8.36-36.7,12.04c-14.9,4.44-30.59,6.45-44.49,14.05
				c-2.35,1.28-4.4,2.78-6.19-1.18c-0.96-2.13-3.77-2.45-6.24-1.41c-2.61,1.09-5.2,2.32-7.92,3.04c-1.72,0.46-4.3,2.41-5.33-0.03
				c-0.98-2.32-0.48-5.38,2.13-7.04c5.18-3.3,10.15-7.01,16.23-8.63c10.51-5.1,21.32-9.59,31.16-15.98
				C373.58,730.75,377.4,729.16,380.96,727.08z"/>
			<path class="st2" d="M442.81,678.55c0.61,7.85-1.99,14.03-5.97,19.77c-1.53,2.2-3.44,3.42-6.29,3.11
				c-3.22-0.34-2.83-3.02-3.12-4.88c-2.05-13.09-4.38-26.1-6.98-39.09c-0.91-4.56-1.95-9.89-0.59-15.04
				c1.71-6.46,11.71-10.27,17.06-6.22c0.94,0.71,1.04,1.62,1.08,2.61c0.53,11.8,2.84,23.35,4.76,34.96
				C443.06,675.55,442.81,677.42,442.81,678.55z"/>
			<path class="st46" d="M380.96,727.08c-12.66,9.87-26.77,16.98-42.01,21.9c11.97-7,23.37-15.02,36.4-20.09
				C377.19,728.18,378.9,727.08,380.96,727.08z"/>
			<path class="st47" d="M349.84,839.83c0.75,4.43-1.73,8.86,0,13.28C343.76,848.69,347.75,844.26,349.84,839.83z"/>
			<path class="st33" d="M474.97,689.82c2.51-4.29,5.59-3.77,8.93-1.06C480.7,687.27,477.92,689.2,474.97,689.82z"/>
			<path class="st48" d="M343.96,37.09c-3.65,0.01-7.37,0.27-10.08-2.92C337.54,34.1,341.27,33.8,343.96,37.09z"/>
			<path class="st33" d="M19,567.02c-1.99-1.04-2.61-2.91-3.02-4.92C17.96,563.14,18.59,565.02,19,567.02z"/>
			<path class="st49" d="M988.9,558.16c-5.82,6.29-8.6,14.26-12.07,21.86c0.02-2.14,0.03-4.27,0.06-6.41
				C977.03,562.64,977.99,561.4,988.9,558.16z"/>
			<path class="st2" d="M796.99,260.08c2.12,10.57,0.75,21.19,0.44,31.79c-0.31,10.63-0.8,21.25-0.98,31.89
				c-0.25,14.58-0.68,29.28-4.69,43.49c-2.5,8.87-5.58,11.02-14.9,11.96c-4.29,0.44-8.8,0.66-12.74,2.2
				c-14.15,5.53-28.05,4.84-42.51,0.93c-8.07-2.18-14.14-6.16-17.92-13.04c-3.48-6.35-6.9-12.9-8.2-20.26
				c-1.98-11.21-7.62-21.87-5.49-33.67c2.59-14.37,0.33-29.31,5.21-43.38c0.96-2.77,0.64-5.6,0.7-8.42c0.06-3.33-0.08-6.67,0.07-10
				c0.5-11.11,4.7-15.23,15.57-16.39c13.03-1.39,25.99-3.38,39.01-4.76c6.93-0.74,13.9-0.97,20.59,2.14
				c5.71,2.66,12.22,3.33,17.69,6.72C793.34,246.77,794.85,253.56,796.99,260.08z"/>
			<path class="st2" d="M776.94,180.25c0,8.66,0,17.32,0,25.99c0,4.57-2.54,6.75-6.86,6.79c-6.64,0.06-13.37-0.82-19.52,2.74
				c-0.98,0.57-1.93,0.15-2.76-0.53c-0.51-0.42-0.96-0.97-1.54-1.27c-17.37-8.97-19.22-24.44-17.31-41.42
				c1.76-15.68,4.93-31.18,5.83-46.96c0.3-5.15,2.59-8.41,8.06-9c1.8-0.19,3.56-0.8,5.31-1.32c13.17-3.94,18.89,1.39,24.96,10.05
				c3.13,4.45,2.25,10.29,2.68,15.53C776.9,153.95,776.91,167.1,776.94,180.25z"/>
			<path class="st2" d="M728.71,100.93c-7.06,1.7-14.26,1.33-21.38,1.01c-5.61-0.26-10.57-3.13-14.62-6.83
				c-2.99-2.74-3.62-6.65-1.49-10.54c2.35-4.29,5.18-7.96,9.78-10.29c11.22-5.67,19.69-15.29,30.53-21.58
				c6.18-3.59,12.29-7.27,17.9-11.8c4.68-3.78,19.82-3.41,24.76-0.05c2.7,1.84,3.21,4.64,3.55,7.38
				c1.69,13.52,3.31,27.04,4.73,40.59c0.47,4.44-1.2,7.83-6.27,8.5c-7.6,1-15.09,1.92-22.44-1.75c-6.29-3.14-13-3.96-19.81-1.39
				C730.98,95.48,730.72,98.89,728.71,100.93z"/>
			<path class="st50" d="M796.99,260.08c-3.24-6.04-6.1-12.25-8.14-18.8c3.38,0.98,5.25,3.51,5.96,6.68
				C795.72,251.95,797.16,255.88,796.99,260.08z"/>
			<path class="st27" d="M728.71,100.93c0.76-3.02,1.65-5.94,5.25-6.75C731.88,96.18,731.66,99.62,728.71,100.93z"/>
			<path class="st2" d="M347.27,475.79c-10.11-0.57-19.63,3.32-29.6,3.94c-12.56,0.79-24.45,0.03-33.6-9.95
				c-5.71-6.23-7.23-14.42-9.47-22.22c-5.43-18.87-0.73-36.05,12.91-48.94c13.11-12.4,22.88-13.08,35.17-3.62
				c8.7,6.7,18.76,8.16,29.05,8.97c12.47,0.98,24.87,2.94,36.63,6.79c12.14,3.98,23.88,9.72,27.89,23.86
				c0.62,2.19,0.84,4.27-0.05,6.33c-3.15,7.28-7.29,13.91-14.33,17.99c-14.22,8.24-30.39,11.31-45.68,16.71
				C353.53,476.6,350.26,475.79,347.27,475.79z"/>
			<path class="st2" d="M390.02,352.32c-0.31,3.98-0.6,7.96-0.95,11.94c-0.32,3.64-2.57,6.29-5.33,8.08
				c-9.85,6.37-20.58,9.95-32.5,9.07c-0.66-0.05-1.33-0.06-1.99-0.13c-5.01-0.52-10.94,1.73-14.76-2.67
				c-6.74-7.77-13.38-15.81-15.32-26.44c-0.16-0.9,0.15-2,0.55-2.86c3.28-6.88,3.98-14.35,5.32-21.7
				c1.47-8.04,5.51-14.93,10.85-21.02c5.62-6.4,25.6-6.49,33-0.52C384.03,318.29,385.9,335.58,390.02,352.32z"/>
			<path class="st2" d="M303.9,280.96c10.15-10.29,21.48-18.46,35.98-21.75c7.9-1.79,15.51-4.81,23.85-4.17
				c3.02,0.23,4.02,0.4,2.51,3.99c-4.07,9.64-11.64,15.61-20.21,20.56c-9.33,5.39-18.49,11.1-28.34,15.57
				c-4.69,2.13-9.09,4.84-13.09,8.13c-2.7,2.23-5.55,2.76-8.63,0.77c-1.49-5.88,0.92-11,3.27-16.07
				C300.42,285.46,302.31,283.29,303.9,280.96z"/>
			<path class="st46" d="M303.9,280.96c-3.81,7.3-6.75,14.9-7.93,23.1c-3.78-3.3-4.39-6.89-1.55-11.24
				C297.21,288.55,299.93,284.28,303.9,280.96z"/>
			<path class="st41" d="M316.84,314.05c-3.08,0.24-3.89,5.16-7.88,3.72c0.42-1.71,3.29-1.53,2.96-3.76c0,0-0.01,0.02-0.01,0.02
				c2.55-1.25,2.51-4.17,3.97-6.12c1.11-1.99,3.03-2.79,5.96-4.01C319.92,307.81,318.38,310.93,316.84,314.05z"/>
			<path class="st36" d="M315.89,307.91c-0.81,2.38-0.14,5.71-3.97,6.12C313.22,311.98,313.83,309.47,315.89,307.91z"/>
		</g>
	</g>
</g>
<g id="Layer_3">
	<g>
		<path class="st29" d="M999.9,308.04c0,33.33,0,66.65,0,99.98c-2.46,1.79-5.15,0.92-7.73,0.57c-23.91-3.22-47.91-5.32-71.99-6.89
			c-19.31-1.26-38.6-0.87-57.88-0.63c-14.79,0.19-29.51,2.24-44,5.5c-3.13,0.7-6.47,1.42-7.15,5.22c-0.74,4.18,0.24,7.92,3.93,10.6
			c3.26,2.36,6.77,4.32,10.55,5.6c18.31,6.19,36.88,11.22,56.23,13.09c16.05,1.55,32.04,3.84,48.14,4.84
			c16.53,1.02,32.92-0.25,49.13-3.67c4.56-0.96,9.1-2.01,13.71-2.71c2.5-0.38,5.01-0.5,7.04,1.48c0,66.99,0,133.98,0,200.96
			c-0.95,0.93-1.79,1.94-2.8,2.83c-5.49,4.83-5.84,9.94-1,15.56c1.3,1.51,2.47,3.13,3.8,4.61c0,67.32,0,134.64,0,201.96
			c-1.39,1.56-3.19,2.34-5.18,2.8c-7.8,1.81-15.43,4.3-22.89,7.06c-9.71,3.6-19.21,3.05-28.98,1.04c-2.47-0.51-5.81-2.56-7.42-0.04
			c-1.91,2.99-0.12,6.56,1.97,9.22c6.71,8.53,15.93,12.27,26.46,13.14c10.19,0.83,19.73-2.45,29.37-4.99
			c2.18-0.57,4.37-1.94,6.65-0.24c0,33.49-0.07,66.99,0.1,100.48c0.02,3.75-0.85,4.59-4.6,4.59c-331.77-0.1-663.54-0.09-995.31-0.09
			c0-34.99,0-69.99,0-104.98c2.95-3.49,7.23-3.17,11.09-3.48c6.68-0.54,13.25,0.97,19.83,1.97c1.16,0.18,2.55,0.48,2.91,1.65
			c0.48,1.56-1.1,2.22-2.04,3.08c-0.49,0.45,0.1-0.14-0.4,0.3c-2.3,2.03-5.75,3.51-4.67,7.46c1.08,3.94,4.21,5.77,8.01,6.69
			c14.55,3.51,28.74,0.71,43.02-2.09c8.42-1.65,15.56-4.89,21.9-10.84c6.25-5.85,15.1-7.64,22.15-12.41
			c14.32-9.68,29.36-18.43,40.12-32.53c3.64-4.77,9.1-7.15,14.32-9.78c3.71-1.87,7.56-3.57,10.23-6.97
			c4.2-5.34,2.64-9.83-3.97-11.48c-3.3-0.82-6.55-0.83-9.87,0.01c-10.63,2.69-19.4,8.38-27.31,15.86
			c-13.39,12.65-28.36,23.1-45.17,30.81c-3.54,1.62-7.22,2.52-11.12,2.43c-3.18-0.07-6.39,0.08-9.37,1.21
			c-4.9,1.87-9.26,1.24-13.76-1.48c-8.05-4.86-17.12-6.47-26.35-6.64c-7.18-0.13-14.3-0.44-21.38-1.69
			c-3.83-0.68-7.62-0.28-11.43,0.32c-2.23,0.35-4.58,1.29-6.74-0.38c0-66.99,0-133.98,0-200.96c2.16-1.76,4.44-0.89,6.65-0.21
			c12.53,3.85,25.44,5.08,38.44,5.27c7,0.1,13.9,1.48,20.92,1.09c25.77-1.45,51.57-0.83,77.35-1.08c7.01-0.07,13.91-1.46,20.68-3.22
			c5.75-1.5,9.6-6.09,9.94-11.17c0.44-6.61-1.82-11.04-7.96-13.56c-16.67-6.81-33.5-12.9-52.03-12.38
			c-8.11,0.23-16.24-1.04-24.41-0.89c-23.15,0.45-46.15,2.42-69.01,6.19c-5.92,0.98-11.86,1.68-17.2,4.73c-1,0.57-2.2,0.8-3.36,0.23
			c0-66.99,0-133.98,0-200.96c6.02-3.79,11.92-7.78,18.79-10.01c3.84-1.25,7.74-2.68,7.96-7.69c0.18-4.06-3.05-7.77-8.17-9.52
			c-3.63-1.23-7.41-1.76-11.2-2.3c-2.6-0.37-5.35-0.41-7.39-2.48C0.09,273.54,0.11,139.07,0,4.59C0,0.84,0.84,0,4.59,0
			C334.86,0.1,665.13,0.1,995.4,0c3.75,0,4.6,0.84,4.59,4.59c-0.13,74.82-0.1,149.64-0.1,224.46c-2.14,2.09-4.88,2.09-7.52,1.84
			c-18.95-1.83-37.94-0.77-56.91-0.81c-24.49-0.06-48.86,1.87-73.04,5.87c-5.43,0.9-10.72,2.4-16.02,3.83
			c-2.4,0.65-4.77,1.56-7.33,1.14c-3.07-1.19-2.56-3.69-1.75-5.86c3.4-9.09,4.88-18.68,7.48-27.95c2.21-7.88,5.23-15.8,11.52-21.81
			c7.15-6.84,12.06-15.31,14.8-24.6c5.81-19.69,17.74-35.2,31.79-49.46c2.82-2.87,5.33-6,7-9.67c2.09-4.6,0.48-6.76-4.46-6.14
			c-5.59,0.69-10.49,3.17-15.18,6.09c-16.63,10.37-27.67,25.21-34.39,43.43c-1.5,4.06-2.86,8.18-4.22,12.29
			c-4.09,12.4-13.05,21.54-20.8,31.49c-1.34,1.72-3.25,2.99-5.41,3.43c-5.5,1.13-10.04,4.25-15,6.55c-9.6,4.44-19.88,4.93-30.2,2.57
			c-11.86-2.71-23.49-6.17-34.81-10.69c-2.45-0.98-6.65-3.1-7.68-0.67c-1.28,3.02,3.14,4.42,5.58,5.82
			c4.19,2.4,8.77,4.12,13.35,5.57c13.13,4.17,25.91,9.6,39.93,10.64c4.57,0.34,8.94-0.13,13.39-0.69c5.26-0.66,6.78,0.86,5.95,6.13
			c-0.89,5.64-2.19,11.09-7.05,14.97c-3.24,2.58-1.88,6.01-1.08,9.26c0.74,3.01,2.9,3.65,5.63,3.84c5.87,0.39,10.13,4.24,14.78,7.21
			c-2.09,4.48-1.1,8.78,0.88,12.96c1.29,2.73,2.63,5.47,2.53,8.54c-0.29,8.8,5.12,13.29,12.3,16.29c9.15,3.82,18.89,5.33,28.63,6.55
			c20.3,2.56,40.7,4,61.11,5.3c18.41,1.17,36.79,2.89,55.26,3.05C992.71,305.38,996.69,305.4,999.9,308.04z"/>
		<path class="st12" d="M837.75,239.96c10.95-2.61,21.71-6.1,32.97-7.36c7.23-0.81,14.44-1.85,21.68-2.52
			c29.33-2.72,58.75-2,88.14-2.04c6.48-0.01,12.86,1.63,19.36,1.01c0,26.33,0,52.66,0,78.99c-21.33-1.5-42.72-1.96-64.06-3.72
			c-11.05-0.91-22.18-1.5-33.24-2.42c-19.46-1.63-39.07-2.7-57.83-9.03c-10.69-3.61-14.37-8.36-14.83-19.57
			c-0.19-4.55-3.68-7.72-4.51-12.03c-0.71-3.65-1.12-6.9,2.48-9.24c4.11-2.27,6.79-5.58,7.79-10.25
			C835.91,240.84,836.5,239.93,837.75,239.96z"/>
		<path class="st12" d="M999.9,441.01c-9.45-0.5-18.27,3.04-27.43,4.39c-15.48,2.29-30.87,3.02-46.56,1.9
			c-17.04-1.21-33.94-3.32-50.85-5.4c-11.97-1.48-23.96-3.01-35.35-7.69c-8.39-3.45-17.79-4.27-25.38-9.93
			c-4.41-3.29-6.79-8.91-5.21-13.95c0.93-2.95,3.32-4.61,6.23-5.17c12.35-2.4,24.75-4.29,37.34-5.31
			c19.62-1.58,39.25-1.08,58.83-0.58c15.34,0.39,30.71,1.88,46.04,3.46c12.51,1.3,24.99,2.87,37.48,4.3
			c1.64,0.19,3.25,0.64,4.87,0.98C999.9,419.02,999.9,430.01,999.9,441.01z"/>
		<path class="st12" d="M0.09,640.97c7.45-6.4,16.96-6.49,25.83-7.78c24.95-3.62,50.07-6.2,75.31-5.04
			c13.18,0.61,26.63-0.13,39.47,3.83c9.03,2.78,17.98,5.89,26.74,9.42c6.93,2.79,9.77,9.28,8.59,17.34
			c-0.72,4.91-6.68,9.79-12.64,11.31c-15.88,4.04-32.03,2.58-48.1,2.95c-11.78,0.27-23.54-0.25-35.36,0.7
			c-15.21,1.21-30.48-0.57-45.72-1.39c-11.7-0.63-22.92-3.26-34.11-6.33C0.09,657.64,0.09,649.31,0.09,640.97z"/>
		<path class="st3" d="M0.09,866.93c7.02-1.64,14.04-2.66,21.25-1.12c8.69,1.86,17.6,0.69,26.36,1.85
			c7.39,0.98,14.34,3.14,20.64,7.01c3.1,1.9,5.76,2.58,9.24,1.03c2.36-1.05,5.21-1.72,7.76-1.54c10.67,0.74,19.52-3.99,27.82-9.51
			c11.9-7.91,23.82-15.77,34-26.1c7.32-7.44,16.69-12.01,27.09-14.15c3.92-0.81,7.72-0.2,11.31,1c6.88,2.3,7.1,10.63,0.3,15.84
			c-3.01,2.3-6.5,4.05-9.93,5.7c-5.94,2.86-11.28,6.39-15.23,11.79c-7.35,10.05-18.1,16.05-27.8,23.31
			c-7.37,5.53-15.4,9.91-23.74,13.73c-3.83,1.75-7.76,3.44-10.39,6.71c-5.23,6.51-12.61,7.92-20.1,9.53
			c-13.55,2.91-27.09,5.41-41.01,2.93c-2.78-0.5-5.62-0.89-8.1-2.37c-5.91-3.52-6.54-9.26-1.47-13.67c1.47-1.28,3.15-2.32,5.1-3.74
			c-11.26-1.21-22.14-3.83-33.11-0.22C0.09,885.59,0.09,876.26,0.09,866.93z"/>
		<path class="st3" d="M999.9,894.93c-11.82,3.29-23.43,7.83-35.99,7c-10.27-0.68-19.37-4.32-26.6-11.97
			c-1.88-1.99-3.09-4.29-3.82-6.9c-2.09-7.47-0.43-9.48,6.87-7.45c12.67,3.51,24.84,2.45,37.05-2.26c7.25-2.79,14.7-5.29,22.49-6.41
			C999.9,876.26,999.9,885.59,999.9,894.93z"/>
		<path class="st12" d="M0.09,408.02c6.91,0.67,13.84,1.29,20.44,3.67c4.82,1.74,8.46,6.15,8.32,10.64
			c-0.15,4.83-3.18,7.58-7.64,8.57c-6.14,1.35-11.09,5.03-16.39,8.01c-1.56,0.88-3.06,1.14-4.74,1.1
			C0.09,429.35,0.09,418.68,0.09,408.02z"/>
		<path class="st12" d="M999.9,664.97c-6.34-2.32-8.78-7.59-8.77-13.58c0-5.16,3.88-8.09,8.77-9.41
			C999.9,649.64,999.9,657.3,999.9,664.97z"/>
		<path class="st12" d="M576.71,822.93c8.99,0,17.99-0.09,26.98,0.02c22.43,0.26,44.81,1.86,67.24,2.32
			c21.17,0.43,42.17,4.2,62.88,9.05c7.89,1.85,16.06,2.36,23.93,4.53c5.89,1.62,11.27,4.08,15.76,8.22
			c2.07,1.91,4.48,2.98,7.05,3.52c8.33,1.75,14.41,12.99,7.57,22.39c-4.58,6.3-10.6,10.64-18.8,11.98
			c-15.85,2.6-31.59,5.93-47.42,8.7c-4.88,0.85-9.9,1.16-14.86,1.21c-15.16,0.15-30.33,0.52-45.47-0.03
			c-54.6-2.01-109.21,0.03-163.8-1.09c-19.67-0.4-39.29-2.64-58.85-5.41c-14.22-2.01-27.75-6.55-41.74-9.3
			c-5.87-1.16-11.59-4.14-15.6-8.4c-7.79-8.26-6.48-17.62,5.19-22.59c21.97-9.36,45.27-13.88,68.86-17.23
			c20.84-2.96,41.78-4.84,62.71-6.74C537.76,822.3,557.25,822.98,576.71,822.93z"/>
		<path class="st12" d="M549.58,121.06c-12.76,0-23.1,0.3-33.41-0.06c-23.22-0.82-46.44-1.64-69.63-3.07
			c-18.67-1.16-37.32-2.93-55.91-5.01c-9.19-1.03-18.46-2.48-26.98-6.56c-5.97-2.85-8.94-7.35-8.74-14.27
			c0.18-6.36,4.46-8.64,9.18-10.29c17.08-5.99,33.77-13.22,51.46-17.31c14.53-3.36,29.26-5.44,44.2-6.59
			c18.31-1.41,36.62-1.17,54.86-0.56c17.75,0.6,35.51,1.24,53.25,1.96c21.34,0.86,42.64,2.93,63.91,4.91
			c16.41,1.53,32.38,5.35,47.91,10.93c3.35,1.2,6.44,2.72,8.09,6.18c2.25,4.71,2.26,11.33-4.79,13.03
			c-5.85,1.41-11.73,2.07-17.66,2.71c-4.45,0.48-8.95,0.6-13.35,1.32c-2.18,0.36-4.64,0.52-6.35,2.52
			c-8.77,10.3-21.15,13.18-33.47,16.22C590.72,122.41,568.88,120.88,549.58,121.06z"/>
		<path class="st12" d="M902.63,602.76c-8.65,1.14-16.86-0.97-25.18-0.83c-17.43,0.3-34.7,2.42-52.03,3.88
			c-10.57,0.9-21.16,1.48-31.75,2.15c-15.04,0.94-30.03,2.56-45.05,3.7c-12.23,0.93-24.4,2.37-36.61,3.42
			c-13.04,1.13-25.98,3.34-39.15,2.96c-3.86-0.11-7.62-0.75-11.32-1.49c-6.57-1.32-10.43-6.4-10.53-13.22
			c-0.03-2.24-0.59-4.03-1.92-5.96c-4.13-5.98-2.53-11.22,3.74-14.86c7.76-4.49,16.53-5.13,24.98-6.1
			c18.05-2.09,35.35-7.46,53.08-10.84c16.92-3.22,33.96-5.72,51.08-7.61c14.15-1.57,28.28-3.28,42.43-4.8
			c4.77-0.51,9.6-0.71,14.38-1c26.25-1.57,52.56-1.78,78.82-0.97c18.52,0.57,36.95,3.14,55.13,6.97c5.96,1.26,11.41,4.22,13.8,9.76
			c4.12,9.55,0.77,16.53-10.46,19.95c-3.63,1.1-7.5,1.37-11.22,2.18c-4.53,0.98-8.89,1.94-12.41,5.67
			c-3.37,3.56-8.62,3.22-13.1,4.04c-5.03,0.91-10.26,0.61-15.34,1.28C916.77,601.98,909.69,604.04,902.63,602.76z"/>
		<path class="st12" d="M615.14,200.14c-17.26-0.24-29.8,0.88-42.04-2.16c-8.12-2.02-16.03-4.63-20.97-12.23
			c-5.12-7.88-3.12-17.88,4.66-23.18c10.49-7.14,22.73-9.09,34.76-11.48c25.83-5.12,51.96-7.22,78.23-5.88
			c13.36,0.68,26.82,1.99,38.72,9.48c2.72,1.71,6.27,2.08,9.38,3.22c6.87,2.52,10.62,7.98,11.18,14.42
			c0.61,6.96-4.79,11.57-12.56,14.66c-12.43,4.93-25.5,7.4-38.69,8.94C655.39,198.57,632.94,200.81,615.14,200.14z"/>
		<path class="st3" d="M234.03,276.1c3.88,0.71,7.64-1.2,11.37-4.66c6.72-6.23,14.4-11.29,22.46-15.7
			c4.96-2.71,10.42-3.3,15.91-3.64c5.18-0.33,10.15-1.09,14.77-3.88c4.97-3,17.82,2.45,18.18,8.68c0.56,9.77,7.52,12.89,13.89,17.15
			c11.21,7.49,22.74,14.55,33.53,22.6c10.08,7.53,19.13,16.46,21.33,29.67c1.75,10.47-1.61,19.46-10.37,25.91
			c-6.72,4.95-12.07,2.59-13.11-5.64c-0.19-1.48-0.21-3.01-0.08-4.49c0.91-10.19-3.9-17.58-11.54-23.53
			c-11.45-8.91-23.98-16.22-35.98-24.32c-1.52-1.02-3.38-1.73-4.54-3.06c-7.13-8.15-14.56-6.83-23.51-2.56
			c-10.31,4.93-21.35,8.49-32.96,9.4c-2.06,0.16-3.33,1.33-4.67,2.58c-11.58,10.83-23.84,20.91-37.53,28.86
			c-10.34,6.01-20.96,11.58-31.3,17.62c-5.08,2.97-10.69,4.57-16.45,5.64c-2.88,0.53-5.43,0.04-8.16-1.26
			c-3.83-1.82-3.79-4.16-1.98-7.21c2.5-4.21,6.86-6.12,10.7-8.74c17.95-12.27,37.82-21.7,54.09-36.46c2.76-2.51,5.39-4.01,1.98-8.57
			c-3.85-5.14,1.33-13.86,7.84-14.38C229.55,275.98,231.23,276.1,234.03,276.1z"/>
		<path class="st3" d="M449.41,478.97c5.29,3.77,9.29,8.63,12.8,13.87c6.09,9.07,13.76,16.03,23.99,20.36
			c9.81,4.15,19.4,8.64,29.68,11.73c22.52,6.78,39.37,30.14,39.98,54.46c0.06,2.48,0.01,4.97,0.01,8.68
			c2.39-3.89,2.79-7.22,3.53-10.32c3.5-14.75,7.94-29.23,12.76-43.58c4.16-12.39,4.16-24.8,1.2-37.34c-1-4.24-1.75-8.45-1.56-12.84
			c0.1-2.28,0.86-4.2,2.18-5.98c2.28-3.05,4.42-3.39,7.24-0.35c13.44,14.49,18.48,31.31,14.1,50.65
			c-3.95,17.41-11.16,33.82-15.97,50.97c-2.06,7.34-3.32,14.94-7.31,21.69c-3.98,6.73-8.86,12.12-15.85,16.1
			c-5.99,3.41-11.21,8.29-16.46,12.88c-6.64,5.81-13.88,8.92-22.86,7.34c-3.26-0.57-6.62-0.54-9.93-0.81
			c-4.65-0.39-7.39-3.57-8.42-7.47c-0.99-3.72,1.9-6.47,4.76-8.68c3.8-2.94,8.44-3.88,12.9-5.16c2.43-0.7,4.7-1.61,6.96-2.68
			c2.89-1.36,4.07-3.33,3.88-6.7c-0.55-9.78,2.14-19.55,0.07-29.37c-2.83-13.47-9.66-24.21-22.16-30.26
			c-11.2-5.42-21.41-12.16-31-19.95c-4.99-4.06-8.91-9.03-11.69-14.79C457.18,500.95,452.42,490.36,449.41,478.97z"/>
		<path class="st12" d="M222.38,523.07c21.5-0.82,42.61,2.45,63.78,5.61c12.02,1.79,23.27,5.26,33.72,11.31
			c4.02,2.33,6.94,9.46,5.79,13.43c-1.6,5.52-5.32,9.98-10.96,10.21c-7.99,0.33-15.2,3.41-22.87,4.69
			c-12.05,2.02-24.06,2.23-36.17,0.85c-7.32-0.83-14.52,0.94-21.79,1.39c-20.53,1.25-41.09,3.41-61.55-0.4
			c-8.26-1.54-14.34-5.85-15.54-15.15c-0.31-2.35-2.01-4.53-3.09-6.78c-3.92-8.09,0.18-17.53,9.06-18.74
			c7.92-1.08,15.54-3.33,23.4-4.57C198.17,523.02,210.25,522.77,222.38,523.07z"/>
		<path class="st12" d="M172.72,71.11c-19.3-0.28-38.54-1.06-56.89-8c-5.12-1.93-10.18-4.03-13.39-9.01
			c-5.35-8.27-1.84-18.17,7.78-20.16c21.1-4.38,41.97-10.08,63.41-12.62c13.67-1.62,27.44-1.69,41.27-0.54
			c10.06,0.83,20.29,0.48,30.23,2.42c7.94,1.55,16.9,1.09,22.78,8.29c4.63,5.68,5.46,12.9-0.15,18.71
			c-8.48,8.8-19.28,11.92-30.37,13.62c-12.11,1.85-24.24,3.69-36.36,5.5C191.63,70.73,182.21,71.4,172.72,71.11z"/>
		<path class="st12" d="M462.26,241.06c13.92,0.22,26.36-2.1,38.8-0.92c17.1,1.62,34.52,1.22,51.08,6.84
			c11.29,3.83,15.37,15.74,8.55,25.36c-2.62,3.7-6.67,6.05-11.05,7.26c-5.43,1.5-10.97,2.61-16.68,2.46
			c-14.48-0.37-28.68,2.55-43.03,3.71c-16,1.29-32.35,4.12-47.83-1.93c-10-3.91-19.99-7.69-30.2-11.02
			c-4.85-1.58-9.29-4.54-8.98-11.11c0.27-5.65,2.33-8.92,7.95-10.38c2.71-0.7,5.58-1.32,8.33-1.19c5.28,0.25,9.75-0.71,13.39-4.99
			c1.85-2.18,4.93-2.97,7.74-3.01C448.16,242.04,455.88,240.17,462.26,241.06z"/>
		<path class="st3" d="M837.75,239.96c-0.78,2.34-1.59,4.66-2.32,7.01c-1.16,3.7-3.68,5.32-7.5,5.05c-3.13,0.29-5.94-0.29-8.15-2.77
			c-1.84-2.06-4.3-2.33-6.88-2.18c-2.76,0.17-5.6,0.29-6.21-3.33c-0.7-4.18-4.41-9.04,0.63-12.35c6.28-4.14,6.12-10.56,7.38-16.58
			c0.29-1.36-0.03-2.92-2.05-2.42c-17.47,4.34-33.41-1.99-49.53-7.07c-8.09-2.55-16.04-5.5-23.41-9.76c-2.72-1.57-6.43-3.83-5.03-7
			c1.38-3.11,5.45-1.35,8.17-0.45c12.14,3.98,24.01,8.83,36.63,11.26c12,2.31,23.71,2.97,34.37-4.62c2.33-1.66,5.01-2.99,7.77-3.25
			c5.23-0.48,7.98-3.86,11.15-7.46c10.41-11.85,16.98-25.49,22-40.39c7.09-21.01,20.87-36.88,40.87-47.02
			c3.63-1.84,7.49-2.83,11.46-3.26c4.5-0.49,6.58,2.1,5.34,6.4c-1.37,4.77-4.44,8.5-7.7,12.09c-5.25,5.8-10.61,11.49-15.66,17.46
			c-6.52,7.72-10.97,16.63-14.16,26.19c-4.26,12.77-10.37,24.27-20.1,34.03c-4.8,4.82-7.16,12-8.69,18.7
			c-2.12,9.24-3.95,18.51-7.4,27.38C838.21,236.99,838.07,238.51,837.75,239.96z"/>
		<path class="st12" d="M776.69,752.14c-6.34-0.72-13.42-1.4-20.46-2.39c-2.42-0.34-4.81-1.23-6.83-2.86
			c-8.65-6.97-8.29-16.15,1.38-21.72c8.17-4.7,16.82-8.02,26.62-8.36c10.22-0.36,20.41-1.86,30.61-2.85
			c3.04-0.29,5.93,0.36,8.77,1.42c4.62,1.73,9.08,3.6,14.23,4.02c4.57,0.37,8.96,2.79,11.23,7.34c3.9,7.79-0.88,17.65-9.6,19.12
			c-10.1,1.7-20.29,2.9-30.47,4.04C793.96,750.83,785.7,751.36,776.69,752.14z"/>
		<path class="st51" d="M907.46,283.82c-19.1-0.96-38.37-0.92-57.26-5.2C869.24,280.53,888.36,281.53,907.46,283.82z"/>
		<path class="st34" d="M950.5,574.67c-3.59,0.07-7.23,1.18-10.68-1.41C943.75,572.65,947.26,572.91,950.5,574.67z"/>
	</g>
</g>
</svg>
