<svg id="Layer_16" data-name="Layer 16" xmlns="http://www.w3.org/2000/svg" viewBox="0 0 1096.95 969.36"><defs><style>.cls-1{fill:#fafafa;}.cls-2{fill:#fffcf8;opacity:0.4;}.cls-3{fill:#666;}</style></defs><path class="cls-1" d="M935.44,6.89c-.71,1.82-.47,2.83,1.87,2.74,4.46-.19,4.62-.15,5.55,3.95,3.52,15.65,8,31,12.37,46.45,3.26,11.55,5.12,23.48,9.37,34.73,2.45,6.46,4.44,13,6.29,19.66a244.85,244.85,0,0,0,8,24.11c1.15,2.91,3.23,5.17,4.5,8,4,8.61,8.22,17.08,12,25.77,3.56,8.26,8,16,12.26,24,3.94,7.4,7.62,14.86,10.12,22.84,2.93,9.31,6.23,18.49,8.2,28.12,3.43,16.72,6.06,33.49,5.63,50.63a14.46,14.46,0,0,0,.35,5.36,4.89,4.89,0,0,0,1.85.1c4.06-1.5,7.32-.77,10.2,2.71,1.62,1.95,2,1.69,4.41.78a2.59,2.59,0,0,1,1.93-.29,45.11,45.11,0,0,0,5.39,12.18c1.86,3.07,2.64,6.89,3.43,10.48,1.35,6.09,2.33,12.26,3.49,18.39a4.74,4.74,0,0,0,.69,1.26c-.22,6.47,1.17,12.81,2.18,19.12,3.06,19,6.73,37.94,14.09,55.92,1.27,3.09,2,6.4,3.16,9.54,2.87,7.82,4.39,16,6.53,24,2.4,10.63,4.94,21.24,7.15,31.92,2.34,11.29,4.35,22.65,6.55,34,1,5.2,2.53,10.33,3.11,15.58,1.08,9.7,2.8,19.36,2.57,29.19-.07,3.37.22,6.75.35,10.13s-.23,6.77,0,10.13c.79,11.69,1,23.43,1.33,35.13.23,9.54.67,19.13.41,28.71-.27,10.56.68,21.12.24,31.71-.36,8.81.42,17.67.08,26.49-.33,8.52-1.16,17-2.27,25.51s-1.41,16.85-3.7,25.08c-1.71,6.17-2.1,12.67-4.63,18.65-3.37,8-5.23,16.61-10.43,23.79a5.62,5.62,0,0,0-1.42,4c.45,3.76-1.2,7-3,10a13.24,13.24,0,0,0-1.9,7.29c-.07,12.73-.88,25.39-3.72,37.85-1,4.54-2.26,9-3.11,13.63-2.94,15.79-6,31.54-11.11,46.83-4.68,13.89-10.62,27.22-16.83,40.47-1.73,3.7-3.83,7.34-4.07,11.66a17.58,17.58,0,0,0,5.52.38H1252.3c1.61,0,3.22-.13,4.83-.19-.21.29.49,1-.49,1-1.29,0-2.58,0-3.87,0H556.59c0-.33,0-.66,0-1h0c1.93.08,3.86.23,5.78.23H774.41q33.9,0,67.79,0c1.66,0,3.43.38,4.93-.44,0-1.68-1-2.31-1.79-3.06a60.25,60.25,0,0,1-12.29-17c-2-4.13-4.12-8.28-6.48-12.21a212.94,212.94,0,0,1-12-22.9c-4.55-10.26-8-21-12.38-31.32-3.46-8.14-6-16.58-9.85-24.63-3.68-7.77-5.32-16.51-7.73-24.86-1.14-4-1.79-8.06-3-12s-1.65-8.36-4.79-11.58c-.8-3.45-1.37-7-2.45-10.32s-2.61-6.34-3.62-9.67c-1.5-5-2.18-10.15-3.24-15.2-1.58-7.48-2.44-15.14-3.82-22.7-1.49-8.17-1.87-16.51-2.75-24.77a110.75,110.75,0,0,1-.38-23c0-.46-.27-.94-.26-1.41.06-1.83-2.66-4.43-.66-5.08,3.31-1.07,6.7-4.36,10.45-2,3.19,2,6.77,2.64,10.17,3.84,8,2.84,15.73,6.34,23.55,9.65,4.16,1.76,8.93,2.1,13.7,2.68a56.72,56.72,0,0,0-8.08-7.95c-6.4-5.43-14.09-9-20.47-14.45-8.82-7.5-17.66-15-24.58-24.41-1.23-1.68-2.47-2.85-5.05-2.92-4.53-.12-7-3.81-8.61-7.44A145.26,145.26,0,0,1,740.85,628c-.82-4.22-2.23-8.53-1.53-13.21.49-3.3-1.51-6.75-1.55-10.35-.06-6-.85-12-.88-18,0-8.22-1.4-16.39-.83-24.61.6-8.68,0-17.35,0-26,0-7.92-.35-15.88.08-23.73.35-6.29.34-12.63.79-18.93.29-4,.67-8.07.8-12.09.15-4.53-.13-9.46,1.86-13.87a5.92,5.92,0,0,0,.16-2.83c-.21-6.73,1.65-13.21,2.53-19.8.19-1.46.63-2.76-.46-4,1.17-1.42,2-2.9,1.29-4.84a4.14,4.14,0,0,1-.1-2.84c2.7-8.09,2.18-16.73,4.24-24.95a54.38,54.38,0,0,0,1.7-12.23c.1-5.69,1.41-11.24,2.15-16.79.59-4.35,1.36-8.93,2.22-13.34,1.32-6.76,2.8-13.58,3.48-20.42a112.26,112.26,0,0,1,4.7-22.95,10.11,10.11,0,0,0,.18-3.81c-.08-.93-.58-1.76.11-2.73,1.5-2.11,1.27-4.62,1.29-7a46.16,46.16,0,0,1,1.22-10.42c1.13-4.63,1.81-9.35,3.38-13.91s.74-9.46,2.05-14.07c.32-7.16,2-14.19,2.52-21.28.59-7.51,2.78-14.62,3.92-22,1.22-7.83,2-15.74,4.05-23.44,1-3.86,1.41-7.88,2.54-11.69,1.52-5.08,1.81-10.46,3.87-15.39,1.35-3.21,3.13-6.19,4.24-9.57,2.59-7.94,4.12-16.13,6-24.24a65,65,0,0,1,13.62-28.28,26.23,26.23,0,0,1,3.2-2.92,3,3,0,0,1,1.23-.6c3,4.13,5.84-1.11,9-.28,1.89.49,3.66.58,5,2.16,1.93,2.36,4,4.61,5.72,7.12,3.07,4.54,7.44,7.84,11,12,1.63,1.89,2.89,4.25,4.55,5.73a29.91,29.91,0,0,1,4.82,5.15c3,4.36,7.5,7.28,10.78,11.35-.1.54,0,1,.61,1.13l.09.19,4.31,6.16c-.67-2.92-1-4.75-2.14-6.35a237.9,237.9,0,0,1-7.32-24.83c-2.31-9-5.13-17.81-6.53-27a101.54,101.54,0,0,1-.48-30.1c.62-4.24,1.52-8,3.75-11.54a10.74,10.74,0,0,1,1.34-2c7.73-7.44,14.71-15.57,23.88-21.58,7.93-5.2,16.08-9.95,24.18-14.81,5.87-3.53,11.5-7.46,17.17-11.31,2.24-1.52,4.16-3.45,7.19-3.53.88,0,.8-1.15-.19-1.62ZM1029.56,328a7.14,7.14,0,0,0-1.39.17c-4.78,1.53-8.59,4.57-12.29,7.79-2.38,2.08-5.15,3.64-8.26,2.83-7-1.83-8.91-5.41-6.89-12.46a33.51,33.51,0,0,1,1.86-4.43c1.5-3.35,3.63-6.42,4.4-10.08,3.25-6.42,3.55-13.68,5.83-20.38a3.2,3.2,0,0,0,0-1.89c-1.76-5.91-1.62-12.09-2.46-18.12a243.34,243.34,0,0,0-11.79-47.16,83.08,83.08,0,0,0-5.86-13.69c-5.28-9.35-10.22-18.87-14.59-28.69-3.91-8.79-7.89-17.55-12.15-26.17a113.56,113.56,0,0,1-7.51-18.15c-2.85-9.69-5.87-19.33-8.89-29-2.83-9-6.54-17.8-7.81-27.28a29.84,29.84,0,0,0-.85-4.73c-3.48-11.71-6.1-23.62-8.73-35.54-.63-2.85-.37-6-1.86-8.71-6.06,3.79-11.58,7.83-17.37,11.5-4.74,3-9.92,5.29-14.47,8.56-9.82,7.07-19.68,14.09-28.81,22.09a3.82,3.82,0,0,0-1.54,4.14c.82,3.92,1.28,7.92,2,11.85,2.95,15.15,7.25,29.94,11.51,44.76,4.31,15,10.6,29.32,14.47,44.46,1.74,6.82,3.19,13.78,6.37,20.16a3.56,3.56,0,0,1,.52,1.85c-.25,1.86-.3,3.73-1.83,5.28s-2.94.29-4.33.47c-2.94.4-4.29-1.93-6.37-2.9-9.61-4.47-16.83-11.93-23.74-19.67-4.89-5.47-9.54-11.18-14.07-17-5-6.33-10.91-11.77-15.83-18.13-1.86-2.39-3.29-5.05-5.17-7.45-3.14-4-7-7.48-9.57-12-1.41-2.46-1.65-5.65-4.46-7.55a17.51,17.51,0,0,0-1,1.55c-.42.86-.79,1.75-1.16,2.64-3.33,8.1-5,16.58-6,25.24a190.52,190.52,0,0,1-5.79,30.22c-.88,3.09-2.07,6.06-2.69,9.25-3.69,19.12-4.08,38.64-7.19,57.81-.85,5.22-.62,10.49-1.15,15.71a7.65,7.65,0,0,0-.72,4.23c.81,6-.87,11.71-2.43,17.43-1,3.82-2.25,7.69-2.52,11.6-.62,8.89-2.48,17.6-3.37,26.45-.77,7.69-2.75,15.18-4.52,22.7-.23.94-.77,1.87-.41,2.8.85,2.16.07,4.16-.56,6.1a43.93,43.93,0,0,0-2.11,11.77c-.32,7.65-1.87,15.1-3.09,22.54-2.18,13.38-3.78,26.84-6.13,40.19-.56,3.15-1.52,6.28-1.13,9.55-1.41,1.54-.06,3.48-.61,5-2.22,6.1-2.23,12.61-2.77,18.85-.57,6.77-1.1,13.52-2.19,20.23a4.74,4.74,0,0,0,2.06,4.94c6.31,5,12.74,9.73,19.38,14.24,13.57,9.21,26.95,18.69,39.68,29,5.32,4.33,11.25,8.1,14.92,14.25-3.56,1.2-6.59-.18-9.63-1.65-7.12-3.46-13.51-8.19-20.46-11.88a234.19,234.19,0,0,1-42-29c-1.17-1-2.18-2.38-3.85-2.56-2.24,6.59.39,13.32-.92,19.9-.23,1.16.92,1.95,1.67,2.8a71.6,71.6,0,0,0,9.15,9.19c9.05,7,17.17,15,26.29,21.88,9.63,7.24,19.35,14.36,28.93,21.69,14.19,10.87,28,22.18,41.94,33.4,2.66,2.15,5.6,4.23,7.56,8-5.49-1.07-10.36-1.69-15.25-3.53a69.51,69.51,0,0,1-16.92-8.66c-14.17-10.37-28.2-20.93-42.41-31.26-11.22-8.16-22.44-16.29-31.86-26.61-2.47-2.71-5.29-5.1-7.94-7.63-.77.71-1.33,1.42-1.18,2.24.57,3.16.18,6.28.05,9.45a338.34,338.34,0,0,0,.84,34.87c.47,7.64,1.13,15.26,1.84,22.88a105.77,105.77,0,0,0,4.9,24.39c2.27,6.67,4.79,13.41,5.74,20.32.65,4.72,3.08,7.7,6.11,10.16,3.61,2.91,7.32,5.74,10.94,8.66,5.49,4.44,10.94,9,17.15,12.39a62.32,62.32,0,0,1,10.3,7.16c5.25,4.48,10.22,9.34,15.68,13.54,4.7,3.62,9.27,7.39,13.89,11.11a80.36,80.36,0,0,1,8.65,8.36c2.57,2.82,2.59,6.32,1.4,9.43-1.08,2.85-4,4-7.15,3.93a50.11,50.11,0,0,1-9.15-.7c-6.93-1.34-13.7-3.46-20.75-4.25a108,108,0,0,1-35.8-10.36c-3.68-1.8-6.81-4.56-11-6.15,1.73,6.63,3.63,12.75,4.88,19,1.83,9.12,3.61,18.22,7.39,26.8.51,1.16.6,2.52,1.12,3.67,2.35,5.17,2.62,10.9,4.89,16.17,3.64,8.42,6.54,17.17,10.52,25.47.55,1.83,1.31,3.6.88,5.61a2.91,2.91,0,0,0,.64,2.74c3.88,3.67,4.08,9,5.36,13.56C811,840,813.93,848,817,856.1c1.13,3,2.58,6,3.11,9.43.31,2-.8,5,1.83,6.54,1.8,1,1.94,2.69,1.94,4.56a15.66,15.66,0,0,0,3.16,9.31,14.84,14.84,0,0,1,3.14,7.87,7.89,7.89,0,0,0,2.09,4.18,12.82,12.82,0,0,1,2.94,7l2.35,6.25c2.14,1.67,2.84,4.15,3.54,6.57a29.84,29.84,0,0,0,1.81,4.32c3,6.35,7.42,11.91,9.85,18.55a29.27,29.27,0,0,0,5.13,8.67c4.36,5.17,8.8,10.25,12.69,15.82,1.76,2.52,2.83,5.4,4.71,7.83,1,1.31,1.88,2.52,3.81,2.51q17.67-.07,35.34,0c2.15,0,2.83-1,2.84-3a33.56,33.56,0,0,1,.21-5.31c1.23-7.42,2.58-14.82,3.91-22.23,2.37-13.1,4.69-26.22,6.81-39.37,2.58-16,5.57-32,8.85-47.84,2.76-13.39,5-26.85,7.31-40.31,1.23-7.27,2.85-14.47,3.68-21.8s1.77-14.94,2.76-22.39c1.29-9.67,3.06-19.28,3.91-29,.77-8.76,2.3-17.43,2.85-26.21.38-6,1.61-12,1.9-18,.57-12.05,1.83-24.09,1-36.17-.12-1.82,1.14-3.83-.5-5.51-.05-3-.11-6-.15-9.06-.23-16.19.13-32.39-.83-48.58-.32-5.46-.49-11-1.72-16.26-2.22-9.43-2.47-19-3.1-28.52-.53-8.11-.66-16.29-.54-24.47.13-8.81-1-17.62-1.11-26.44-.12-9.34-.4-18.67-1.09-28-.21-3-1.45-5.95-1.3-8.87.39-7.8-1.36-15.25-2.91-22.76,0-3.09-1.59-5.92-1.68-8.9-.25-8-2.1-15.79-3.41-23.62a161.64,161.64,0,0,1-2.35-26.17c0-6.36-.14-12.68-.62-19a249,249,0,0,1-1-29,59.84,59.84,0,0,0-.43-12.38,79.9,79.9,0,0,1-1-14.82c.12-4.95-1.06-9.75-1-14.71.21-9-2.41-17.76-2.35-26.77,0-.56-.49-1.13-.76-1.69.06-1.54.32-3,.27-4.62-.27-7.27-2-14.26-3.36-21.32-1.81-9.13-2.21-18.51-4.48-27.55a72.82,72.82,0,0,1-2-18.65c.15-13.08-1.3-26.05-2.49-39-1.41-15.24-1.64-30.52-2.72-45.76-.46-6.59.33-13.11,1.13-19.63a8.23,8.23,0,0,1,3.19-5.74c.74-.58,1.46-.59,2,.35a4.6,4.6,0,0,1,.69,3.13,47.32,47.32,0,0,0,.55,14.12c1.09,6.75,2.27,13.52,3.17,20.29,1.31,9.8,2.6,19.56,4.79,29.22,2,8.9,3.37,17.93,5.8,26.74a44.74,44.74,0,0,1,1.09,7.09c1,8.84,1.86,17.8,5.82,25.92a32.07,32.07,0,0,1,2.84,11,93,93,0,0,0,3.27,14.92c.88,3.19,2.31,6.17,2.86,9.53,1.67,10.14,1.59,20.42,2.86,30.57-.22.59-.15,1.06.51,1.3a3.41,3.41,0,0,0,.43.64c-.65,1.57-.34,3.17-.19,4.77,1.54,16.16,2.15,32.39,2.63,48.59a440.8,440.8,0,0,0,3.32,45.65c1.43,10.67,2.76,21.36,3.79,32.07.47,4.82,1.76,9.46,2.26,14.27a141,141,0,0,0,3.67,21.35,11.17,11.17,0,0,0-.1,1.91c1.32,12.77,2.27,25.58,3.25,38.38s.53,25.71,1.24,38.56c.6,10.89.56,21.83.37,32.75a259.51,259.51,0,0,0,1.87,32.63c.54,4.94.27,9.88.36,14.81.15,8.61.5,17.23.61,25.86q.15,12,.29,24.08c1.14,14.88-.43,29.69-1.46,44.49q-1.29,18.63-3.85,37.17c-1.38,10.14-1.3,20.41-3.27,30.54-1.7,8.72-2,17.7-3.29,26.5-.93,6.19-1.15,12.49-2.49,18.57-3,13.64-4.21,27.57-7.32,41.18-1.68,7.35-2.39,14.9-4,22.27-1.41,6.61-2.72,13.22-3.77,19.89-1.09,7-2.34,13.9-3.63,20.83-1.54,8.32-3.32,16.61-4.8,24.93-1.12,6.26-2.21,12.55-3.59,18.74-1,4.49-.88,9.05-2.41,13.45a13.76,13.76,0,0,0,1.92.34q39.72,0,79.45,0c3.57,0,3.66-.26,5-4a122.48,122.48,0,0,1,6.49-15.58c3.07-6,6.5-11.87,8.89-18.14,3.11-8.17,6.64-16.19,9.38-24.52a234.63,234.63,0,0,0,6.87-26.06c1.7-8.33,3.46-16.62,5.93-24.75a145.55,145.55,0,0,0,4.84-23,45.19,45.19,0,0,0-8.73,6.81c-4.39,4.06-8.68,8.2-13,12.32a16.11,16.11,0,0,1-7,4c-3.31.83-5.83-1.28-8.13-3.57-3.07-3.07-3.18-4.31-1.17-8.3a20.35,20.35,0,0,1,3.32-4.67c8.62-9.37,17.43-18.53,26.67-27.32,6.87-6.52,12.54-13.88,15.5-23.42s6.53-18.81,8.54-28.55c2.24-10.84,4.7-21.68,5.41-32.79.52-8.26,2.18-16.45,1.94-24.75-.41-14.11.09-28.22-.06-42.32-.1-9.23-.57-18.46-.68-27.69-.12-10.45-.13-20.89-1.15-31.3-.15-1.56.71-3.23-.52-4.67a12.59,12.59,0,0,0,.58-3.31c-1-11.08.29-22.23-1-33.3a37.42,37.42,0,0,1-.51-6.15c.44-8.06-1.29-15.83-2.56-23.65-1.1-6.78-2.33-13.55-3.84-20.25-1.61-7.14-3-14.32-4.33-21.5-1.81-9.42-4.49-18.65-6.39-28.07-.8-4-1.37-8.19-3.45-11.87.58-3.61-.64-7.11-1.83-10.23-5.82-15.15-11.08-30.44-14.52-46.32-.67-3.11-1-6.29-1.78-9.39a231.42,231.42,0,0,1-4.39-27.06c-1.12-9.71-2.16-19.43-4.17-29,.22-3.11-1.22-5.65-2.58-8.59C1034.69,326.4,1031.92,326.72,1029.56,328Z" transform="translate(-160.22 -6.89)"/><path class="cls-2" d="M1257.13,975.28c-1.61.06-3.22.19-4.83.19H1050.36a17.58,17.58,0,0,1-5.52-.38c.24-4.32,2.34-8,4.07-11.66,6.21-13.25,12.15-26.58,16.83-40.47,5.15-15.29,8.17-31,11.11-46.83.85-4.58,2.07-9.09,3.11-13.63,2.84-12.46,3.65-25.12,3.72-37.85a13.24,13.24,0,0,1,1.9-7.29c1.83-3,3.48-6.23,3-10a5.62,5.62,0,0,1,1.42-4c5.2-7.18,7.06-15.81,10.43-23.79,2.53-6,2.92-12.48,4.63-18.65,2.29-8.23,2.61-16.69,3.7-25.08s1.94-17,2.27-25.51c.34-8.82-.44-17.68-.08-26.49.44-10.59-.51-21.15-.24-31.71.26-9.58-.18-19.17-.41-28.71-.29-11.7-.54-23.44-1.33-35.13-.23-3.36,0-6.75,0-10.13,2.6-.44,4.08-2.5,5.71-4.21a71.22,71.22,0,0,1,13.5-10.92c2.45-1.56,4.87-3.16,7.24-4.84a153.12,153.12,0,0,1,32.25-17.33c16-6.36,31.31-14.46,46.29-23,11.19-6.41,22.32-12.93,33.54-19.28,3.07-1.73,6.39-3,9.6-4.55Z" transform="translate(-160.22 -6.89)"/><path class="cls-2" d="M769.73,270.29c-1.31,4.61-.49,9.57-2.05,14.07s-2.25,9.28-3.38,13.91a46.16,46.16,0,0,0-1.22,10.42c0,2.39.21,4.9-1.29,7-.69,1-.19,1.8-.11,2.73a10.11,10.11,0,0,1-.18,3.81,112.26,112.26,0,0,0-4.7,22.95c-.68,6.84-2.16,13.66-3.48,20.42-.86,4.41-1.63,9-2.22,13.34-.74,5.55-2.05,11.1-2.15,16.79a54.38,54.38,0,0,1-1.7,12.23c-2.06,8.22-1.54,16.86-4.24,24.95a4.14,4.14,0,0,0,.1,2.84c.76,1.94-.12,3.42-1.29,4.84-8.21.65-16.43.12-24.65.24-18.87.25-37.65-1.45-56.46-2.74-7.39-.51-14.8-.54-22.21-1-11.89-.72-23.83-.85-35.75-1.2q-15.71-.46-31.41-.88a4.92,4.92,0,0,1,0-1.44C574.2,425,575.32,416,577,407.2c.92-4.92,1.16-9.9,2.15-14.8,1.9-9.47,4.18-18.83,6.58-28.19,2.56-10,4.56-20,6.32-30.21,1.38-8,3.35-16,4.89-24,2.44-12.59,7.05-24.39,11.16-36.39,1-3,2.67-5.86,4-8.79,4.8-10.56,7.69-21.74,10.67-32.89,1.15-4.32,1.3-4.27-2.6-7.19-.38-.29-1-.62-1-.95-.1-2.37-1.6-1.32-2.73-1.18-3.91.46-7.25,2.66-11,3.63-26.07,6.77-51.14,16.58-76.53,25.38-14.3,5-28.22,11-42.42,16.26-6.68,2.47-12.65,6.28-19.08,9.2a11.29,11.29,0,0,0-4.64,4.15c-.52.79-1.25,1.5-1,2.6,1,4.61.09,9.64,3.31,13.77.74,1,.86,2.41,1.22,3.64,2.59,8.82,3.73,17.95,5.9,26.86.07.29.25.93-.49.91a5.15,5.15,0,0,1-1.6-2.91c-3-9.13-9.38-15.59-16.64-21.39-1.82-1.46-4.08-2-5.89-1-3.62,1.88-7.57,3.32-10,7.11a20.17,20.17,0,0,1-7.13,7.09c-1.91,1-2.33,2.05-2.84,3.82a6.63,6.63,0,0,0,1.79,6.65c3.64,4,5.79,8.85,7.93,13.73,1.1,2.49,2.65,4.79,4,7.18,1.78,3.25,3.54,6.5,5.31,9.75l-.89,1.05a100.8,100.8,0,0,0-29.23-9.42c-4.67-.8-8.83,2.16-8.47,6.54.22,2.71-.87,4.18-2.17,6-1,1.43-2.07,2.87-3,4.36-7.75,12-12.31,25.41-16.83,38.81q-5.28,15.68-9.2,31.76c-.31-.94-.7-1.84-1.87-1.91s-2.26-.11-3.39-.13c-23.74-.32-47.49-.7-71.21.17-27.44,1-54.88.71-82.32.71-1.95,0-3.81-.06-5.43,1.43-1.37,1.27-3.36,1.12-5.07,1.3-5,.52-9.95.84-14.93,1.09-14.75.75-29.07-10-31.57-24.91-.76-4.48-1.21-9.11.33-13.39,2.69-7.52,2.92-15.49,4.89-23.1,6.21-24,10.88-48.54,20.42-71.54,12.17-29.34,31.34-53.26,58.45-70.32,12-7.51,25.28-11,39.24-12.74,18.62-2.27,36.61,1.22,54.6,5.14,4.56,1,9.07,2.23,13.59,3.41,12.84,3.37,24.24,9.61,34.75,17.59a34.68,34.68,0,0,0,9.3,5.1c4.07,1.46,7.55.5,10.73-2.3A35,35,0,0,0,416,241a154.07,154.07,0,0,0,11.9-43.19c1.28-10.74,3.27-21.35,8.07-31.21,8.69-17.84,22.75-29.77,40.83-37.39,14.54-6.13,29.4-6.63,44.56-2.9,2.35.58,4.74,1,7,1.69,6.83,2.1,13,.62,19-3,5.8-3.5,11.53-7.08,17.83-9.72,12.65-5.33,25-5.06,37.46.78A127.66,127.66,0,0,1,631.83,135c11,9.53,18.08,21.79,23.51,35.06,6.1,14.93,11.95,30,19.51,44.25a166.87,166.87,0,0,0,20,29.65,58,58,0,0,0,27,18.19,183.61,183.61,0,0,0,43.6,8.28C766.82,270.5,768.28,270.33,769.73,270.29Z" transform="translate(-160.22 -6.89)"/><path class="cls-2" d="M776.89,815.49c3.14,3.22,3.57,7.59,4.79,11.58s1.84,8,3,12c2.41,8.35,4.05,17.09,7.73,24.86,3.81,8.05,6.39,16.49,9.85,24.63,4.38,10.33,7.83,21.06,12.38,31.32a212.94,212.94,0,0,0,12,22.9c2.36,3.93,4.47,8.08,6.48,12.21a60.25,60.25,0,0,0,12.29,17c.78.75,1.81,1.38,1.79,3.06-1.5.82-3.27.44-4.93.44q-33.9,0-67.79,0H562.34c-1.92,0-3.85-.15-5.78-.23.11-11.77,0-23.62,2.87-35.09,7.76-31.18,24.35-56.73,50.51-75.57,14.46-10.42,31-16.24,48.38-20.06,10.4-2.29,20.93-3.71,31.43-5.35,18.06-2.81,35.51-7.91,52.88-13.42C754,822.14,765.36,818.52,776.89,815.49Z" transform="translate(-160.22 -6.89)"/><path class="cls-1" d="M376.71,438.05q3.94-16.07,9.2-31.76c4.52-13.4,9.08-26.8,16.83-38.81,1-1.49,2-2.93,3-4.36,1.3-1.78,2.39-3.25,2.17-6-.36-4.38,3.8-7.34,8.47-6.54A100.8,100.8,0,0,1,445.64,360c.4.14,1,.53,1.16.39.68-.53.14-1-.27-1.44-1.77-3.25-3.53-6.5-5.31-9.75-1.32-2.39-2.87-4.69-4-7.18-2.14-4.88-4.29-9.7-7.93-13.73a6.63,6.63,0,0,1-1.79-6.65c.51-1.77.93-2.81,2.84-3.82a20.17,20.17,0,0,0,7.13-7.09c2.45-3.79,6.4-5.23,10-7.11,1.81-.94,4.07-.42,5.89,1,7.26,5.8,13.67,12.26,16.64,21.39a5.15,5.15,0,0,0,1.6,2.91c.74,0,.56-.62.49-.91-2.17-8.91-3.31-18-5.9-26.86-.36-1.23-.48-2.69-1.22-3.64-3.22-4.13-2.33-9.16-3.31-13.77-.23-1.1.5-1.81,1-2.6a11.29,11.29,0,0,1,4.64-4.15c6.43-2.92,12.4-6.73,19.08-9.2,14.2-5.24,28.12-11.3,42.42-16.26,25.39-8.8,50.46-18.61,76.53-25.38,3.73-1,7.07-3.17,11-3.63,1.13-.14,2.63-1.19,2.73,1.18,0,.33.65.66,1,.95,3.9,2.92,3.75,2.87,2.6,7.19-3,11.15-5.87,22.33-10.67,32.89-1.33,2.93-3,5.76-4,8.79-4.11,12-8.72,23.8-11.16,36.39-1.54,8-3.51,16-4.89,24-1.76,10.17-3.76,20.25-6.32,30.21-2.4,9.36-4.68,18.72-6.58,28.19-1,4.9-1.23,9.88-2.15,14.8-1.65,8.84-2.77,17.79-5.59,26.39a4.92,4.92,0,0,0,0,1.44c-2.54,11.12-6.7,21.79-9.09,33a96.17,96.17,0,0,1-4.12,12.79,30.58,30.58,0,0,0-1.89,12.59,89.39,89.39,0,0,1-3,27.22A147.89,147.89,0,0,1,545,543c-1.78,4.07-4.22,8-5.16,12.43a3.85,3.85,0,0,1-.77,1.76c-4.09,4.48-5.22,10.56-8.47,15.53-1.9,2.93-2.87,6.45-4.35,9.66-4.29,9.27-8.77,18.43-13.33,27.57-2.92,5.85-6.18,11.55-8.81,17.5-1.88,4.25-4.2,8.32-5.8,12.75a47,47,0,0,1-7.06,12.17,16.61,16.61,0,0,0-2.16,3.17c-2.18,5-5.44,9.35-8.72,13.65a5,5,0,0,0-1.09,4,61.89,61.89,0,0,0,1.42,8.07c2.18,7.42,2.79,15,2.94,22.68.16,8.21,1.44,16.31,2.3,24.44.44,4.23,1.81,8.43,2.8,12.64,1.39,5.92,1.66,12.1,4.09,17.78.63,1.47,1.27,2.93,1.94,4.38,2.69,5.77-2.3,9.84-7,9.33a8.25,8.25,0,0,1-5.9-3c-4.13-5.68-8.23-11.22-9.12-18.76-.77-6.46-3.55-12.63-4.86-19.09-1.8-8.84-2.15-17.81-3-26.73-.4-4,.65-7.93-.3-11.88-.53-2.23-1.24-4.08-3.32-5.54a30.62,30.62,0,0,1-10-12.17,11.42,11.42,0,0,0-4.29-5c-6.77-4.32-11.62-10.46-16.28-16.89-5.16-7.11-9.93-14.49-15.07-21.61-8.26-11.45-18-21.72-25.7-33.58-4.43-6.87-8.33-14-10.36-22.09-1.09-4.33-2.82-8.5-4-12.82-3.28-12.16-4.18-24.65-5-37.15a173,173,0,0,1-.07-20.62c.37-7-.07-14.05.5-21.06.84-10.32,1.41-20.69,2.91-30.93C374.53,448.46,375.46,443.2,376.71,438.05ZM593.36,277a95,95,0,0,0-14.84,20c-9.46,16.45-19.72,32.39-29.5,48.64-8.45,14-18.38,27.12-27.21,40.93-6.57,10.27-14,20-20.27,30.49-3.79,6.33-7.69,12.6-10,19.71a51.36,51.36,0,0,1-2.45,6.21c-4.76,8.65-7.18,18.21-10.55,27.38a56.78,56.78,0,0,0-3,10.56c-1.4,9.15-2.51,18.34-4,27.5-.68,4.36-1.4,8.77-1.81,13.22-.63,7-.2,14,.09,20.9.49,11.57.28,23.12.23,34.68,0,8.81.15,17.62-.11,26.42-.38,12.45,2.44,24.6,3.19,36.94.08,1.42-.26,3.18,1.49,4.38a216.63,216.63,0,0,0,11.17-21.24C491,613.08,495,602,500.38,591.4c3.16-6.22,6.76-12.22,9.26-18.84a113.3,113.3,0,0,1,4.94-10.8c2.77-5.54,5.37-11.15,8.29-16.63,4-7.49,7.63-15.17,11.25-22.85a37.21,37.21,0,0,0,3.43-12l-2.08,1.47c-7.56,5.16-14.2,11.65-22.57,15.65-3.13,1.49-6.65,2.16-9.35,4.56-2.27,2-5.17,2.33-8,2.93a3.21,3.21,0,0,1-3.63-1.63c-1-1.4.46-2.42,1.31-3.21,2.12-2,4.22-4.12,6.9-5.22,4.82-2,8.72-5.41,13.13-8,8.07-4.75,14.42-11.85,22.44-16.69a9.68,9.68,0,0,0,2.88-3.22c3.29-5,6.25-10.11,5.33-16.52a12.47,12.47,0,0,1,.52-4.3q4.59-20.58,9.25-41.15A205.68,205.68,0,0,0,560.49,408c2.57-12.75,5-25.52,8.58-38,3.86-13.42,8.31-26.7,10-40.66a35.13,35.13,0,0,1,1.25-4.65c1.72-6.52,3.72-13,5.06-19.57a105.72,105.72,0,0,1,6.36-20.19,22.27,22.27,0,0,0,2.06-7.39c.37-.3.68-.78.28-1.06S593.49,276.69,593.36,277ZM397.5,436.65c-1.51,1.93-.73,4.32-1.3,6.43-2.22,8.18-2.49,16.66-3.85,25-.36,2.21-1.42,4.47-1.18,6.59a59.78,59.78,0,0,1-.43,14.28c-.64,5.12.19,10.23-.44,15.37s-1.08,10.39-.25,15.38c1,5.86.31,11.76,1.36,17.54,1.08,6,.79,12.1,2.39,18,1.43,5.26,3.26,10.43,4.35,15.75,1.65,8.11,5.63,15.14,10.45,21.45,13,17.09,26.18,34,37.2,52.55,3,5,6.18,10.18,11.61,13.38a7.54,7.54,0,0,0-.21-3.79,270.72,270.72,0,0,1-6.33-48.17c-.45-10,.17-19.93.13-29.9,0-11.43,1.26-22.81,1.14-34.25a174,174,0,0,1,1.69-29.38c.64-4,1.58-7.9,2.07-11.88,1.79-14.31,3.45-28.59,8.19-42.39,2.5-7.3,5.21-14.48,8.07-21.62a30.52,30.52,0,0,0,3.61-6.82,117.68,117.68,0,0,1,11.63-21.64c8.13-12.39,16.6-24.55,24.78-36.91,9.78-14.77,20.33-29,30-43.87,10.93-16.85,20.9-34.35,33.54-50.14,7.17-8.95,15-17.23,22.5-25.81,2.66-3,5.91-5.59,8.55-10.08-3.83,1.06-6.62,1.7-9.32,2.6-17.55,5.9-35.21,11.46-52.66,17.69-10.76,3.85-21.5,7.7-32,12.2s-21.49,7.66-31.14,13.94a9.43,9.43,0,0,1-1.81.63c-6.3,2.38-6.45,2.67-4.57,8.8.05.16.08.32.13.47,3.29,10.46,4.83,21.33,7.49,31.94a44,44,0,0,1,.89,16.82c-.33,2.36-1.22,4.48-3.83,5-2.27.47-3.54-1.31-4.67-2.81-3.11-4.09-6.41-8-9-12.52a45.46,45.46,0,0,0-8.19-10.12c-3.25-3.07-6.63-6.06-8.59-10.64L441,326.45c3.6,1.76,5,5.05,7,8,3.43,5.09,5.82,10.76,9.2,15.87a10.15,10.15,0,0,1,1.41,3.57c1.5,7.89,2.89,15.81,4.35,23.71a11.43,11.43,0,0,1-1,6.51c-.78,2-2,2.39-3.8,1.65a65.62,65.62,0,0,1-7.85-3.47,277.32,277.32,0,0,0-29.87-14.56c-2.09-.89-2.73-.13-2.58,1.76.34,4.49-1.12,8.58-2.65,12.65-1.65,4.35-3.45,8.66-5.08,13C405.08,408.72,401.46,422.74,397.5,436.65Z" transform="translate(-160.22 -6.89)"/><path class="cls-2" d="M1089.27,457.37c-2.14-8-3.66-16.2-6.53-24-1.16-3.14-1.89-6.45-3.16-9.54-7.36-18-11-36.9-14.09-55.92-1-6.31-2.4-12.65-2.18-19.12,2.18.32,3.74,1.83,5.43,3,14.08,9.72,28.87,18.28,43.43,27.21,5.79,3.54,12.07,5,18.76,5.68,8.49.83,17.1.24,25.51,1.93,12.23,2.45,24.13,5.9,34.44,13.29,4.5,3.23,8.48,6.94,10.08,12.57,2.46,8.65-.53,15.87-6,22.3-6.45,7.58-15.36,11-24.61,13.55a200.38,200.38,0,0,1-39.07,6.08c-12.86.88-25.73,1.39-38.62,1.74C1091.39,456.14,1090,455.91,1089.27,457.37Z" transform="translate(-160.22 -6.89)"/><path class="cls-2" d="M1087.94,603.18c1.23,1.44.37,3.11.52,4.67,1,10.41,1,20.85,1.15,31.3.11,9.23.58,18.46.68,27.69.15,14.1-.35,28.21.06,42.32.24,8.3-1.42,16.49-1.94,24.75-.71,11.11-3.17,22-5.41,32.79-2,9.74-5.59,19.06-8.54,28.55s-8.63,16.9-15.5,23.42c-9.24,8.79-18,18-26.67,27.32a20.35,20.35,0,0,0-3.32,4.67c-2,4-1.9,5.23,1.17,8.3,2.3,2.29,4.82,4.4,8.13,3.57a16.11,16.11,0,0,0,7-4c4.32-4.12,8.61-8.26,13-12.32a45.19,45.19,0,0,1,8.73-6.81,145.55,145.55,0,0,1-4.84,23c-2.47,8.13-4.23,16.42-5.93,24.75a234.63,234.63,0,0,1-6.87,26.06c-2.74,8.33-6.27,16.35-9.38,24.52-2.39,6.27-5.82,12.14-8.89,18.14a122.48,122.48,0,0,0-6.49,15.58c-1.29,3.72-1.38,4-5,4q-39.72,0-79.45,0a13.76,13.76,0,0,1-1.92-.34c1.53-4.4,1.41-9,2.41-13.45,1.38-6.19,2.47-12.48,3.59-18.74,1.48-8.32,3.26-16.61,4.8-24.93,1.29-6.93,2.54-13.87,3.63-20.83,1-6.67,2.36-13.28,3.77-19.89,1.58-7.37,2.29-14.92,4-22.27,3.11-13.61,4.3-27.54,7.32-41.18,1.34-6.08,1.56-12.38,2.49-18.57,1.32-8.8,1.59-17.78,3.29-26.5,2-10.13,1.89-20.4,3.27-30.54q2.53-18.53,3.85-37.17c1-14.8,2.6-29.61,1.46-44.49,5.5.52,10.93-.64,16.41-.69,11-.1,21.94-.07,32.91-.28a93,93,0,0,0,18.14-2.44c9.8-2.16,15.72-8.77,18.34-17.49,3.7-12.31,11.55-21.8,18.74-31.86C1087,603.46,1087.53,603.38,1087.94,603.18Z" transform="translate(-160.22 -6.89)"/><path class="cls-2" d="M947.2,445.45l-26.08-1.38c-1-.05-1.93-.18-2.9-.21-14.52-.41-29-.88-43.55-1.2-19.85-.43-39.72-.38-59.55-1.23-16.47-.7-32.92-.51-49.38-.83-.39-3.27.57-6.4,1.13-9.55,2.35-13.35,4-26.81,6.13-40.19,1.22-7.44,2.77-14.89,3.09-22.54a43.93,43.93,0,0,1,2.11-11.77c.63-1.94,1.41-3.94.56-6.1-.36-.93.18-1.86.41-2.8,1.77-7.52,3.75-15,4.52-22.7.89-8.85,2.75-17.56,3.37-26.45.27-3.91,1.48-7.78,2.52-11.6,1.56-5.72,3.24-11.39,2.43-17.43a7.65,7.65,0,0,1,.72-4.23,3.28,3.28,0,0,1,.33.9c.12,5.28.12,5.24,5.57,5.24,13.87,0,27.57-2,41.31-3.51q14.61-1.62,29.18-3.61c6.89-.95,13.83-.66,20.71-1.27,7.13-.63,14.13.42,21.17.91,7.4.51,14.45,3,21.67,4.45.27.56.76,1.13.76,1.69-.06,9,2.56,17.8,2.35,26.77-.11,5,1.07,9.76,1,14.71a79.9,79.9,0,0,0,1,14.82,59.84,59.84,0,0,1,.43,12.38,249,249,0,0,0,1,29c.48,6.32.6,12.64.62,19a161.64,161.64,0,0,0,2.35,26.17c1.31,7.83,3.16,15.6,3.41,23.62C945.61,439.53,947.24,442.36,947.2,445.45Z" transform="translate(-160.22 -6.89)"/><path class="cls-2" d="M801.72,809.71c22.88-4.53,46-7.63,68.63-13.64,9.67-2.57,19.08-5.83,27.56-11.4,6.19-4.07,9-9.76,9.58-16.94.69-8.21.32-16.43.78-24.62,1.06-18.75,4.89-36.7,16.32-52.24a87.32,87.32,0,0,1,31.68-27c2.5-1.24,3.79-2.72,3.68-5.44,1.64,1.68.38,3.69.5,5.51.81,12.08-.45,24.12-1,36.17-.29,6-1.52,12-1.9,18-.55,8.78-2.08,17.45-2.85,26.21-.85,9.7-2.62,19.31-3.91,29q-1.49,11.18-2.76,22.39c-.83,7.33-2.45,14.53-3.68,21.8-2.27,13.46-4.55,26.92-7.31,40.31-3.28,15.88-6.27,31.83-8.85,47.84-2.12,13.15-4.44,26.27-6.81,39.37-1.33,7.41-2.68,14.81-3.91,22.23a33.56,33.56,0,0,0-.21,5.31c0,1.91-.69,3-2.84,3q-17.67-.07-35.34,0c-1.93,0-2.8-1.2-3.81-2.51-1.88-2.43-3-5.31-4.71-7.83-3.89-5.57-8.33-10.65-12.69-15.82a29.27,29.27,0,0,1-5.13-8.67c-2.43-6.64-6.87-12.2-9.85-18.55a29.84,29.84,0,0,1-1.81-4.32c-.7-2.42-1.4-4.9-3.54-6.57L835.17,905a12.82,12.82,0,0,0-2.94-7,7.89,7.89,0,0,1-2.09-4.18,14.84,14.84,0,0,0-3.14-7.87,15.66,15.66,0,0,1-3.16-9.31c0-1.87-.14-3.52-1.94-4.56-2.63-1.53-1.52-4.51-1.83-6.54-.53-3.4-2-6.41-3.11-9.43-3-8.09-6-16.14-8.36-24.48-1.28-4.53-1.48-9.89-5.36-13.56a2.91,2.91,0,0,1-.64-2.74C803,813.31,802.27,811.54,801.72,809.71Z" transform="translate(-160.22 -6.89)"/><path class="cls-2" d="M1066.43,455.08c-7.39.76-14.79.35-22.16-.13-9.13-.6-18.24-1.61-27.35-2.59-10.22-1.09-20.42-2.36-30.64-3.52-4-.46-8-.85-12-1.27a141,141,0,0,1-3.67-21.35c-.5-4.81-1.79-9.45-2.26-14.27-1-10.71-2.36-21.4-3.79-32.07a440.8,440.8,0,0,1-3.32-45.65c-.48-16.2-1.09-32.43-2.63-48.59-.15-1.6-.46-3.2.19-4.77,1.82-.47,3,.85,4.35,1.61,11.45,6.52,21.8,14.64,32.55,22.18,3.65,2.56,7,5.58,11.28,7.18-.77,3.66-2.9,6.73-4.4,10.08a33.51,33.51,0,0,0-1.86,4.43c-2,7-.15,10.63,6.89,12.46,3.11.81,5.88-.75,8.26-2.83,3.7-3.22,7.51-6.26,12.29-7.79a6.42,6.42,0,0,1,1.38-.16c1-1.14,1.67.11,2.35.47,2.65,1.46,5.23,3,7.84,4.57,2,9.58,3,19.3,4.17,29a231.42,231.42,0,0,0,4.39,27.06c.74,3.1,1.11,6.28,1.78,9.39,3.44,15.88,8.7,31.17,14.52,46.32C1065.79,448,1067,451.47,1066.43,455.08Z" transform="translate(-160.22 -6.89)"/><path class="cls-3" d="M957.87,278.93c.51.3.8.69.51,1.3C957.72,280,957.65,279.52,957.87,278.93Z" transform="translate(-160.22 -6.89)"/><path class="cls-2" d="M397.5,436.65c4-13.91,7.58-27.93,12.64-41.51,1.63-4.36,3.43-8.67,5.08-13,1.53-4.07,3-8.16,2.65-12.65-.15-1.89.49-2.65,2.58-1.76a277.32,277.32,0,0,1,29.87,14.56,65.62,65.62,0,0,0,7.85,3.47c1.77.74,3,.31,3.8-1.65a11.43,11.43,0,0,0,1-6.51c-1.46-7.9-2.85-15.82-4.35-23.71a10.15,10.15,0,0,0-1.41-3.57c-3.38-5.11-5.77-10.78-9.2-15.87-2-2.93-3.41-6.22-7-8l8.49-10.77c2,4.58,5.34,7.57,8.59,10.64a45.46,45.46,0,0,1,8.19,10.12c2.6,4.48,5.9,8.43,9,12.52,1.13,1.5,2.4,3.28,4.67,2.81,2.61-.53,3.5-2.65,3.83-5a44,44,0,0,0-.89-16.82c-2.66-10.61-4.2-21.48-7.49-31.94-.05-.15-.08-.31-.13-.47-1.88-6.13-1.73-6.42,4.57-8.8a9.43,9.43,0,0,0,1.81-.63c9.65-6.28,20.69-9.46,31.14-13.94s21.24-8.35,32-12.2c17.45-6.23,35.11-11.79,52.66-17.69,2.7-.9,5.49-1.54,9.32-2.6-2.64,4.49-5.89,7.06-8.55,10.08-7.53,8.58-15.33,16.86-22.5,25.81-12.64,15.79-22.61,33.29-33.54,50.14-9.65,14.88-20.2,29.1-30,43.87-8.18,12.36-16.65,24.52-24.78,36.91a117.68,117.68,0,0,0-11.63,21.64,30.52,30.52,0,0,1-3.61,6.82c-13.81.05-27.62.16-41.43.12C419.65,437,408.58,436.8,397.5,436.65Z" transform="translate(-160.22 -6.89)"/><path class="cls-2" d="M553.67,434.92l-62.08,1.86c2.26-7.11,6.16-13.38,10-19.71,6.29-10.47,13.7-20.22,20.27-30.49,8.83-13.81,18.76-26.89,27.21-40.93,9.78-16.25,20-32.19,29.5-48.64a95,95,0,0,1,14.84-20l.42.45a22.53,22.53,0,0,1-2.07,7.39,105.72,105.72,0,0,0-6.36,20.19c-1.34,6.59-3.34,13.05-5.06,19.57a35.13,35.13,0,0,0-1.25,4.65c-1.66,14-6.11,27.24-10,40.66-3.6,12.51-6,25.28-8.58,38A205.68,205.68,0,0,1,553.67,434.92Z" transform="translate(-160.22 -6.89)"/><path class="cls-3" d="M593.36,277c.13-.34.16-1,.69-.61s.09.76-.27,1.06Z" transform="translate(-160.22 -6.89)"/><path class="cls-3" d="M446.53,359c.41.43,1,.91.27,1.44-.18.14-.76-.25-1.16-.39Z" transform="translate(-160.22 -6.89)"/></svg>